<?xml version="1.0" encoding="utf-8"?>
<!-- Generator: Adobe Illustrator 16.0.0, SVG Export Plug-In . SVG Version: 6.00 Build 0)  -->
<!DOCTYPE svg PUBLIC "-//W3C//DTD SVG 1.1//EN" "http://www.w3.org/Graphics/SVG/1.1/DTD/svg11.dtd">
<svg version="1.1" id="Layer_1" xmlns="http://www.w3.org/2000/svg" xmlns:xlink="http://www.w3.org/1999/xlink" x="0px" y="0px"
	 width="780px" height="120px" viewBox="210 340 780 120" enable-background="new 210 340 780 120" xml:space="preserve">
<g>
	<path fill="#5D2D7A" d="M308.66,356.199c25.75,0,34.5,15.25,34.5,31.75c0,24.125-15.625,33.75-38,33.75h-14.875v22.625H272.41
		v-88.125H308.66z M303.41,406.824c14.25,0,21-7.125,21-17.5c0-9.125-4.75-17.625-18.625-17.625h-15.5v35.125H303.41z"/>
	<path fill="#5D2D7A" d="M368.036,415.324c1.875,8.875,9,15.125,19.375,15.125c7.125,0,13.75-3.25,17.5-8.375l11.125,9.25
		c-6.25,8.5-17.375,14-30.625,14c-20.5,0-34.75-15.625-34.75-35c0-19.5,14.25-35.125,34.75-35.125c20.875,0,33,15.125,33,36.25
		c0,1.375-0.125,2.75-0.125,3.875H368.036z M368.161,404.199h33.625c-0.625-7.75-4.75-15.125-16.375-15.125
		C376.286,389.074,369.786,395.824,368.161,404.199z"/>
	<path fill="#5D2D7A" d="M448.284,385.949c4.625-6.375,11.75-10.625,21.375-10.75c1.25,0,2.875,0.25,4.25,0.75v18.875
		c0,0-4.75-1-8.375-1c-12.5,0-17.25,8.875-17.25,17.75v32.75h-17.5v-67.875h17.5V385.949z"/>
	<path fill="#5D2D7A" d="M525.782,364.574c-2-0.25-4.25-0.625-7.125-0.625c-10.25,0-11.625,4.375-11.625,11.5v1h18.25v14.375h-18.25
		v55.75c0,13.5-8.125,21.375-21.375,21.375c-3.875,0-7-0.5-9.25-1v-13.875c10.75,0,13.25-2,13.25-15.125v-47.125h-9.5v-14.375h9.5
		v-4.375c0-17,9.625-22.875,21.125-22.875c8.75,0,14.125,2.125,15,2.375V364.574z"/>
	<path fill="#5D2D7A" d="M603.907,410.324c0,19.375-16.625,35-37.125,35s-37.125-15.625-37.125-35
		c0-19.5,16.625-35.125,37.125-35.125S603.907,390.824,603.907,410.324z M586.782,410.324c0-10.75-8.875-19.5-20-19.5
		c-11,0-20,8.75-20,19.5c0,10.625,9,19.375,20,19.375C577.907,429.699,586.782,420.949,586.782,410.324z"/>
	<path fill="#5D2D7A" d="M633.905,385.949c4.625-6.375,11.75-10.625,21.375-10.75c1.25,0,2.875,0.25,4.25,0.75v18.875
		c0,0-4.75-1-8.375-1c-12.5,0-17.25,8.875-17.25,17.75v32.75h-17.5v-67.875h17.5V385.949z"/>
	<path fill="#5D2D7A" d="M778.904,406.449v37.875h-17.375v-37.875c0-10.5-5.25-15.625-14.75-15.625c-5.75,0-9.875,2-13.5,5.375
		c0.625,1.875,0.75,4.375,0.75,10.5v37.625h-17.375v-37.875c0-10.375-4.625-15.625-13.625-15.625c-6.125,0-11,2-14.625,5.375v48.125
		h-17.5v-67.875h17.5v4.25c4.875-3.5,11-5.5,17.625-5.5c10.5,0,17.875,2.625,22.5,8.625c5.75-5.375,13.25-8.625,21.25-8.625
		C769.779,375.199,778.904,384.449,778.904,406.449z"/>
	<path fill="#5D2D7A" d="M807.652,415.324c1.875,8.875,9,15.125,19.375,15.125c7.125,0,13.75-3.25,17.5-8.375l11.125,9.25
		c-6.25,8.5-17.375,14-30.625,14c-20.5,0-34.75-15.625-34.75-35c0-19.5,14.25-35.125,34.75-35.125c20.875,0,33,15.125,33,36.25
		c0,1.375-0.125,2.75-0.125,3.875H807.652z M807.777,404.199h33.625c-0.625-7.75-4.75-15.125-16.375-15.125
		C815.902,389.074,809.402,395.824,807.777,404.199z"/>
	<path fill="#5D2D7A" d="M887.901,385.949c4.625-6.375,11.75-10.625,21.375-10.75c1.25,0,2.875,0.25,4.25,0.75v18.875
		c0,0-4.75-1-8.375-1c-12.5,0-17.25,8.875-17.25,17.75v32.75h-17.5v-67.875h17.5V385.949z"/>
	<path fill="#5D2D7A" d="M927.65,425.949c8.375,3.625,14.75,5.5,23.25,5.5c8,0,11.125-3,11.125-6.5
		c0-3.875-3.875-5.625-14.375-7.875c-14.625-3.25-25.25-8-25.25-21.125c0-12.25,10.125-20.75,25.875-20.75
		c10.625,0,19.125,2.5,26.5,5.5l-5.75,12.75c-6.625-2.5-14.375-4.375-21.125-4.375c-6.625,0-10,2.375-10,6c0,3.75,4.125,5.5,15,7.75
		c15.75,3.25,24.875,8.75,24.875,21.125c0,12.875-9.875,21.375-27.25,21.375c-11.75,0-19.375-1.625-29.375-6.5L927.65,425.949z"/>
</g>
</svg>
