<?xml version="1.0" encoding="utf-8"?>
<!-- Generator: Adobe Illustrator 16.0.0, SVG Export Plug-In . SVG Version: 6.00 Build 0)  -->
<!DOCTYPE svg PUBLIC "-//W3C//DTD SVG 1.1//EN" "http://www.w3.org/Graphics/SVG/1.1/DTD/svg11.dtd">
<svg version="1.1" id="Layer_1" xmlns="http://www.w3.org/2000/svg" xmlns:xlink="http://www.w3.org/1999/xlink" x="0px" y="0px"
	 width="780px" height="120px" viewBox="210 340 780 120" enable-background="new 210 340 780 120" xml:space="preserve">
<g>
	<path fill="#5D2D7A" d="M729,374.875c14,1.875,23.75,13.875,23.75,27.75c0,14.625-9.25,27.875-26.625,27.875h-48.5v-88.125h38.75
		c10.5,0,19.125,8.625,19.125,19.5C735.5,366.875,733.125,372.375,729,374.875z M695,373.125h16.125c6,0,8.375-4,8.375-7.625
		c0-4.25-3.5-7.625-9.75-7.625H695V373.125z M716.375,415c12.375,0,17.5-6,17.5-14.25c0-7.125-5.25-14.375-17.375-14.375h-21.375
		V415H716.375z"/>
	<path fill="#5D2D7A" d="M765.124,336.25h17.5v94.25h-17.5V336.25z"/>
	<path fill="#5D2D7A" d="M869.499,396.5c0,19.375-16.625,35-37.125,35s-37.125-15.625-37.125-35c0-19.5,16.625-35.125,37.125-35.125
		S869.499,377,869.499,396.5z M852.374,396.5c0-10.75-8.875-19.5-20-19.5c-11,0-20,8.75-20,19.5c0,10.625,9,19.375,20,19.375
		C843.499,415.875,852.374,407.125,852.374,396.5z"/>
	<path fill="#5D2D7A" d="M950.372,362.625V417.5c0,17.5-9.75,36.625-35.5,36.625c-16.75,0-20-1.5-30.5-4.5l3.375-12.875
		c7.375,2,13.625,4,23,4c10.375,0,21-6.25,21.5-16.875c-5.5,3-12,4.75-19,4.75c-19,0-34.375-13.625-34.375-33.75
		c0-20.25,15.375-33.5,34.375-33.5c7.125,0,14.125,1.875,19.75,5.125v-3.875H950.372z M916.247,413c6.625,0,12.625-2,16.75-5.5v-25
		c-4.25-3.5-10.125-5.5-16.75-5.5c-11.625,0-20.25,7.75-20.25,18C895.997,405.75,904.622,413,916.247,413z"/>
</g>
</svg>
