<?xml version="1.0" encoding="utf-8"?>
<!-- Generator: Adobe Illustrator 16.0.0, SVG Export Plug-In . SVG Version: 6.00 Build 0)  -->
<!DOCTYPE svg PUBLIC "-//W3C//DTD SVG 1.1//EN" "http://www.w3.org/Graphics/SVG/1.1/DTD/svg11.dtd">
<svg version="1.1" id="Layer_1" xmlns="http://www.w3.org/2000/svg" xmlns:xlink="http://www.w3.org/1999/xlink" x="0px" y="0px"
	 width="1599.948px" height="871.951px" viewBox="0 0 1599.948 871.951" enable-background="new 0 0 1599.948 871.951"
	 xml:space="preserve">
<circle fill="#CC3333" cx="77.448" cy="2" r="29"/>
<circle fill="#CC3333" cx="166.699" cy="45.75" r="19.25"/>
<circle fill="#CC3333" cx="102.698" cy="138.75" r="22.25"/>
<circle fill="#CC3333" cx="147.448" cy="219" r="29"/>
<circle fill="#CC3333" cx="18.448" cy="125" r="29"/>
<circle fill="#CC3333" cx="145.448" cy="317" r="29"/>
<circle fill="#CC3333" cx="333.448" cy="29" r="29"/>
<circle fill="#CC3333" cx="295.448" cy="120" r="29"/>
<circle fill="#CC3333" cx="278.699" cy="44.749" r="13.251"/>
<circle fill="#CC3333" cx="646.448" cy="18" r="29"/>
<circle fill="#CC3333" cx="222.448" cy="82" r="29"/>
<circle fill="#CC3333" cx="-3.552" cy="337" r="29"/>
<circle fill="#CC3333" cx="4.448" cy="441" r="29"/>
<circle fill="#CC3333" cx="169.449" cy="140.999" r="14.001"/>
<circle fill="#CC3333" cx="232.448" cy="0" r="29"/>
<circle fill="#CC3333" cx="223.448" cy="182" r="29"/>
<circle fill="#CC3333" cx="65.448" cy="343" r="29"/>
<circle fill="#CC3333" cx="403.948" cy="54.5" r="24.5"/>
<circle fill="#CC3333" cx="28.448" cy="260" r="29"/>
<circle fill="#CC3333" cx="65.449" cy="394.999" r="19.251"/>
<circle fill="#CC3333" cx="51.449" cy="195.999" r="14.001"/>
<circle fill="#CC3333" cx="102.449" cy="261.999" r="14.001"/>
<circle fill="#CC3333" cx="24.449" cy="39.999" r="14.001"/>
<circle fill="#CC3333" cx="409.449" cy="6.999" r="14.001"/>
<circle fill="#CC3333" cx="224.448" cy="273" r="29"/>
<circle fill="#CC3333" cx="455.448" cy="115" r="29"/>
<circle fill="#CC3333" cx="384.449" cy="135.999" r="14.001"/>
<circle fill="#CC3333" cx="172.449" cy="269.999" r="14.001"/>
<circle fill="#CC3333" cx="292.449" cy="223.999" r="20.126"/>
<circle fill="#CC3333" cx="469.449" cy="34.999" r="14.001"/>
<circle fill="#CC3333" cx="282.449" cy="177.999" r="14.001"/>
<circle fill="#CC3333" cx="356.448" cy="182" r="29"/>
<circle fill="#CC3333" cx="163.448" cy="381" r="29"/>
<circle fill="#CC3333" cx="113.448" cy="428" r="21"/>
<circle fill="#CC3333" cx="61.448" cy="490" r="29"/>
<circle fill="#CC3333" cx="13.448" cy="566" r="29"/>
<circle fill="#CC3333" cx="355.449" cy="84.999" r="18.376"/>
<circle fill="#CC3333" cx="230.449" cy="338.999" r="14.001"/>
<circle fill="#CC3333" cx="120.448" cy="82" r="29"/>
<circle fill="#CC3333" cx="535.449" cy="0.999" r="14.001"/>
<circle fill="#CC3333" cx="537.448" cy="65" r="29"/>
<circle fill="#CC3333" cx="588.449" cy="23.999" r="14.001"/>
<circle fill="#CC3333" cx="21.449" cy="392.999" r="14.001"/>
<circle fill="#CC3333" cx="63.449" cy="88.999" r="14.001"/>
<circle fill="#CC3333" cx="100.7" cy="191.749" r="16.845"/>
<image overflow="visible" width="400" height="250" xlink:href="Untitled-1.png"  transform="matrix(1 0 0 1 72 594)">
</image>
</svg>
