<?xml version="1.0" encoding="utf-8"?>
<!-- Generator: Adobe Illustrator 19.2.1, SVG Export Plug-In . SVG Version: 6.00 Build 0)  -->
<svg version="1.1" id="Layer_1" xmlns="http://www.w3.org/2000/svg" xmlns:xlink="http://www.w3.org/1999/xlink" x="0px" y="0px"
	 viewBox="0 0 768 768" style="enable-background:new 0 0 768 768;" xml:space="preserve">
<style type="text/css">
	.st0{fill:#7B3A7A;}
	.st1{fill:#FFFFFF;}
</style>
<g>
	<g>
		<path id="_Path_" class="st0" d="M650.8,412.6C639,349.5,586,282.3,511,282.3c-2.3,0-4.6,0.1-6.9,0.2
			c-23.9-65-94.8-94.8-154.3-94.8c-47.9,0-94.1,18.3-129.1,51c-14.6,13.5-46.7,47.7-52.5,90.8c-7.1,2.4-14,5.5-20.6,9.2
			c-30.4,17.1-53.1,47.3-60.7,80.5c-6.8,30.1-1,60.4,16.5,85.3c18.1,25.5,47.4,40.6,78.7,40.5c13,0,25.8-2.6,37.7-7.8
			c3.2,26.9,16.5,51.7,37.9,68.4c18.3,14.2,40.8,22,64,22c23.6,0.1,46.5-8.4,64.3-24c1.6-1.4,3.2-3,4.8-4.6
			c19.4,22.6,48.7,35.1,83.7,35.1l0,0c30.9,0,64.1-9.7,90.9-26.6C630.6,566.8,664.9,488.4,650.8,412.6z"/>
	</g>
	<circle id="_Path_2" class="st0" cx="258" cy="657.8" r="6.6"/>
	<circle id="_Path_3" class="st0" cx="484.8" cy="187.7" r="12.9"/>
	<circle id="_Path_3-2" class="st0" cx="198.8" cy="605.7" r="12.9"/>
	<path class="st1" d="M208.6,392.4c0.2-0.4,0.2-0.9,0-1.3c-0.1-0.2-0.2-0.3-0.3-0.5l-0.2-0.3c0-0.5,0-0.9,0.2-1.4
		c1.6-5.5,5.6-8.7,12-9.6l9-1.3l7.4-1.1c1.7-0.2,3.5-0.4,5.3-0.5s3.7-0.1,5.6-0.1c3.9,0.1,7.8,0.1,11.7,0c0.6,0,1.2,0,1.8-0.1
		c0.6,0,1.2-0.1,1.8-0.3c1.5-0.2,3,0,4.3,0.5l4.7,3.9c0.6,0.7,0.7,1,0.3,0.9c-0.4-0.1,0.1,0.7,1.3,2.5l-0.9,0.7c0,0,0,0-0.1,0
		c0.2,1,0.4,1.4,0.6,1.2s0.1,0.3-0.3,1.4c-0.3,0.8-0.8,1.6-1.4,2.2c-0.7,0.7-1.3,1.3-1.9,1.8l-1.5,1.8h-1.6c-0.3,0-0.5,0-0.8,0
		c-0.6,0.1-1.1,0.3-1.5,0.7l-0.8,0.5c-0.1,0.1-0.1,0.1,0,0.1c0.2-0.1-0.1-0.1-0.7-0.2l-13.1-0.5l-1.7,23.3l-2.2,17.4
		c-1,7.4-2.4,12.8-4.3,16.1c-0.2,0.5-0.6,0.9-0.9,1.3c-0.5,0.6-0.8,0.8-0.7,0.5c0.1-0.1,0.1-0.2,0,0s-0.2,0.5-0.3,0.7
		c-1.4-0.1-2.7-1-3.3-2.4c-0.9-1.7-1.6-3.5-2.1-5.4c-0.5-2-0.9-4-1.2-6l-0.5-4.1l-1.1-41h-6.7c-2.2,0-4.3,0.1-6.4,0.4l-0.6,0.1
		l-0.4,0.1h-0.3h-0.4c-2.4,0.3-4.1,0-5.1-0.8l-1.4-1.1c-0.4-0.2-0.6-0.3-0.4-0.3C209.7,392.1,209.3,392.2,208.6,392.4z M269.3,390.2
		L269.3,390.2L269.3,390.2z"/>
	<path class="st1" d="M279.8,394.5c-0.5,0.2-0.6,0.4-0.4,0.6s-0.2,0.2-1.4,0l-0.5-0.1h-0.8c0.1-1.3,0.2-1.7,0.2-1.3
		c0.1,0.4-0.4,0.3-1.5-0.4c0-0.6,0-1.3-0.1-1.9s-0.1-1.3,0-1.9c0.5-3.7,2.2-7.1,5-9.5c0.5-0.5,1-0.9,1.6-1.3s1.3-0.9,2.1-1.3
		c1.3-0.8,2.7-1.4,4.3-1.5h0.3c0.1,0,0.2,0,0.3,0l0.4,0.2c0.1-0.3,0.2-0.5,0.3-0.5c0,0.1-0.1,0.3-0.2,0.4c-0.2,0.6-0.2,0.5-0.1-0.4
		c0-0.3-0.1-0.5-0.3-0.5s0,0,0.2,0h1.2l0.7,1c0-0.1,0-0.1,0-0.2s0-0.1,0-0.2l0.1-0.3c0.1-0.4,0.7-0.4,1.9,0.2
		c0.2,0.3,0.5,0.5,0.9,0.7c0.3,0.2,0.6,0.4,0.9,0.6c1.2,1.2,2.1,2.6,2.7,4.1c0.8,1.5,1.1,3.1,1.1,4.8c0,0.1,0,0.3-0.1,0.4l-0.1,0.2
		l-0.1,0.1c0,0.1-0.1,0.2-0.1,0.3l-1.7,3.2c-0.8,1-1.8,1.9-3,2.5l-7.9,2.9l-1,0.4c-0.2,0.1-0.2,0.1-0.1,0c0.3-0.1-0.3-0.2-1.7-0.2
		c-0.4,0-0.8,0-1.2,0.2c-0.7,0.1-1.5,0.2-2.2,0.1l0.1-0.7C279.6,395.2,279.7,394.9,279.8,394.5z M282.5,401.9c0.8,0,1.1,0.1,0.9,0.2
		c-0.1,0.1,0.1,0.1,0.7,0c0.7-0.1,1-0.2,0.7-0.3s-0.1-0.2,0.7-0.2c0.8,0,1.3,0,1.7,0c0.3,0,0.4,0,0.3,0.1c-0.2,0-0.1,0.1,0.4,0.3
		l1.3,0.5c0.4,0.2,0.7,0.4,0.9,0.7l1.4,2.3c0,0.1,0.1,0.2,0.1,0.2c0,0.1,0.1,0.2,0.1,0.2c0.7,1.5,0.8,2,0.3,1.4
		c-0.6-0.6-0.5-0.2,0.2,1c0.4,0.7,0.8,1.5,1,2.3c0,0.8,0,1.7-0.1,2.5l-0.9,3.6c-1.5,4.5-2.3,9.2-2.5,13.9c-0.1,2.8-0.3,5.2-0.6,7.4
		s-0.5,4-0.9,5.5c-0.3,1.1-0.5,2.2-0.7,3.3c0.1-0.2,0.1-0.1,0,0.3s-0.1,1-0.2,2c0,1.6-1.4,3-3,3c-0.2-0.8-0.6-1.5-1.2-2.1
		c-0.6-0.7-1-1.5-1.1-2.4c-0.2-0.4-0.2-0.9-0.2-1.4s-0.1-1-0.3-1.4c-0.3-0.9-0.6-1.7-0.8-2.6c-0.2-1.4-0.5-3.1-0.7-5.1
		s-0.5-4.3-0.7-6.9s-0.4-4.9-0.5-6.9s-0.2-3.8-0.3-5.2c-0.1-2.4-0.5-3.5-1.3-3.3c-0.7,0.2-1.1-1.3-1-4.3c0-0.7-0.1-1.4-0.3-2.1
		c-0.2-1.4,0.4-2.8,1.6-3.7c0.6-0.5,0.8-0.6,0.7-0.4c-0.1,0.2,0.1,0.1,0.7-0.3c0.5-0.4,1-0.8,1.6-1.2
		C281.3,402.4,281.9,402.1,282.5,401.9L282.5,401.9z M286.2,402.3L286.2,402.3C286.3,402.3,286.3,402.3,286.2,402.3L286.2,402.3
		L286.2,402.3z M292.4,409.8c0-0.1,0-0.2-0.1-0.1L292.4,409.8z M298.4,383.7c0-0.5,0-0.6,0.1-0.3v0.1
		C298.5,383.5,298.5,383.6,298.4,383.7C298.5,383.6,298.5,383.6,298.4,383.7c0.3,0,0.3,0.1,0.1,0.4S298.3,384.2,298.4,383.7
		L298.4,383.7z"/>
	<path class="st1" d="M338.1,436.3c0.4,0.1,0.7,0.4,1,0.7c0.3,0.2,0.6,0.5,0.9,0.9c0.4,1,0.2,2.5-0.7,4.3c-0.4,0.8-0.8,1.7-1.3,2.5
		c-0.4,0.7-0.9,1.3-1.3,1.9c-1.5,1.8-3.3,3.3-5.4,4.5c-0.8,0.4-1.7,0.7-2.5,0.8c-0.9,0.2-1.8,0.4-2.6,0.8c-1.9,0.6-3.8,0.8-5.7,0.8
		c-1.9,0-3.7-0.3-5.5-0.9l-1.2-0.6c-0.7-0.4-1.3-0.7-1.9-1l-1.5-0.9c-0.5-0.3-1-0.6-1.4-1c-0.6-0.5-1.1-0.9-1.6-1.5l-1.2-1.2
		c-0.8-0.9-1.3-1.4-1.4-1.6l-3.6-4.9c0.1,0.1,0,0-0.1-0.2l-0.5-0.9c-0.4-0.9-0.8-1.6-1.1-2.1l-0.6-1.2l-1.4-3.5
		c-1-2.8-1.5-5.8-1.6-8.7c-0.3-2.9,0.1-5.8,1.3-8.5l1.2-2.2c0.4-0.7,0.8-1.3,1.3-1.9c0.6-0.7,1.1-1.3,1.5-1.8l1.5-1.8
		c0.4-0.5,1-1.1,1.7-1.8l3.4-3c0.6-0.5,1.1-0.9,1.8-1.3c0.8-0.5,1.9-1.1,3.3-1.8c1.3-0.7,2.5-1.3,3.5-1.7c0.8-0.4,1.6-0.7,2.4-0.9
		l3.4-0.9l3.1-0.5c1-0.2,2.1-0.2,3.1-0.2c0.8,0.2,1.5,0.3,2.1,0.4s1.2,0.2,1.7,0.3c0.6,0.1,1.1,0.2,1.6,0.4c0.6,0.2,1.2,0.5,1.8,0.8
		c1.5,0.7,2.8,1.7,3.9,2.9c1.5,1.8,2.8,3.8,3.8,5.9c1,2.2,0.8,4.6-0.4,7.4c-0.2,0.4-0.4,0.7-0.7,1.1c-0.3,0.5-0.8,1.1-1.4,1.8
		c-1.1,1.4-1.9,2.2-2.2,2.2l-0.6,0.1c-0.1,0,0,0,0.2-0.1c0.4-0.1,0.4-0.1,0-0.1s-0.7,0.3-0.9,0.7H336l-0.3-0.7
		c-0.3-0.1-0.6-0.2-0.9-0.2c-0.6-0.1-1.2-0.1-1.8,0.1c-0.4,0.2-0.9-0.1-1.6-0.8l-1.4-1.6c-0.1,0-0.2,0-0.2-0.1
		c-0.1-0.1-0.1-0.1-0.2-0.1l-2.1-2.4c-0.1-0.2-0.2-0.4-0.1-0.6c0-0.2-0.3-0.3-0.8-0.3c-1.3,0-2.5,0-3.8,0.1
		c-1.2,0.2-2.3,0.6-3.5,1.1c-0.5,0.3-0.9,0.5-1.2,0.6c-0.3,0.2-0.7,0.3-1,0.6c-4.5,3.1-7.1,5.7-7.9,7.7s-0.1,5.3,2.2,10
		c0.5,1,1,2,1.7,2.9c0.6,0.9,1.2,1.8,1.9,2.6c1.1,1.4,2.6,2.5,4.3,3.1c1.7,0.6,4.2,0.6,7.4-0.1c2.5-0.5,5-1.3,7.4-2.4
		c1.2-0.6,1.8-1,1.8-1.3c0.3-0.4,0.7-0.7,1.3-0.8C337.4,436.3,337.7,436.3,338.1,436.3z"/>
	<path class="st1" d="M352.2,368.6c0.3-0.3,0.7-0.4,1.1-0.4c0.4-0.1,0.8-0.1,1.1,0l0.1,0.3c0.1,0.1,0.1,0.4,0.2,0.6
		c0.4-0.2,0.7-0.4,0.9-0.5c0.2-0.1,0.4-0.2,0.5-0.2c0.7,0.1,1.3,0.4,1.8,0.8c0.8,0.6,1.5,1.2,2.1,2l1.8,2.2c0.5,0.7,0.7,1,0.5,0.9
		c-0.1-0.1-0.2,0.2-0.2,0.9c0,0.7,0.2,1.4,0.6,2c0.4,0.5,0.6,1.1,0.6,1.8c0,1.3-0.1,2.7-0.3,4c-0.2,1.2-0.4,2.6-0.5,4l-1.3,18.6
		c1.1-0.6,2-1.4,2.8-2.4l2.7-2.9l0.8-0.9l4.3-4.1v-0.1l0.1-0.1c0.6-0.6,1.1-1.1,1.8-1.5c0.7-0.5,1.3-1,1.9-1.5l3.9-3.2
		c0.9-0.9,2.6-2.7,5.2-5.5s4.6-3.9,5.9-3.3l-0.4-1.3c1.8-0.1,3.6,0.2,5.3,0.9c1.4,0.8,2.5,1.9,3.3,3.3c2.9,4.3,2.7,8.2-0.7,11.5
		l-0.5,0.5c-0.1,0.1-0.3,0.3-0.3,0.4c-0.3,0.5-0.8,0.9-1.3,1.1c-0.5,0.1-1,0.3-1.5,0.5c-1.1,0.4-2.1,1-3.1,1.7
		c-1.1,0.8-2.1,1.6-3.1,2.5l-7.4,6.1l-0.2,0.1c-0.8,0.7-1.5,1.3-2.1,1.8s-1.2,0.9-1.7,1.3c-1,0.7-1.1,1.6-0.2,2.7
		c2.1,2.9,3.9,5.9,5.4,9.2c1.1,2.6,2.6,5.8,4.6,9.5c0.7,1.3,1.3,2.6,2,3.8s1.4,2.5,2.1,3.7c1.5,2.5,2.6,5.2,3.3,8
		c0.4,1.8,0.5,2.8,0.2,3.1c-0.3,0.8-0.5,1.6-0.5,2.5h-1.3c-1.1,0-2.6-0.9-4.5-2.8c-0.9-1-1.7-1.8-2.4-2.5c-0.6-0.7-1.1-1.3-1.5-1.8
		c-0.3-0.4-0.6-0.7-1-1s-0.7-0.7-1-1s-0.6-0.7-0.8-1c-0.2-0.4-0.5-0.8-0.7-1.1l-2.5-3.3c-0.3-0.3-0.5-0.6-0.8-0.9
		c-1.8-2.1-3.3-4.3-4.7-6.7c-1.4-2.4-3.2-4.5-5.2-6.3c-0.7-0.6-1.4-1.2-2.1-1.7s-1.6-0.9-2.5-1.1c-0.3,1-0.6,1.4-1.1,1.3
		s-0.7,0.4-0.8,1.5c0,0.4,0,1.1,0,2s0,1.8,0.1,2.4c0,2.2-0.1,5-0.3,8.4c-0.1,2.7-0.4,5.3-0.9,7.9l-1.3,5.3c0,0.1,0,0.2-0.1,0.2
		l-0.1,0.1v0.1l-0.5,1.1c-0.9,0.1-1.7-0.3-2.2-1.1c-0.2-0.2-0.3-0.4-0.4-0.6c-0.4-0.7-0.7-1.5-0.9-2.3c-0.2-0.8-0.4-1.6-0.6-2.5
		c0-0.2-0.1-0.4-0.3-0.6c-0.1-0.3-0.2-0.5-0.3-0.8c-0.5-1.4-0.8-2.8-1-4.2c-0.2-1.4-0.5-2.9-0.8-4.6l-0.7-3.2
		c-0.3-1.1-0.4-2.3-0.5-3.5l-0.6-0.3c-0.1,0-0.2-0.1-0.3-0.1c-0.1,0-0.2-0.1-0.3-0.1l-1.4-0.3c-0.8-0.2-1.3-1-1.3-1.8
		c-0.1-1.7,0.3-3.4,1.1-4.8c0.7-1,1.1-2.2,1-3.4l-1.8-22.5c0-0.5,0-0.9,0-1.3s0-0.7-0.1-1l-0.1-1c0-0.3,0-0.7,0-1.1l-1.9-13.9
		c0.1-1.4,0.8-2.7,1.8-3.7c0.5-0.5,1-1,1.5-1.5s1-1,1.5-1.5l0.1-0.2l0.5-0.8c0.8,0.3,1,0.5,0.7,0.4s-0.1,0,0.7,0.3L352.2,368.6z"/>
	<path class="st1" d="M416.8,452.8c-3.3,0-6.6-1.3-9.8-4c-2.9-2.3-5.3-5.3-6.9-8.6c-1-2-1.8-2.9-2.6-2.7s-1.3-0.2-1.5-1.2v-0.7
		c0.2-1.7,0.5-2.5,0.9-2.4c0.4,0.2,0.5-0.5,0.2-2.1l-0.4-7.3c0-1.3,0.2-2.5,0.6-3.8c0.2-0.7,0.4-1.4,0.6-2.1
		c0.2-0.6,0.3-1.2,0.5-1.7c1.2-3.6,3-6.8,5.5-9.6c1.3-1.5,2.6-2.9,3.9-4.2c1.3-1.3,2.7-2.5,4.1-3.6l1.8-1.2c0.7-0.5,1.6-1,2.5-1.6
		c0.9-0.5,1.8-0.9,2.8-1.2c1.3-0.3,2.7-0.6,4-0.8c1.4-0.2,2.9-0.4,4.4-0.5c2.8-0.3,5.6,0.5,7.8,2.1l1.9,1.4c2.3,1.9,3.9,4.7,4.4,7.7
		c0.6,3,0.5,6.1-0.4,9c-0.7,2.4-1.9,4.6-3.7,6.5c-0.3,0.3-0.6,0.6-0.9,0.9c-0.2,0.2-0.4,0.5-0.6,0.7c-1.4,1.8-3.2,3.4-5.1,4.6
		l-5.9,3.6l-6.4,3.4c-0.6,0.4-1.7,0.9-3.4,1.8c-1,0.5-2.1,0.9-3.2,1.2c0.6,2.5,2.5,4.4,4.8,5.3c4,1.9,8.8,1.6,12.4-1
		c4.1-2.7,6.5-5.1,7.1-7.3c0.4,0,0.8,0,1.2,0c0.2,0.2,0.4,0.4,0.5,0.7c0.5,0.8,0.5,2.6,0,5.3c-0.4,2.7-1.6,5.1-3.6,7
		c-1.3,1.3-2.9,2.4-4.5,3.2c-1.6,0.9-3.3,1.6-5.1,2.1c-0.5,0.1-1.1,0.3-1.8,0.4l-2.1,0.4c-0.8,0.1-1.5,0.3-2.2,0.3
		C418,452.8,417.4,452.8,416.8,452.8z M424.5,415.7c-0.1-0.3,0-0.6,0.1-0.9c0.2-0.1,0.5-0.2,0.6-0.5l3.1-2.7
		c0.6-0.5,0.9-2.2,0.9-5.1c-1.7-0.4-3.5-0.4-5.1,0.2l-3,1.4c-0.3,0.2-0.7,0.5-1.2,0.8s-1,0.7-1.6,1.2c-0.3,0.2-0.5,0.4-0.7,0.6
		l-3.8,4c-2.1,2.5-3.3,4.2-3.5,5.2c-0.1,0.4-0.3,0.9-0.5,1.5s-0.5,1.2-0.8,2c1.1-0.2,2.1-0.5,3-1.1l1.8-0.9l1.5-0.8
		c0.4-0.2,1.1-0.6,1.9-1c0.8-0.5,1.8-1,2.9-1.7C421.4,417,422.9,416.2,424.5,415.7z"/>
	<path class="st1" d="M458.9,382.8c0-0.7,0-0.9-0.1-0.6c-0.1,0.2-0.1-0.1-0.1-1V377c-0.1-1-0.1-1.8-0.1-2.5s0-1.2,0-1.6
		c0.3-1.2,0.9-2.2,1.8-3l2.5-2.9c0.3-0.4,0.6-0.6,1-0.9c0.2-0.1,0.5-0.2,0.7-0.2c0.1,0,0,0.1-0.2,0.2s-0.3,0.2-0.2,0.2
		c0.3-0.1,0.5-0.2,0.8-0.3c0.2,0,0.3-0.1,0.5-0.1h-0.1c-0.2,0.1-0.2,0,0.2-0.2c0.3-0.2,0.3-0.3,0.2-0.2s0-0.1,0.4-0.3l0.5-0.3
		c0.1-0.1,0.1-0.1,0,0c0.3,0,0.6,0,0.9-0.1l0.7,1c0.1-0.3,0.4-0.6,0.7-0.7c0.3-0.1,0.6-0.2,0.9-0.1c0.8,0.1,1.6,0.5,2.1,1.2
		c0.2,0.3,0.4,0.7,0.7,0.9c0.2,0.2,0.4,0.3,0.7,0.3c0.5,0.2,0.9,0.6,1.1,1.1l1.6,2.2c0.2,0.3,0.3,0.6,0.4,0.9s0.1,0.5,0.2,0.8
		c0,0.3,0.1,0.5,0.1,0.8c0.1,0.3,0.2,0.7,0.3,1c0.4,1.4,0.6,2.8,0.4,4.3c-0.1,0.8-0.1,1.6-0.1,2.4s0,1.6,0,2.4c0,0.7-0.1,1.3-0.2,2
		c-0.1,0.8-0.2,1.5-0.3,2.3c-0.1,0.4-0.1,0.8-0.1,1.2l-0.1,1.1c0,0.4,0,0.7-0.1,1.1c0,0.4,0,0.9,0,1.4l4.8-0.5
		c1.7,0,3.4,0.4,4.9,1.2c0.1,0,0.2,0.1,0.2,0.1c0.6,0.4,1.1,0.9,1.6,1.5c0.4,0.6,1,1,1.6,1.4c0.1,0.1,0.1,0.1,0.2,0.1l0.8,0.5
		c-0.2,0.6-0.4,1.1-0.7,1.7l0.7,0.1h0.3c0.1,0.3,0.2,0.6,0.3,0.9c-0.2,0.2-0.4,0.5-0.5,0.8c-0.4,0-0.8,0-1.2,0l0.7,1
		c-0.1,0.4-0.1,0.7,0,1.1c0.1-0.1-0.3-0.2-1-0.4c0.1,0.2,0.2,0.4,0.3,0.6l0.3,0.4c0.1,0.1,0.2,0.3,0.3,0.4c0.1,0.2,0.2,0.4,0.4,0.6
		l-0.5,0.8c-0.1,0.2-0.3,0.3-0.5,0.5c-0.8,0.6-1.3,0.9-1.6,0.7s-0.4,0.1-0.5,0.8c-0.2,1.5-1.3,2.3-3.3,2.3c-0.6,0.1-1.3,0-1.9-0.1
		c-0.2-0.1-0.4,0.3-0.4,1.1c-1.9,0.1-3.7-0.1-5.5-0.6c-0.5-0.2-1.1-0.3-1.6-0.6c-0.5-0.2-1-0.2-1.5-0.1c-0.4,0.1-0.4,0,0-0.2
		c0.2-0.1,0.3-0.1,0.2-0.1c-0.2,0.1-0.4,0.3-0.5,0.4c-0.5,0.3-0.6,0.4-0.5,0.2s0.1,0.1-0.1,0.8l-1.8,8c-0.2,2.2-0.3,3.6-0.4,4.3
		s-0.1,2.4-0.1,5l0.1,4.6c-0.1,1.2,0,2.5,0.1,3.7c0.1,1.1,0.3,2.1,0.5,3.2c0.5,1.8,0.8,3.6,1,5.4c0.9,0.2,1.9,0.4,2.8,0.5
		c0.7,0.1,1.4,0.1,2.1,0c1.2-0.1,1.2,1.3-0.2,4.2c-1.3,2.6-3,4-5.3,4.2c-2.1,0.3-4.2-0.2-5.9-1.4c-0.2-0.2-0.4-0.3-0.6-0.5
		s-0.4-0.4-0.6-0.6c-0.1,0-0.2,0-0.2-0.1l-2-2.7c-0.9-1.5-1.7-3.1-2.3-4.8c-0.6-1.7-1.1-3.3-1.5-5.1c-0.1-0.2-0.2-0.4-0.2-0.6
		c-0.5-1.8-0.9-3.7-1.1-5.5c-0.3-2-0.5-4-0.5-6.1c0-1.1,0-2.4-0.1-3.9s-0.2-3-0.5-4.8c-0.4-3.4,0-6.2,0.9-8.2c-1.3,0-2.6,0-3.7-0.1
		s-2.1-0.1-3.1-0.3c-2.1-0.3-4.1-1-6-2c0-0.1-0.1-0.1-0.2-0.1l-1.1-1.1c-0.1-0.1-0.1-0.2-0.2-0.3c-0.1-0.1-0.2-0.2-0.2-0.3
		c0.6-1.8,1.9-3.3,3.6-4.1c2-1.2,3.7-2.1,5.2-2.8l1-0.4c0.3-0.1,0.6-0.3,0.8-0.4c0.6-0.3,1.1-0.5,1.7-0.7c2.5-0.8,3.9-1.5,4.1-2
		s0.3-3.6,0.5-9.2c0-0.7,0-1,0.1-0.9S458.9,383.6,458.9,382.8z M473.5,369.4c0-0.1,0-0.1-0.1-0.1L473.5,369.4z"/>
	<path class="st1" d="M490.2,410.7L490.2,410.7v-0.4c0-0.2,0-0.3,0-0.5c0.4-3.2,1.5-5.6,3.1-7.1c0.8-0.8,1.6-1.5,2.5-2.2
		c0.8-0.7,1.7-1.4,2.5-2.1c3.1-2.2,6.6-3.6,10.4-4c3.7-0.7,7.6-0.6,11.2,0.3c4.1,1.1,7.7,3.5,10.3,6.9c1.6,2,2.7,4.4,3.2,7
		c0.2,2-0.4,4.5-2,7.5l-0.8,1.6c-0.1,0.2-0.2,0.5-0.3,0.7c0,0.3-0.1,0.5-0.3,0.7c-0.2,0.5-0.6,1-1.1,1.3c-0.4,0.2-0.7,0.5-0.8,0.9
		c-0.7-0.5-0.9-0.7-0.7-0.7s-0.1,0-0.7-0.1c-0.7,0-1,0-0.9,0.1c-0.1-0.4-0.3-0.8-0.5-1.1l-1-1.3c-0.3-0.4-0.4-0.6-0.3-0.7
		c0.2-0.4,0.2-0.9,0.2-1.3c-1.5-0.2-2.9-1.2-3.5-2.6c-0.3-0.5-0.5-1-0.7-1.5c-0.6-0.3-1.2-0.7-1.8-0.9c-0.4-0.1-0.7-0.4-1-0.7
		c-0.4-0.4-0.9-0.6-1.5-0.7c-1.5-0.3-3-0.4-4.4-0.1c-1.6,0.1-3.1,0.5-4.6,1.2l-0.3,0.1c-0.2,0.1-0.3,0.2-0.5,0.3l-0.3,0.1l-0.2,0.1
		c-0.1,0-0.1,0-0.2,0l-0.8,0.6c-0.2,0.1-0.1,0.8,0.3,1.9c0.3,0.9,1,1.7,1.8,2.3l1.4,0.9c0.4,0.3,0.9,0.5,1.3,0.8
		c0.3,0.2,0.6,0.4,0.9,0.5l1.1,0.5c0.8,0.4,1.6,0.7,2.2,1c0.7,0.3,1.5,0.7,2.4,1l8.7,4.5c2,1.3,3.7,2.8,5.2,4.6
		c3,3.6,3.9,7.5,2.6,11.5c-1.2,4-4.2,7.3-8.1,8.9l-1.3,0.5l-2.1,0.7c-0.2,0-0.3,0.1-0.5,0.1c0,0,0,0.1,0.2,0.1s0.2,0,0.1,0h-0.7
		c-3.6,0.1-7.2-0.2-10.8-0.8c-2.7-0.5-5.8-2.1-9.3-4.8c-0.5-0.4-1-0.8-1.4-1.3c-0.5-0.6-0.9-1.2-1.3-1.8l-1.8-3.5
		c-0.2-0.4-0.4-0.9-0.6-1.4s-0.4-1-0.6-1.5s-0.3-1-0.4-1.5s-0.1-1.1,0-1.6v-0.1l0,0l0,0l0.1-0.5l0.1-0.3c0-0.1,0-0.2,0.1-0.3
		l0.1-0.2c0-0.1,0-0.1,0-0.2v-0.5c1.4,0,2.7,0.5,3.8,1.3l2,2c2.4,3.1,5.7,5.3,9.5,6.3c4.2,1.3,7.5,1.4,9.9,0.4c1.5-0.7,1.9-1.7,1-3
		l-0.2-0.2c-0.1-0.1-0.1-0.1-0.1-0.2c-1.1-1.4-2.6-2.5-4.2-3.2l-2.5-1.2c-0.8-0.4-1.6-0.7-2.3-1.1c-0.1-0.1-0.3-0.1-0.4-0.2h-0.2
		h-0.2c-0.1,0-0.3-0.1-0.4-0.2l-5.3-2.1l-2.6-1.1c-0.8-0.4-1.7-0.8-2.4-1.3c-0.7-0.5-1.5-1-2.2-1.5l-3.9-3.5c-1.1-1.4-2.1-3-2.7-4.8
		c-0.3-0.7-0.4-1.5-0.5-2.3s-0.2-1.5-0.3-2.4L490.2,410.7z"/>
</g>
</svg>
