<?xml version="1.0" encoding="utf-8"?>
<!-- Generator: Adobe Illustrator 19.2.1, SVG Export Plug-In . SVG Version: 6.00 Build 0)  -->
<svg version="1.1" id="Layer_1" xmlns="http://www.w3.org/2000/svg" xmlns:xlink="http://www.w3.org/1999/xlink" x="0px" y="0px"
	 viewBox="0 0 768 768" style="enable-background:new 0 0 768 768;" xml:space="preserve">
<style type="text/css">
	.st0{fill:#7F467A;}
	.st1{fill:#FFFFFF;}
	.st2{enable-background:new    ;}
</style>
<circle id="XMLID_101_" class="st0" cx="643.9" cy="536.3" r="12.5"/>
<circle id="XMLID_95_" class="st0" cx="151.2" cy="583" r="32.8"/>
<circle id="XMLID_93_" class="st0" cx="547" cy="568.2" r="25.5"/>
<g id="XMLID_29_">
	<g id="XMLID_59_">
		<path id="XMLID_63_" class="st0" d="M690.5,317.2c-19.9-33-59.5-56.1-96.2-56.1c-6.1,0-12.2,0.6-17.9,1.9
			c1.7-47.1-20.7-94.7-60.4-122.2c-22.9-15.8-51.9-24.6-81.7-24.6c-34.6,0-67.5,11.2-92.6,31.3c-10.9-7.2-23.3-12.8-36.6-16.5
			c-13.6-3.8-27.8-5.6-42.4-5.6c-71.8,0-136.9,44.4-158.2,107.9c-15.1,45-7.1,94.5,20.9,129.3c19.3,24,47.3,40.1,77.3,45
			c-16.7,36.8-13.7,79.8,10.4,109.9c15.4,19.2,39.4,30.7,64,30.7c13.6,0,26.5-3.5,37.7-9.9c20.6,33.9,56.3,55.3,94.6,55.3
			c4.7,0,9.5-0.3,14.2-1c37.8-5.1,68.6-31.3,80.6-65.6c9.1,4.2,19,6.5,29,6.5c9.9,0,19.6-2.2,28.8-6.4
			c22.3-10.2,37.2-31.8,40.3-55.3c4.4,0.6,8.9,1,13.5,1l0,0c16.4,0,31.8-4.1,44.6-11.9C707.8,432.2,721.1,367.7,690.5,317.2z"/>
	</g>
</g>
<g>
	<path class="st1" d="M202.5,352.2c-0.2-0.6-0.6-1.4-1.1-2.2s-1-1.5-1.4-2.1c-1.4-2-3.3-3.6-5.8-4.7c-1.2-0.6-2.3-1.1-3.3-1.6
		s-1.9-1-2.7-1.5c-1.7-1-3.4-2-5.1-3s-3.5-1.9-5.3-2.8s-3.4-1.9-5-3s-3.1-2.4-4.5-3.8c-0.4-0.4-0.7-0.6-1-0.9
		c-0.3-0.2-0.6-0.5-0.9-0.8c-2.9-2.5-4.7-5.7-5.5-9.5c-0.8-3.9-1-7.7-0.6-11.3c0-0.6,0.1-1,0.3-1.5l0.2-0.6l0.6-1.2
		c0-0.1,0-0.2,0.1-0.3c0.9-2.2,2-4.1,3.2-5.7s2.6-3.3,4.3-5.1l1-1.2c1.3-1.4,3-2.8,4.8-4.1c2-1.4,3.8-2.4,5.5-3l4.4-1.8
		c1-0.4,2.1-0.7,3.2-0.9c1.2-0.2,2.4-0.4,3.6-0.5c1.2-0.1,2.4-0.2,3.6-0.2c1.2,0,2.3,0,3.3,0.1s2.2,0.3,3.5,0.6
		c1.3,0.3,2.7,0.6,4.3,1.1c3.2,0.8,5.6,2,7,3.6c1.1,1.2,2.1,2.5,2.9,3.8c0.8,1.3,1.6,2.7,2.3,4.2c1.3,2.9,1.5,6,0.5,9.5
		c-0.4,1.3-0.6,2.3-0.6,3c0.1,0.6-0.5,0.9-1.7,1c0,1.8-0.3,3.2-0.8,4.4c-0.6,1.2-1.1,1.7-1.5,1.5s-0.8,0.2-1.2,1.1
		c-0.2-0.2-0.2-0.2-0.2-0.2c-0.6-0.6-1.4-0.8-2.5-0.7c-0.4-1.7-0.8-2.4-1.1-2.2c-0.3,0.1-0.6-0.4-0.8-1.4s-0.3-1.6-0.1-1.7
		c0.2-0.2-0.5-0.7-2.2-1.5c-1.4-0.6-2.1-0.9-2.2-0.9c-0.2,0-0.6-0.5-1.5-1.6c-1-1.3-2.2-1.7-3.8-1.1c-0.4,0.2-0.8,0.3-1.3,0.4
		c-0.5,0-1.1,0.1-1.8,0.1s-1.4,0-2.2,0.1c-0.8,0-1.6,0.2-2.4,0.4l-1,0.3c-0.1,0-0.3,0.2-0.8,0.5l-1.8,1.4l-1.7,1.5l-3,3.3
		c1.1,1.7,2.6,3.1,4.7,4.2c1,0.6,2,1.1,2.9,1.5c0.9,0.5,1.7,0.9,2.3,1.3c3.2,1.8,6.1,3.5,8.7,5c2.6,1.5,4.8,2.9,6.8,4.1
		c3.9,2.5,7.6,7.4,11,14.8l1.4,3.1c1.1,2.4,1.5,5.1,1.4,8.3c-0.1,1.6-0.3,3-0.7,4.3s-0.9,2.5-1.5,3.6s-1.3,2.2-2.2,3.2
		s-1.8,2-2.9,3.1c-1.1,1.1-2.4,1.9-3.8,2.5c-1.4,0.6-2.9,1.2-4.3,1.8c-1.8,0.7-4.3,1.2-7.5,1.7c-1.6,0.2-3,0.3-4.2,0.4
		s-2.4,0.1-3.3,0c-1.5-0.1-2.8-0.2-4-0.4c-1.2-0.1-2.3-0.3-3.2-0.4c-1.9-0.3-4.1-1.1-6.9-2.5c-1.1-0.5-1.9-0.9-2.3-1.3
		c-0.1,0-0.2-0.1-0.2-0.2l-5.2-5.6c-0.9-1.5-2.1-4.2-3.5-8.2c-1.5-4.1-1.1-6.1,0.9-6.1c1.2,0,3.2,1.3,5.9,4
		c2.8,2.6,6.6,4.4,11.5,5.4c2.5,0.5,5.7,0.4,9.6-0.4C198.3,356,201,354.5,202.5,352.2z"/>
	<path class="st1" d="M224.9,322.6c0-1.2-0.2-4.1-0.7-8.8c-0.5-4.6-0.7-8-0.6-10.3c0.1-1.8,0.5-3.7,1.1-5.7s1.5-3.6,2.7-4.7l0.8-0.6
		l0.2-0.2c0.1,0,0.2-0.1,0.2-0.1s0,0,0-0.1c0,0,0-0.1,0.1-0.1s0.2-0.1,0.5-0.3c0.4-0.2,0.6-0.3,0.6-0.3s0.2-0.1,0.6-0.3l2.1-1.9
		c0.7,0.2,1.1,0.4,1.2,0.5c0.1,0.1-0.1,0.1-0.6,0s-0.7-0.1-0.6,0s0.6,0.2,1.3,0.4c1.1-1.1,2.1-1.3,2.9-0.8c0.4,0.3,0.8,0.5,1.2,0.8
		c0.4,0.2,0.9,0.5,1.4,0.7c0.8,0.4,1.4,0.6,1.8,0.4c0.4-0.2,0.9,0.4,1.7,1.9l0.4,1v0.1c0,0,0,0.1,0.1,0.1c0.1,0.2,0.2,0.4,0.4,0.6
		c0.4,0.6,0.6,0.9,0.7,0.8c0.2,0,0.4,0.3,0.6,1c2-1,5.8-1.1,11.2-0.4c5.5,0.8,8.9,1.5,10.2,2c2.4,1.1,3.3,1.5,2.8,1.1
		c-0.2-0.2,0-0.1,0.5,0.2c0.6,0.3,1.5,0.9,2.8,1.8s2.5,1.8,3.8,2.7c1.2,0.9,2.2,2,3.1,3.3l0.5,0.9c0.1,0.3,0.2,0.4,0.2,0.4
		s0.1,0.2,0.3,0.4l3,5.4c1.3,2.9,2.2,4.7,2.7,5.5c0.4,0.7,1,2.9,1.7,6.7c0.4,2.3,0.6,4.5,0.7,6.4c0,1.9-0.1,3.7-0.4,5.4
		c-0.6,3.3-2,7.2-4.3,11.9c-1.1,2.3-2,3.9-2.5,4.8s-0.7,1.2-0.6,0.9c0.3-0.7-0.7,0.5-3,3.7l-0.4,0.9c-0.4,0.8-0.9,1.6-1.5,2.4
		s-1.3,1.5-2,2.2s-1.5,1.3-2.3,1.9s-1.6,1.1-2.3,1.5l-4,1.8c-0.7,0.3-1.3,0.5-1.8,0.7s-1.2,0.4-2.1,0.7c-3.6,1.1-7,0.9-10.1-0.4
		s-5.5-2.1-7-2.5c0,1.1-0.1,1.8-0.2,2.2c-0.1,0.4-0.2,1.1-0.2,2.2l-2.2,18.2c0,0.4-0.1,0.8-0.3,1.4c-0.1,0.6-0.3,1.4-0.5,2.3
		s-0.4,1.6-0.6,2.2c-0.2,0.6-0.3,1-0.4,1.2c-1.3-0.1-2.4-1-3.5-2.7c-0.4-0.6-0.8-1.1-1.2-1.7s-0.8-1.2-1.1-1.8
		c-1.9-3.5-3.1-8.8-3.4-15.7c-0.3-6.8-0.6-11.8-1.1-14.9l-1.6-20.2c-0.1-0.9-0.1-1.9-0.1-2.8c0.1-0.9,0-1.9-0.1-2.8
		c-0.1-0.6-0.3-1.4-0.4-2.4c-0.2-1-0.3-1.9-0.3-2.7l-0.3-3.2c0-0.5-0.4-1.5-1-3c-0.3-0.6-0.5-1-0.6-1.3s-0.1-0.3,0-0.3
		C224.8,323.8,224.9,323.4,224.9,322.6z M252.9,354.2c0.9,0,2-0.5,3.3-1.4c0.6-0.5,1.2-1,1.7-1.4s0.9-0.8,1.2-1.2l3-5l0.7-2.9
		c0.4-1.5,0.7-3,0.9-4.4c0.2-1.4,0.3-2.8,0.3-4.2c0-1.4-0.2-2.8-0.6-4.1c-0.4-1.4-0.9-2.8-1.7-4.2c-0.3-0.7-0.8-1.4-1.4-2.2
		c-0.5-0.7-1.2-1.3-2-1.7c-1.8-0.7-3.7-1.1-5.7-1.2c-2.1-0.1-3.7,0.8-5,2.5c-1.1,1.6-1.6,3-1.6,4.2l-0.7,21.6l2.5,3.2
		c1.1,1.2,1.8,1.9,2.1,2.1C250.4,354.1,251.3,354.2,252.9,354.2z"/>
	<path class="st1" d="M314.3,373c-4.3,0-8.6-1.8-12.9-5.3c-4.2-3.6-7.3-7.4-9.2-11.3c-1.3-2.7-2.4-3.9-3.5-3.6s-1.8-0.2-2-1.5
		l0.1-0.9c0.2-2.3,0.6-3.3,1.2-3.1c0.6,0.2,0.7-0.7,0.3-2.8l-0.5-9.6c0-1.4,0.3-3.1,0.8-5c0.3-1,0.5-1.9,0.7-2.7
		c0.2-0.8,0.4-1.6,0.6-2.2c1.5-4.6,3.9-8.9,7.3-12.7c1.7-2,3.4-3.8,5.2-5.5c1.8-1.7,3.6-3.3,5.4-4.8l2.4-1.6c1-0.7,2.1-1.4,3.3-2.1
		c1.2-0.7,2.5-1.3,3.6-1.6c1.7-0.4,3.4-0.8,5.3-1.1c1.9-0.3,3.8-0.5,5.9-0.6c4.1-0.2,7.6,0.7,10.3,2.7l2.5,1.9c3,2.4,5,5.8,5.8,10.1
		c0.8,4.3,0.7,8.2-0.5,11.8c-1.1,3.5-2.7,6.4-4.8,8.5c-0.4,0.4-0.8,0.8-1.1,1.2c-0.3,0.4-0.6,0.7-0.8,0.9c-1.7,2.2-4,4.3-6.8,6
		l-7.8,4.7l-8.4,4.5c-0.8,0.5-2.3,1.2-4.4,2.3c-2,1-3.4,1.5-4.2,1.6c0.7,3.1,2.9,5.4,6.4,7c5.5,2.5,11,2.1,16.4-1.4s8.5-6.7,9.3-9.6
		c1,0,1.5,0,1.5,0s0.3,0.3,0.7,0.9c0.6,1.1,0.7,3.4,0.1,7c-0.5,3.5-2.1,6.6-4.7,9.2c-1.5,1.5-3.5,2.9-6,4.2
		c-2.5,1.3-4.7,2.2-6.7,2.8c-0.7,0.2-1.4,0.4-2.3,0.6s-1.8,0.4-2.8,0.6s-2,0.3-3,0.4C316,373,315.1,373,314.3,373z M324.6,324.1
		c0-0.8,0.1-1.2,0.2-1.1c0,0.1,0.3-0.1,0.8-0.6l4.1-3.6c0.8-0.7,1.2-2.9,1.2-6.7c-2.5-0.6-4.8-0.5-6.8,0.3l-4,1.8
		c-0.4,0.3-1,0.6-1.6,1.1c-0.6,0.4-1.3,1-2.1,1.6c-0.1,0-0.4,0.3-0.9,0.8l-5,5.3c-2.8,3.3-4.4,5.6-4.7,6.9c-0.2,0.6-0.4,1.2-0.6,2
		c-0.3,0.8-0.6,1.6-1.1,2.6c1-0.1,2.4-0.6,4-1.4c0.8-0.4,1.6-0.8,2.3-1.2c0.7-0.4,1.4-0.7,2-1s1.4-0.8,2.5-1.4
		c1-0.6,2.3-1.4,3.8-2.3C321.8,325.2,323.7,324.2,324.6,324.1z"/>
	<path class="st1" d="M369.1,300.1c2-0.2,4.4-0.3,7.3-0.5s5.6-0.2,8.2,0c1.1,0.1,2.1,0.2,2.9,0.3c0.8,0.1,1.5,0.2,2,0.3
		c0.6,0.1,1.2,0.2,2,0.4c0.7,0.2,1.6,0.5,2.7,0.8c1.1,0.4,2.2,0.9,3.4,1.4c1.2,0.6,2.2,1.3,3,2.2c0,0.1,0.2,0.3,0.4,0.5
		c2.3,2.9,3.4,6.2,3.1,10l-1,2.9c-0.2,0.4-0.4,0.6-0.4,0.5s-0.1,0.2-0.4,0.9l-2.4,8.7c-0.4,1.3-0.7,2.5-1.1,3.7
		c-0.4,1.1-0.7,2.3-0.9,3.6l-4.3,26.9c-0.1,0.7-0.1,1.4-0.1,2.1s0.1,1.5,0.1,2.2c0,0.8,0,1.5-0.1,2.2s-0.2,1.3-0.4,1.8
		c-0.9,2.3-2.1,3-3.4,2.1s-2.5-2-3.7-3.4c-0.3-0.3-0.5-0.6-0.7-0.7c-0.2-0.2-0.3-0.3-0.4-0.3c-0.1-0.1-0.2-0.6-0.5-1.5
		c-0.2-0.6-0.3-0.9-0.2-1s0-0.5-0.2-1.4c-0.7,0.6-1.1,1-1.1,1.1c0,0.2-0.5,0.6-1.7,1.5l-3.2,2.1c-1.3,0.7-2.5,1.3-3.7,1.8
		c-1.1,0.4-2.6,0.6-4.6,0.6c-1.5,0-2.9-0.2-4.4-0.5s-2.9-0.8-4.2-1.4c-1.4-0.6-2.6-1.3-3.9-2c-1.2-0.8-2.3-1.6-3.4-2.5l-3.1-3.1
		c-2.8-3.3-4.6-7.1-5.5-11.4c-0.3-1.7-0.3-3.6,0-5.7c0.5-2.6,1.7-5.1,3.5-7.4c0.9-1.2,1.9-2.2,2.8-3.2s1.9-1.8,2.9-2.4
		c2.6-1.9,5.2-3.2,7.7-4.1c2.4-0.9,5.1-1.6,8.2-2.3c2-0.4,3.7-0.8,5.1-1s2.6-0.3,3.6-0.4c1.9-0.1,4.7,0.2,8.5,1.1
		c0.1-0.3,0.2-0.6,0.2-1.1s0-0.9,0.1-1.4c0-0.5,0.1-1,0.1-1.4c0.1-0.5,0.2-1,0.4-1.4c-2,0-3.8,0-5.3,0s-2.9,0-4,0.1
		c-2.2,0-5.2,0.5-9,1.4c-0.1,0-0.3,0-0.5,0.1c-1.9,0.5-3.6,1.2-5.3,2c-0.5,0.5-1,0.8-1.4,0.8l-2.2,0.5c-0.4,0.1-0.6,0.1-0.7,0.2
		s0,0.1,0.2,0.1h-0.7l-7.4-2.3c-0.2-0.1-0.5-0.5-0.8-1c-0.2-0.4-0.4-0.6-0.5-0.8c-0.1-0.2-0.2-0.3-0.3-0.3c-0.1-0.1-0.2-0.1-0.2-0.1
		c-0.1,0-0.1-0.1-0.3-0.1c-0.1-0.1-0.2-0.2-0.3-0.3c-0.1-0.1-0.1-0.1-0.2-0.2c0-0.1-0.1-0.3-0.1-0.5s-0.1-0.6-0.1-1.1
		c0-1,0.3-1.8,0.8-2.4c-0.8-0.2-1.2-0.3-1.1-0.4s-0.3-0.2-1.1-0.5c0.2-1.9,0.4-3.4,0.8-4.4c0.3-0.9,1-2.2,2.1-3.7
		c0.7-0.9,1.8-1.5,3.1-2c1.3-0.4,2-0.8,2-1.1c-0.2-0.7-0.3-0.7-0.4,0c0,0.7-0.2,0.4-0.5-0.8L369.1,300.1z M349.3,312.6L349.3,312.6
		c-0.1-0.2-0.1-0.3-0.2-0.2L349.3,312.6z M359.4,349.7c0,0.1,0.1,0.2,0.2,0.4c0.1,0.1,0.1,0.2,0.1,0.2c0,0.1,0.1,0.2,0.1,0.2
		c0.4,0.8,0.7,1.5,1.1,2c0.3,0.6,0.8,1.1,1.4,1.7l1,0.8c3,2.3,5.4,3.4,7.3,3.2c1.9-0.2,4.1-0.7,6.6-1.8c4.1-1.6,6.5-2.7,7-3.2
		c0.6-0.6,0.8-2.9,0.8-7.2c-1.3-0.1-1.7-0.2-1.3-0.2c0.4,0,0.1-0.5-1-1.5l-1.8-1.3c-1.2-0.7-2.9-0.9-4.9-0.7l-4.5,0.4
		c-3.5,0.4-6,0.9-7.6,1.4c-1.6,0.6-3.3,1.9-5.1,4L359.4,349.7z"/>
	<path class="st1" d="M414.2,262c0.1-0.2,0.6-0.4,1.5-0.5c0.9-0.2,1.4-0.2,1.5-0.1c0,0.1,0.1,0.2,0.2,0.4c0.1,0.2,0.2,0.5,0.3,0.8
		c0.5-0.3,0.9-0.6,1.2-0.7c0.3-0.2,0.6-0.3,0.7-0.3c0.3-0.1,1.1,0.3,2.4,1.1c0.8,0.5,1.7,1.4,2.7,2.7l2.4,3c0.7,0.9,0.9,1.3,0.7,1.1
		c-0.2-0.2-0.3,0.2-0.2,1.1c0,1.1,0.3,1.9,0.8,2.6c0.5,0.6,0.8,1.4,0.8,2.4c0,1.9-0.1,3.7-0.4,5.3c-0.3,1.6-0.5,3.4-0.6,5.3
		l-1.7,24.6c0.9-0.5,2.2-1.5,3.7-3.1l3.5-3.8l1.1-1.2l5.7-5.4c0,0,0-0.1,0.1-0.1l0.1-0.1c0.7-0.7,1.5-1.4,2.3-2s1.7-1.3,2.5-2
		l5.1-4.3c1.2-1.2,3.5-3.6,6.9-7.3c3.5-3.7,6.1-5.1,7.7-4.4l-0.5-1.8c3.2,0,5.5,0.4,7,1.2c1.5,0.7,2.9,2.2,4.4,4.3
		c3.9,5.7,3.5,10.8-0.9,15.2c-0.2,0.2-0.4,0.5-0.6,0.7s-0.3,0.4-0.4,0.5c-0.7,0.9-1.3,1.4-1.7,1.5c-0.4,0-1,0.3-2,0.6
		c-1.4,0.6-2.7,1.3-4.1,2.2c-1.4,0.9-2.7,2-4.1,3.3l-9.8,8l-0.2,0.2c-1,0.9-2,1.6-2.8,2.3c-0.8,0.7-1.6,1.2-2.2,1.7
		c-1.3,0.9-1.4,2.1-0.3,3.6c3.3,4.6,5.7,8.6,7.1,12.1c1.5,3.4,3.5,7.6,6,12.6c0.9,1.7,1.7,3.4,2.6,5.1c0.9,1.6,1.8,3.3,2.8,4.9
		c2,3.3,3.5,6.8,4.4,10.5c0.6,2.3,0.7,3.7,0.3,4.1c-0.3,0.4-0.5,1.5-0.6,3.3h-1.8c-1.5,0-3.5-1.2-6-3.7c-1.2-1.3-2.3-2.4-3.1-3.3
		c-0.8-0.9-1.5-1.7-2-2.4c-0.4-0.5-0.9-1-1.3-1.3c-0.4-0.4-0.9-0.8-1.3-1.4c-0.4-0.5-0.8-0.9-1-1.4c-0.3-0.5-0.6-0.9-1-1.4l-3.2-4.3
		c-0.6-0.6-0.9-1-1-1.2c-2.3-2.8-4.4-5.7-6.2-8.9c-1.9-3.2-4.2-5.9-6.9-8.3c-0.9-0.8-1.9-1.5-2.8-2.2s-2-1.2-3.2-1.5
		c-0.4,1.3-0.8,1.8-1.4,1.7c-0.6-0.2-0.9,0.5-1,2c0,0.5,0,1.4,0,2.6c0.1,1.3,0.2,2.3,0.2,3.2c0,3-0.1,6.6-0.4,11
		c-0.2,4.4-0.7,7.9-1.2,10.5l-1.8,7.1c-0.1,0.2-0.1,0.3-0.1,0.3c0,0.1-0.1,0.1-0.1,0.2l-0.1,0.1l-0.7,1.4c-1.3,0-2.3-0.5-3-1.4
		c-0.5-0.7-0.7-0.9-0.5-0.8c-0.6-1-1-2-1.2-3.1c-0.2-1-0.5-2.1-0.8-3.4c-0.2-0.6-0.3-0.9-0.4-0.8c0,0-0.2-0.4-0.4-1.1
		c-0.7-1.9-1.1-3.8-1.4-5.6s-0.6-3.9-1.1-6.1l-0.9-4.2c-0.4-1.7-0.6-3.2-0.6-4.6l-0.8-0.4c-0.1,0-0.2-0.1-0.4-0.2
		c-0.1,0-0.2-0.1-0.4-0.2l-1.7-0.4c-1.1-0.4-1.7-1.2-1.7-2.4c0-2.8,0.5-4.9,1.5-6.4s1.5-3,1.3-4.4l-2.4-29.7c0-0.6,0-1.2-0.1-1.7
		c0-0.5-0.1-1-0.1-1.4s-0.1-0.9-0.1-1.3s-0.1-0.9-0.1-1.5l-2.4-18.4c0.2-2,1-3.6,2.4-4.8c0.7-0.6,1.3-1.3,2-1.9
		c0.7-0.7,1.3-1.3,1.9-2l0.2-0.2l0.7-1.1c1.1,0.4,1.4,0.6,0.9,0.5s-0.2,0,0.9,0.4L414.2,262z"/>
	<path class="st1" d="M499.4,373c-4.3,0-8.6-1.8-12.9-5.3c-4.2-3.6-7.3-7.4-9.2-11.3c-1.3-2.7-2.4-3.9-3.5-3.6s-1.8-0.2-2-1.5
		l0.1-0.9c0.2-2.3,0.6-3.3,1.2-3.1c0.6,0.2,0.6-0.7,0.3-2.8l-0.5-9.6c0-1.4,0.3-3.1,0.8-5c0.3-1,0.5-1.9,0.7-2.7
		c0.2-0.8,0.4-1.6,0.6-2.2c1.5-4.6,3.9-8.9,7.3-12.7c1.7-2,3.4-3.8,5.2-5.5c1.8-1.7,3.6-3.3,5.4-4.8l2.4-1.6c1-0.7,2.1-1.4,3.3-2.1
		c1.2-0.7,2.5-1.3,3.6-1.6c1.7-0.4,3.4-0.8,5.3-1.1c1.9-0.3,3.8-0.5,5.8-0.6c4.1-0.2,7.6,0.7,10.3,2.7l2.5,1.9c3,2.4,5,5.8,5.8,10.1
		c0.8,4.3,0.7,8.2-0.5,11.8c-1.1,3.5-2.7,6.4-4.8,8.5c-0.4,0.4-0.8,0.8-1.1,1.2s-0.6,0.7-0.8,0.9c-1.7,2.2-4,4.3-6.8,6l-7.8,4.7
		l-8.4,4.5c-0.8,0.5-2.3,1.2-4.4,2.3c-2,1-3.4,1.5-4.2,1.6c0.7,3.1,2.9,5.4,6.4,7c5.5,2.5,11,2.1,16.4-1.4c5.4-3.5,8.5-6.7,9.3-9.6
		c1,0,1.5,0,1.5,0s0.3,0.3,0.7,0.9c0.6,1.1,0.6,3.4,0.1,7c-0.5,3.5-2.1,6.6-4.7,9.2c-1.5,1.5-3.5,2.9-6,4.2
		c-2.5,1.3-4.7,2.2-6.7,2.8c-0.7,0.2-1.4,0.4-2.3,0.6s-1.8,0.4-2.8,0.6s-2,0.3-3,0.4S500.1,373,499.4,373z M509.6,324.1
		c0-0.8,0.1-1.2,0.2-1.1c0,0.1,0.3-0.1,0.8-0.6l4.1-3.6c0.8-0.7,1.2-2.9,1.2-6.7c-2.5-0.6-4.8-0.5-6.8,0.3l-4,1.8
		c-0.4,0.3-1,0.6-1.6,1.1c-0.6,0.4-1.3,1-2.1,1.6c-0.1,0-0.4,0.3-0.9,0.8l-5,5.3c-2.8,3.3-4.4,5.6-4.7,6.9c-0.2,0.6-0.4,1.2-0.7,2
		c-0.3,0.8-0.6,1.6-1.1,2.6c1-0.1,2.4-0.6,4-1.4c0.8-0.4,1.6-0.8,2.3-1.2c0.7-0.4,1.4-0.7,2-1s1.4-0.8,2.5-1.4
		c1-0.6,2.3-1.4,3.8-2.3C506.8,325.2,508.7,324.2,509.6,324.1z"/>
	<path class="st1" d="M539.8,276.2c1-0.4,1.4-0.5,1.2-0.2c-0.1,0.2,0.1,0.1,0.8-0.2c0.9-0.4,1.1-0.6,0.7-0.8
		c-0.4-0.2,1.1-0.1,4.5,0.4c0.1,1.3,0.3,1.8,0.6,1.2c0.3-0.6,1.2-0.3,2.8,0.7c1.3,0.9,2.1,1.7,2.3,2.5c0.1,0.4,0.1,0.8,0.1,1.3
		c0.6-0.6,1.1-0.6,1.7,0.1c0.4,0.5,0.8,1.2,1.1,2.1c0.3,1.1,0.4,1.6,0.2,1.5c-0.2,0-0.3,0.2-0.3,0.6c-0.1,0.4,0,1,0.5,1.8
		c0.4,0.9,0.7,1.8,0.7,2.6c0,1.2-0.1,2-0.3,2.2c-0.1,0.2-0.2,1.7-0.2,4.6l-0.6,9.4c2.4-1.6,3.9-2.8,4.5-3.8c0.6-0.9,3-2.3,7.1-4.2
		l4.1-2.1c0.8-0.5,1.7-0.8,2.7-0.9s2-0.1,2.8-0.1c0.8,0.1,1.6,0.3,2.4,0.5c0.8,0.3,1.5,0.6,2.3,1c0.7,0.4,1.5,0.9,2.4,1.4l2.3,2.1
		c0.6,0.8,0.7,1.2,0.3,1s0.1-0.1,1.2,0.5c-0.6,1-0.7,1.4-0.5,1.2c0.2-0.2-0.1-0.1-0.8,0.1c0.4,0.7,0.6,1,0.5,0.9
		c-0.2-0.1,0.3-0.1,1.4-0.1c-0.1,1.3-0.3,1.9-0.5,1.7c-0.2-0.2-0.7-0.2-1.4,0.1c0.3,1.2,0.6,1.7,0.9,1.5c0.3-0.2,0.3,0.4,0.1,1.8
		l-0.1,0.6c-0.4,2.2-0.6,3-0.7,2.2s-0.8-0.3-2,1.3c-0.3,0.4-0.5,0.7-0.6,1s-0.3,0.6-0.6,1c-0.5,0.7-1.1,1.1-1.7,1.3
		c-0.5,0.2-0.8,0.3-1,0.3s-0.1,0.1,0.1,0c0.3-0.2,0.3-0.3,0-0.3c-1,0-1.5,0-1.5,0.1c0,0.2-0.5,0.3-1.7,0.3c0.4,0.4,0.7,0.7,0.7,0.9
		c0,0.3-0.1,0.5-0.4,0.6c-0.6,0.3-1.8,0.4-3.5,0.2c-1.7-0.2-3.2-0.2-4.3,0.1c-1.3,0.3-2.8,1-4.4,2.2c-0.8,0.6-1.5,1.1-2.1,1.6
		s-1.2,1-1.7,1.4c-1.6,1.4-3.1,3.4-4.5,5.9c-0.7,1.3-1.2,2.4-1.6,3.5c-0.4,1.1-0.6,2.1-0.6,3.1c-0.1,1.8-0.1,3.6-0.1,5.6
		c0.1,1.9,0.1,3.8,0.1,5.6c0,2.3-0.2,5.5-0.5,9.4s-0.8,6.8-1.7,8.8c-0.3,0.6-0.5,1.2-0.8,1.9s-0.5,1.3-0.8,1.9
		c-0.4,0.8-0.8,1.4-1.2,1.8c-0.3,0.4-0.6,0.9-0.8,1.6l-2-0.9c-0.4-0.1-1.1-1.1-2.1-3c-0.5-0.9-0.9-1.9-1.2-2.9s-0.6-2-1-3
		c-0.7-1.8-1.2-4-1.4-6.6s-0.5-4.8-0.7-6.6c-0.2-1.6-0.5-3.1-0.8-4.4c-0.3-1.4-0.5-2.7-0.8-4s-0.5-2.5-0.8-3.7s-0.5-2.5-0.8-3.8
		l-2.6-28.6c0-1.9,0-3.9-0.1-6.1s-0.4-4.6-0.7-7.2c-0.7-5.2,0.2-9.3,2.7-12.1l0.4-0.5l0.2-0.2c0.4-0.5,0.7-0.8,1.1-1.1l1.2-1.6V276
		c0,0-0.1,0-0.1-0.1v0.3L539.8,276.2L539.8,276.2z M555.4,287.8C555.3,287.9,555.4,287.9,555.4,287.8c0.1,0.1,0.1,0.1,0.1,0.1
		C555.5,287.8,555.4,287.7,555.4,287.8z"/>
	<path class="st1" d="M586.5,317.5v-0.6v0.5l0.1-0.5c0,0,0.1-0.3,0.1-0.6c0.6-4.2,2-7.3,4.1-9.3c1.1-1,2.1-2,3.2-2.9
		c1.1-0.9,2.2-1.8,3.4-2.7c3.4-2.6,8-4.4,13.7-5.3c5.8-0.9,10.7-0.8,14.8,0.4c5.9,1.9,10.5,4.9,13.7,9c2.5,3.5,3.9,6.5,4.2,9.2
		s-0.6,6-2.7,9.9l-1.1,2.1c-0.3,0.6-0.4,0.9-0.4,0.9s-0.1,0.4-0.4,0.9c-0.5,0.9-1,1.5-1.4,1.7c-0.5,0.2-0.8,0.6-1.1,1.2
		c-0.9-0.6-1.2-0.9-0.9-0.9s0-0.1-0.9-0.2c-0.9,0-1.3,0.1-1.2,0.2s-0.1-0.4-0.7-1.4l-1.4-1.7c-0.4-0.5-0.5-0.8-0.4-0.9
		c0.1,0,0.2-0.6,0.2-1.7c-1.9-0.1-3.4-1.3-4.6-3.4c-0.7-1.3-1-2-0.9-2s-0.7-0.4-2.4-1.2c-0.7-0.4-1.2-0.6-1.3-0.9s-0.8-0.6-2-0.9
		c-1.5-0.4-3.5-0.5-5.9-0.2c-2.4,0.2-4.4,0.8-6,1.6c-0.1,0-0.2,0.1-0.4,0.1c-0.2,0.1-0.4,0.2-0.7,0.3c-0.2,0.1-0.3,0.1-0.4,0.2
		c-0.1,0-0.2,0.1-0.2,0.1c-0.1,0-0.2,0.1-0.2,0.1l-1.1,0.8c-0.3,0.2-0.2,1,0.4,2.5c0.4,1.1,1.2,2.1,2.4,3c0.7,0.4,1.3,0.8,1.9,1.2
		c0.6,0.4,1.1,0.7,1.7,1c0.5,0.3,0.9,0.6,1.2,0.7c0.4,0.2,0.8,0.4,1.4,0.6c1.1,0.5,2,0.9,3,1.4c0.9,0.5,2,0.9,3.2,1.4l11.4,6
		c2.6,1.7,4.9,3.7,6.9,6.1c3.9,4.8,5.1,9.8,3.5,15.1c-1.6,5.2-5.1,9.2-10.6,11.8l-1.7,0.6l-2.8,0.9c-0.4,0.1-0.6,0.1-0.6,0.2
		c-0.1,0,0,0.1,0.2,0.1s0.2,0.1,0.1,0.1s-0.4,0-0.9,0c-5.8,0-10.5-0.3-14.2-1c-3.5-0.6-7.6-2.7-12.2-6.3c-0.6-0.4-1.2-1-1.8-1.7
		s-1.1-1.5-1.7-2.4l-2.4-4.7c-0.2-0.6-0.5-1.2-0.8-1.8c-0.3-0.6-0.6-1.3-0.8-1.9s-0.4-1.3-0.5-2s-0.1-1.4,0-2.1v-0.1V348
		c0,0,0,0,0-0.1l0.2-0.6l0.1-0.4c0-0.2,0.1-0.3,0.1-0.4s0.1-0.1,0.1-0.2s0.1-0.2,0.1-0.3s0-0.3,0-0.7c1.8,0,3.5,0.6,5,1.7l2.7,2.7
		c2.8,3.9,7,6.6,12.5,8.3c5.5,1.7,9.9,1.8,13.1,0.5c2-0.9,2.5-2.2,1.4-4c0,0-0.1-0.1-0.2-0.2c-0.1-0.1-0.2-0.2-0.2-0.3
		c-1.4-1.7-3.3-3.2-5.6-4.3c-1.1-0.6-2.2-1.1-3.3-1.6c-1-0.5-2.1-1-3-1.4c-0.2-0.1-0.4-0.2-0.5-0.2s-0.2,0-0.3-0.1
		c-0.1,0-0.2,0-0.3-0.1c-0.1,0-0.3-0.1-0.5-0.2l-7-2.8l-3.4-1.5c-1.2-0.5-2.2-1.1-3.2-1.7c-0.9-0.6-1.9-1.3-2.9-2l-5.1-4.7
		c-1.4-1.7-2.6-3.8-3.5-6.3c-0.4-1-0.6-2-0.7-3s-0.2-2-0.4-3.1L586.5,317.5z"/>
</g>
<g class="st2">
	<path class="st1" d="M266.6,472.2c0.5-0.3,1,0,1.6,1l0.6,0.8c1.4,2.1,2,3.6,1.7,4.5c-0.3,0.8-0.5,1.5-0.6,2.1
		c-0.1,0.5-0.1,0.9-0.1,1.3c0.1,0.4-0.4,0.9-1.3,1.7l-1.7,2.5c0,0-0.1,0-0.2-0.1c-0.4-0.2-0.8-0.1-1.2,0.1l-1.1,0.4
		c-0.1-0.4-0.3-0.7-0.6-0.9c-0.3,0.4-0.6,0.8-1,0.9c-0.4,0.2-0.8,0.4-1.2,0.7c0.5,0.7,0.9,1.4,1.4,2c0.4,0.6,0.9,1.2,1.3,1.7
		c0.8,1.1,1.6,2.5,2.3,4.2c0.7,1.9,0.5,2.7-0.5,2.5c-0.5-0.1-1.2-0.2-1.8-0.5c-0.7-0.2-1.4-0.6-2.2-1.1c-0.8-0.5-1.6-0.9-2.4-1.4
		c-0.8-0.5-1.6-1-2.4-1.5c-1.6-1.1-2.5-1.6-2.7-1.6c-0.3,0-1.3,0.4-2.8,1.3l-3,1.7l-15,5.5c-0.6,0-1.2,0-1.6,0
		c-0.5,0-1.1-0.1-1.8-0.2c-0.2-0.1-0.4-0.1-0.7-0.2c-0.2-0.1-0.5-0.1-0.8-0.2c-0.3-0.1-0.5-0.1-0.7-0.2c-0.2-0.1-0.4-0.1-0.5-0.2
		c-0.3-0.1-0.7-0.3-1.1-0.5c-0.4-0.2-0.8-0.4-1.2-0.7c-3.2-1.7-4.9-4.3-5-7.6c-0.2-3.3,0.5-6.5,2.1-9.4l4.9-7
		c0.3-0.4,0.7-0.9,1.3-1.6c0.5-0.7,1.1-1.5,1.9-2.5c0.7-1,1.4-1.8,1.9-2.4c0.5-0.6,1-0.9,1.3-1.1c-0.4-1.5-1-2.8-1.8-3.9
		c-0.8-1.1-1.4-2.4-1.7-3.9c-0.3-1.4-0.6-2.7-0.8-3.9c-0.2-1.2-0.4-2.4-0.5-3.5c-0.2-2.2,0.3-4.6,1.5-7.4c1.6-3.6,4.6-6.3,9-8.4
		c4.4-2,8.3-2.4,11.8-1.3c0.4,0.1,0.6,0.2,0.6,0.3c0,0,0.1,0.1,0.5,0.3c5.2,3.4,7,8.6,5.3,15.6c-0.2,1-0.6,1.9-1,2.8
		c-0.4,0.9-0.8,1.8-1.3,2.7c-0.5,0.9-1,1.7-1.5,2.5s-1,1.6-1.5,2.5l-2.1,3.2c0,0.1-0.1,0.1-0.1,0.1c0,0-0.1,0.1-0.1,0.1
		c-0.5,0.7-0.9,1.3-1.4,2c-0.5,0.7-1,1.2-1.7,1.6l4.8,7.7l0.7,1.1c0.7-0.2,1.5-0.6,2.3-1.1c0.8-0.5,1.5-1,2.2-1.5
		c0.4-0.3,0.5-0.4,0.5-0.4c0,0,0.1-0.2,0.3-0.5c0.7-1,1.2-1.5,1.4-1.5c0.1,0,0.3,0.1,0.5,0.1c0.2,0,0.5,0.1,0.8,0.2
		c-0.1-0.5-0.2-0.9-0.1-1.2c0.4,0.1,0.8,0.2,1.2,0.5l-0.1-1.5c0.5,0.1,0.7,0.1,0.6,0.1c-0.1,0,0,0.1,0.2,0.2c0,0.1,0.1,0.1,0.2,0.1
		c0,0.1,0.1,0.2,0.2,0.2l0.3,0.3c0.2-0.8,0.5-1.1,1.1-0.9c0.6,0.2,1.1,0.4,1.6,0.6c0.6,0.4,0.8,0.7,0.7,0.9s-0.1,0.4,0,0.5
		L266.6,472.2z M220.4,489.4c0-0.1,0-0.2-0.1-0.1L220.4,489.4z M242.1,482.7c0.5-0.2,0.9-0.4,1.2-0.7c0.3-0.2,0.7-0.4,1.1-0.6
		c-0.3-0.5-0.6-0.9-0.9-1.3c-0.3-0.4-0.6-0.8-1-1.1c-0.6-0.7-1.2-1.5-1.8-2.5c-0.6,0.5-1.5,1.6-2.6,3.2l-2.6,3.8
		c-0.3,0.5-0.6,0.9-0.8,1.3c-0.2,0.4-0.4,0.9-0.5,1.4L242.1,482.7z M240.6,456.7c0.3-0.1,0.5-0.3,0.8-0.5c0.2-0.2,0.4-0.5,0.6-0.8
		c0.2-0.3,0.4-0.6,0.5-0.9s0.3-0.6,0.5-0.9l1.2-2c0.2-0.5,0.5-0.9,0.7-1.4c0.3-0.4,0.5-0.9,0.7-1.3c0.2-0.4,0.4-0.9,0.6-1.4
		c0.2-0.5,0.4-1.1,0.5-1.7c-1.1,0.6-1.6,0.8-1.8,0.4c-0.1-0.3-1.3,0.4-3.6,2c-1.4,1.1-2,2.3-1.7,3.7c0.2,0.7,0.3,1.5,0.5,2.3
		C240.4,455,240.5,455.8,240.6,456.7z"/>
	<path class="st1" d="M334.4,426.6c0-0.1,0-0.3,0-0.6c0-0.3,0-0.4,0-0.4l-0.2-0.9l0-0.2l0-1c0.5-0.1,0.9-0.3,1.2-0.6
		c0.2-0.2,0.2-0.2,0.2-0.2c0,0,0-0.1,0.2-0.3l0.4-0.3c0.4-0.3,0.5-0.3,0.3-0.1c-0.1,0.1-0.1,0,0.1-0.4c0.1-0.3,0.3-0.6,0.6-0.8
		c0.2-0.2,0.5-0.4,0.9-0.6c0.3-0.2,0.7-0.3,1-0.4c0.4-0.1,0.7-0.2,1-0.2c0.2,0,0.3,0,0.5,0.1c0.1,0,0.3,0,0.4,0s0.3,0,0.4,0
		c0.3,0,0.6-0.2,0.9-0.6c0.4-0.4,1-0.1,2.1,0.7c0.4,0.4,0.6,0.7,0.6,0.8c0,0.1-0.1,0.2-0.1,0.4c0,0.2-0.1,0.4-0.1,0.7
		c0.6-0.5,1-0.6,1-0.3c0,0.3,0.3,0.7,0.7,1.3l0.8,1.4c0.5,2.2,0.9,3.4,0.9,3.6c0.1,0.2-0.1,1.2-0.6,3.3c-0.2,0.7-0.3,2-0.3,4
		c0,1,0,2-0.1,3.1c0,1.1,0,2.2,0,3.3c0,2.3,0,4.5,0.1,6.6c0.1,2.1,0.1,3.6,0.2,4.4c0,0.5,0.1,1.1,0.1,1.7c0,0.6,0,1.1,0,1.7
		c0,0.6,0,1.1,0.1,1.7c0,0.5,0.1,1.1,0.2,1.5l0,3.9c-0.1,1.2-0.1,2.4,0,3.6s0.2,2.4,0.3,3.6l0.2,9.5c0,1.9-0.2,5.1-0.7,9.4
		c-0.4,4.4-1.4,7.2-2.8,8.3l-1.1,0.7c-0.3,0.1-0.7,0-1.2-0.3c-1.9-1.5-3.1-4.1-3.4-7.9c-0.3-3.8-0.6-7-0.9-9.8l-1.2-12.1l-22.8,0.8
		c-0.1,0.2-0.1,0.6-0.1,1.3c0,1.8,0,3.7-0.1,5.7c-0.1,2-0.3,4.1-0.5,6.2s-0.4,4.2-0.7,6.2c-0.2,2-0.5,3.9-0.7,5.7
		c-0.2,1.2-0.7,2-1.6,2.3c-0.4-0.3-0.8-1-1.3-2c-0.2-0.2-0.3-0.4-0.3-0.6l-1-3.2c-0.8-2.2-1.7-5.7-2.6-10.4c-1-4.6-1.5-8.2-1.6-10.7
		c-0.8,0-1.6-0.3-2.5-1c-0.9-0.6-1.5-1.3-1.9-2.1c-0.6-1-0.3-2,0.9-3c1.1-1,2.1-1.5,2.9-1.6l-2.8-19.9l-0.2-2.3
		c-0.1-0.8-0.2-1.6-0.3-2.5c-0.1-0.9-0.3-1.9-0.5-3c-0.4-2.2-0.6-3.9-0.6-5.2c0.1-0.9,0.4-1.7,1-2.3c0.3-0.3,0.4-0.4,0.4-0.3
		c0,0.1,0.1-0.1,0.3-0.5c0.7-1.2,1.1-1.7,1.1-1.5c0,0.2,0.2,0.1,0.8-0.2c0.2-0.1,0.4-0.2,0.4-0.2s-0.1,0.2-0.3,0.4
		c-0.4,0.4-0.4,0.1,0.3-0.7c0.3-0.3,0.5-0.5,0.8-0.6c0.5,0.3,0.6,0.5,0.5,0.4c-0.1,0,0,0.1,0.1,0.4l0,0.1c0,0,0,0.1,0,0.1l0.1,0.3
		c0.3-0.4,0.7-0.8,1.3-1.2c0.2-0.2,0.5-0.3,0.8-0.2c0.3,0,0.6,0.1,1,0.2c0.3,0.1,0.7,0.3,1,0.5c0.3,0.2,0.6,0.4,0.9,0.6l1.4,1.4
		c0,0.1,0.1,0.2,0.2,0.2l0.5,0.7c0.2,0.4,0.4,1,0.5,1.8c0.2,0.8,0.2,1.3,0.1,1.5l1.2-0.1c-0.1,0.5-0.1,1.1-0.1,2
		c0,0.9,0,1.9,0.1,3.1c0.1,1.2,0.2,2.3,0.2,3.2c0.1,0.9,0.1,1.6,0.2,2.2l0.7,6.3c0.2,1.7,0.4,3.6,0.4,5.5c0,1.9,0.1,3.8,0.2,5.5
		c1.1-0.1,2.3-0.3,3.6-0.6c1.3-0.3,2.7-0.5,4.3-0.8c0.5-0.1,1.1-0.1,1.8-0.2c0.7,0,1.4-0.1,2.3-0.1c1.7-0.1,3.2-0.2,4.7-0.3
		c0.6-0.1,1-0.1,1.1-0.2c0.1-0.1,0.4-0.2,1-0.2c0.8-0.1,1.4-0.2,1.9-0.2c0.5-0.1,0.8-0.1,0.9-0.2c0.3-0.1,0.3-1.1,0-3l-0.4-11.5
		c0-0.1,0-0.7,0-1.7c0-0.9-0.1-2.2-0.1-3.8c0-0.8,0-1.5-0.1-2.1c-0.1-0.6-0.1-1.1-0.2-1.4c-0.2-0.8-0.4-1.5-0.5-2.1
		S334.4,427.4,334.4,426.6z M302,424C301.9,424,301.9,424,302,424l-0.1-0.1L302,424z M334.3,425.3c0,0.5,0,0.6-0.1,0.4
		c0-0.1,0-0.2,0-0.3c0,0,0-0.1,0-0.1c-0.1,0-0.1-0.1-0.1-0.3C334.2,424.8,334.3,424.9,334.3,425.3z M334.9,425
		C334.9,425,334.9,425,334.9,425c0.1,0,0.1,0,0.1,0.1L334.9,425z"/>
	<path class="st1" d="M372.1,492.8c-0.8,0-1.3,0-1.4-0.1c-0.1-0.1-0.8-0.1-2.3-0.1c-0.9,0-2-0.3-3.1-0.9c-2.4-1.2-4.4-2.5-6-3.9
		c-1.5-1.4-3-3.4-4.2-6.1c-1.5-3.4-2.6-7.4-3.1-12.1c-0.5-4.8-0.2-8.9,1.1-12.6c0.3-0.9,0.6-1.7,0.8-2.5c0.2-0.8,0.5-1.5,0.7-2.1
		c0.2-0.6,0.5-1.4,0.9-2.1c0.4-0.8,0.8-1.6,1.4-2.5l1.1-1.5l0.1-0.2l3.2-2.8c1.5-1.2,3.8-2,6.9-2.3c3.1-0.3,5.4-0.1,7.1,0.4
		c2.2,0.8,3.2,1.2,3.1,1.3c-0.1,0.1,0.3,0.3,1.2,0.7c0.2,0.1,0.3,0.2,0.3,0.2c0,0,0,0-0.1,0c-0.1-0.1,0-0.1,0.3,0.1
		c0.2,0.2,0.3,0.2,0.4,0.3l1.9,1.9c0.3,0.3,0.5,0.5,0.7,0.7c0.2,0.2,0.4,0.4,0.5,0.6c0.3,0.4,0.7,0.9,1,1.7l3.3,5.9
		c1.4,2.2,2.3,4.3,2.5,6.2c0.1,1,0.3,2,0.4,3c0.1,1,0.3,2.1,0.4,3.3l-0.1,7c-0.1,1.5-0.7,3.3-1.6,5.3c-0.9,2.1-1.8,3.9-2.7,5.2
		c-1,1.4-2.6,2.7-4.8,4.1c-1.1,0.7-2.1,1.3-3,1.8c-0.9,0.5-1.7,0.8-2.4,1c-1.1,0.3-1.8,0.6-2.1,0.8
		C374.5,492.6,373.6,492.7,372.1,492.8z M371.3,482.2c0.2-0.4,0.5-0.9,1-1.6l3.7-7.6l0.4-1c0.1-0.2,0.2-0.6,0.2-1.2
		c0-0.9,0-1.8,0-2.5c0-0.7-0.1-1.4-0.1-2c-0.2-1.2-0.7-2.4-1.5-3.6c-0.4-0.5-0.7-1.1-1-1.7c-0.3-0.6-0.6-1.2-0.8-1.8
		c-0.4-1.2-0.9-1.9-1.5-2.1l-1.6-0.1l-0.2,0c-0.5,0-1.1,0-1.7,0c-0.6,0-1.1,0.1-1.4,0.3c-0.3,0.2-0.9,1.1-1.9,2.7
		c-1,1.6-1.6,2.7-1.8,3.4c-0.2,0.7-0.4,1.6-0.6,2.5c-0.1,1-0.3,2.2-0.3,3.5c-0.1,2.6,0.1,4.7,0.6,6.4l2.5,7.7l2.1-0.6
		c0.2-0.1,0.3,0,0.2,0.1c0,0.1,0.1,0.2,0.3,0.4c0.3,0.1,1.1,0.2,2.5,0.2L371.3,482.2z"/>
	<path class="st1" d="M390.4,455l0-0.4L390.4,455l0-0.4c0,0,0-0.2,0-0.4c0.2-2.9,1-5,2.2-6.4c0.6-0.7,1.3-1.4,1.9-2.1
		c0.7-0.7,1.3-1.3,2-1.9c2-1.9,4.8-3.2,8.4-3.9c3.5-0.8,6.6-0.9,9.2-0.2c3.8,1.1,6.7,3,8.8,5.7c1.7,2.3,2.6,4.3,2.9,6.1
		c0.3,1.8-0.2,4-1.3,6.7l-0.6,1.4c-0.2,0.4-0.2,0.6-0.2,0.6c0,0,0,0.2-0.2,0.6c-0.3,0.7-0.6,1-0.8,1.2c-0.3,0.1-0.5,0.4-0.6,0.9
		c-0.6-0.4-0.8-0.6-0.6-0.6c0.2,0,0-0.1-0.6-0.1c-0.6,0-0.8,0.1-0.8,0.2c0.1,0.1-0.1-0.2-0.5-0.9l-0.9-1.1c-0.2-0.3-0.3-0.5-0.2-0.6
		c0.1,0,0.1-0.4,0.1-1.2c-1.2,0-2.2-0.7-3-2.2c-0.5-0.9-0.7-1.3-0.7-1.3c0,0-0.5-0.3-1.5-0.8c-0.5-0.2-0.8-0.4-0.8-0.6
		c-0.1-0.2-0.5-0.4-1.2-0.6c-1-0.2-2.2-0.2-3.6,0.1c-1.5,0.2-2.7,0.6-3.7,1.3c0,0-0.1,0.1-0.2,0.1c-0.1,0-0.2,0.1-0.4,0.2
		c-0.1,0.1-0.2,0.1-0.2,0.1c0,0-0.1,0.1-0.1,0.1c0,0-0.1,0-0.1,0l-0.6,0.5c-0.2,0.1-0.1,0.7,0.3,1.7c0.3,0.7,0.8,1.4,1.6,2
		c0.4,0.3,0.8,0.5,1.2,0.7c0.4,0.2,0.7,0.4,1.1,0.6c0.3,0.2,0.6,0.3,0.8,0.4s0.5,0.2,0.9,0.4c0.7,0.3,1.3,0.6,1.9,0.8
		c0.6,0.3,1.3,0.6,2,0.8l7.3,3.7c1.7,1.1,3.2,2.4,4.5,3.9c2.6,3.1,3.5,6.5,2.7,10.1c-0.8,3.6-2.9,6.3-6.2,8.2l-1,0.4l-1.7,0.7
		c-0.2,0.1-0.3,0.1-0.4,0.1c0,0,0,0.1,0.1,0.1c0.1,0,0.1,0,0.1,0c-0.1,0-0.3,0-0.6,0c-3.6,0.2-6.6,0.1-8.9-0.3
		c-2.2-0.3-4.8-1.6-7.8-3.9c-0.4-0.3-0.8-0.6-1.2-1.1c-0.4-0.5-0.8-1-1.1-1.6l-1.7-3.1c-0.2-0.4-0.4-0.8-0.6-1.2s-0.4-0.8-0.6-1.3
		c-0.2-0.4-0.3-0.9-0.4-1.3c-0.1-0.5-0.1-0.9-0.1-1.4l0-0.1c0,0,0,0,0,0c0,0,0,0,0,0l0.1-0.4l0.1-0.2c0-0.1,0-0.2,0.1-0.3
		c0,0,0-0.1,0.1-0.1c0-0.1,0-0.1,0-0.2c0-0.1,0-0.2,0-0.4c1.1-0.1,2.2,0.3,3.1,1l1.7,1.7c1.9,2.5,4.6,4.3,8,5.2
		c3.5,1,6.2,0.9,8.1-0.1c1.2-0.6,1.5-1.6,0.7-2.7c0,0-0.1-0.1-0.2-0.2c-0.1-0.1-0.1-0.1-0.1-0.2c-0.9-1.1-2.1-2-3.6-2.7
		c-0.7-0.3-1.4-0.7-2.1-1c-0.7-0.3-1.3-0.6-1.9-0.9c-0.2-0.1-0.3-0.1-0.3-0.1s-0.1,0-0.2,0c0,0-0.1,0-0.2,0s-0.2-0.1-0.3-0.1
		l-4.4-1.7l-2.2-0.9c-0.8-0.3-1.4-0.7-2-1.1s-1.2-0.8-1.9-1.3l-3.3-3c-0.9-1.1-1.7-2.5-2.4-4.1c-0.3-0.7-0.4-1.4-0.5-2
		c-0.1-0.7-0.2-1.4-0.3-2.1L390.4,455z"/>
	<path class="st1" d="M438.8,427.9c0-0.6-0.1-0.8-0.1-0.6c-0.1,0.2-0.1-0.1-0.2-0.9l-0.2-3.7c-0.1-0.9-0.2-1.6-0.2-2.2
		s-0.1-1.1-0.1-1.4c0-0.7,0.5-1.7,1.4-2.7l1.9-2.7c0.2-0.3,0.5-0.6,0.8-0.8c0.3-0.1,0.5-0.2,0.6-0.2c0.1,0,0,0.1-0.2,0.2
		c-0.2,0.1-0.2,0.2-0.1,0.1c0.1,0,0.3-0.1,0.6-0.2c0.2-0.1,0.3-0.1,0.4-0.1c0,0,0,0-0.1,0c-0.2,0.1-0.1,0,0.2-0.2
		c0.2-0.2,0.3-0.3,0.1-0.2c-0.1,0,0-0.1,0.3-0.3c0.2-0.1,0.3-0.2,0.4-0.3c0.1-0.1,0.1-0.1,0,0c0,0,0.2,0,0.7-0.1l0.6,0.9
		c0.1-0.3,0.3-0.5,0.5-0.7c0.1-0.1,0.4-0.2,0.7-0.1c0.9,0.2,1.5,0.5,1.8,1c0.3,0.5,0.5,0.8,0.6,0.8c0.1,0.1,0.3,0.2,0.6,0.3
		c0.2,0,0.6,0.3,0.9,0.9l1.4,1.9c0.2,0.3,0.3,0.5,0.3,0.8s0.1,0.4,0.2,0.7c0,0.2,0.1,0.5,0.1,0.7c0,0.3,0.1,0.5,0.3,0.8
		c0.4,1.1,0.6,2.3,0.5,3.8c0,0.7,0,1.4,0,2.1c0,0.7,0.1,1.4,0.1,2.1c0,0.5,0,1.1-0.1,1.8c-0.1,0.7-0.1,1.4-0.1,2.1
		c0,0.4-0.1,0.7-0.1,1c0,0.3,0,0.6,0,1c0,0.3,0,0.7,0,1c0,0.4,0,0.8,0,1.3l3.9-0.7c1.4-0.1,2.8,0.2,4.1,0.9c0.1,0,0.1,0.1,0.2,0.1
		c0.5,0.3,1,0.8,1.4,1.2c0.4,0.5,0.8,0.9,1.4,1.2c0.1,0.1,0.1,0.1,0.2,0.1l0.6,0.4c-0.1,0.4-0.2,0.9-0.5,1.5c0.3,0,0.5,0,0.6,0
		c0.1,0,0.2,0,0.2,0c0,0,0.1,0.3,0.3,0.8c-0.3,0.5-0.4,0.7-0.4,0.7c0,0-0.3,0-1,0l0.6,0.8c0,0.7,0,1,0,1c0-0.1-0.2-0.2-0.8-0.3
		c0.1,0.2,0.2,0.4,0.3,0.5c0.1,0.1,0.2,0.2,0.3,0.3c0.1,0.1,0.2,0.2,0.3,0.4c0.1,0.1,0.2,0.3,0.3,0.6L465,446
		c-0.2,0.2-0.3,0.4-0.4,0.5c-0.6,0.6-1.1,0.8-1.3,0.7c-0.2-0.1-0.3,0.1-0.3,0.7c-0.1,1.3-1,2.1-2.6,2.2c-0.8,0.1-1.4,0.1-1.6,0
		c-0.2-0.1-0.3,0.3-0.3,1c-1.8,0.1-3.4,0-4.5-0.3c-0.5-0.1-0.9-0.3-1.3-0.4c-0.4-0.2-0.8-0.2-1.3,0c-0.3,0.1-0.4,0,0-0.2
		c0.2-0.1,0.2-0.1,0.2-0.1c0,0.1-0.2,0.2-0.4,0.4c-0.4,0.3-0.5,0.4-0.4,0.2c0.1-0.1,0.1,0.1,0,0.7l-1.1,7.2
		c-0.1,1.9-0.1,3.2-0.1,3.9c0,0.6,0,2.1,0.1,4.4l0.3,4.1c0,1.2,0.1,2.3,0.2,3.3c0.1,1,0.3,1.9,0.6,2.8c0.5,1.8,0.9,3.3,1.1,4.7
		c0.9,0.2,1.6,0.3,2.3,0.3c0.7,0,1.3,0,1.7-0.1c1-0.2,1,1.1,0,3.7c-0.9,2.3-2.3,3.6-4.2,3.9c-1.9,0.3-3.5,0-4.9-1
		c0,0-0.2-0.2-0.5-0.5c-0.3-0.3-0.5-0.5-0.5-0.5c-0.1,0-0.1,0-0.2-0.1l-1.7-2.3c-0.8-1.3-1.6-2.7-2.1-4.2c-0.6-1.5-1-2.9-1.5-4.4
		c-0.1-0.2-0.2-0.4-0.2-0.6c-0.4-1.5-0.8-3.1-1.2-4.9c-0.3-1.8-0.6-3.5-0.6-5.4c0-1-0.1-2.2-0.3-3.4c-0.1-1.3-0.3-2.7-0.6-4.2
		c-0.4-3-0.3-5.5,0.4-7.3c-1.1,0.1-2.1,0.1-3,0.1c-0.9,0-1.8,0-2.5-0.1c-1.5-0.1-3.2-0.6-5-1.6c-0.1,0-0.1-0.1-0.2-0.1l-1-0.9
		c-0.1-0.1-0.1-0.2-0.2-0.3c-0.1-0.1-0.1-0.2-0.2-0.2c0.3-1.5,1.2-2.7,2.8-3.8c1.6-1.1,3-2,4.2-2.7c0.3-0.1,0.6-0.3,0.8-0.4
		c0.3-0.1,0.5-0.3,0.7-0.4c0.5-0.3,1-0.5,1.4-0.7c2-0.8,3.1-1.5,3.3-1.9c0.2-0.4,0.1-3.1,0-8.2c0-0.6,0-0.9,0.1-0.8
		C438.8,428.8,438.9,428.5,438.8,427.9z M450.2,415.4c0-0.1,0-0.1-0.1-0.1L450.2,415.4z"/>
	<path class="st1" d="M483.9,488.1c-2.7,0.1-5.4-0.9-8.2-3.2c-2.7-2.3-4.8-4.7-6.1-7.4c-0.9-1.8-1.6-2.5-2.3-2.3
		c-0.7,0.2-1.1-0.1-1.3-1l0-0.6c0.1-1.5,0.3-2.3,0.6-2.1c0.4,0.1,0.4-0.5,0.1-1.9l-0.6-6.4c0-1,0.1-2.1,0.3-3.4
		c0.1-0.7,0.3-1.3,0.4-1.9c0.1-0.6,0.2-1.1,0.3-1.5c0.8-3.2,2.2-6.1,4.1-8.8c1-1.4,2-2.7,3-3.9c1-1.2,2.1-2.3,3.2-3.4l1.5-1.1
		c0.6-0.5,1.3-1,2-1.5c0.7-0.5,1.5-0.9,2.2-1.2c1-0.3,2.1-0.6,3.2-0.9c1.1-0.2,2.3-0.4,3.6-0.6c2.6-0.3,4.7,0.2,6.5,1.5l1.6,1.2
		c2,1.6,3.3,3.8,3.9,6.6s0.7,5.5,0.1,8c-0.6,2.4-1.5,4.4-2.7,5.9c-0.3,0.3-0.5,0.6-0.7,0.8c-0.2,0.2-0.3,0.5-0.4,0.7
		c-1,1.6-2.3,3-4,4.3l-4.7,3.4l-5.1,3.3c-0.5,0.3-1.4,0.9-2.7,1.7c-1.2,0.7-2.1,1.1-2.6,1.2c0.6,2.1,2,3.6,4.2,4.5
		c3.5,1.5,6.9,1.1,10.1-1.4c3.2-2.5,5.1-4.8,5.5-6.8c0.6,0,0.9,0,1,0c0,0,0.2,0.2,0.4,0.6c0.4,0.7,0.5,2.3,0.3,4.7
		c-0.2,2.4-1.1,4.5-2.6,6.3c-0.9,1.1-2.1,2.1-3.6,3c-1.5,0.9-2.9,1.6-4.1,2.1c-0.4,0.2-0.9,0.3-1.4,0.4c-0.5,0.1-1.1,0.3-1.7,0.5
		s-1.2,0.3-1.8,0.4C484.9,488,484.4,488.1,483.9,488.1z M488.7,454.8c0-0.6,0-0.8,0.1-0.8c0,0.1,0.2-0.1,0.5-0.4l2.5-2.5
		c0.5-0.5,0.6-2,0.5-4.5c-1.6-0.3-3-0.2-4.2,0.4l-2.4,1.4c-0.3,0.2-0.6,0.5-0.9,0.8c-0.4,0.3-0.8,0.7-1.3,1.1
		c-0.1,0-0.3,0.2-0.6,0.6l-2.9,3.7c-1.6,2.3-2.5,3.9-2.7,4.8c-0.1,0.4-0.2,0.8-0.3,1.4c-0.1,0.5-0.3,1.1-0.6,1.8
		c0.6-0.1,1.5-0.4,2.5-1.1c0.5-0.3,1-0.6,1.4-0.9c0.4-0.3,0.8-0.5,1.2-0.8c0.4-0.2,0.9-0.6,1.5-1c0.6-0.4,1.4-1,2.3-1.6
		C487,455.7,488.2,454.9,488.7,454.8z"/>
	<path class="st1" d="M502.5,449.7l0-0.4L502.5,449.7l0-0.4c0,0,0-0.2,0-0.4c0.2-2.9,1-5,2.2-6.4c0.6-0.7,1.3-1.4,1.9-2.1
		c0.7-0.7,1.3-1.3,2-1.9c2-1.9,4.8-3.2,8.4-3.9c3.5-0.8,6.6-0.9,9.2-0.2c3.8,1.1,6.7,3,8.8,5.7c1.7,2.3,2.6,4.3,2.9,6.1
		c0.3,1.8-0.2,4-1.3,6.7l-0.6,1.4c-0.2,0.4-0.2,0.6-0.2,0.6c0,0,0,0.2-0.2,0.6c-0.3,0.7-0.6,1-0.8,1.2c-0.3,0.1-0.5,0.4-0.6,0.9
		c-0.6-0.4-0.8-0.6-0.6-0.6c0.2,0,0-0.1-0.6-0.1c-0.6,0-0.8,0.1-0.8,0.2c0.1,0.1-0.1-0.2-0.5-0.9l-0.9-1.1c-0.2-0.3-0.3-0.5-0.2-0.6
		c0.1,0,0.1-0.4,0.1-1.2c-1.2,0-2.2-0.7-3-2.2c-0.5-0.9-0.7-1.3-0.7-1.3c0,0-0.5-0.3-1.5-0.8c-0.5-0.2-0.8-0.4-0.8-0.6
		c-0.1-0.2-0.5-0.4-1.2-0.6c-1-0.2-2.2-0.2-3.6,0.1c-1.5,0.2-2.7,0.6-3.7,1.3c0,0-0.1,0.1-0.2,0.1c-0.1,0-0.2,0.1-0.4,0.2
		c-0.1,0.1-0.2,0.1-0.2,0.1c0,0-0.1,0.1-0.1,0.1c0,0-0.1,0-0.1,0l-0.6,0.5c-0.2,0.1-0.1,0.7,0.3,1.7c0.3,0.7,0.8,1.4,1.6,2
		c0.4,0.3,0.8,0.5,1.2,0.7c0.4,0.2,0.7,0.4,1.1,0.6c0.3,0.2,0.6,0.3,0.8,0.4c0.2,0.1,0.5,0.2,0.9,0.4c0.7,0.3,1.3,0.6,1.9,0.8
		c0.6,0.3,1.3,0.6,2,0.8l7.3,3.7c1.7,1.1,3.2,2.4,4.5,3.9c2.6,3.1,3.5,6.5,2.7,10.1c-0.8,3.6-2.9,6.3-6.2,8.2l-1,0.4l-1.7,0.7
		c-0.2,0.1-0.3,0.1-0.4,0.1c0,0,0,0.1,0.1,0.1c0.1,0,0.1,0,0.1,0c-0.1,0-0.3,0-0.6,0c-3.6,0.2-6.6,0.1-8.9-0.3
		c-2.2-0.3-4.8-1.6-7.8-3.9c-0.4-0.3-0.8-0.6-1.2-1.1c-0.4-0.5-0.8-1-1.1-1.6l-1.7-3.1c-0.2-0.4-0.4-0.8-0.6-1.2
		c-0.2-0.4-0.4-0.8-0.6-1.3c-0.2-0.4-0.3-0.9-0.4-1.3c-0.1-0.5-0.1-0.9-0.1-1.4l0-0.1c0,0,0,0,0,0c0,0,0,0,0,0l0.1-0.4l0.1-0.2
		c0-0.1,0-0.2,0.1-0.3c0,0,0-0.1,0.1-0.1c0-0.1,0-0.1,0-0.2c0-0.1,0-0.2,0-0.4c1.1-0.1,2.2,0.3,3.1,1l1.7,1.7c1.9,2.5,4.6,4.3,8,5.2
		c3.5,1,6.2,0.9,8.1-0.1c1.2-0.6,1.5-1.6,0.7-2.7c0,0-0.1-0.1-0.2-0.2c-0.1-0.1-0.1-0.1-0.1-0.2c-0.9-1.1-2.1-2-3.6-2.7
		c-0.7-0.3-1.4-0.7-2.1-1c-0.7-0.3-1.3-0.6-1.9-0.9c-0.2-0.1-0.3-0.1-0.3-0.1c-0.1,0-0.1,0-0.2,0c-0.1,0-0.1,0-0.2,0
		c-0.1,0-0.2-0.1-0.3-0.1l-4.4-1.7l-2.2-0.9c-0.8-0.3-1.4-0.7-2-1.1c-0.6-0.4-1.2-0.8-1.9-1.3l-3.3-3c-0.9-1.1-1.7-2.5-2.4-4.1
		c-0.3-0.7-0.4-1.4-0.5-2c-0.1-0.7-0.2-1.4-0.3-2.1L502.5,449.7z"/>
	<path class="st1" d="M537.9,448l0-0.4L537.9,448l0-0.4c0,0,0-0.2,0-0.4c0.2-2.9,1-5,2.2-6.4c0.6-0.7,1.3-1.4,1.9-2.1
		c0.7-0.7,1.3-1.3,2-1.9c2-1.9,4.8-3.2,8.4-3.9c3.5-0.8,6.6-0.9,9.2-0.2c3.8,1.1,6.7,3,8.8,5.7c1.7,2.3,2.6,4.3,2.9,6.1
		c0.3,1.8-0.2,4-1.3,6.7l-0.6,1.4c-0.2,0.4-0.2,0.6-0.2,0.6c0,0,0,0.2-0.2,0.6c-0.3,0.7-0.6,1-0.8,1.2c-0.3,0.1-0.5,0.4-0.6,0.9
		c-0.6-0.4-0.8-0.6-0.6-0.6c0.2,0,0-0.1-0.6-0.1c-0.6,0-0.8,0.1-0.8,0.2c0.1,0.1-0.1-0.2-0.5-0.9l-0.9-1.1c-0.2-0.3-0.3-0.5-0.2-0.6
		c0.1,0,0.1-0.4,0.1-1.2c-1.2,0-2.2-0.7-3-2.2c-0.5-0.9-0.7-1.3-0.7-1.3c0,0-0.5-0.3-1.5-0.8c-0.5-0.2-0.8-0.4-0.8-0.6
		c-0.1-0.2-0.5-0.4-1.2-0.6c-1-0.2-2.2-0.2-3.6,0.1c-1.5,0.2-2.7,0.6-3.7,1.3c0,0-0.1,0.1-0.2,0.1c-0.1,0-0.2,0.1-0.4,0.2
		c-0.1,0.1-0.2,0.1-0.2,0.1c0,0-0.1,0.1-0.1,0.1c0,0-0.1,0-0.1,0l-0.6,0.5c-0.2,0.1-0.1,0.7,0.3,1.7c0.3,0.7,0.8,1.4,1.6,2
		c0.4,0.3,0.8,0.5,1.2,0.7c0.4,0.2,0.7,0.4,1.1,0.6c0.3,0.2,0.6,0.3,0.8,0.4c0.2,0.1,0.5,0.2,0.9,0.4c0.7,0.3,1.3,0.6,1.9,0.8
		c0.6,0.3,1.3,0.6,2,0.8l7.3,3.7c1.7,1.1,3.2,2.4,4.5,3.9c2.6,3.1,3.5,6.5,2.7,10.1c-0.8,3.6-2.9,6.3-6.2,8.2l-1,0.4l-1.7,0.7
		c-0.2,0.1-0.3,0.1-0.4,0.1c0,0,0,0.1,0.1,0.1c0.1,0,0.1,0,0.1,0c-0.1,0-0.3,0-0.6,0c-3.6,0.2-6.6,0.1-8.9-0.3
		c-2.2-0.3-4.8-1.6-7.8-3.9c-0.4-0.3-0.8-0.6-1.2-1.1c-0.4-0.5-0.8-1-1.1-1.6l-1.7-3.1c-0.2-0.4-0.4-0.8-0.6-1.2
		c-0.2-0.4-0.4-0.8-0.6-1.3c-0.2-0.4-0.3-0.9-0.4-1.3c-0.1-0.5-0.1-0.9-0.1-1.4l0-0.1c0,0,0,0,0,0c0,0,0,0,0,0l0.1-0.4l0.1-0.2
		c0-0.1,0-0.2,0.1-0.3c0,0,0-0.1,0.1-0.1c0-0.1,0-0.1,0-0.2c0-0.1,0-0.2,0-0.4c1.1-0.1,2.2,0.3,3.1,1l1.7,1.7c1.9,2.5,4.6,4.3,8,5.2
		c3.5,1,6.2,0.9,8.1-0.1c1.2-0.6,1.5-1.6,0.7-2.7c0,0-0.1-0.1-0.2-0.2c-0.1-0.1-0.1-0.1-0.1-0.2c-0.9-1.1-2.1-2-3.6-2.7
		c-0.7-0.3-1.4-0.7-2.1-1s-1.3-0.6-1.9-0.9c-0.2-0.1-0.3-0.1-0.3-0.1c-0.1,0-0.1,0-0.2,0c-0.1,0-0.1,0-0.2,0c-0.1,0-0.2-0.1-0.3-0.1
		l-4.4-1.7l-2.2-0.9c-0.8-0.3-1.4-0.7-2-1.1c-0.6-0.4-1.2-0.8-1.9-1.3l-3.3-3c-0.9-1.1-1.7-2.5-2.4-4.1c-0.3-0.7-0.4-1.4-0.5-2
		c-0.1-0.7-0.2-1.4-0.3-2.1L537.9,448z"/>
</g>
</svg>
