<?xml version="1.0" encoding="utf-8"?>
<!-- Generator: Adobe Illustrator 16.0.0, SVG Export Plug-In . SVG Version: 6.00 Build 0)  -->
<svg version="1.2" baseProfile="tiny" id="Layer_1" xmlns="http://www.w3.org/2000/svg" xmlns:xlink="http://www.w3.org/1999/xlink"
	 x="0px" y="0px" width="117.834px" height="50px" viewBox="0 0 117.834 50" xml:space="preserve">
<g>
	<g>
		<path fill-rule="evenodd" fill="#E34000" d="M10.476,50h0.442c-1.419-2.229-2.619-4.644-3.59-7.193
			c-0.229-0.596-0.466-1.188-0.692-1.826c-0.097,0.053-0.194,0.106-0.291,0.158c0.084,0.255,0.157,0.471,0.23,0.678
			C7.591,44.728,8.897,47.477,10.476,50z"/>
		<path fill-rule="evenodd" fill="#E34000" d="M6.819,37.028c-1.974-7.721-1.729-16.086-0.194-23.92
			c0.577-2.956,1.654-5.8,2.901-8.454C9.694,4.296,9.861,3.922,10,3.558c0.358-0.941,0.647-1.944,1.16-2.776
			C11.324,0.514,11.509,0.263,11.68,0h-0.605c-0.25,0.387-0.494,0.78-0.73,1.179c0.386,0.204,0.077,0.817-0.316,1.557
			C9.431,3.86,8.907,5.041,8.422,6.236c-1.325,3.277-2.235,6.78-2.812,10.361C4.576,23.03,4.763,29.771,6.165,36.077
			c0.946,4.271,2.307,8.515,4.625,11.953c0.362,0.536,0.713,1.14,1.045,1.718c0.049,0.086,0.106,0.167,0.157,0.252h0.084
			c-1.714-2.556-3.071-5.414-3.989-8.524C7.658,40.017,7.204,38.525,6.819,37.028z"/>
		<path fill-rule="evenodd" fill="#E34000" d="M2.536,38.35c-0.041-0.196-0.089-0.554-0.063-0.571
			c0.262-0.176,0.032-0.781-0.061-1.249c-0.503-2.478-0.81-5.015-1.027-7.548c-0.213-2.496-0.083-4.974-0.185-7.535
			c-0.073-1.801,0.297-3.869,0.616-5.776c-0.036-0.013-0.073-0.024-0.109-0.036c-0.06,0.291-0.118,0.583-0.196,0.99
			c-0.012-0.194-0.022-0.248-0.015-0.298c0.571-3.774,1.491-7.48,2.856-10.916C5.079,3.567,5.867,1.723,6.798,0H6.35
			C6.33,0.038,6.308,0.075,6.287,0.113c-2.678,5.055-4.42,10.8-5.247,16.621c0.049,0.314,0.152,0.561,0.129,0.831
			c-0.122,1.461-0.188,2.931-0.256,4.396c-0.229,4.981,0.149,10.01,1.164,14.822c0.053,0.257,0.077,0.54,0.098,0.796
			c0.029,0.376,0.002,0.745,0.08,1.111c0.369,1.751,0.863,3.471,1.4,5.156c0.667,2.104,1.417,4.2,2.371,6.152h0.467
			c-0.402-1.192-1.026-2.238-1.48-3.388C3.964,43.962,3.133,41.188,2.536,38.35z"/>
		<path fill-rule="evenodd" fill="#E34000" d="M21.898,0c-4.415,3.475-7.401,8.776-9.006,14.675c0.296-0.888,0.573-1.65,0.896-2.37
			c0.226-0.501,0.548-0.919,0.754-1.416c1.354-3.256,3.183-6.218,5.52-8.646C20.834,1.442,21.656,0.672,22.542,0H21.898z"/>
		<path fill-rule="evenodd" fill="#E34000" d="M16.863,46.118c-0.624-0.457-1.257-1.397-1.733-2.262
			c-3.201-5.732-4.92-12.776-4.554-19.785c0.276-5.271,1.282-10.553,3.382-15.184c0.559-1.231,1.093-2.501,1.792-3.644
			c1.2-1.963,2.651-3.716,4.292-5.244h-0.774c-0.185,0.237-0.368,0.475-0.563,0.696c-1.626,1.84-3.001,3.917-4.169,6.132
			c-2.885,5.485-4.309,11.99-4.395,18.556c-0.084,6.726,1.62,13.451,4.785,18.901c0.104,0.181,0.25,0.331,0.382,0.475
			c0.26,0.277,0.56,0.488,0.788,0.8c0.83,1.139,1.731,2.21,2.677,3.236c0.384,0.416,0.785,0.815,1.195,1.204h0.661
			c-0.633-0.563-1.247-1.149-1.822-1.776C18.166,47.521,17.654,46.699,16.863,46.118z"/>
		<path fill-rule="evenodd" fill="#E34000" d="M8.19,0.094C8.21,0.059,8.225,0.032,8.244,0H7.797
			c-2.415,4.416-4.341,9.315-5.05,14.614c-0.328,2.446-0.743,4.992-0.872,7.521c0.193,0.13,0.314,0.208,0.468,0.307
			c-0.185,3.972,0.05,7.977,0.703,11.865c-0.121,0.101-0.21,0.173-0.378,0.312c0.356,2.07,0.83,4.107,1.42,6.09
			c-0.03,0.021-0.059,0.039-0.09,0.058c-0.068-0.095-0.137-0.192-0.205-0.291c-0.026,0.028-0.054,0.057-0.081,0.085
			c0.97,3.33,2.271,6.511,3.897,9.439h0.383c-0.439-0.771-0.866-1.555-1.259-2.361c-0.375-0.771-0.644-1.617-0.958-2.426
			c-0.448-1.154-0.884-2.324-1.259-3.52c-0.082-0.26-0.226-0.7-0.2-0.769c0.15-0.404-0.111-0.946-0.234-1.43
			c-0.414-1.604-0.763-3.232-1.028-4.849c0.163-0.122,0.266-0.2,0.38-0.287c-0.055-0.358-0.095-0.666-0.141-0.971
			c-0.494-3.341-0.684-6.756-0.551-10.147c0.018-0.462,0.093-0.924,0.167-1.368c0.045-0.272,0.16-0.502,0.18-0.761
			c0.153-2.006,0.407-3.999,0.759-5.965c0.243-1.355,0.514-2.703,0.851-4.029c-0.03-0.018-0.061-0.036-0.09-0.06
			c-0.122,0.394-0.248,0.785-0.352,1.188c-0.724,2.858-1.209,5.823-1.441,8.824c-0.071,0.946-0.215,1.234-0.536,0.848
			c0.143-2.558,0.466-5.119,0.952-7.63c0.063-0.335,0.289-0.807,0.103-1.104c-0.036-0.053,0.155-0.776,0.254-1.185
			C4.604,7.767,6.14,3.731,8.19,0.094z"/>
		<path fill-rule="evenodd" fill="#E34000" d="M-4.15,3.138C-3.796,2.077-3.415,1.03-3.006,0h-0.354
			c-0.28,0.715-0.535,1.446-0.79,2.175V3.138z"/>
		<path fill-rule="evenodd" fill="#E34000" d="M-4.15,47.956c0.239,0.686,0.474,1.372,0.736,2.044h0.372
			c-0.397-1.007-0.762-2.033-1.108-3.069V47.956z"/>
		<path fill-rule="evenodd" fill="#E34000" d="M4.312,18.422c0.247-2.554,0.974-4.965,1.346-7.515
			C5.81,9.854,6.317,8.701,6.68,7.613C7.57,4.922,8.786,2.405,10.159,0H9.841C8.534,2.137,7.418,4.433,6.502,6.846
			c-0.47,1.24-0.893,2.512-1.252,3.81c-0.073,0.262-0.159,0.769-0.127,0.787c0.192,0.107,0.064,0.465-0.022,0.814
			c-0.913,3.643-1.422,7.445-1.534,11.267c-0.007,0.232-0.033,0.649-0.057,0.658c-0.262,0.09-0.165,0.65-0.167,1.032
			c-0.013,2.299,0.126,4.604,0.411,6.88c0.388,3.089,1.045,6.123,1.974,9.029c0.057,0.18,0.139,0.352,0.237,0.583
			c0.086-0.104,0.161-0.195,0.294-0.354c-1.662-4.969-2.506-10.294-2.571-15.628c-0.005-0.303-0.028-0.821,0.017-0.876
			c0.341-0.43,0.194-1.255,0.231-1.894C4.021,21.437,4.168,19.922,4.312,18.422z"/>
		<path fill-rule="evenodd" fill="#E34000" d="M3.339,0C2.632,1.527,1.978,3.09,1.4,4.697c-0.861,2.395-1.568,4.879-2.116,7.471
			c-0.104,0.018-0.211,0.033-0.34,0.055c-0.061,0.291-0.107,0.514-0.15,0.743c-1.344,7.061-1.455,14.486-0.348,21.592
			c0.124,0.789,0.239,1.581,0.395,2.357c0.034,0.17,0.131,0.334,0.201,0.445c0.014,0.023,0.07-0.15,0.058-0.25
			c-0.124-0.966-0.184-1.948-0.329-2.902c-0.462-3.044-0.761-6.141-0.773-9.254c-0.016-3.721,0.336-7.438,0.981-11.063
			c0.156-0.876,0.314-1.564,0.626-1.293c0.623-3.012,1.473-5.792,2.443-8.484C2.563,2.684,3.216,1.338,3.872,0H3.339z"/>
		<path fill-rule="evenodd" fill="#E34000" d="M12.709,43.967c1.004,2.238,2.382,4.228,3.936,6.033h0.569
			c-0.992-1.116-1.909-2.31-2.706-3.606c-1.249-2.031-2.215-4.271-3.006-6.584c-0.293-0.859-0.598-1.717-0.85-2.597
			c-0.052-0.183-0.135-0.508-0.111-0.539c0.196-0.247-0.001-0.644-0.081-0.977c-0.694-2.883-1.091-5.876-1.182-8.884
			c-0.001-0.1,0.001-0.2,0.005-0.375c0.058,0.173,0.091,0.27,0.125,0.367c0.052-0.577,0.038-1.143,0.042-1.711
			c0-0.276-0.013-0.75,0.038-0.795c0.311-0.282,0.191-0.865,0.219-1.314c0.081-1.378,0.2-2.755,0.396-4.118
			c0.08-0.554,0.171-1.105,0.271-1.653c-0.033-0.029-0.068-0.06-0.1-0.089c-0.067,0.163-0.16,0.317-0.196,0.496
			c-0.378,1.915-0.616,3.881-0.73,5.863c-0.034,0.572-0.08,1.142-0.105,1.716l-0.042-0.012c-0.016-0.348-0.027-0.695-0.036-1.043
			c-0.127,1.099-0.142,2.215-0.159,3.32c-0.047,3.2,0.661,6.321,1.234,9.464C10.684,39.362,11.693,41.712,12.709,43.967z"/>
		<path fill-rule="evenodd" fill="#E34000" d="M18.219,50h0.73c-0.103-0.103-0.209-0.198-0.309-0.304
			c-0.02-0.021-0.06-0.02-0.09-0.03c0.053,0.085,0.107,0.166,0.16,0.251c0.001,0.001-0.022,0.007-0.059,0.02
			c-1.942-1.882-3.479-4.244-5.008-6.53c-0.083-0.125-0.164-0.262-0.242-0.395c0.063,0.285,0.169,0.519,0.286,0.739
			C14.922,46.077,16.419,48.218,18.219,50z"/>
		<path fill-rule="evenodd" fill="#E34000" d="M1.855,50c-0.762-1.665-1.449-3.38-2.044-5.146c-0.135-0.401-0.287-0.795-0.424-1.195
			c-0.014,0.015-0.027,0.032-0.041,0.051c0.053,0.23,0.106,0.465,0.163,0.695c-0.042,0.01-0.083,0.02-0.125,0.029
			c-1.141-3.538-1.956-7.243-2.433-11.02c-0.092-0.745-0.178-1.085-0.343-0.706c0.764,6.11,2.38,11.992,4.817,17.291H1.855z"/>
		<path fill-rule="evenodd" fill="#E34000" d="M3.374,50h0.397c-0.812-1.676-1.542-3.411-2.176-5.214
			c-0.052,0.006-0.127,0.002-0.191,0.032c-0.027,0.016-0.029,0.1-0.046,0.173c0.084,0.24,0.163,0.451,0.24,0.669
			C2.126,47.144,2.72,48.591,3.374,50z"/>
		<path fill-rule="evenodd" fill="#E34000" d="M4.851,0c-1.2,2.429-2.209,4.991-3.013,7.646c-0.656,2.162-1.191,4.381-1.594,6.638
			c-0.118,0.667-0.117,1.091,0.131,1.003C1.267,9.868,2.929,4.667,5.325,0H4.851z"/>
		<path fill-rule="evenodd" fill="#E34000" d="M7.005,46.2c0.611,1.319,1.302,2.579,2.042,3.8h0.375
			c-1.48-2.479-2.719-5.152-3.687-7.976c-0.257,0.149-0.261,0.151-0.047,0.787C6.081,43.965,6.501,45.11,7.005,46.2z"/>
		<path fill-rule="evenodd" fill="#E34000" d="M16.523,0c-0.434,0.506-0.855,1.025-1.253,1.567c-0.603,0.819-1.084,1.76-1.554,2.681
			c-0.009,0.018,0.016,0.055,0.045,0.131c0.281-0.437,0.563-0.847,0.848-1.256c0.754-1.082,1.564-2.13,2.43-3.123H16.523z"/>
		<path fill-rule="evenodd" fill="#E34000" d="M-4.15,7.528C-3.466,4.945-2.645,2.421-1.647,0h-0.509
			C-2.914,1.866-3.576,3.79-4.15,5.753V7.528z"/>
		<path fill-rule="evenodd" fill="#E34000" d="M-4.15,44.393c0.56,1.913,1.198,3.788,1.93,5.607h0.492
			c-0.961-2.357-1.756-4.812-2.422-7.321V44.393z"/>
		<path fill-rule="evenodd" fill="#E34000" d="M-3.73,33.052c0.25-0.263,0.085-0.955,0.036-1.508
			c-0.278-3.055-0.335-6.13-0.221-9.196C-3.62,14.558-1.982,6.84,1.039,0H0.654C-1.979,5.983-3.58,12.633-4.15,19.427v11.068
			c0.066,0.751,0.125,1.484,0.129,2.14c0.007,1.179,0.132,2.254,0.319,3.385c0.804,4.878,2.16,9.607,4.065,13.98h0.425
			c-2.143-4.844-3.629-10.123-4.417-15.581C-3.697,33.948-3.777,33.095-3.73,33.052z"/>
		<path fill-rule="evenodd" fill="#E34000" d="M-1.727,35.92c-0.334-0.147-0.379-0.964-0.467-1.58
			c-1.008-6.917-0.874-14.106,0.396-20.953c0.073-0.389,0.149-0.782,0.229-1.17c-0.018-0.003-0.038-0.001-0.056-0.008
			c-0.048,0.153-0.096,0.305-0.144,0.459c0.091-0.719,0.243-1.39,0.39-2.056C-0.565,6.925,0.59,3.358,2.08,0H1.72
			C1.13,1.33,0.592,2.693,0.112,4.086c-1.124,3.257-1.938,6.665-2.489,10.133c-0.392,2.473-0.659,4.974-0.779,7.488
			c-0.204,4.209-0.008,8.444,0.598,12.582c0.051,0.358,0.194,0.996,0.236,1.002c0.285,0.041,0.32,0.741,0.413,1.229
			C-1.02,41.255,0.411,45.813,2.379,50h0.278c-1.928-4.154-3.331-8.664-4.194-13.337C-1.585,36.4-1.688,35.938-1.727,35.92z"/>
		<path fill="#E34000" d="M2.484,45.979C3.019,47.353,3.61,48.694,4.254,50h0.419c-1.02-1.98-1.904-4.05-2.767-6.185
			c-0.948-2.343-1.616-5.192-1.926-7.976c-0.29-2.531-0.656-5.162-0.638-7.788c0.014-2.406-0.042-4.929,0.13-7.396
			c0.026-0.381-0.03-0.858-0.096-1.156c-0.091-0.409-0.141-0.83-0.13-1.328c-0.064,0.738-0.122,1.478-0.166,2.219
			c-0.099,1.63-0.18,3.271-0.197,4.907c-0.06,5.066,0.484,10.157,1.667,15.026C1.032,42.308,1.776,44.159,2.484,45.979z"/>
		<path fill="#E34000" d="M-0.093,12.988c-0.235,1.352-0.414,2.715-0.556,4.083c0.203-1.357,0.406-2.723,0.677-4.064
			C-0.012,13.002-0.054,12.996-0.093,12.988z"/>
		<path fill-rule="evenodd" fill="#E34000" d="M-4.15,38.547v1.685c0.674,3.372,1.645,6.652,2.899,9.769h0.388
			c-1.103-3.015-2.162-6.193-2.866-9.447C-3.874,39.888-4.015,39.218-4.15,38.547z"/>
		<path fill-rule="evenodd" fill="#E34000" d="M-4.15,13.034C-3.362,8.649-2.14,4.391-0.472,0.403
			C-0.633,0.344-0.747,0.3-0.885,0.254c-0.171,0.412-0.327,0.801-0.477,1.185c-1.195,3.044-2.112,6.228-2.789,9.487V13.034z"/>
		<path fill-rule="evenodd" fill="#E34000" d="M0.77,14.133c-0.102,0.552-0.218,1.108-0.276,1.659
			c-0.034,0.319,0.014,0.621,0.032,0.922c0.01,0.167,0.058,0.319,0.042,0.483c-0.203,2.141-0.25,4.288-0.287,6.43
			c-0.075,4.367,0.43,8.758,1.069,12.952c0.65,4.263,2.063,8.22,3.692,12.012c-0.129-0.229-0.263-0.457-0.384-0.698
			C2.952,44.47,1.63,40.718,0.972,36.688c-0.416-2.539-0.798-5.138-0.987-7.751c-0.323-4.451-0.184-8.977,0.469-13.394
			c0.071-0.483,0.16-0.96,0.25-1.439C0.725,14.115,0.748,14.123,0.77,14.133z"/>
		<path fill-rule="evenodd" fill="#E34000" d="M9.252,39.519c0.051,0.342,0.192,0.69,0.321,1.044
			c1.122,3.11,2.601,6.021,4.441,8.605c0.197,0.276,0.396,0.557,0.614,0.802c0.009,0.011,0.02,0.02,0.029,0.03h0.67
			c-0.331-0.398-0.662-0.797-1.01-1.164c-1.132-1.186-2.05-2.987-2.811-4.687c-0.741-1.625-1.705-3.256-1.835-5.133
			c-0.957-2.958-1.591-6.073-1.906-9.236c-0.138-0.062-0.249-0.112-0.436-0.2c0.293,3.114,0.882,6.108,1.742,8.968
			C9.163,38.853,9.189,39.195,9.252,39.519z"/>
		<path fill-rule="evenodd" fill="#E34000" d="M9.498,7.889C10.585,5.09,11.906,2.402,13.576,0h-0.434
			c-0.161,0.217-0.322,0.436-0.472,0.663C9.977,4.74,8.138,9.533,7.108,14.565c-0.194,0.944-0.349,1.898-0.458,2.86
			c-0.153,1.356-0.187,2.719-0.267,4.072c-0.164,2.772-0.142,5.569,0.127,8.33c0.337,3.466,1.031,6.88,2.119,10.147
			c0.087-0.048,0.175-0.096,0.248-0.136C6.8,33.585,6.112,26.667,6.825,19.896c-0.117,0.101-0.167,0.143-0.26,0.226
			c0.045-0.44,0.09-0.835,0.139-1.228C7.188,15.069,8.147,11.359,9.498,7.889z"/>
		<path fill-rule="evenodd" fill="#E34000" d="M14.466,11.542c-0.017,1.419-0.574,2.664-0.908,3.961
			c-1.66,6.405-1.629,13.529,0.144,19.911c0.582,3.386,2.144,6.377,3.857,9.215c-0.13-0.109-0.288-0.188-0.385-0.337
			c-1.282-1.91-2.354-4.019-3.153-6.285c-1.985-5.634-2.519-12.011-1.691-18.036c0.372-2.701,0.983-5.357,1.896-7.849
			C14.292,11.941,14.369,11.771,14.466,11.542z"/>
		<path fill-rule="evenodd" fill="#E34000" d="M15.02,0c-0.642,0.851-1.235,1.747-1.762,2.707c-1.305,2.374-2.467,4.96-3.671,7.49
			c-0.558,1.165-0.978,2.54-1.312,3.895c-0.74,2.989-1.139,6.109-1.251,9.24c0.024,0.06,0.049,0.12,0.073,0.179
			c0.082-0.216,0.222-0.415,0.236-0.643c0.273-4.191,0.875-8.483,2.478-12.166c0.107-0.246,0.202-0.519,0.323-0.743
			c0.116-0.218,0.293-0.367,0.377-0.584c0.915-2.38,2.039-4.639,3.384-6.708c0.101-0.154,0.193-0.329,0.268-0.495
			c0.124-0.272,0.196-0.582,0.358-0.812C14.848,0.896,15.19,0.441,15.543,0H15.02z"/>
		<path fill-rule="evenodd" fill="#E34000" d="M11.5,28.458c0.027,0.322,0.056,0.644,0.091,0.963
			c0.545,4.994,2.004,9.825,4.405,13.895c0.436,0.738,1.027,1.306,1.53,1.974c0.947,1.265,1.964,2.477,3.097,3.563
			c0.116,0.109,0.178,0.297,0.269,0.449c-0.132-0.063-0.275-0.1-0.392-0.198c-4.495-3.848-7.508-9.736-8.641-16.224
			c-0.254-1.449-0.385-2.925-0.456-4.393C11.436,28.478,11.467,28.468,11.5,28.458z"/>
		<path fill-rule="evenodd" fill="#E34000" d="M13.383,50c-2.113-2.955-3.781-6.323-4.986-9.953
			c-0.078,0.042-0.168,0.091-0.291,0.158C9.285,43.755,10.9,47.071,12.95,50H13.383z"/>
		<path fill-rule="evenodd" fill="#E34000" d="M8.288,29.989C8.159,29.986,8.067,29.984,8,29.981
			c-0.137-1.315-0.23-2.585-0.239-3.852c-0.012-1.578,0.006-3.216,0.269-4.703c0.565-3.196,0.944-6.441,1.946-9.463
			c0.24-0.721,0.514-1.423,0.8-2.115c0.041,0.003,0.082,0.006,0.121,0.01c-0.044,0.258-0.048,0.534-0.129,0.77
			c-1.079,3.146-1.732,6.491-2.144,9.862c-0.106,0.843-0.179,1.968-0.38,2.659c-0.338,1.159-0.175,2.321-0.181,3.465
			C8.058,27.693,8.161,28.784,8.288,29.989z"/>
		<path fill-rule="evenodd" fill="#E34000" d="M18.242,0c-2.23,2.343-4.042,5.13-5.431,8.201c-0.104,0.232-0.098,0.543-0.139,0.816
			c0.073-0.005,0.146-0.007,0.22-0.009C14.267,5.674,16.117,2.606,18.538,0H18.242z"/>
		<path fill-rule="evenodd" fill="#E34000" d="M14.58,3.466c-0.173,0.268-0.345,0.537-0.509,0.813
			c-0.068,0.115-0.181,0.275-0.184,0.35c-0.06,1.148-0.93,1.995-1.285,3.048c-0.102,0.295-0.369,0.633-0.175,0.853
			c0.02,0.021-0.085,0.336-0.153,0.498c-1.012,2.414-1.778,4.984-2.3,7.634c-0.044,0.223-0.125,0.436-0.185,0.654
			c-0.038-0.017-0.076-0.035-0.114-0.05c0.04-0.31,0.073-0.617,0.129-0.922c0.453-2.401,1.116-4.74,1.972-6.97
			c0.126-0.331,0.417-0.749,0.199-1.011c-0.02-0.022,0.057-0.273,0.115-0.403c0.7-1.583,1.511-3.092,2.428-4.512
			C14.538,3.455,14.559,3.46,14.58,3.466z"/>
	</g>
</g>
<g>
	<g>
		<path fill-rule="evenodd" fill="#E34000" d="M107.995,0h-0.475c1.525,2.229,2.814,4.644,3.859,7.193
			c0.245,0.596,0.501,1.188,0.743,1.826c0.104-0.053,0.21-0.106,0.313-0.158c-0.091-0.255-0.169-0.471-0.247-0.678
			C111.096,5.272,109.692,2.523,107.995,0z"/>
		<path fill-rule="evenodd" fill="#E34000" d="M111.925,12.972c2.122,7.721,1.858,16.086,0.209,23.92
			c-0.62,2.956-1.778,5.8-3.118,8.454c-0.181,0.358-0.36,0.732-0.51,1.097c-0.383,0.941-0.694,1.944-1.246,2.776
			c-0.177,0.268-0.375,0.519-0.56,0.781h0.651c0.269-0.387,0.53-0.78,0.784-1.179c-0.415-0.204-0.083-0.817,0.34-1.557
			c0.642-1.125,1.206-2.306,1.726-3.501c1.425-3.277,2.403-6.78,3.023-10.361c1.113-6.433,0.91-13.174-0.596-19.479
			c-1.017-4.271-2.479-8.515-4.971-11.953c-0.39-0.536-0.767-1.14-1.123-1.718c-0.054-0.086-0.115-0.167-0.17-0.252h-0.091
			c1.843,2.556,3.301,5.414,4.287,8.524C111.024,9.983,111.512,11.475,111.925,12.972z"/>
		<path fill-rule="evenodd" fill="#E34000" d="M116.53,11.65c0.043,0.196,0.095,0.554,0.067,0.571
			c-0.282,0.176-0.034,0.781,0.065,1.249c0.541,2.478,0.871,5.015,1.104,7.548c0.229,2.496,0.09,4.974,0.198,7.535
			c0.079,1.801-0.319,3.869-0.661,5.776c0.038,0.013,0.078,0.024,0.117,0.036c0.064-0.291,0.127-0.583,0.212-0.99
			c0.012,0.194,0.023,0.248,0.015,0.298c-0.613,3.774-1.603,7.48-3.069,10.916c-0.782,1.843-1.629,3.688-2.63,5.41h0.481
			c0.022-0.038,0.046-0.075,0.067-0.113c2.878-5.055,4.751-10.8,5.641-16.621c-0.054-0.314-0.163-0.561-0.139-0.831
			c0.131-1.461,0.201-2.931,0.275-4.396c0.245-4.981-0.161-10.01-1.251-14.822c-0.058-0.257-0.083-0.54-0.105-0.796
			c-0.031-0.376-0.002-0.745-0.086-1.111c-0.396-1.751-0.929-3.471-1.505-5.156c-0.718-2.104-1.523-4.2-2.55-6.152h-0.501
			c0.432,1.192,1.104,2.238,1.591,3.388C114.994,6.038,115.889,8.813,116.53,11.65z"/>
		<path fill-rule="evenodd" fill="#E34000" d="M95.717,50c4.745-3.475,7.956-8.776,9.682-14.675c-0.319,0.888-0.617,1.65-0.964,2.37
			c-0.242,0.501-0.588,0.919-0.811,1.416c-1.454,3.256-3.421,6.218-5.933,8.646c-0.831,0.801-1.714,1.571-2.667,2.243H95.717z"/>
		<path fill-rule="evenodd" fill="#E34000" d="M101.128,3.882c0.672,0.457,1.352,1.397,1.864,2.262
			c3.44,5.732,5.288,12.776,4.895,19.785c-0.297,5.271-1.378,10.553-3.636,15.184c-0.601,1.231-1.175,2.501-1.927,3.644
			c-1.29,1.963-2.849,3.716-4.612,5.244h0.831c0.198-0.237,0.396-0.475,0.604-0.696c1.749-1.84,3.227-3.917,4.482-6.132
			c3.101-5.485,4.631-11.99,4.724-18.556c0.091-6.726-1.741-13.451-5.144-18.901c-0.113-0.181-0.27-0.331-0.41-0.475
			c-0.279-0.277-0.603-0.488-0.847-0.8c-0.893-1.139-1.861-2.21-2.879-3.236C98.661,0.788,98.231,0.389,97.79,0h-0.71
			c0.68,0.563,1.339,1.149,1.959,1.776C99.729,2.479,100.278,3.301,101.128,3.882z"/>
		<path fill-rule="evenodd" fill="#E34000" d="M110.452,49.906c-0.022,0.035-0.038,0.062-0.059,0.094h0.479
			c2.596-4.416,4.667-9.315,5.43-14.614c0.353-2.446,0.799-4.992,0.937-7.521c-0.208-0.13-0.337-0.208-0.503-0.307
			c0.199-3.972-0.054-7.977-0.755-11.865c0.129-0.101,0.226-0.173,0.406-0.312c-0.384-2.07-0.892-4.107-1.526-6.09
			c0.032-0.021,0.063-0.039,0.096-0.058c0.074,0.095,0.148,0.192,0.222,0.291c0.027-0.028,0.058-0.057,0.087-0.085
			c-1.044-3.33-2.441-6.511-4.189-9.439h-0.412c0.473,0.771,0.931,1.555,1.354,2.361c0.404,0.771,0.692,1.617,1.029,2.426
			c0.483,1.154,0.951,2.324,1.354,3.52c0.088,0.26,0.242,0.7,0.214,0.769c-0.161,0.404,0.12,0.946,0.253,1.43
			c0.444,1.604,0.82,3.232,1.104,4.849c-0.175,0.122-0.286,0.2-0.408,0.287c0.059,0.358,0.102,0.666,0.151,0.971
			c0.531,3.341,0.734,6.756,0.593,10.147c-0.02,0.462-0.101,0.924-0.181,1.368c-0.049,0.272-0.171,0.502-0.193,0.761
			c-0.164,2.006-0.437,3.999-0.815,5.965c-0.261,1.355-0.552,2.703-0.914,4.029c0.033,0.018,0.065,0.036,0.097,0.06
			c0.131-0.394,0.267-0.785,0.378-1.188c0.779-2.858,1.3-5.823,1.549-8.824c0.077-0.946,0.23-1.234,0.576-0.848
			c-0.153,2.558-0.502,5.119-1.022,7.63c-0.068,0.335-0.311,0.807-0.111,1.104c0.039,0.053-0.167,0.776-0.273,1.185
			C114.307,42.233,112.654,46.269,110.452,49.906z"/>
		<path fill-rule="evenodd" fill="#E34000" d="M123.717,46.862c-0.381,1.061-0.791,2.107-1.23,3.138h0.382
			c0.301-0.715,0.574-1.446,0.849-2.175V46.862z"/>
		<path fill-rule="evenodd" fill="#E34000" d="M123.717,2.044c-0.256-0.686-0.51-1.372-0.791-2.044h-0.399
			c0.427,1.007,0.818,2.033,1.19,3.069V2.044z"/>
		<path fill-rule="evenodd" fill="#E34000" d="M114.62,31.578c-0.265,2.554-1.047,4.965-1.446,7.515
			c-0.163,1.053-0.709,2.206-1.1,3.294c-0.956,2.691-2.263,5.208-3.739,7.613h0.343c1.404-2.137,2.604-4.433,3.588-6.846
			c0.506-1.24,0.96-2.512,1.346-3.81c0.079-0.262,0.17-0.769,0.137-0.787c-0.206-0.107-0.068-0.465,0.024-0.814
			c0.98-3.643,1.528-7.445,1.649-11.267c0.007-0.232,0.034-0.649,0.062-0.658c0.281-0.09,0.177-0.65,0.178-1.032
			c0.015-2.299-0.135-4.604-0.441-6.88c-0.417-3.089-1.123-6.123-2.121-9.029c-0.062-0.18-0.149-0.352-0.255-0.583
			c-0.093,0.104-0.173,0.195-0.316,0.354c1.786,4.969,2.694,10.294,2.764,15.628c0.005,0.303,0.028,0.821-0.019,0.876
			c-0.367,0.43-0.209,1.255-0.249,1.894C114.933,28.563,114.775,30.078,114.62,31.578z"/>
		<path fill-rule="evenodd" fill="#E34000" d="M115.666,50c0.76-1.527,1.463-3.09,2.085-4.697c0.925-2.395,1.686-4.879,2.274-7.471
			c0.112-0.018,0.228-0.033,0.366-0.055c0.064-0.291,0.114-0.514,0.161-0.743c1.445-7.061,1.564-14.486,0.374-21.592
			c-0.132-0.789-0.257-1.581-0.424-2.357c-0.036-0.17-0.141-0.334-0.217-0.445c-0.015-0.023-0.075,0.15-0.063,0.25
			c0.135,0.966,0.198,1.948,0.354,2.902c0.497,3.044,0.817,6.141,0.831,9.254c0.017,3.721-0.362,7.438-1.055,11.063
			c-0.168,0.876-0.338,1.564-0.674,1.293c-0.67,3.012-1.582,5.792-2.626,8.484c-0.555,1.43-1.257,2.775-1.962,4.113H115.666z"/>
		<path fill-rule="evenodd" fill="#E34000" d="M105.595,6.033c-1.08-2.238-2.562-4.228-4.231-6.033h-0.611
			c1.066,1.116,2.052,2.31,2.908,3.606c1.342,2.031,2.38,4.271,3.231,6.584c0.314,0.859,0.642,1.717,0.914,2.597
			c0.056,0.183,0.145,0.508,0.119,0.539c-0.211,0.247,0.001,0.644,0.087,0.977c0.747,2.883,1.173,5.876,1.271,8.884
			c0.001,0.1-0.003,0.2-0.006,0.375c-0.063-0.173-0.098-0.27-0.135-0.367c-0.056,0.577-0.039,1.143-0.045,1.711
			c-0.001,0.276,0.014,0.75-0.04,0.795c-0.335,0.282-0.207,0.865-0.236,1.314c-0.087,1.378-0.216,2.755-0.426,4.118
			c-0.085,0.554-0.183,1.105-0.29,1.653c0.034,0.029,0.072,0.06,0.107,0.089c0.071-0.163,0.171-0.317,0.21-0.496
			c0.406-1.915,0.662-3.881,0.785-5.863c0.035-0.572,0.085-1.142,0.113-1.716l0.044,0.012c0.018,0.348,0.029,0.695,0.038,1.043
			c0.138-1.099,0.153-2.215,0.172-3.32c0.05-3.2-0.712-6.321-1.326-9.464C107.771,10.638,106.686,8.288,105.595,6.033z"/>
		<path fill-rule="evenodd" fill="#E34000" d="M99.672,0h-0.786c0.11,0.103,0.226,0.198,0.333,0.304
			c0.021,0.021,0.064,0.02,0.097,0.03c-0.058-0.085-0.115-0.166-0.171-0.251c-0.003-0.001,0.022-0.007,0.063-0.02
			c2.087,1.882,3.739,4.244,5.383,6.53c0.091,0.125,0.177,0.262,0.261,0.395c-0.067-0.285-0.183-0.519-0.308-0.739
			C103.215,3.923,101.606,1.782,99.672,0z"/>
		<path fill-rule="evenodd" fill="#E34000" d="M117.261,0c0.82,1.665,1.558,3.38,2.198,5.146c0.145,0.401,0.309,0.795,0.455,1.195
			c0.016-0.015,0.03-0.032,0.044-0.051c-0.057-0.23-0.114-0.465-0.175-0.695c0.046-0.01,0.09-0.02,0.135-0.029
			c1.227,3.538,2.102,7.243,2.615,11.02c0.099,0.745,0.191,1.085,0.368,0.706c-0.821-6.11-2.558-11.992-5.177-17.291H117.261z"/>
		<path fill-rule="evenodd" fill="#E34000" d="M115.629,0h-0.426c0.872,1.676,1.657,3.411,2.338,5.214
			c0.056-0.006,0.137-0.002,0.205-0.032c0.029-0.016,0.031-0.1,0.05-0.173c-0.09-0.24-0.175-0.451-0.258-0.669
			C116.971,2.856,116.331,1.409,115.629,0z"/>
		<path fill-rule="evenodd" fill="#E34000" d="M114.041,50c1.289-2.429,2.374-4.991,3.238-7.646
			c0.705-2.162,1.281-4.381,1.713-6.638c0.128-0.667,0.127-1.091-0.14-1.003c-0.959,5.419-2.746,10.62-5.321,15.287H114.041z"/>
		<path fill-rule="evenodd" fill="#E34000" d="M111.725,3.8c-0.656-1.319-1.399-2.579-2.193-3.8h-0.403
			c1.592,2.479,2.922,5.152,3.962,7.976c0.277-0.149,0.282-0.151,0.052-0.787C112.72,6.035,112.268,4.89,111.725,3.8z"/>
		<path fill-rule="evenodd" fill="#E34000" d="M101.494,50c0.467-0.506,0.92-1.025,1.347-1.567c0.647-0.819,1.166-1.76,1.671-2.681
			c0.01-0.018-0.017-0.055-0.048-0.131c-0.303,0.437-0.604,0.847-0.911,1.256c-0.812,1.082-1.682,2.13-2.612,3.123H101.494z"/>
		<path fill-rule="evenodd" fill="#E34000" d="M123.717,42.472c-0.735,2.583-1.619,5.107-2.69,7.528h0.548
			c0.813-1.866,1.525-3.79,2.143-5.753V42.472z"/>
		<path fill-rule="evenodd" fill="#E34000" d="M123.717,5.607c-0.602-1.913-1.288-3.788-2.074-5.607h-0.529
			c1.033,2.357,1.888,4.812,2.604,7.321V5.607z"/>
		<path fill-rule="evenodd" fill="#E34000" d="M123.265,16.948c-0.269,0.263-0.091,0.955-0.038,1.508
			c0.299,3.055,0.36,6.13,0.236,9.196c-0.316,7.79-2.076,15.508-5.324,22.348h0.414c2.829-5.983,4.552-12.633,5.164-19.427V19.505
			c-0.07-0.751-0.133-1.484-0.139-2.14c-0.007-1.179-0.143-2.254-0.343-3.385c-0.865-4.878-2.322-9.607-4.37-13.98h-0.458
			c2.304,4.844,3.901,10.123,4.748,15.581C123.23,16.052,123.316,16.905,123.265,16.948z"/>
		<path fill-rule="evenodd" fill="#E34000" d="M121.11,14.08c0.36,0.147,0.408,0.964,0.503,1.58
			c1.084,6.917,0.939,14.106-0.425,20.953c-0.078,0.389-0.16,0.782-0.245,1.17c0.018,0.003,0.039,0.001,0.06,0.008
			c0.051-0.153,0.103-0.305,0.154-0.459c-0.099,0.719-0.261,1.39-0.419,2.056c-0.875,3.688-2.117,7.254-3.719,10.612h0.388
			c0.633-1.33,1.211-2.693,1.728-4.086c1.208-3.257,2.084-6.665,2.676-10.133c0.422-2.473,0.707-4.974,0.837-7.488
			c0.219-4.209,0.009-8.444-0.643-12.582c-0.056-0.358-0.208-0.996-0.254-1.002c-0.307-0.041-0.344-0.741-0.443-1.229
			c-0.957-4.734-2.493-9.292-4.609-13.479h-0.3c2.071,4.154,3.58,8.664,4.509,13.337C120.959,13.6,121.069,14.063,121.11,14.08z"/>
		<path fill="#E34000" d="M116.586,4.021c-0.575-1.374-1.211-2.716-1.903-4.021h-0.45c1.096,1.98,2.046,4.05,2.973,6.185
			c1.02,2.343,1.737,5.192,2.071,7.976c0.312,2.531,0.705,5.162,0.686,7.788c-0.015,2.406,0.044,4.929-0.141,7.396
			c-0.027,0.381,0.034,0.858,0.104,1.156c0.099,0.409,0.15,0.83,0.141,1.328c0.068-0.738,0.13-1.478,0.178-2.219
			c0.105-1.63,0.193-3.271,0.212-4.907c0.065-5.066-0.521-10.157-1.791-15.026C118.146,7.692,117.347,5.841,116.586,4.021z"/>
		<path fill="#E34000" d="M119.355,37.012c0.252-1.352,0.444-2.715,0.597-4.083c-0.217,1.357-0.437,2.723-0.727,4.064
			C119.269,36.998,119.313,37.004,119.355,37.012z"/>
		<path fill-rule="evenodd" fill="#E34000" d="M123.717,11.453V9.769c-0.725-3.372-1.768-6.652-3.115-9.769h-0.417
			c1.185,3.015,2.323,6.193,3.079,9.447C123.42,10.112,123.571,10.782,123.717,11.453z"/>
		<path fill-rule="evenodd" fill="#E34000" d="M123.717,36.966c-0.848,4.385-2.161,8.644-3.954,12.631
			c0.173,0.06,0.295,0.104,0.443,0.149c0.185-0.412,0.353-0.801,0.514-1.185c1.284-3.044,2.27-6.228,2.997-9.487V36.966z"/>
		<path fill-rule="evenodd" fill="#E34000" d="M118.428,35.867c0.109-0.552,0.234-1.108,0.297-1.659
			c0.037-0.319-0.015-0.621-0.034-0.922c-0.011-0.167-0.063-0.319-0.046-0.483c0.218-2.141,0.27-4.288,0.309-6.43
			c0.08-4.367-0.462-8.758-1.149-12.952c-0.699-4.263-2.217-8.22-3.969-12.012c0.139,0.229,0.282,0.457,0.413,0.698
			c1.834,3.423,3.255,7.175,3.963,11.205c0.447,2.539,0.858,5.138,1.061,7.751c0.348,4.451,0.198,8.977-0.503,13.394
			c-0.077,0.483-0.172,0.96-0.269,1.439C118.477,35.885,118.451,35.877,118.428,35.867z"/>
		<path fill-rule="evenodd" fill="#E34000" d="M109.311,10.481c-0.055-0.342-0.207-0.69-0.346-1.044
			c-1.206-3.11-2.795-6.021-4.773-8.605c-0.212-0.276-0.426-0.557-0.66-0.802c-0.01-0.011-0.021-0.02-0.031-0.03h-0.72
			c0.355,0.398,0.712,0.797,1.086,1.164c1.216,1.186,2.203,2.987,3.021,4.687c0.796,1.625,1.833,3.256,1.973,5.133
			c1.028,2.958,1.711,6.073,2.049,9.236c0.148,0.062,0.268,0.112,0.468,0.2c-0.314-3.114-0.947-6.108-1.873-8.968
			C109.406,11.147,109.378,10.805,109.311,10.481z"/>
		<path fill-rule="evenodd" fill="#E34000" d="M109.047,42.111c-1.17,2.799-2.59,5.486-4.385,7.889h0.467
			c0.172-0.217,0.345-0.436,0.506-0.663c2.896-4.077,4.874-8.87,5.979-13.902c0.209-0.944,0.376-1.898,0.492-2.86
			c0.165-1.356,0.201-2.719,0.288-4.072c0.176-2.772,0.152-5.569-0.137-8.33c-0.363-3.466-1.108-6.88-2.277-10.147
			c-0.094,0.048-0.188,0.096-0.268,0.136c2.233,6.255,2.973,13.173,2.206,19.943c0.127-0.101,0.18-0.143,0.279-0.226
			c-0.047,0.44-0.096,0.835-0.149,1.228C111.529,34.931,110.498,38.641,109.047,42.111z"/>
		<path fill-rule="evenodd" fill="#E34000" d="M103.705,38.458c0.019-1.419,0.616-2.664,0.976-3.961
			c1.784-6.405,1.751-13.529-0.154-19.911c-0.625-3.386-2.304-6.377-4.146-9.215c0.141,0.109,0.31,0.188,0.415,0.337
			c1.377,1.91,2.53,4.019,3.389,6.285c2.135,5.634,2.708,12.011,1.818,18.036c-0.399,2.701-1.058,5.357-2.038,7.849
			C103.893,38.059,103.811,38.229,103.705,38.458z"/>
		<path fill-rule="evenodd" fill="#E34000" d="M103.111,50c0.688-0.851,1.326-1.747,1.894-2.707c1.402-2.374,2.651-4.96,3.947-7.49
			c0.599-1.165,1.05-2.54,1.409-3.895c0.795-2.989,1.225-6.109,1.345-9.24c-0.025-0.06-0.052-0.12-0.079-0.179
			c-0.087,0.216-0.238,0.415-0.253,0.643c-0.295,4.191-0.942,8.483-2.664,12.166c-0.115,0.246-0.217,0.519-0.348,0.743
			c-0.124,0.218-0.313,0.367-0.405,0.584c-0.983,2.38-2.191,4.639-3.637,6.708c-0.109,0.154-0.209,0.329-0.288,0.495
			c-0.134,0.272-0.212,0.582-0.385,0.812c-0.353,0.465-0.721,0.919-1.1,1.36H103.111z"/>
		<path fill-rule="evenodd" fill="#E34000" d="M106.894,21.542c-0.028-0.322-0.06-0.644-0.099-0.963
			c-0.585-4.994-2.152-9.825-4.734-13.895c-0.468-0.738-1.104-1.306-1.644-1.974c-1.018-1.265-2.111-2.477-3.329-3.563
			c-0.125-0.109-0.191-0.297-0.288-0.449c0.142,0.063,0.296,0.1,0.421,0.198c4.831,3.848,8.07,9.736,9.288,16.224
			c0.273,1.449,0.414,2.925,0.489,4.393C106.963,21.522,106.929,21.532,106.894,21.542z"/>
		<path fill-rule="evenodd" fill="#E34000" d="M104.869,0c2.271,2.955,4.064,6.323,5.36,9.953c0.083-0.042,0.181-0.091,0.313-0.158
			c-1.267-3.55-3.003-6.866-5.207-9.795H104.869z"/>
		<path fill-rule="evenodd" fill="#E34000" d="M110.347,20.011c0.139,0.003,0.237,0.005,0.309,0.008
			c0.147,1.315,0.248,2.585,0.258,3.852c0.013,1.578-0.007,3.216-0.29,4.703c-0.606,3.196-1.015,6.441-2.092,9.463
			c-0.257,0.721-0.552,1.423-0.859,2.115c-0.044-0.003-0.087-0.006-0.13-0.01c0.047-0.258,0.053-0.534,0.139-0.77
			c1.16-3.146,1.862-6.491,2.305-9.862c0.113-0.843,0.192-1.968,0.407-2.659c0.365-1.159,0.188-2.321,0.196-3.465
			C110.595,22.307,110.483,21.216,110.347,20.011z"/>
		<path fill-rule="evenodd" fill="#E34000" d="M99.646,50c2.396-2.343,4.346-5.13,5.838-8.201c0.111-0.232,0.105-0.543,0.149-0.816
			c-0.079,0.005-0.157,0.007-0.236,0.009c-1.478,3.335-3.467,6.402-6.069,9.009H99.646z"/>
		<path fill-rule="evenodd" fill="#E34000" d="M103.584,46.534c0.187-0.268,0.37-0.537,0.546-0.813
			c0.074-0.115,0.195-0.275,0.198-0.35c0.063-1.148,1-1.995,1.381-3.048c0.11-0.295,0.396-0.633,0.188-0.853
			c-0.021-0.021,0.092-0.336,0.165-0.498c1.087-2.414,1.911-4.984,2.473-7.634c0.047-0.223,0.134-0.436,0.198-0.654
			c0.04,0.017,0.082,0.035,0.122,0.05c-0.043,0.31-0.078,0.617-0.139,0.922c-0.486,2.401-1.2,4.74-2.121,6.97
			c-0.135,0.331-0.446,0.749-0.213,1.011c0.022,0.022-0.06,0.273-0.124,0.403c-0.753,1.583-1.623,3.092-2.61,4.512
			C103.628,46.545,103.605,46.54,103.584,46.534z"/>
	</g>
</g>
</svg>
