<svg id="objects" xmlns="http://www.w3.org/2000/svg" viewBox="0 0 109.67 109.66"><defs><style>.cls-1{fill:#005cff;}.cls-2{fill:#f1f2f2;}</style></defs><title>be</title><circle class="cls-1" cx="54.83" cy="54.83" r="54.83"/><path class="cls-2" d="M673.87,236.39s6.16-.46,6.16-7.68S675,218,668.6,218h-21v40.38h21s12.82,0.4,12.82-11.92C681.42,246.41,682,236.39,673.87,236.39Zm-17-11.26H668.6s2.85,0,2.85,4.2-1.68,4.81-3.58,4.81h-11v-9Zm11.21,26H656.85V240.36H668.6s4.25-.05,4.25,5.54C672.86,250.58,669.74,251.1,668.06,251.15Z" transform="translate(-625.31 -183.73)"/><rect class="cls-2" x="64.54" y="36.6" width="16.66" height="4.97"/><path class="cls-2" d="M698.53,228.22C683,228.22,683,243.74,683,243.74s-1.07,15.43,15.51,15.43c0,0,13.82.79,13.82-10.74h-7.1s0.23,4.34-6.47,4.34c0,0-7.11.48-7.11-7h20.92S714.88,228.22,698.53,228.22Zm-6.95,12.14s0.87-6.23,7.11-6.23,6.16,6.23,6.16,6.23H691.59Z" transform="translate(-625.31 -183.73)"/></svg>