<?xml version="1.0" encoding="utf-8"?>
<!-- Generator: Adobe Illustrator 16.0.0, SVG Export Plug-In . SVG Version: 6.00 Build 0)  -->
<!DOCTYPE svg PUBLIC "-//W3C//DTD SVG 1.1//EN" "http://www.w3.org/Graphics/SVG/1.1/DTD/svg11.dtd">
<svg version="1.1" id="Layer_1" xmlns="http://www.w3.org/2000/svg" xmlns:xlink="http://www.w3.org/1999/xlink" x="0px" y="0px"
	 width="151.167px" height="130.668px" viewBox="0 0 151.167 130.668" enable-background="new 0 0 151.167 130.668"
	 xml:space="preserve">
<path fill="#FF3333" d="M43.898,36.302c0.645,1.041,0.891,2.079,0.127,3.227l-0.729-1.181C43.908,37.76,42.878,37.839,43.898,36.302
	L43.898,36.302z M95.343,124.506l15.728-19.92c0.206-0.48,0.442-0.973,0.712-1.469c2.461-4.556,0.814-3.818,1.896-6.462
	c1.211-2.961,2.742-3.911,3.639-6.663c0.79-2.432,0.387-3.209-0.302-5.453c-0.349-1.138,0.354-0.32-0.8-1.4
	c1-1.51,0.027-2.842-0.256-4.465c-0.52-2.985,1.469-3.852,2.629-9.284c0.356-1.671,1.455-3.771-0.076-4.979
	c-1.377-1.088-2.393,0.457-3.279,1.484c-0.436,0.504,0.143-0.021-0.508,0.484c-0.057,0.043-0.709,0.459-0.889,0.558
	c-1.66,0.905-1.986,0.251-3.356-0.831c-0.926-0.732,0.435-3.331,0.829-4.588c0.511-1.628,0.818-3.188,1.707-4.691
	c1.165-1.972,1.137-1.226,1.496-3.168c-2.088-0.902-3.967,1.361-6.117,1.012c-1.511-0.246-1.499-0.598-2.938,0.478
	c-1.442,1.078-1.549,1.183-3.242,0.222c-2.611-1.482-2.19-3.578-0.635-5.899c1.861-2.783,2.022-1.832,2.313-5.535
	c-0.737-0.488-0.267-0.312-1.065-0.589c-3.16-1.091-2.865,3.888-5.111,6.473c-1.764,2.032-4.77,0.016-6.891-0.341
	c-1.992-0.334-3.604-0.112-4.205-3.004c-0.205-0.98,0.276-1.853,0.521-2.805c0.642-2.48,1.628-3.269-0.128-5.472
	c-1.145,0.369-1.907,0.154-2.62,1.057c-0.965,1.223-0.692,1.558-1.388,2.544c-1.824,2.586,0.25,5.311-6.438,3.05
	c-4.226-1.429-4.975,1.471-7.689-5.509c-0.066-0.173-0.248-0.971-0.285-1.213c-0.816-5.116-1.659-3.038-2.617-4.929
	c-0.745,0.795-0.407,0.523-1.143,0.883c-0.15,1.869,0.17,4.118,0.781,5.894l0.977,4.874c-1.891,0.926-9.588,4.484-11.359,3.086
	c-2.349-1.854-2.98-2.945-4.715-4.93c-1.093-1.253-1.913-1.485-2.18-2.985c-0.504-2.843-4.397-7.165-6.092-5.018
	c-1.502,1.901-0.453,3.464,1.131,4.782c1.277,1.063,4.781,3.764,5.213,5.942l0.273,2.462c0.561,3.33-0.264,4.756-2.23,7.247
	c-1.389,1.758-2.736,3.18-4.883,3.034c-2.689-0.183-3.977-2.817-6.021-2.431c-0.104,0.021-1.466,0.564-1.671,0.631
	c0.19,4.08,2.178,5.885,5.073,8.879c1.546,1.598,0.966,1.638,2.053,3c-1.21,1.466-2.059,1.469-3.516,1.992
	c-1.522,0.547-1.616,0.866-2.36,1.719c-1.724,1.966-2.312,3.662,0.217,5.688c3.493,2.799,2.415,1.708,3.302,9.588
	c0.209,1.852-1.176,3.568-2.533,5.287l-3.074-0.715c-3.995-1.111-4.535,2.031-4.1,2.813c0.443,0.799,0.965,0.528,1.989,0.603
	c3.525,0.256,9.062,3.688,5.902,7.69c-0.951,1.205-2.13,1.002-3.214,2.375c-0.829,1.052,0.012,2.244,0.837,2.896
	c1.187,0.938,2.931,0.731,4.362,1.056c5.893,1.33,3.16-0.978,9.121,3.346c0.598,0.434,1.768,1.093,2.393,1.262l0.764,0.12
	c0.867,0.163,0.657-0.163,1.835,0.769c1.329,1.047,1.222,1.397,1.741,2.536c1.725,3.789,4.781,3.996,8.27,4.149
	c3.822,0.166,7.405,3.099,11.604,3.244c3.72,0.132,2.67,0.158,5.969,1.986c1.176,0.649,1.893,0.215,2.956-0.306
	c1.187-0.579,1.509-1.046,2.937-0.515c0.859,0.32,0.703,0.441,1.346,0.722c1.197,0.524,1.125-0.117,1.99-0.728
	c1.617-1.142,0.781,0.5,4.242-1.287C95.244,124.28,94.642,124.401,95.343,124.506L95.343,124.506L95.343,124.506z M72.162,98.815
	c0.344,1.244,0.422,1.146-0.867,1.1l0,0C71.772,98.952,71.394,99.231,72.162,98.815z"/>
<circle fill="#FF3333" cx="112.582" cy="146.083" r="112.583"/>
<g>
	<path fill="#FF3333" d="M51.262,44.398c0.452-0.057,0.547-0.017,0.71-0.482c0.49,0.394,1.677,0.007,3.292,0.06l2.746,0.085
		c0.489-0.022,0.073,0.007,0.424-0.041c0.032-0.004,0.069-0.011,0.103-0.016c2.994-0.447,1.89-0.051,3.854-0.117
		c0.52-0.017,1.05-0.259,1.581-0.344c0.586-0.093,1.14-0.1,1.7-0.153l1.563-0.19c2.814-0.394,1.961-1.135,2.434-1.49
		c0.604-0.454,2.813,0.569,3.512,0.736c4.02,0.963,2.179,0.873,4.849,2.083c0.716,0.323,0.866,0.4,1.746,0.596
		c1.091,0.245,0.993,0.414,1.654,0.766c0.364,0.194,0.437,0.176,0.78,0.412c0.273,0.189,0.408,0.331,0.648,0.493
		c0.494,0.334,0.939,0.621,1.447,0.895c2.263,1.218,0.277,1.183,2.818,3.632l1.125,1.095c0.563,0.624,0.196,0.475,1.162,0.96
		c1.137,0.571,1.946,1.142,3.258,0.758c0.039-0.013,0.151-0.044,0.189-0.057c0.029-0.009,0.064-0.023,0.092-0.033
		c0.524-0.181,1.057-0.149,1.563,0.193l0.169,0.12c0.754,0.546,1.438,2.169,1.572,3.062c0.057,0.381,0.011,0.463-0.053,0.93
		c-0.229,1.742,0.926,1.035-0.386,2.647l-0.472,0.791c-0.203,0.802,0.857,1.295,1.615,1.058c0.084-0.025,0.36-0.167,0.438-0.211
		c0.398-0.227,0.079,0.003,0.395-0.269c0.24-0.206,0.487-0.494,0.678-0.714c0.633,0.147,1.167,0.15,1.486,0.307l3.082,2.46
		c0.217,0.224,0.156,0.17,0.42,0.41c1.955,1.787-0.556,3.816,0.824,4.537c0.778,0.408,1.346-0.695,1.614-1.19
		c0.248-0.46,0.044-0.455,0.547-0.577c0.609-0.146,2.166,0.374,2.991,0.805c0.636,0.333,0.591,0.475,0.679,1.149
		c0.052,0.401,0.173,1.259,0.099,1.608c-0.117,0.57-0.45,1.35-0.178,1.92c0.01,0.024,0.032,0.059,0.047,0.082l0.162,0.235
		c0.289,0.347,0.211,0.297,0.746,0.435c0.489-0.457,0.568-0.515,0.567-1.252c-0.347,0.033-0.263,0.239-0.44,0.543
		c-0.171,0.291,0.018-0.238-0.166,0.285c-0.023-0.039-0.087-0.105-0.101-0.121l-0.332-0.403c-0.185-0.3-0.375-0.306-0.405-0.64
		c0.381-0.058,0.182,0.328,0.385-0.463c0.578,0.307-0.119-0.094,0.297,0.274l0.691,0.231l-0.458-1.736
		c-0.06-0.643,0.069-1.194,0.554-1.713c0.051-0.053,0.348-0.297,0.446-0.367c0.394-0.281,0.085-0.219,0.646-0.248
		c0.494-0.027,0.738,0.172,1.057,0.536c0.502,0.573,0.234,1.046,0.246,1.876l0.036,0.513c0.014,0.234,0.005,1.081,0.06,1.328
		c0.383-0.161,0.145-0.144,0.295-0.452c0.018-0.033,0.043,0.03,0.15-0.273c0.205,0.164,0.389,0.25,0.596,0.414
		c0.153-1.045-0.394-2.31,0.52-3.125c0.474-0.424,0.885-0.42,1.484-0.504c0.032-0.004,0.069-0.013,0.103-0.017
		c0.917-0.12,1.885,0.631,4.649,0.079c0.934-0.188,0.978-0.395,1.894,0.211c0.59,0.389,0.208,0.254,0.917,0.357
		c3.777,0.552,1.559-0.543,4.017-0.776c1.103-0.104,2.173,0.329,2.938,1.123c0.615,0.638,1.669,1.112,2.418,1.86
		c0.792,0.791,1.181,0.967,1.763,1.933c0.362,0.603,0.504,0.226,0.759,0.987c0.432,1.289,1.187,1.726,2.092,2.625
		c0.561,0.556,1.51,0.725,2.176,1.451c0.668,0.729,0.765,1.998,1.697,2.359c0.023,0.008,0.065,0.016,0.088,0.023
		c0.509,0.203,0.781,0.769,1.019,1.258c0.464,0.965,1.479,1.104,2.313,1.701c0.588,0.424,1.272,0.64,1.859,1.086
		c0.379,0.287,0.421,0.359,0.676,0.701c0.592,0.789,1.326,1.384,1.832,2.227c0.107,0.178,0.139,0.243,0.234,0.415l0.247,0.407
		c0.759,1.115,1.094,2.336,2.342,3.031c0.84,0.467,1.387,1.358,2.127,1.899c0.247,0.181-0.011,0.36,0.922,1.362
		c1.803,1.941,1.213,2.009,2.591,3.438l0.518,0.465c0.147,0.15,0.099,0.107,0.18,0.225c1.111,1.629,2.611,1.137,1.64-0.35
		c-1.091-1.672-0.99-1.181-2.2-2.557l-0.361-0.447c-0.471-0.734-1.196-1.345-1.804-2.021c-0.344-0.382-0.337-0.548-0.607-0.968
		l-1.368-1.729c-0.197-0.3-0.057-0.157-0.22-0.425c-0.605-0.99-1.399-1.334-1.911-2.063c-0.914-1.305-4.279-4.693-4.438-4.981
		c-0.612-1.124-0.5-0.865-1.375-1.726l-1.379-1.722c-0.738-0.804-1.356-1.778-1.979-2.694c-0.927-1.365-1.126-0.055-2.267-2.406
		c-0.961-1.986-0.368-0.861-1.594-2.375c-1.31-1.617-4.059-1.192-4.752-3.438c-0.013-0.041-0.078-0.218-0.102-0.273l-0.082-0.174
		c-0.012-0.023-0.029-0.059-0.042-0.084c-0.339-0.738-0.722-1.205-1.229-1.816c-0.27-0.326-0.422-0.811-0.535-1.237
		c-1.023-3.809-0.643-3.169-0.267-7.36c0.236-2.64,1.218-2.076,1.675-3.183c0.143-0.349,0.914-0.929,0.672-2.082
		c-0.502-2.374-0.067-2.803-0.1-3.639c-0.078-2.016,1.133-4.155,0.756-5.749c-0.152-0.639-0.256-1.062-0.811-1.516
		c-0.251-0.206-0.792-0.518-0.915-0.665c-0.711-0.846,0.411-1.41,0.63-2.268c0.105-0.404-0.096-0.764-0.23-1.123
		c-1.213-0.281-1.889,0.371-2.877-0.115c0-0.615-0.02-0.882,0.53-1.128c0.155-0.069,1.32-0.325,0.82-0.68
		c-0.372-0.267-0.013-0.043-0.525,0.049c-0.628,0.112-0.909-0.417-1.516-0.26c-0.199,0.052-0.136,0.072-0.253,0.141
		c-0.412,0.244,0.341,0.094-0.326,0.198c-0.273-0.417-0.241-0.463-0.364-1.008c-0.118-0.528-0.14-0.554-0.35-1.018
		c-0.474-1.052-0.907-2.075-0.979-3.204c-0.027-0.382,0.127-0.149-0.193-0.553c-0.066-0.084-0.096-0.083-0.209-0.208
		c-0.02-0.02-0.045-0.05-0.065-0.071l-0.582-1.096c-0.246-0.548-0.509-0.405-0.946-0.756c-0.345,0.395-0.697,0.804-1.205,0.411
		l-1-1.061c-1.119-1.225-0.207-1.204-0.608-1.969l-0.442-0.629c-0.572,1.07-1.807,0.713-2.16-0.226
		c0.25-0.511,0.498-0.625,0.853-0.974c0.212-0.21,0.147-0.135,0.37-0.309c0.395-0.306,0.924-0.82,1.228-1.271l0.888-1.819
		c0.502-0.915,0.965-1.487,1.914-1.795c0.207-0.067,0.242-0.067,0.381-0.106l1.756-0.434c1.047-0.036,1.404,0.59,2.605,0.409
		c1.34-0.201,1.982-1.4,3.477-1.087c0.925,0.192,1.232,0.462,2.06,0.438c0.577-0.017,1.287-0.259,1.55-0.773
		c0.146-0.291,0.148-1.614,0.035-1.92c-0.396-1.071-2.152-1.728-3.197-2.049c-0.783-0.243-1.472-0.341-2.082-0.726
		c-0.859-0.543-0.308-0.583-1.676-1.093c-1.773-0.66-2.537,0.485-3.955,0.007c-0.595-0.2-0.893-0.634-1.709-0.966
		c-0.861-0.352-1.099-0.325-1.69-0.967c-1.712-1.861-5.772-2.784-5.818,1.264c-0.005,0.365,0.087,0.651,0.125,0.934
		c0.05,0.36,0.045,0.594,0.093,0.953c0.151,1.18,0.914,2.23,0.984,3.426c0.047,0.788,0.422,1.108,0.1,1.944
		c-0.339,0.874-0.867,0.576-1.428,0.97c-1.023,0.718-1.064,2.384-0.592,3.441c0.061,0.136,0.342,0.639,0.417,0.75
		c0.223,0.33,0.473,0.389,0.485,0.82c-0.41,0.353,0.033,0.113-0.521,0.243c-0.923,0.219-0.956-0.097-1.799-0.369
		c-0.014,0.017-0.027,0.075-0.026,0.059l-0.437,0.626c-0.487,0.244-0.624-0.104-1.225,0.03c-0.338,0.471,0.219,0.39-0.418,0.758
		c-0.25,0.145-0.603,0.13-0.94,0.303c-0.351,0.179-0.476,0.258-1.007,0.186c-0.633-0.084-0.723,0.099-1.143,0.15
		c-0.128,0.875,0.32,0.262-0.02,1.032c-0.006,0.014-0.273,0.427-0.287,0.45c-0.693,1.129-0.957,1.221-1.557,2.013
		c-0.41,0.541-0.762,1.236-1.211,1.661l-0.541,0.393c-0.457,0.344-0.451,0.541-1.223,0.38c-0.077-0.488,0.15-0.129-0.428-0.419
		c-0.111-0.057-0.491-0.187-0.635-0.187c-0.678,0.001-0.594,0.411-0.666,0.896c-0.816-0.19-0.99-0.227-1.607,0.121
		c-0.218,0.125-0.092,0.047-0.243,0.15c-1.29,0.868-2.327,2.896-3.394,3.202c-0.028,0.008-0.067,0.016-0.098,0.024
		c-0.029,0.008-0.067,0.016-0.096,0.025c-0.029,0.01-0.068,0.019-0.095,0.03c-0.521,0.203-0.603,0.73-1,1.097
		c-0.183,0.168-0.755,0.593-0.931,0.669c-0.361-0.386-0.541-0.377-0.474-0.94c-1.003,0.224-1.554-0.509-0.392-0.987l1.537-0.96
		l0.131,0.248c0.228,0.254-0.041,0.153,0.201,0.107l-0.141-0.586C95.897,33.847,96.81,33.8,96,33.703
		c-0.359-0.042-1.004,0.28-1.504,0.301c-1.886,0.078-1.988-0.406-2.843-1.321c-0.425,0.654-0.706,0.156-0.989-0.177
		c-0.244-0.287,0.086-0.366-1.199-0.096c-1.086,0.228-1.504,0.254-2.131,1.265c-0.711,1.146-0.592,1.174-1.568,2.168
		c-0.801,0.813-0.424,1.617-0.424,2.565l-1.719,1.385c-0.636,0.415-1.254,0.567-2.006,0.745l-5.83,0.735
		c-0.902,0.172-0.134,0.243-1.074-0.059c-0.698-0.222-0.621-0.02-1.221-0.12c-0.414-0.067-0.787-0.338-1.189-0.506
		c-0.442-0.185-0.461-0.034-1.077-0.344c-1.248-0.627-2.556-0.783-3.921-0.708c-0.822,0.046-1.701-0.08-2.365,0.165
		c-1.766,0.652-0.359,1.363-2.902,1.47l-1.197,0.238c-2.788,0.177-5.323,1.174-8.143,1.159l-2.508,0.118
		c-0.834,0.032-0.531,0.024-1.178,0.269l-0.338,1.444C49.082,44.599,50.664,44.478,51.262,44.398z"/>
	<path fill="#FF3333" d="M161.724,95.333c1.229,0.955,1.553,2.688,1.762,3.057c0.014,0.023,0.036,0.057,0.051,0.08
		c0.371,0.634,0.533,1.246,0.896,1.574c0.347,0.313,0.341,0.15,0.687,0.69c0.016,0.021,0.036,0.056,0.049,0.078
		c0.641,1.045,0.521,1.424,0.915,2.242l0.085,0.172c0.012,0.024,0.029,0.062,0.042,0.085c0.321,0.593,0.403,0.452,0.663,0.822
		c0.101,0.144,0.684,1.279,1.588,1.304c0.364,0.009,0.987-0.301,1.193-0.604c0.49-0.722-0.473-1.871-0.836-2.357l-1.379-2.285
		c-0.313-0.534-0.418-0.629-0.77-1.092l-0.527-0.568c-0.324-0.293-0.221-0.113-0.424-0.521c-0.087-0.174-0.166-0.416-0.26-0.623
		l-0.541-1.01c-0.012-0.025-0.029-0.062-0.044-0.086c-0.013-0.023-0.034-0.059-0.048-0.082l-0.772-1.09
		c-1.094-1.457,0.139-0.65-1.245-2.479l-1.094-1.676c-0.216-0.471-0.454-0.705-0.76-1.1c-1.967-2.539-2.972-5.17-4.086-6.32
		c-0.234-0.244-0.209-0.278-0.415-0.527c-0.417-0.503-0.844-0.497-1.146-0.857c-0.408-0.486,0.015-0.742-0.938-0.986
		c-0.205,0.635-0.225,0.195-0.146,0.662c0.038,0.226,0.132,0.271,0.207,0.648c0.139,0.686-0.142,0.819-0.309,1.535
		c-0.209,0.895,0.517,1.221,1.043,2.156l0.398,1.341c0.006,0.03,0.018,0.11,0.021,0.142c0.313,2.58,0.809,1.493,1.11,2.951
		c0.442,2.124,0.299,1.355,1.54,2.745l0.187,0.22c0.637,0.727,0.788,1.036,1.76,1.262C160.558,94.922,161.082,94.833,161.724,95.333
		z"/>
	<path fill="#FF3333" d="M151.931,68.89c0.738,0.444,2.383,0.537,0.905-0.448c-2.141-1.425-0.584-0.471-2.095-1.047
		c-0.649-0.248-0.724-0.368-1.197-0.611c-0.426-0.22-0.658-0.3-1.021-0.598c-0.421-0.346-0.474-0.421-0.987-0.732l-2.11-1.268
		c-0.281-0.205-0.22-0.198-0.455-0.39c-2.067-1.674-1.606-0.672-3.333-2.526c-2.02-2.17-4.26-1.491-3.801,1.019l0.394,1.102
		l1.497,1.648c0.313,0.238,0.604,0.422,0.958,0.638c0.509,0.31,1.667,1.071,2.24,0.905c1.122-0.32,0.052-0.621,2.06-0.86
		c1.448-0.175,3.598,1.184,4.676,1.887c0.412,0.269,0.568,0.429,0.992,0.729c0.674,0.476,0.66,0.219,1.197,0.488
		C151.88,68.842,151.913,68.875,151.931,68.89z"/>
	<path fill="#FF3333" d="M194.38,101.368c0.557,0.246,3.243,2.559,3.759,3.168c1.715,2.032,0.332,0.577,1.465,1.324
		c1.455,0.957,0.728,0.525,1.746,0.491c0.026-0.175,0.076-0.586,0.076-0.589c0.002-0.575-0.441-0.592-0.959-1.105
		c-1.253-1.236-3.757-2.119-4.836-3.496c-0.166-0.214-0.008-0.025-0.153-0.242c-0.454-0.668-1.975-1.965-2.54-2.57
		c-0.162-0.174-0.221-0.26-0.411-0.418c-0.443-0.373-0.425-0.209-0.897-0.678l-0.201-0.211c-0.457-0.399-1.29-0.806-1.853-1.09
		c-1.418-0.72-0.271-0.568-1.938-0.813c0.329,0.87,0.996,0.96,1.011,1.952c0.01,0.604-0.114,0.649,0.145,1.144l0.68,0.812
		c0.792,0.873,3.227,1.974,4.344,2.234C194.103,101.346,193.781,101.104,194.38,101.368z"/>
	<path fill="#FF3333" d="M152.163,59.883c0.193,0.204,0.415,0.518,0.591,0.753c0.377,0.5,1.677,1.415,2.383,1.211
		c-0.021-0.607-0.228-0.571-0.644-1.06c-1.479-1.736-2.47-1.021-2.25-1.966c0.25-1.075,2.653,0.096,3.252,0.188
		c0.428,0.066,1.194,0.056,1.655,0.123c0.072-0.493,0.074-0.664-1.021-0.937c-2.894-0.719-2.296-0.778-4.844-1.698
		c-0.335-0.121-0.354-0.154-0.784-0.305c-1.811-0.633-2.193-1.394-3.024-1.258c-0.257,0.043-0.138,0.024-0.285,0.094
		c-1.022,0.476-1.134,1.238-0.667,2.19c0.391,0.792,1.094,1.292,1.776,1.701c0.237,0.142,0.051,0.027,0.256,0.177
		c1.562,1.132,1.306-0.138,2.614,0.167C151.436,59.324,151.989,59.697,152.163,59.883z"/>
	<path fill="#FF3333" d="M175.123,68.706l0.848,0.707c0.324,0.271,0.595,0.424,0.899,0.674c0.57,0.47,3.375,1.856,4.214,2.203
		c2.031,0.838,1.614,0.633,3.148,1.744c0.31,0.225,0.721,0.424,1.005,0.607c1.554,1.005,2.815,2.472,3.762,1.585
		c-0.024-0.792-0.61-0.843-1.438-1.571c-0.178-0.156-0.291-0.244-0.467-0.383c-0.92-0.723-0.809-0.35-1.518-0.738l-2.46-1.5
		c-0.027-0.019-0.06-0.039-0.089-0.057l-0.189-0.107c-0.03-0.017-0.064-0.033-0.095-0.053l-0.423-0.297
		c-0.22-0.15-0.258-0.15-0.458-0.275c-0.65-0.408-1.031-0.986-1.728-1.394c-0.369-0.215-0.757-0.261-1.214-0.488l-4.203-1.983
		c-0.506-0.338-0.213-0.35-0.869-0.35C173.848,67.756,174.583,68.284,175.123,68.706z"/>
	<path fill="#FF3333" d="M145.421,7.297c2.209,0.511,0.605,0.152,2.703,0.196c0.535,0.01,0.289,0.002,0.742-0.252
		c0.332-0.184,0.377-0.146,0.695-0.325c1.597-0.892,0.695-2.846-1.264-3.126c-0.666-0.097-1.567-0.336-1.84-0.321l-0.647,0.115
		c-0.19,0.043-0.597,0.165-0.749,0.249c-0.305,0.164-0.96,0.821-1.049,1.198C143.869,5.66,144.318,7.039,145.421,7.297z"/>
	<path fill="#FF3333" d="M87.707,31.213c1.131-0.001,2.594-1.002,3.562-0.641c1.165,0.436,0.544,1.079,0.437,1.294l2.133-0.429
		c-0.121-0.134-0.24-0.144-0.252-0.516c0.418-0.094,0.498,0.038,0.938-0.116c0.438-0.152,0.295-0.28,0.807-0.34
		c0.771-0.09,1.303,0.612,1.658,0.695c0.811,0.189,1.412-0.402,2.313-0.43c-0.751-1.037-0.185-0.423-1.382-0.599
		c0.104-0.726-0.312-0.735-0.922-0.778c-1.086-0.076-2.03-0.155-3.146,0.012c-1.21,0.181-1.082-0.108-2.773,0.41
		c-2.336,0.714-3.031,0.302-3.834,1.053C87.609,31.034,87.437,30.924,87.707,31.213z"/>
	<path fill="#FF3333" d="M144.828,33.202c1.612-0.907,1.891,0.032,2.512-2.635c-1.611-0.793-0.719-0.942-3.317-0.459
		c-1.237,0.227-0.702,0.399-1.181,0.577c-0.229,0.086,0.023-0.351-0.495,0.316c-0.21,0.27-0.354,0.548-0.444,0.928
		C141.802,32.361,143.033,34.212,144.828,33.202z"/>
	<path fill="#FF3333" d="M134.903,31.319c0.021-0.006,0.064-0.017,0.095-0.03c-0.906-0.211-1.066-0.315-1.67-0.754
		c-0.261-0.19-0.481-0.295-0.695-0.467c-0.195-0.159-0.379-0.39-0.539-0.562c0.393-0.489,0.166-0.715,0.783-0.905
		c0.623-0.192,1.8-0.383,2.197-1.171c0.319-0.638-0.109-0.284,0.18-0.619c0.002-0.002,0.229-0.181,0.289-0.238
		c-0.428,0.015-0.98,0.336-1.338,0.557c-1.186,0.734-1.149-0.255-1.789,0.578c-0.01,0.012-0.029,0.048-0.041,0.06l-0.098,0.104
		c-0.015,0.011-0.048,0.033-0.064,0.044c-1.117,0.808-1.047-0.374-1.555,1.81c0.793-0.573,0.356-0.634,0.826-0.756
		c0.287-0.075,0.163-0.04,0.469-0.049c-0.008,0.317-0.072,0.837-0.392,1.185c-0.581,0.636-0.325-0.208-0.925,0.307
		c0.02,0.587,0.674,1.111,1.229,1.254c0.098-0.378,0.033-0.173,0.189-0.418c0.13-0.202-0.02,0.118,0.257-0.307
		c0.281,0.065,0.487,0.096,0.752,0.212c0.69,0.3,0.343,0.363,1.008,0.288L134.903,31.319z"/>
	<path fill="#FF3333" d="M160.651,72.777c0.552,0.609,2.103,1.087,2.967,1.257l0.533-0.406c-0.376-1.426-0.431,0.078-1.538-2.187
		c-0.34-0.698-1.51-1.03-2.204-0.581l-0.222,0.184C160.187,71.881,160.273,72.357,160.651,72.777z"/>
	<path fill="#FF3333" d="M137.102,40.803c0.894-0.679,0.521-1.271,0.521-1.273l-0.074-0.852c-0.293-1.445-2.135-0.857-2.426,0.388
		C134.687,40.938,136.23,41.465,137.102,40.803z"/>
	<path fill="#FF3333" d="M146.628,14.268c0.754-0.86-0.313-1.646-0.5-1.689c-0.981-0.228-0.832-0.37-2.041,0.33
		c-0.588,0.343-0.452,0.641-0.547,1.281C144.138,14.484,145.597,15.448,146.628,14.268z"/>
	<path fill="#FF3333" d="M206.344,120.417c-0.458-0.756-0.548-0.797-1.319-1.313c-0.406-0.271-0.063-0.04-0.401-0.313
		c-0.297-0.24-0.086-0.103-0.342-0.248c-1.369-0.776-1.153,0.713,0.557,1.799c1.451,0.923,1.45,0.994,2.649,1.992
		c0.014,0.013,0.045,0.033,0.059,0.043c0.013,0.013,0.046,0.031,0.059,0.041c0.631,0.479,0.546,0.805,1.207,0.613
		C208.778,121.938,207.613,122.506,206.344,120.417z"/>
	<path fill="#FF3333" d="M175.943,61.524c0.642,0.11,1.318-0.257,1.764-0.375c-0.002-1.614-1.667-2.01-2.338-1.773
		c-0.386,0.137-0.525,0.407-0.649,0.941C174.589,60.867,175.433,61.436,175.943,61.524z"/>
	<path fill="#FF3333" d="M98.865,23.705c1.059,0.73,0.715,1.006,2.537,0.853c0.438-0.037,0.334,0.019,0.835,0.07
		c0.705,0.073,0.231-0.054,0.853-0.074c-0.057-0.256-0.053-0.46-0.11-0.716c-0.442,0.097-0.853,0.071-1.295,0.081
		c-0.746,0.021-0.79,0.263-1.513,0.095c-0.889-0.207-1.695-1.215-2.371-1.104C97.887,23.632,98.123,23.196,98.865,23.705z"/>
	<path fill="#FF3333" d="M114.447,74.779c0.913,0.39-0.578-0.006,0.274,0.14c1.021,0.17,0.538-0.932,0.538-0.934
		c-0.083-0.479,0.044-0.557-0.143-1.258c-0.326,0.141-0.172-0.029-0.354,0.333c-0.521-0.279-0.168-0.315-0.596-0.416
		c-0.642-0.149-0.195,1.776-0.194,2.03L114.447,74.779z"/>
	<path fill="#FF3333" d="M137.378,10.957c0.699,0.164,0.793,0.153,1.144-0.334c1.047-1.455-0.955-1.67-1.224-0.514
		C137.144,10.771,137.356,10.29,137.378,10.957z"/>
	<path fill="#FF3333" d="M159.766,60.197c0.302,0.303,1.157,0.413,1.568-0.099c0.175-0.216,0.118-0.313,0.166-0.645
		c-2.185-0.704-2.142,0.332-1.889,0.391C159.62,60.174,159.546,59.979,159.766,60.197z"/>
	<path fill="#FF3333" d="M143.326,82.436c-0.414-0.682-0.258-0.915-0.766-0.786c-0.398,0.103-0.146,1.693,0.871,1.955
		C143.693,83.045,143.652,82.973,143.326,82.436z"/>
	<path fill="#FF3333" d="M129.736,25.364c-0.389-0.001-0.604-0.004-0.964,0.07c-0.161,0.035-0.733,0.095-0.793,0.35
		c-0.094,0.404,0.049,0.606,0.372,0.779l0.284-0.625c-0.173,0.733,0.676,0.907,0.637,0.398c-0.002-0.032-0.162-0.48-0.183-0.569
		C129.49,25.717,129.326,25.746,129.736,25.364z"/>
	<path fill="#FF3333" d="M138.875,14.626c0.449,0.144,0.955,0.651,1.111-0.019c0.096-0.41-0.148-0.426-0.402-0.646
		C139.061,14.099,139.059,13.926,138.875,14.626z"/>
	<path fill="#FF3333" d="M133.134,35.166c-0.002,0.491,0.129,0.396,0.046,0.958c1.146,0.168,0.372-0.9,0.245-1.049L133.134,35.166z"
		/>
	<path fill="#FF3333" d="M154.847,70.215c0.474-0.443,0.473-0.266,0.214-0.918c-0.646,0.17-0.21-0.101-0.648,0.402
		C154.59,70.145,154.472,69.889,154.847,70.215z"/>
</g>
<rect x="42.333" y="92.668" fill="none" width="148.663" height="39.75"/>
<text transform="matrix(1 0 0 1 42.3335 102.0024)" fill="#FFFFFF" stroke="#FFFFFF" stroke-miterlimit="10" font-family="'Helvetica'" font-size="13">#TEDxUoM2016</text>
</svg>
