<?xml version="1.0" encoding="utf-8"?>
<!-- Generator: Adobe Illustrator 19.2.1, SVG Export Plug-In . SVG Version: 6.00 Build 0)  -->
<svg version="1.1" id="Layer_1" xmlns="http://www.w3.org/2000/svg" xmlns:xlink="http://www.w3.org/1999/xlink" x="0px" y="0px"
	 viewBox="0 0 1200 106.2" style="enable-background:new 0 0 1200 106.2;" xml:space="preserve">
<style type="text/css">
	.st0{fill:#5D2D7A;}
</style>
<g>
	<path class="st0" d="M40.6,63.5c-0.1-0.3-0.3-0.7-0.5-1.1c-0.3-0.4-0.5-0.8-0.7-1.1c-0.7-1-1.6-1.8-2.9-2.3
		c-0.6-0.3-1.2-0.5-1.6-0.8c-0.5-0.3-0.9-0.5-1.3-0.8c-0.8-0.5-1.7-1-2.5-1.5c-0.9-0.5-1.7-0.9-2.6-1.4s-1.7-1-2.5-1.5
		c-0.8-0.6-1.5-1.2-2.2-1.9c-0.2-0.2-0.4-0.3-0.5-0.4c-0.1-0.1-0.3-0.2-0.5-0.4c-1.4-1.2-2.3-2.8-2.7-4.7c-0.4-1.9-0.5-3.8-0.3-5.6
		c0-0.3,0.1-0.5,0.1-0.7l0.1-0.3l0.3-0.6c0-0.1,0-0.1,0.1-0.1c0.4-1.1,1-2,1.6-2.8c0.6-0.8,1.3-1.6,2.1-2.5l0.5-0.6
		c0.7-0.7,1.5-1.4,2.4-2c1-0.7,1.9-1.2,2.7-1.5l2.2-0.9c0.5-0.2,1-0.3,1.6-0.4s1.2-0.2,1.8-0.3c0.6-0.1,1.2-0.1,1.8-0.1
		c0.6,0,1.1,0,1.6,0.1c0.5,0.1,1.1,0.2,1.7,0.3c0.6,0.1,1.4,0.3,2.2,0.5c1.6,0.4,2.8,1,3.5,1.8c0.5,0.6,1,1.2,1.5,1.9
		c0.4,0.7,0.8,1.4,1.1,2.1c0.6,1.4,0.7,3,0.3,4.7c-0.2,0.7-0.3,1.2-0.3,1.5c0,0.3-0.2,0.4-0.8,0.5c0,0.9-0.1,1.6-0.4,2.2
		c-0.3,0.6-0.5,0.9-0.8,0.8c-0.2-0.1-0.4,0.1-0.6,0.6c-0.1-0.1-0.1-0.1-0.1-0.1c-0.3-0.3-0.7-0.4-1.2-0.3c-0.2-0.8-0.4-1.2-0.6-1.1
		c-0.2,0.1-0.3-0.2-0.4-0.7c-0.1-0.5-0.1-0.8-0.1-0.8c0.1-0.1-0.3-0.3-1.1-0.7c-0.7-0.3-1.1-0.4-1.1-0.4c-0.1,0-0.3-0.3-0.7-0.8
		c-0.5-0.7-1.1-0.8-1.9-0.6c-0.2,0.1-0.4,0.2-0.7,0.2c-0.3,0-0.6,0-0.9,0c-0.3,0-0.7,0-1.1,0c-0.4,0-0.8,0.1-1.2,0.2L34.4,39
		c0,0-0.2,0.1-0.4,0.2l-0.9,0.7l-0.8,0.7l-1.5,1.6c0.5,0.8,1.3,1.5,2.3,2.1c0.5,0.3,1,0.5,1.4,0.7c0.4,0.2,0.8,0.4,1.2,0.6
		c1.6,0.9,3,1.7,4.3,2.5c1.3,0.7,2.4,1.4,3.4,2.1c1.9,1.2,3.8,3.7,5.4,7.3l0.7,1.6c0.5,1.2,0.8,2.5,0.7,4.1c0,0.8-0.2,1.5-0.3,2.1
		c-0.2,0.6-0.4,1.2-0.7,1.8c-0.3,0.5-0.7,1.1-1.1,1.6c-0.4,0.5-0.9,1-1.4,1.5c-0.5,0.5-1.2,0.9-1.9,1.3s-1.4,0.6-2.1,0.9
		c-0.9,0.3-2.1,0.6-3.7,0.8c-0.8,0.1-1.5,0.2-2.1,0.2c-0.6,0-1.2,0.1-1.7,0c-0.7-0.1-1.4-0.1-2-0.2c-0.6-0.1-1.1-0.1-1.6-0.2
		c-0.9-0.2-2.1-0.6-3.4-1.2c-0.5-0.3-0.9-0.5-1.1-0.6c-0.1,0-0.1,0-0.1-0.1l-2.6-2.8c-0.4-0.7-1-2.1-1.8-4.1c-0.7-2-0.6-3,0.5-3
		c0.6,0,1.6,0.7,2.9,2c1.4,1.3,3.3,2.2,5.7,2.7c1.2,0.3,2.8,0.2,4.8-0.2C38.5,65.3,39.8,64.6,40.6,63.5z"/>
	<path class="st0" d="M60.9,37.6c1-0.1,2.2-0.2,3.6-0.3c1.4-0.1,2.8-0.1,4.1,0c0.5,0.1,1,0.1,1.4,0.2c0.4,0,0.7,0.1,1,0.1
		c0.3,0,0.6,0.1,1,0.2c0.4,0.1,0.8,0.2,1.3,0.4c0.5,0.2,1.1,0.4,1.7,0.7c0.6,0.3,1.1,0.6,1.5,1.1c0,0.1,0.1,0.1,0.2,0.3
		c1.2,1.4,1.7,3.1,1.6,5l-0.5,1.4c-0.1,0.2-0.2,0.3-0.2,0.3c0-0.1-0.1,0.1-0.2,0.4l-1.2,4.3c-0.2,0.6-0.4,1.3-0.6,1.8
		c-0.2,0.6-0.4,1.2-0.5,1.8L73,68.7c0,0.3,0,0.7,0,1.1c0,0.4,0,0.7,0,1.1s0,0.7,0,1.1s-0.1,0.7-0.2,0.9c-0.5,1.1-1,1.5-1.7,1
		c-0.6-0.4-1.2-1-1.8-1.7c-0.1-0.2-0.2-0.3-0.3-0.4c-0.1-0.1-0.1-0.1-0.2-0.1c0,0-0.1-0.3-0.2-0.7c-0.1-0.3-0.1-0.5-0.1-0.5
		c0,0,0-0.3-0.1-0.7c-0.4,0.3-0.5,0.5-0.5,0.6c0,0.1-0.3,0.3-0.8,0.7l-1.6,1c-0.6,0.4-1.3,0.7-1.8,0.9c-0.5,0.2-1.3,0.3-2.3,0.3
		c-0.7,0-1.4-0.1-2.2-0.2c-0.7-0.2-1.4-0.4-2.1-0.7s-1.3-0.6-1.9-1c-0.6-0.4-1.2-0.8-1.7-1.2l-1.5-1.6c-1.4-1.6-2.3-3.5-2.7-5.7
		c-0.2-0.8-0.2-1.8,0-2.8c0.2-1.3,0.8-2.5,1.8-3.7c0.5-0.6,0.9-1.1,1.4-1.6s0.9-0.9,1.4-1.2c1.3-0.9,2.6-1.6,3.8-2
		c1.2-0.4,2.5-0.8,4-1.1c1-0.2,1.8-0.4,2.5-0.5c0.7-0.1,1.3-0.2,1.8-0.2c0.9-0.1,2.3,0.1,4.2,0.5c0.1-0.1,0.1-0.3,0.1-0.5
		c0-0.2,0-0.5,0-0.7c0-0.2,0-0.5,0.1-0.7c0-0.2,0.1-0.5,0.2-0.7c-1,0-1.9,0-2.7,0c-0.8,0-1.4,0-2,0c-1.1,0-2.6,0.2-4.5,0.7
		c-0.1,0-0.1,0-0.3,0.1c-0.9,0.3-1.8,0.6-2.6,1c-0.3,0.3-0.5,0.4-0.7,0.4l-1.1,0.2c-0.2,0-0.3,0.1-0.3,0.1s0,0,0.1,0h-0.3l-3.7-1.1
		c-0.1-0.1-0.2-0.2-0.4-0.5c-0.1-0.2-0.2-0.3-0.3-0.4c-0.1-0.1-0.1-0.1-0.2-0.2c0,0-0.1,0-0.1-0.1c0,0-0.1,0-0.1-0.1
		c-0.1-0.1-0.1-0.1-0.1-0.1c0,0-0.1-0.1-0.1-0.1c0,0,0-0.1-0.1-0.2c0-0.1,0-0.3,0-0.5c0-0.5,0.1-0.9,0.4-1.2
		c-0.4-0.1-0.6-0.2-0.6-0.2c0,0-0.1-0.1-0.6-0.2c0.1-1,0.2-1.7,0.4-2.2c0.1-0.5,0.5-1.1,1-1.8c0.4-0.4,0.9-0.8,1.6-1
		c0.7-0.2,1-0.4,1-0.6c-0.1-0.4-0.2-0.4-0.2,0c0,0.3-0.1,0.2-0.3-0.4L60.9,37.6z M51,43.8L51,43.8C51,43.7,51,43.7,51,43.8L51,43.8z
		 M56.1,62.2c0,0.1,0,0.1,0.1,0.2c0,0,0.1,0.1,0.1,0.1c0,0,0,0.1,0.1,0.1c0.2,0.4,0.4,0.7,0.5,1c0.2,0.3,0.4,0.6,0.7,0.8l0.5,0.4
		c1.5,1.2,2.7,1.7,3.6,1.6c1-0.1,2.1-0.4,3.3-0.9c2.1-0.8,3.2-1.3,3.5-1.6c0.3-0.3,0.4-1.5,0.4-3.5c-0.6-0.1-0.8-0.1-0.6-0.1
		c0.2,0,0-0.3-0.5-0.8L66.8,59c-0.6-0.3-1.4-0.4-2.4-0.3l-2.2,0.2c-1.7,0.2-3,0.4-3.8,0.7c-0.8,0.3-1.6,0.9-2.5,2L56.1,62.2z"/>
	<path class="st0" d="M89.1,28c0-0.4,0-0.6-0.1-0.4c-0.1,0.2-0.1-0.1-0.1-0.6l0-2.7c0-0.6-0.1-1.2-0.1-1.6c0-0.4,0-0.8,0-1.1
		c0-0.5,0.4-1.2,1.2-2l1.6-1.9c0.2-0.2,0.4-0.4,0.7-0.6c0.3-0.1,0.4-0.1,0.5-0.1s0,0-0.1,0.1c-0.1,0.1-0.2,0.1-0.1,0.1
		c0.1,0,0.2-0.1,0.5-0.2c0.2,0,0.3-0.1,0.3-0.1c0,0,0,0-0.1,0c-0.2,0.1-0.1,0,0.1-0.1c0.2-0.1,0.2-0.2,0.1-0.1c-0.1,0,0,0,0.2-0.2
		c0.1-0.1,0.2-0.1,0.3-0.2c0.1,0,0.1,0,0,0c0,0,0.2,0,0.6-0.1L95,17c0.1-0.2,0.2-0.4,0.4-0.5c0.1-0.1,0.3-0.1,0.6-0.1
		c0.7,0.2,1.2,0.4,1.4,0.8c0.2,0.4,0.4,0.6,0.4,0.6c0.1,0.1,0.2,0.2,0.4,0.2c0.2,0,0.4,0.3,0.7,0.7l1.1,1.4c0.1,0.2,0.2,0.4,0.2,0.6
		c0,0.2,0.1,0.3,0.1,0.5c0,0.2,0.1,0.3,0.1,0.5c0,0.2,0.1,0.4,0.2,0.6c0.3,0.8,0.4,1.7,0.3,2.8c0,0.5-0.1,1-0.1,1.5c0,0.5,0,1,0,1.5
		c0,0.4,0,0.8-0.1,1.3c-0.1,0.5-0.2,1-0.2,1.5c0,0.3-0.1,0.5-0.1,0.8c0,0.2,0,0.5-0.1,0.7c0,0.2,0,0.5,0,0.7c0,0.3,0,0.6,0,0.9
		l3.2-0.4c1.2,0,2.2,0.3,3.2,0.8c0.1,0,0.1,0,0.1,0.1c0.4,0.3,0.8,0.6,1,1c0.3,0.4,0.6,0.7,1,0.9c0.1,0.1,0.1,0.1,0.1,0.1l0.5,0.4
		c-0.1,0.3-0.2,0.6-0.4,1.1c0.2,0,0.4,0,0.5,0c0.1,0,0.2,0,0.2,0c0,0,0.1,0.2,0.2,0.6c-0.2,0.3-0.3,0.5-0.3,0.5c0,0-0.2,0-0.8,0
		l0.4,0.6c-0.1,0.5-0.1,0.7,0,0.7c0-0.1-0.2-0.1-0.6-0.3c0.1,0.2,0.2,0.3,0.2,0.4c0.1,0.1,0.1,0.2,0.2,0.2c0.1,0.1,0.1,0.2,0.2,0.3
		c0.1,0.1,0.2,0.2,0.2,0.4l-0.4,0.5c-0.2,0.2-0.3,0.3-0.3,0.3c-0.5,0.4-0.9,0.6-1.1,0.5c-0.2-0.1-0.3,0.1-0.3,0.5
		c-0.2,1-0.9,1.5-2.2,1.5c-0.7,0-1.1,0-1.3-0.1c-0.2-0.1-0.2,0.2-0.3,0.7c-1.5,0-2.7-0.1-3.6-0.4c-0.4-0.1-0.7-0.2-1-0.4
		c-0.3-0.1-0.6-0.2-1-0.1c-0.3,0.1-0.3,0,0-0.1c0.1-0.1,0.2-0.1,0.1-0.1c0,0-0.2,0.1-0.4,0.3c-0.3,0.2-0.4,0.2-0.3,0.1
		c0.1-0.1,0.1,0.1-0.1,0.5l-1.1,5.2c-0.1,1.4-0.2,2.4-0.3,2.8c-0.1,0.5-0.1,1.6-0.1,3.3l0.1,3c0,0.9,0,1.7,0,2.4
		c0.1,0.7,0.2,1.4,0.3,2.1c0.4,1.3,0.6,2.5,0.7,3.5c0.7,0.2,1.3,0.3,1.8,0.3c0.5,0,1,0.1,1.4,0c0.8-0.1,0.8,0.8-0.1,2.8
		c-0.8,1.7-2,2.6-3.5,2.8c-1.5,0.2-2.8-0.1-3.9-0.9c0,0-0.2-0.1-0.4-0.4c-0.3-0.2-0.4-0.4-0.4-0.4c-0.1,0-0.1,0-0.1-0.1l-1.3-1.8
		c-0.6-1-1.1-2-1.5-3.1c-0.4-1.1-0.7-2.2-1-3.3c-0.1-0.1-0.1-0.3-0.1-0.4c-0.3-1.1-0.5-2.3-0.7-3.6c-0.2-1.3-0.3-2.6-0.3-4
		c0-0.7,0-1.6-0.1-2.5c-0.1-0.9-0.2-2-0.3-3.1c-0.2-2.2,0-4,0.6-5.4c-0.9,0-1.7,0-2.4,0c-0.7,0-1.4-0.1-2-0.2
		c-1.2-0.1-2.5-0.6-3.9-1.3c0,0-0.1-0.1-0.1-0.1l-0.7-0.7c0-0.1-0.1-0.1-0.1-0.2s-0.1-0.1-0.1-0.2c0.3-1.1,1.1-2,2.3-2.7
		c1.3-0.8,2.5-1.4,3.4-1.8c0.2-0.1,0.5-0.2,0.7-0.3s0.4-0.2,0.5-0.3c0.4-0.2,0.8-0.3,1.1-0.4c1.7-0.5,2.5-1,2.7-1.3
		c0.1-0.3,0.2-2.3,0.3-6c0-0.5,0-0.7,0.1-0.6C89.1,28.7,89.1,28.5,89.1,28z M98.6,19.2C98.6,19.2,98.6,19.2,98.6,19.2L98.6,19.2z"/>
	<path class="st0" d="M115.4,31c0.2,0,0.5-0.1,0.7-0.1c0.2,0,0.4,0,0.4-0.1c0.4-0.1,0.5-0.2,0.4-0.3c-0.1-0.1,0.1-0.2,0.5-0.2
		c0.6,0,1.1,0.1,1.5,0.2c0.4,0.1,0.8,0.3,1.2,0.4c0.9,0.3,1.6,0.7,1.9,1.1c0.2,0.2,0.3,0.5,0.6,0.7c0.2,0.3,0.4,0.6,0.7,0.9
		c0.7,0.9,1,1.9,1,3l-1.6,11c-0.2,0.6-0.3,1.2-0.4,1.7c-0.1,0.5-0.2,1-0.2,1.4c0,0.4-0.1,0.9-0.1,1.4c0,0.5-0.1,1.1-0.1,1.8
		c0,0.2,0,0.4,0,0.5c0,0.1,0,0.2,0,0.2c0,1,0,1.9-0.1,3c-0.1,1-0.1,2,0.1,2.9l0.1,0.6c0.1,0.6,0.2,1.1,0.4,1.7
		c0.2,0.5,0.5,1,0.8,1.4c0.3,0.4,0.7,0.8,1.2,1.1c0.5,0.3,1,0.5,1.7,0.6c1.1,0.2,1.7,0.2,2-0.1c0.4-0.3,0.7-0.7,1.1-1.1
		s0.6-0.8,0.9-1.3c0.2-0.3,0.3-0.5,0.4-0.6s0.2-0.3,0.3-0.4c0.1-0.2,0.1-0.6,0.1-1.2c-0.1-0.8-0.2-1.7-0.2-2.8
		c-0.1-1-0.1-2.2-0.2-3.5c0-1.5-0.2-3-0.4-4.6c-0.2-1.6-0.4-3.1-0.5-4.7l-0.2-5.5c0.1-1.7,0.4-2.7,0.9-3c0.5-0.4,1-0.8,1.5-1.4
		c0.4-0.6,0.7-0.9,0.9-0.9l1.1,0.1v-0.7c0.5,0,0.9,0.1,1.1,0.4c0.2,0.2,0.6,0.4,1,0.4c0.5,0.1,0.9,0,1.1-0.1
		c0.2-0.2,0.6-0.1,1.1,0.3l2,2.3c0.4,0.5,0.5,1,0.4,1.4c-0.1,0.4,0.1,1,0.7,1.8c0.4,0.5,0.5,0.7,0.4,0.6c-0.1-0.1-0.2,0.1-0.2,0.8
		l0.1,2.6l-2.9,18.2c-0.2,0.7-0.3,1.4-0.3,2.1c-0.1,0.7-0.1,1.4-0.3,2.1c-0.2,1.1-0.5,2.1-0.8,2.9c-0.3,0.8-0.6,1.7-0.8,2.8
		c-0.1,0.5-0.2,0.8-0.3,0.9c-0.1,0.1-0.2,0.4-0.2,0.9c-0.6,0.1-0.8,0.1-0.7,0c0.1-0.1,0.1,0.1,0,0.4c-0.9-0.1-1.4-0.6-1.6-1.5
		c-0.1-0.4-0.2-0.9-0.3-1.2c-0.1-0.4-0.2-0.7-0.3-1.1c-0.1-0.3-0.2-0.5-0.3-0.7c-0.1-0.2-0.1-0.5-0.2-0.8c-0.5,0.1-1.6,1-3.4,2.5
		c-1.7,1.5-4.3,1.6-7.8,0.3c-0.4-0.2-0.9-0.4-1.4-0.7c-0.5-0.3-1-0.6-1.4-0.9s-0.9-0.7-1.3-1c-0.4-0.4-0.8-0.7-1.1-1.1l-1.5-1.8
		c-1.2-1.6-2.1-3.4-2.6-5.6c-0.2-1.1-0.4-2.1-0.6-3.2s-0.2-2.1-0.3-3.2c0-0.6,0-1.2-0.1-1.8c0-0.6,0-1.1-0.1-1.5c0-0.5,0-1,0-1.6
		s0.1-1.2,0.2-1.9c0.1-0.6,0.2-1.2,0.3-1.6c0.1-0.4,0.1-1,0.1-1.8c0-0.7,0.1-1.3,0.2-1.8c0-0.2,0.1-0.5,0.1-0.8s0.1-0.6,0.1-1
		l0.4-4.1c0-0.3,0.1-0.6,0.1-0.9c0-0.3,0.1-0.7,0.2-1.1c0.1-0.8,0.5-1.4,1-1.9l0.7-0.6c0.8-0.9,1.6-1.4,2.5-1.5L115.4,31z
		 M136.1,34.3v0.7h-0.4v-0.7H136.1z M138.6,36.8C138.6,36.7,138.6,36.7,138.6,36.8L138.6,36.8z M140.3,40.9c0,0.4,0,0.4,0.1,0.2
		c0,0,0-0.1,0-0.1s0-0.1,0-0.1c0,0,0,0,0-0.1c0.1,0,0.1-0.1,0-0.2C140.4,40.5,140.3,40.6,140.3,40.9z"/>
	<path class="st0" d="M144.8,25.8c0.5-0.2,0.7-0.3,0.6-0.1c-0.1,0.1,0.1,0,0.4-0.1c0.4-0.2,0.5-0.3,0.4-0.4
		c-0.2-0.1,0.6-0.1,2.2,0.2c0.1,0.7,0.2,0.9,0.3,0.6c0.2-0.3,0.6-0.2,1.4,0.4c0.7,0.4,1,0.8,1.1,1.3c0,0.2,0.1,0.4,0.1,0.6
		c0.3-0.3,0.5-0.3,0.8,0c0.2,0.3,0.4,0.6,0.6,1.1c0.2,0.5,0.2,0.8,0.1,0.8c-0.1,0-0.1,0.1-0.1,0.3c-0.1,0.2,0,0.5,0.2,0.9
		c0.2,0.5,0.3,0.9,0.3,1.3c0,0.6-0.1,1-0.1,1.1c0,0.1-0.1,0.8-0.1,2.3l-0.3,4.7c1.2-0.8,1.9-1.4,2.2-1.9c0.3-0.5,1.5-1.2,3.5-2.1
		l2-1.1c0.4-0.3,0.8-0.4,1.3-0.5c0.5-0.1,1-0.1,1.4,0c0.4,0,0.8,0.1,1.2,0.3c0.4,0.1,0.8,0.3,1.1,0.5c0.4,0.2,0.8,0.4,1.2,0.7
		l1.1,1.1c0.3,0.4,0.3,0.6,0.1,0.5c-0.2-0.1,0,0,0.6,0.3c-0.3,0.5-0.4,0.7-0.3,0.6c0.1-0.1-0.1-0.1-0.4,0.1c0.2,0.3,0.3,0.5,0.2,0.5
		c-0.1,0,0.1,0,0.7,0c-0.1,0.6-0.1,0.9-0.2,0.8c-0.1-0.1-0.3-0.1-0.7,0.1c0.1,0.6,0.3,0.9,0.4,0.8c0.1-0.1,0.1,0.2,0,0.9l-0.1,0.3
		c-0.2,1.1-0.3,1.5-0.4,1.1s-0.4-0.1-1,0.6c-0.1,0.2-0.2,0.3-0.3,0.5s-0.2,0.3-0.3,0.5c-0.3,0.4-0.5,0.6-0.8,0.6
		c-0.3,0.1-0.4,0.1-0.5,0.2c-0.1,0-0.1,0,0,0c0.1-0.1,0.1-0.1,0-0.1c-0.5,0-0.8,0-0.7,0.1c0,0.1-0.3,0.1-0.8,0.1
		c0.2,0.2,0.3,0.4,0.3,0.5c0,0.1-0.1,0.2-0.2,0.3c-0.3,0.2-0.9,0.2-1.7,0.1c-0.9-0.1-1.6-0.1-2.1,0c-0.7,0.1-1.4,0.5-2.2,1.1
		c-0.4,0.3-0.7,0.6-1.1,0.8c-0.3,0.2-0.6,0.5-0.8,0.7c-0.8,0.7-1.5,1.7-2.2,2.9c-0.3,0.6-0.6,1.2-0.8,1.8c-0.2,0.5-0.3,1.1-0.3,1.5
		c-0.1,0.9-0.1,1.8,0,2.8s0,1.9,0,2.8c0,1.2-0.1,2.7-0.3,4.7c-0.1,1.9-0.4,3.4-0.8,4.4c-0.1,0.3-0.3,0.6-0.4,0.9s-0.3,0.6-0.4,1
		c-0.2,0.4-0.4,0.7-0.6,0.9c-0.2,0.2-0.3,0.4-0.4,0.8l-1-0.4c-0.2-0.1-0.6-0.6-1.1-1.5c-0.2-0.5-0.4-0.9-0.6-1.4s-0.3-1-0.5-1.5
		c-0.4-0.9-0.6-2-0.7-3.3s-0.2-2.4-0.4-3.3c-0.1-0.8-0.2-1.5-0.4-2.2c-0.1-0.7-0.3-1.3-0.4-2c-0.1-0.6-0.3-1.2-0.4-1.8
		c-0.1-0.6-0.3-1.2-0.4-1.9l-1.3-14.2c0-0.9,0-1.9-0.1-3c-0.1-1.1-0.2-2.3-0.3-3.6c-0.3-2.6,0.1-4.6,1.3-6l0.2-0.2l0.1-0.1
		c0.2-0.2,0.4-0.4,0.5-0.6l0.6-0.8L144.8,25.8C144.8,25.9,144.8,25.9,144.8,25.8L144.8,25.8z M152.5,31.5
		C152.5,31.6,152.5,31.6,152.5,31.5C152.5,31.6,152.6,31.6,152.5,31.5C152.6,31.5,152.5,31.5,152.5,31.5z"/>
	<path class="st0" d="M193.8,21.4l0.3,0.2c0.2-0.4,0.3-0.7,0.2-0.8c0-0.1,0.6,0.2,1.8,0.8c0.7,0.4,1,0.8,0.8,1.1
		c-0.2,0.3,0.3,0.4,1.6,0.4c0.4,1.8,0.5,2.6,0.4,2.3c-0.2-0.3-0.4-0.1-0.6,0.6c0.6,0.2,0.8,1,0.7,2.2l-0.2,3.1l-0.8,9.2
		c-0.1,0.6-0.1,1.1-0.3,1.5c-0.1,0.4-0.2,0.8-0.2,1.2c-0.2,2.1-0.4,4.3-0.5,6.4c-0.1,2.1-0.1,4.3,0,6.5c0.2,4.4-0.2,8.7-1.1,12.7
		c-0.1,0.5-0.2,1-0.2,1.4c0,0.2,0,0.4,0,0.6c0,0.2,0,0.5-0.1,0.8c0,0.1,0,0.2-0.1,0.4c0,0.1,0,0.2-0.1,0.4l-0.7,1.5
		c-1-0.3-1.8-1.3-2.2-3.3c-0.4-1.9-0.6-3.2-0.6-4c-0.2,0.2-0.6,0.6-1.1,1.4l-1.8,2.1l-0.2,0.2c-0.6,0.5-1.2,1-1.7,1.5
		s-1.3,0.9-2.1,1.2c-2.4,0.9-4.6,0.9-6.5,0.1c-1.8-0.7-3.5-1.9-5.2-3.5c-1.6-1.6-2.8-3.3-3.7-5.2c-0.6-1.2-0.9-2.6-1.1-4.2
		c0-0.3,0-0.5-0.1-0.6c-0.2-1.9,0-3.7,0.6-5.5c0.3-0.9,0.7-1.7,1-2.6s0.8-1.7,1.2-2.5c0.6-1,1.4-2.2,2.5-3.6
		c0.5-0.7,1.1-1.3,1.5-1.8c0.5-0.5,0.9-1,1.3-1.4l2.1-1.7c0.5-0.4,0.9-0.7,1.1-0.7c0.1,0,0.3-0.1,0.5-0.2c0.2-0.1,0.4-0.2,0.6-0.4
		c0.9-0.6,2.1-1,3.5-1.2c1.5-0.3,2.8-0.2,3.8,0.2l1.4,0.6c0-2.3-0.1-4.5-0.4-6.6c-0.1-1.1-0.5-2.3-1.1-3.7c-0.5-1.4-0.5-2.9,0.2-4.5
		c0.3-0.8,0.8-1.2,1.6-1.3c0-0.6,0.3-1.2,1-1.7c0.7-0.5,1.5-0.5,2.4-0.1l0.5,0.4V21.4z M182.1,67c0.8,0,1.9-0.4,3.2-1.1
		c1.3-0.7,2.3-1.3,2.9-1.8c1.5-1.3,2.3-2.2,2.4-2.9c0.1-0.7,0.1-1.7-0.1-3c-0.3-1.7-0.4-3.3-0.4-4.9c0-1.6-0.2-2.7-0.7-3.2
		c0,0,0,0-0.1-0.1c0,0-0.1-0.1-0.3-0.2c0,0-0.1,0-0.1-0.1c-0.8-0.5-1.1-0.8-1.1-0.9c0-0.1,0-0.2,0-0.3c-0.1-0.1-0.1-0.2-0.1-0.4
		c0-0.2-0.2-0.4-0.8-0.7c-0.8-0.4-1.3-0.6-1.5-0.6c-0.2,0-0.7,0.2-1.7,0.7c-0.3,0.2-0.5,0.3-0.7,0.4c-0.2,0.1-0.4,0.3-0.6,0.5
		c-0.4,0.3-0.9,0.7-1.3,1.1c-0.4,0.4-0.8,0.8-1.2,1.1c-0.5,0.5-1,1.1-1.5,1.8c-0.5,0.7-1,1.6-1.6,2.5c-1.1,1.8-1.5,3.5-1.3,5
		c0.1,0.4,0.1,0.8,0.2,1.1c0.1,0.3,0.2,0.6,0.3,0.8c0.1,0.2,0.3,0.5,0.4,0.7c0.2,0.2,0.3,0.4,0.5,0.7c0.1,0.2,0.4,0.5,0.8,0.9
		c0.4,0.4,0.9,0.9,1.5,1.4C180.6,66.4,181.5,67,182.1,67z M192.9,21.3L192.9,21.3c0-0.3-0.1-0.3-0.3-0.1c-0.1,0.2,0,0.3,0.3,0.3
		V21.3z M197.8,24.9c-0.2,0.2-0.2,0.2-0.1,0.2c0.1,0,0.1,0,0.2-0.1c0.3,0.2,0.4,0.2,0.2,0C198.1,24.7,198,24.7,197.8,24.9z"/>
	<path class="st0" d="M209.6,37.6c1-0.1,2.2-0.2,3.6-0.3c1.4-0.1,2.8-0.1,4.1,0c0.5,0.1,1,0.1,1.4,0.2c0.4,0,0.7,0.1,1,0.1
		c0.3,0,0.6,0.1,1,0.2c0.4,0.1,0.8,0.2,1.3,0.4c0.5,0.2,1.1,0.4,1.7,0.7c0.6,0.3,1.1,0.6,1.5,1.1c0,0.1,0.1,0.1,0.2,0.3
		c1.2,1.4,1.7,3.1,1.6,5l-0.5,1.4c-0.1,0.2-0.2,0.3-0.2,0.3c0-0.1-0.1,0.1-0.2,0.4l-1.2,4.3c-0.2,0.6-0.4,1.3-0.6,1.8
		c-0.2,0.6-0.4,1.2-0.5,1.8l-2.1,13.4c0,0.3,0,0.7,0,1.1c0,0.4,0,0.7,0,1.1s0,0.7,0,1.1s-0.1,0.7-0.2,0.9c-0.5,1.1-1,1.5-1.7,1
		c-0.6-0.4-1.2-1-1.8-1.7c-0.1-0.2-0.2-0.3-0.3-0.4c-0.1-0.1-0.1-0.1-0.2-0.1c0,0-0.1-0.3-0.2-0.7c-0.1-0.3-0.1-0.5-0.1-0.5
		c0,0,0-0.3-0.1-0.7c-0.4,0.3-0.5,0.5-0.5,0.6c0,0.1-0.3,0.3-0.8,0.7l-1.6,1c-0.6,0.4-1.3,0.7-1.8,0.9c-0.5,0.2-1.3,0.3-2.3,0.3
		c-0.7,0-1.4-0.1-2.2-0.2c-0.7-0.2-1.4-0.4-2.1-0.7s-1.3-0.6-1.9-1c-0.6-0.4-1.2-0.8-1.7-1.2l-1.5-1.6c-1.4-1.6-2.3-3.5-2.7-5.7
		c-0.2-0.8-0.2-1.8,0-2.8c0.2-1.3,0.8-2.5,1.8-3.7c0.5-0.6,0.9-1.1,1.4-1.6s0.9-0.9,1.4-1.2c1.3-0.9,2.6-1.6,3.8-2
		c1.2-0.4,2.5-0.8,4-1.1c1-0.2,1.8-0.4,2.5-0.5c0.7-0.1,1.3-0.2,1.8-0.2c0.9-0.1,2.3,0.1,4.2,0.5c0.1-0.1,0.1-0.3,0.1-0.5
		c0-0.2,0-0.5,0-0.7c0-0.2,0-0.5,0.1-0.7c0-0.2,0.1-0.5,0.2-0.7c-1,0-1.9,0-2.7,0c-0.8,0-1.4,0-2,0c-1.1,0-2.6,0.2-4.5,0.7
		c-0.1,0-0.1,0-0.3,0.1c-0.9,0.3-1.8,0.6-2.6,1c-0.3,0.3-0.5,0.4-0.7,0.4l-1.1,0.2c-0.2,0-0.3,0.1-0.3,0.1s0,0,0.1,0H205l-3.7-1.1
		c-0.1-0.1-0.2-0.2-0.4-0.5c-0.1-0.2-0.2-0.3-0.3-0.4c-0.1-0.1-0.1-0.1-0.2-0.2c0,0-0.1,0-0.1-0.1c0,0-0.1,0-0.1-0.1
		c-0.1-0.1-0.1-0.1-0.1-0.1c0,0-0.1-0.1-0.1-0.1c0,0,0-0.1-0.1-0.2c0-0.1,0-0.3,0-0.5c0-0.5,0.1-0.9,0.4-1.2
		c-0.4-0.1-0.6-0.2-0.6-0.2c0,0-0.1-0.1-0.6-0.2c0.1-1,0.2-1.7,0.4-2.2c0.1-0.5,0.5-1.1,1-1.8c0.4-0.4,0.9-0.8,1.6-1
		c0.7-0.2,1-0.4,1-0.6c-0.1-0.4-0.2-0.4-0.2,0c0,0.3-0.1,0.2-0.3-0.4L209.6,37.6z M199.7,43.8L199.7,43.8
		C199.7,43.7,199.7,43.7,199.7,43.8L199.7,43.8z M204.7,62.2c0,0.1,0,0.1,0.1,0.2c0,0,0.1,0.1,0.1,0.1c0,0,0,0.1,0.1,0.1
		c0.2,0.4,0.4,0.7,0.5,1c0.2,0.3,0.4,0.6,0.7,0.8l0.5,0.4c1.5,1.2,2.7,1.7,3.6,1.6c1-0.1,2.1-0.4,3.3-0.9c2.1-0.8,3.2-1.3,3.5-1.6
		c0.3-0.3,0.4-1.5,0.4-3.5c-0.6-0.1-0.8-0.1-0.6-0.1c0.2,0,0-0.3-0.5-0.8l-0.9-0.6c-0.6-0.3-1.4-0.4-2.4-0.3l-2.2,0.2
		c-1.7,0.2-3,0.4-3.8,0.7c-0.8,0.3-1.6,0.9-2.5,2L204.7,62.2z"/>
	<path class="st0" d="M236.6,62.5l3.6-6.2l1.8-3.2c0.4-0.8,0.8-2,1.1-3.5c0.1-0.8,0.4-1.6,0.7-2.5c0.4-0.9,0.7-1.7,1-2.5
		c0,0,0-0.1,0-0.1c0-0.1,0-0.1,0-0.2c0.1-0.2,0.2-0.4,0.2-0.5c0-0.1,0.1-0.2,0.2-0.5l0.3-0.7c1-2.6,1.4-3.8,1.2-3.5
		c-0.2,0.2-0.1-0.3,0.3-1.4c0.2-0.8,0.6-1.2,1.1-1.3c0-0.5,0.1-0.9,0.3-1.2c0.1-0.1,0.2-0.2,0.4-0.3c0.2-0.1,0.4-0.2,0.6-0.3
		c0.2-0.1,0.5-0.3,0.7-0.5c0.2-0.2,0.5-0.4,0.8-0.7c0.2,0,0.3,0,0.4,0c0.1,0,0.2,0,0.2,0c0,0,0.1,0,0.1,0c0,0,0,0,0,0
		c0.4,0.1,0.6,0,0.6-0.2c0-0.2,0.3-0.1,1,0.1c0.3,0.1,0.6,0.3,0.8,0.5c0.2,0.2,0.5,0.4,0.8,0.5c0.8,0.3,1.1,0.5,0.9,0.6
		c-0.2,0.2,0.1,0.7,0.8,1.7c0,0,0,0.1,0.1,0.1c0.1,0,0.1,0.1,0.1,0.1c0.2,0.4,0.3,0.5,0.3,0.4c0-0.1,0,0,0.1,0.4
		c0.1,0.8,0,1.5-0.2,2.1c-0.2,0.4-0.2,0.7-0.2,0.7c0,0,0.2,0.2,0.5,0.6c-0.3,0.2-0.4,0.4-0.5,0.7c0,0.2-0.2,0.5-0.3,0.9
		c-0.2,0.5-0.4,1-0.6,1.5l-2.5,6.2c-0.3,0.9-0.6,1.7-0.9,2.4c-0.3,0.7-0.5,1.5-0.7,2.4c-0.1,0.3-0.2,0.6-0.2,0.9s-0.1,0.5-0.2,0.8
		l-5.7,19.5c-0.4,1.2-0.9,2.3-1.3,3.5c-0.4,1.2-0.9,2.4-1.3,3.6c-0.9,2.4-2.2,4.6-4,6.4l-0.3,0.2c-0.1,0.1-0.1,0.1-0.1,0.1
		c0,0-0.1,0.1-0.1,0.1c0,0-0.1,0.1-0.1,0.1c0.1,0-0.1,0-0.6,0.1c-0.4-3.5-0.4-6.8,0.1-9.8c0.5-3,1.1-6.2,1.8-9.3
		c0.1-0.5,0.2-0.9,0.3-1.2c0.1-0.3,0.1-0.7,0.1-1.2c-0.2,0.2-0.5,0.3-0.7,0.5s-0.4,0.3-0.6,0.5c-1.8,1.7-3.8,1.9-5.9,0.8l-0.2-0.1
		l-0.4-0.2c-0.1,0-0.2,0-0.3-0.1c-0.1-0.1-0.1-0.1-0.2-0.2c-1.7-1.3-2.9-3.3-3.4-6.2s-0.9-4.9-1.2-6.1l-0.2-2.6
		c-0.3-2.2-0.4-4.5-0.6-6.8c-0.1-2.3-0.3-4.6-0.4-6.8c-0.1-1.2,0.1-2.3,0.4-3.2l0.1-0.2c0,0,0,0,0-0.1l0.1-0.1
		c0-0.1,0.1-0.2,0.1-0.3c0-0.1,0.1-0.2,0.1-0.3c0.1-0.2,0.2-0.4,0.3-0.5l0.2-0.3l0.1-0.1l0.1-0.1l0.5-0.8c0.9-1,2-1.6,3.4-1.9v0.2
		c0,0,0,0.1,0,0.1c0,0,0,0,0,0.1v0.1l0.8-0.2c0,0,0.1,0,0.1-0.1h0.1c0,0,0,0,0.1,0c0,0,0.1,0,0.1,0c0.5,0,0.8,0.1,0.7,0.2
		c-0.1,0.1-0.1,0.3,0.1,0.5c0,0,0.1,0,0.1,0.1l0.3,0.1c0.7,0.4,1.3,0.5,1.6,0.5c0.3,0,0.6,0.4,1,1.3c0.2,0.4,0.2,0.6,0.3,0.6
		c0-0.1,0.1,0,0.4,0.3l0.8,2c-0.6-0.1-0.8-0.1-0.6-0.1c0.2,0,0.2,0,0,0.1l0.1,0.1c0,0,0,0.1,0,0.1c0,0,0,0.1,0,0.1l0.2,0.7
		c0.1,0.3,0.2,0.4,0.2,0.4c0.1,0,0.1,0.3,0.1,0.9l-0.5,4.2c-0.2,1.2-0.3,2.4-0.3,3.4c0,1-0.1,2.2-0.2,3.3L236.6,62.5z M232.4,34.9
		C232.4,34.9,232.4,34.9,232.4,34.9C232.4,35,232.4,35,232.4,34.9L232.4,34.9L232.4,34.9z"/>
	<path class="st0" d="M264.4,62c0.7,0,1.2,0.1,1.3,0.3c0.1,0.2,0.5,0.3,1.1,0.2c0,0,0.1,0,0.2,0c0.1,0,0.1,0,0.2,0
		c0.1,0,0.2,0,0.3-0.1c0.5-0.1,1,0,1.4,0.4c0.1,0.1,0.2,0.2,0.2,0.2s0,0,0,0c-0.1-0.1-0.1,0,0,0.2c0,0.1-0.1,0.1-0.2,0.1
		c-0.1,0,0.1,0.2,0.6,0.6l1.2,0.9c0.4,0.2,0.5,0.2,0.4,0.1c-0.1-0.1-0.2-0.2-0.1-0.2c0.3-0.2,0.5-0.2,0.5-0.3c0,0-0.1,0-0.4,0.1
		c-0.3,0.1-0.4,0.1-0.4,0.1c0,0,0.2-0.1,0.5-0.2c0.1,0.8,0.2,1.1,0.3,0.9c0.2-0.2,0.1,0.1,0,1c-0.2,1.1-0.1,1.6,0.3,1.6
		c0.4,0,0.1,1.5-1,4.7l-3.7,8c-0.4,0.7-0.8,1.3-1.2,1.9c-0.2,0.3-0.4,0.6-0.6,1c-0.2,0.4-0.5,0.7-0.8,1.2c-0.1,0.2-0.2,0.3-0.3,0.3
		c-0.1,0.1-0.2,0.2-0.3,0.4c-0.9,1.3-1.7,2-2.4,2.1c-0.7,0.2-1.1-0.8-1.1-2.9c0-2.5,0.1-4.5,0.4-6.2c0.3-1.6,0.4-3.4,0.4-5.4
		c0-1.1-0.1-1.9-0.3-2.3c-0.1-0.2-0.2-0.4-0.3-0.8s-0.2-0.7-0.4-1.1l0.1-2.1c0.3-0.6,0.3-0.8,0.1-0.8c-0.2,0-0.1-0.2,0.2-0.8
		l2.4-2.5c0.3-0.1,0.5-0.2,0.7-0.1C264.3,62.6,264.4,62.4,264.4,62z M271.4,67.6C271.3,67.7,271.3,67.7,271.4,67.6L271.4,67.6z
		 M271.4,68.1C271.3,68.1,271.3,68.1,271.4,68.1L271.4,68.1z"/>
	<path class="st0" d="M327.3,30c0.4,0.7,0.5,1.4,0.4,2.1c-0.1,0.4-0.2,0.6-0.2,0.6c0-0.1-0.1,0-0.4,0.3l-1.1,1.5
		c-0.4,0.5-0.8,0.8-1.4,0.9l-0.4,0.2v0.1h-1.3c-0.2,0.4-0.3,0.6-0.4,0.6l-8.5,0.2h-0.1c0,0,0,0-0.1,0l-6.4-0.5l-0.3,4.1
		c0,0.2-0.1,0.5-0.1,0.7s-0.1,0.5-0.1,1c0,0.2,0,0.4,0,0.5c0,0.1,0,0.2,0,0.3c0,0.1,0,0.3-0.1,0.8c0.6,0,1.3,0.1,2,0.2
		c0.7,0.1,1.3,0.2,2,0.4c0.7,0.2,1.3,0.3,2,0.5s1.3,0.3,1.9,0.5l1.6,0.7l0.5,0.1l2.7,1.6c1.7,1.4,3,2.9,4,4.4c1,1.5,1.4,3.5,1.2,6
		c-0.1,1.3-0.5,2.8-1.1,4.4c-0.6,1.7-1.2,2.9-1.8,3.7c-1.5,2.1-3.5,3.8-5.9,5.2c-2.7,1.6-5.4,2.5-8.2,3c-2.5,0.3-4.8,0-6.9-1
		c-0.6-0.3-1.2-0.6-1.7-1c-0.3-0.2-0.6-0.4-0.8-0.7l-2.2-1.8c-0.3-0.2-0.5-0.4-0.8-0.6c-0.3-0.2-0.5-0.4-0.7-0.6
		c-0.2-0.2-0.4-0.5-0.6-0.7s-0.3-0.6-0.4-0.9c0.9-0.5,1.9-0.7,3.2-0.6s2.4,0.2,3.3,0.6c1.9,0.8,4,0.9,6.3,0.4
		c2.3-0.5,4.2-1.3,5.7-2.3l0.4-0.3l0.4-0.3c0.9-0.7,1.8-2.1,2.8-3.9c1-1.9,0.8-3.3-0.7-4.1c-0.3-0.1-0.6-0.2-0.9-0.4
		c-0.3-0.1-0.7-0.2-1-0.4c-0.3-0.1-0.6-0.2-0.9-0.3c-0.4-0.1-0.8-0.2-1.3-0.4c-0.9-0.3-1.7-0.4-2.3-0.4c-3.1,0-4.7,0.1-4.9,0.3
		c-0.1,0.2-1,0.6-2.7,1.3c-0.4,0.2-0.8,0.3-1.1,0.4s-0.4,0.1-0.5,0.2c-0.1,0-0.6-0.1-1.5-0.3c-0.2,0.5-0.2,0.8,0.2,0.8
		c0.4,0,0.1,0-0.6,0.1c-0.1-0.2-0.2-0.4-0.2-0.4c0-0.1,0-0.1,0,0c0.1,0.1-0.2,0-0.8-0.1c-0.7-0.2-1.3-0.7-1.8-1.5l-0.8-1.4
		c-0.1-0.2-0.3-0.8-0.4-1.7l-0.1-0.6c-0.2-1.3,0-2.4,0.6-3.5c0.6-1,1-2.3,1.2-3.7l0.1-0.8c0.2-0.9,0.3-2.5,0.4-4.8
		c0-1.2,0.1-2.2,0-3.1c0-0.9,0-1.6-0.1-2.2c0-0.3,0-0.6-0.1-0.9c0-0.3-0.1-0.6-0.1-1c-0.1-0.6-0.2-1.2-0.1-1.6
		c0.1-0.5,0.1-0.8-0.1-0.8c-0.2,0-0.1-0.5,0.4-1.5c0.3-0.5,0.4-0.7,0.3-0.7c-0.1,0,0.2,0,0.7-0.1c0-0.3,0.1-0.5,0.1-0.6
		c0-0.1,0-0.1,0,0c0,0.2,0,0.1,0.3-0.2c0.4-0.4,0.7-0.8,1.2-1c0.4-0.2,0.8-0.4,1.2-0.6c0.9-0.5,2.2-0.6,4.1-0.5
		c0.9,0.1,1.8,0.1,2.6,0.2c0.8,0,1.6,0.1,2.3,0.1c0.5,0,1,0,1.6,0c0.6,0,1.3,0,2.1,0.1l6.2,0.4c0,0,0,0,0.1,0h0.1l2-0.1h0.6
		c0.6,0,1.3,0,2.1,0.1c0.8,0.1,1.4,0.3,2,0.6l0.9,0.7l1.1,0.9c0.5,0.4,0.8,1.1,1.1,1.8l0.2,0.7c0,0.1,0,0.1,0.1,0.1
		c0,0,0,0.1,0.1,0.4C327.9,29.6,327.6,29.7,327.3,30z"/>
	<path class="st0" d="M339.2,28c0-0.4,0-0.6-0.1-0.4c-0.1,0.2-0.1-0.1-0.1-0.6l0-2.7c0-0.6-0.1-1.2-0.1-1.6c0-0.4,0-0.8,0-1.1
		c0-0.5,0.4-1.2,1.2-2l1.6-1.9c0.2-0.2,0.4-0.4,0.7-0.6c0.3-0.1,0.4-0.1,0.5-0.1s0,0-0.1,0.1c-0.1,0.1-0.2,0.1-0.1,0.1
		c0.1,0,0.2-0.1,0.5-0.2c0.2,0,0.3-0.1,0.3-0.1c0,0,0,0-0.1,0c-0.2,0.1-0.1,0,0.1-0.1c0.2-0.1,0.2-0.2,0.1-0.1c-0.1,0,0,0,0.2-0.2
		c0.1-0.1,0.2-0.1,0.3-0.2c0.1,0,0.1,0,0,0c0,0,0.2,0,0.6-0.1l0.4,0.7c0.1-0.2,0.2-0.4,0.4-0.5c0.1-0.1,0.3-0.1,0.6-0.1
		c0.7,0.2,1.2,0.4,1.4,0.8c0.2,0.4,0.4,0.6,0.4,0.6c0.1,0.1,0.2,0.2,0.4,0.2c0.2,0,0.4,0.3,0.7,0.7l1.1,1.4c0.1,0.2,0.2,0.4,0.2,0.6
		c0,0.2,0.1,0.3,0.1,0.5c0,0.2,0.1,0.3,0.1,0.5c0,0.2,0.1,0.4,0.2,0.6c0.3,0.8,0.4,1.7,0.3,2.8c0,0.5-0.1,1-0.1,1.5c0,0.5,0,1,0,1.5
		c0,0.4,0,0.8-0.1,1.3c-0.1,0.5-0.2,1-0.2,1.5c0,0.3-0.1,0.5-0.1,0.8c0,0.2,0,0.5-0.1,0.7c0,0.2,0,0.5,0,0.7c0,0.3,0,0.6,0,0.9
		l3.2-0.4c1.2,0,2.2,0.3,3.2,0.8c0.1,0,0.1,0,0.1,0.1c0.4,0.3,0.8,0.6,1,1c0.3,0.4,0.6,0.7,1,0.9c0.1,0.1,0.1,0.1,0.1,0.1l0.5,0.4
		c-0.1,0.3-0.2,0.6-0.4,1.1c0.2,0,0.4,0,0.5,0c0.1,0,0.2,0,0.2,0c0,0,0.1,0.2,0.2,0.6c-0.2,0.3-0.3,0.5-0.3,0.5c0,0-0.2,0-0.8,0
		l0.4,0.6c-0.1,0.5-0.1,0.7,0,0.7c0-0.1-0.2-0.1-0.6-0.3c0.1,0.2,0.2,0.3,0.2,0.4c0.1,0.1,0.1,0.2,0.2,0.2c0.1,0.1,0.1,0.2,0.2,0.3
		c0.1,0.1,0.2,0.2,0.2,0.4l-0.4,0.5c-0.2,0.2-0.3,0.3-0.3,0.3c-0.5,0.4-0.9,0.6-1.1,0.5c-0.2-0.1-0.3,0.1-0.3,0.5
		c-0.2,1-0.9,1.5-2.2,1.5c-0.7,0-1.1,0-1.3-0.1c-0.2-0.1-0.2,0.2-0.3,0.7c-1.5,0-2.7-0.1-3.6-0.4c-0.4-0.1-0.7-0.2-1-0.4
		c-0.3-0.1-0.6-0.2-1-0.1c-0.3,0.1-0.3,0,0-0.1c0.1-0.1,0.2-0.1,0.1-0.1c0,0-0.2,0.1-0.4,0.3c-0.3,0.2-0.4,0.2-0.3,0.1
		c0.1-0.1,0.1,0.1-0.1,0.5l-1.1,5.2c-0.1,1.4-0.2,2.4-0.3,2.8c-0.1,0.5-0.1,1.6-0.1,3.3l0.1,3c0,0.9,0,1.7,0,2.4
		c0.1,0.7,0.2,1.4,0.3,2.1c0.4,1.3,0.6,2.5,0.7,3.5c0.7,0.2,1.3,0.3,1.8,0.3c0.5,0,1,0.1,1.4,0c0.8-0.1,0.8,0.8-0.1,2.8
		c-0.8,1.7-2,2.6-3.5,2.8c-1.5,0.2-2.8-0.1-3.9-0.9c0,0-0.2-0.1-0.4-0.4c-0.3-0.2-0.4-0.4-0.4-0.4c-0.1,0-0.1,0-0.1-0.1l-1.3-1.8
		c-0.6-1-1.1-2-1.5-3.1c-0.4-1.1-0.7-2.2-1-3.3c-0.1-0.1-0.1-0.3-0.1-0.4c-0.3-1.1-0.5-2.3-0.7-3.6c-0.2-1.3-0.3-2.6-0.3-4
		c0-0.7,0-1.6-0.1-2.5c-0.1-0.9-0.2-2-0.3-3.1c-0.2-2.2,0-4,0.6-5.4c-0.9,0-1.7,0-2.4,0c-0.7,0-1.4-0.1-2-0.2
		c-1.2-0.1-2.5-0.6-3.9-1.3c0,0-0.1-0.1-0.1-0.1l-0.7-0.7c0-0.1-0.1-0.1-0.1-0.2s-0.1-0.1-0.1-0.2c0.3-1.1,1.1-2,2.3-2.7
		c1.3-0.8,2.5-1.4,3.4-1.8c0.2-0.1,0.5-0.2,0.7-0.3s0.4-0.2,0.5-0.3c0.4-0.2,0.8-0.3,1.1-0.4c1.7-0.5,2.5-1,2.7-1.3
		c0.1-0.3,0.2-2.3,0.3-6c0-0.5,0-0.7,0.1-0.6C339.2,28.7,339.2,28.5,339.2,28z M348.8,19.2C348.8,19.2,348.8,19.2,348.8,19.2
		L348.8,19.2z"/>
	<path class="st0" d="M362.1,28.3c0-0.2,0-0.3-0.1-0.4c0-0.1-0.1-0.2-0.1-0.4c0-0.1,0-0.3,0-0.4c0-0.1,0-0.2,0-0.3
		c0-1.5-0.1-3.2-0.4-5.1c-0.3-1.9-0.4-3.2-0.2-3.7l0.5-2.1l0.1-0.2l0.1-0.4c0,0,0.1-0.1,0.1-0.1l0.6-0.6c0,0,0,0,0-0.1l0.1-0.1
		c0.2-0.2,0.2-0.3,0.1-0.3c-0.1,0-0.1,0,0.1,0c0.1,0,0.3-0.1,0.6-0.2l1.7-0.4c0.3-0.1,0.5-0.2,0.7-0.2c0.2-0.1,0.3-0.1,0.4-0.1
		c0.1-0.1,0.5,0,1,0.1c1.6,0.5,2.5,0.7,2.5,0.7c0.1,0,0.7,0.6,1.9,1.8l0.2,0.2l0.1,0.1c0.9,0.9,1.2,2.5,0.9,4.7
		c-0.3,2.2-0.4,3.9-0.4,5.2l-0.6,8.6c0,0.6-0.1,1.1-0.2,1.6c-0.1,0.5-0.1,1-0.2,1.4c-0.1,0.4-0.1,0.8-0.2,1.3c0,0.5-0.1,1.1-0.1,1.7
		c-0.1,1.3-0.2,2.2-0.4,2.6c0.4-0.1,1.1-0.7,2.1-1.8c0.5-0.5,0.9-1,1.3-1.4s0.7-0.7,1-0.9l0.8-0.7c0.4-0.3,0.8-0.6,1.5-0.9l1.4-0.7
		c1.7-0.5,3.2-0.8,4.4-0.8c1.3,0,2.7,0.6,4.2,1.6c1,0.7,1.9,1.7,2.8,3c0.5,0.8,0.9,1.7,1.2,2.6c0.3,1,0.6,1.8,0.8,2.7
		c0,0.2,0,0.3,0.1,0.4c0,0.1,0,0.1,0,0.1c0,0,0.1,0.2,0.1,0.6c0.1,0.5,0.1,1.1,0.1,1.7c0,0.6,0,1.2,0,1.8c0,0.6,0,1.2,0,1.8
		c0,0.6,0,1.1,0,1.7c0,0.2,0,0.3,0,0.3c0,0,0,0,0-0.1c0-0.1,0-0.1,0-0.1c0,0.1,0,0.2,0,0.5L391.1,66c0,0.2-0.1,0.4-0.1,0.6
		c0,0.3,0,0.5-0.1,0.9c0,0.7-0.1,1.2-0.2,1.5c-0.1,0.4-0.2,0.6-0.3,0.6c-0.1,0-0.2,0.2-0.2,0.5c-0.1,0.3-0.1,0.4-0.1,0.5
		c0,0.1,0,0.3-0.2,0.6l-1.2,1.2l-0.1,0.1l-0.2,0.2c-0.7,1-1.2,1.3-1.4,0.9c-0.2-0.4-0.4-0.2-0.6,0.6c-0.7-0.1-1-0.2-0.9-0.3
		s-0.1-0.3-0.5-0.4c-0.3-0.1-0.4-0.1-0.2-0.1c0.2,0,0.2,0.1,0,0.1l-0.7-0.1c-0.6-0.1-1,0-1.2,0.1c-0.2,0.2-0.6-0.2-1.1-1
		c-0.1-0.1-0.2-0.2-0.2-0.3c0,0,0,0,0,0.1c0.1,0.1,0.1,0.1,0,0s-0.1-0.1-0.2-0.3c-0.1-0.1-0.2-0.2-0.3-0.2c0,0,0,0,0,0.1
		c0.1,0.1,0.1,0.1,0,0s-0.1-0.1-0.2-0.2c-0.8-0.6-1.3-1.3-1.3-2.3c-0.1-0.7,0-1.2,0.1-1.5c-0.2-0.1-0.2-0.1-0.1-0.1c0.1,0,0.1,0,0,0
		c-0.1,0-0.3,0.1-0.6,0.1c0-0.4,0-0.7-0.1-0.8c0-0.2-0.1-0.4-0.1-0.6l0.5-4.2c0.3-2.3,0.8-4.9,1.4-7.8c0.6-3,0.8-5.3,0.7-7.1
		c-0.1-0.6,0-0.9,0-1.1c0.1-0.2,0-0.5-0.3-1c-0.4,0.1-0.8,0.2-1,0.3c-0.2,0.2-0.5,0.3-0.8,0.5c-0.9,0.6-1.7,1.2-2.3,1.9
		c-0.7,0.7-1.3,1.4-2.1,2.1l-2.5,3.1c-0.2,0.3-0.4,0.6-0.6,0.9c-0.1,0.3-0.3,0.5-0.6,0.9c-0.1,0.2-0.2,0.3-0.3,0.4
		c-0.1,0.1-0.2,0.2-0.2,0.4c-0.7,1.3-1.4,2.9-2,4.6c-0.3,0.9-0.5,1.7-0.7,2.5s-0.2,1.5-0.2,2.3c0,2-0.2,3.6-0.6,4.9
		c-0.1,0.3-0.2,0.6-0.2,0.9c0,0.3-0.1,0.5-0.2,0.7c-0.1,0.2-0.2,0.5-0.3,0.7c-0.1,0.2-0.2,0.5-0.4,0.7l0,0.1c0,0,0,0-0.1,0.1
		c-0.5-0.1-0.8-0.3-1.1-0.6l-1.9-3.2c-0.7-1.4-1.1-3.5-1.3-6.3l-0.5-6.9l0.3-9.7c0.2-2,0.3-4,0.3-6.1s0-4.1,0-6v-3.3
		c0-0.4,0-0.7,0-1c0-0.3,0-0.5,0-0.7c0-0.2,0-0.3,0-0.4c0-0.1,0-0.2,0-0.3c0-0.1,0-0.1,0-0.2c0,0,0-0.1,0-0.1
		C362.1,28.4,362.1,28.4,362.1,28.3z M362.1,15.6C362.1,15.5,362.1,15.5,362.1,15.6L362.1,15.6z M367.6,13.3
		C367.6,13.3,367.6,13.3,367.6,13.3C367.6,13.3,367.6,13.3,367.6,13.3L367.6,13.3L367.6,13.3z M372,16.6C372,16.6,372,16.6,372,16.6
		L372,16.6L372,16.6z M381.1,71.3C381.1,71.3,381.1,71.4,381.1,71.3L381.1,71.3L381.1,71.3z"/>
	<path class="st0" d="M430.8,73.3c-0.6,0-1,0-1.1-0.1c-0.1-0.1-0.7-0.1-1.8-0.1c-0.7,0-1.6-0.3-2.5-0.8c-1.9-1-3.4-2-4.6-3.1
		c-1.2-1.1-2.2-2.6-3.1-4.7c-1.1-2.5-1.8-5.5-2-9c-0.2-3.5,0.2-6.6,1.3-9.2c0.3-0.6,0.5-1.2,0.7-1.8c0.2-0.6,0.4-1.1,0.6-1.5
		c0.2-0.5,0.5-1,0.8-1.5s0.7-1.1,1.2-1.8l1-1l0.1-0.1l2.6-2c1.2-0.9,3.1-1.3,5.6-1.4c2.4-0.1,4.3,0.1,5.6,0.6c1.7,0.6,2.5,1,2.4,1.1
		c-0.1,0,0.2,0.2,0.9,0.6c0.1,0.1,0.2,0.1,0.3,0.1c0,0,0,0-0.1,0c-0.1-0.1,0,0,0.3,0.1c0.1,0.1,0.2,0.2,0.3,0.2l1.4,1.4
		c0.2,0.2,0.4,0.4,0.5,0.6c0.1,0.2,0.3,0.3,0.4,0.5c0.2,0.3,0.5,0.7,0.8,1.3l2.4,4.4c1,1.7,1.6,3.2,1.8,4.7c0.1,0.7,0.2,1.5,0.2,2.2
		c0.1,0.8,0.1,1.6,0.2,2.4l-0.3,5.1c-0.2,1.1-0.7,2.4-1.4,3.8c-0.8,1.5-1.6,2.8-2.4,3.7c-0.8,1-2.2,1.9-4,2.9
		c-0.9,0.5-1.7,0.9-2.5,1.2c-0.7,0.3-1.4,0.5-2,0.7c-0.9,0.2-1.5,0.4-1.7,0.5C432.7,73.3,432,73.3,430.8,73.3z M430.5,65.6
		c0.1-0.3,0.4-0.7,0.8-1.1l3.2-5.4l0.4-0.7c0.1-0.2,0.2-0.5,0.2-0.9c0.1-0.7,0.1-1.3,0.1-1.8c0-0.5,0-1,0-1.5
		c-0.1-0.9-0.4-1.8-1-2.7c-0.3-0.4-0.5-0.8-0.8-1.3c-0.2-0.4-0.4-0.9-0.6-1.3c-0.3-0.9-0.7-1.4-1.1-1.6l-1.2-0.1h-0.2
		c-0.4,0-0.9,0-1.3,0c-0.5,0-0.9,0.1-1.2,0.2c-0.2,0.1-0.8,0.8-1.6,1.9c-0.8,1.1-1.3,1.9-1.5,2.4c-0.2,0.5-0.4,1.1-0.6,1.8
		c-0.2,0.7-0.3,1.6-0.4,2.6c-0.2,1.9-0.1,3.5,0.2,4.7l1.7,5.8l1.7-0.4c0.2,0,0.2,0,0.2,0.1c0,0.1,0.1,0.2,0.3,0.3
		c0.2,0.1,0.9,0.2,2,0.2L430.5,65.6z"/>
	<path class="st0" d="M464.1,34.6l7.1-0.7c0.3-0.1,0.6-0.1,0.9-0.1c0.6,0,0.9,0.1,1.1,0.2l0.8,0.4c0.1,0.1,0.2,0.1,0.2,0.1
		c0,0,0,0-0.1,0c-0.1,0-0.1-0.1-0.1,0c0,0,0.1,0,0.3,0.1c0.2,0.1,0.3,0.2,0.4,0.2c0.1,0,0.1,0,0,0c1.6,0.7,2.7,1.9,3.1,3.5
		c0.3,1.1,0.3,2.4-0.1,3.8l-0.1,0.4c0,0.1,0,0.1,0,0.1c-0.3,0.7-1,1.5-2.1,2.3c-1.2,0.8-2.2,1.2-3,1.1c-0.3,0-0.5,0-0.5-0.1
		c0,0-0.1-0.1-0.5-0.1c-0.2,0-0.4-0.1-0.6-0.1s-0.4,0-0.6,0c-0.8-0.1-2.2-0.1-4.1-0.2c-1.9,0-3.2,0-3.9,0.2
		c-0.1,0.5-0.2,1.9-0.2,4.3c0,1.2,0,2.3,0.1,3.3s0.1,1.8,0.2,2.6c0.1,0.6,0.1,1.2,0.1,1.8c0,0.6,0,1.1,0,1.7c-0.1,1.1,0,2.1,0.3,3.3
		c0.1,0.7,0.3,1.5,0.4,2.4c0.1,0.8,0.2,1.8,0.3,2.8c0.2,1.9,0.1,3.6-0.1,5c-0.1,0.3-0.1,0.4-0.2,0.4c0,0-0.1,0.1-0.2,0.5
		c-0.6-0.1-1.1-0.4-1.4-0.9c-0.2-0.3-0.3-0.6-0.5-0.9s-0.4-0.7-0.7-1.1c-1.6-2.5-2.8-6.1-3.8-10.9c-0.9-4.8-1.5-8.7-1.7-11.7
		c-0.1-1.5-0.6-1.8-1.4-1c-0.8,0.8-2.2,0.9-4.3,0.3l-1.8-0.8c0-0.3,0-0.6,0-0.8c0-0.2,0-0.3,0-0.4c-0.1-0.2,0-0.5,0.1-0.9
		c0.2-0.7,0.4-1.4,0.8-1.9c0.3-0.4,0.6-0.9,0.9-1.4c0.3-0.5,0.7-0.9,1.1-1.2c0.8-0.6,1.4-1,1.9-1.2c0.5-0.2,1.2-0.5,1.9-1
		c0.5-0.3,0.7-0.5,0.7-0.6c0-0.1,0.1-0.5,0.2-1.1c0.4-1.8,0.6-2.9,0.7-3.2c0-0.1,0.1-0.5,0.3-1c0.2-0.5,0.4-1.2,0.6-2.1
		c0.2-0.8,0.7-2,1.6-3.7c0.9-1.7,1.5-2.8,2-3.4l0.6-0.9c0.4-0.6,1.1-1.2,2-1.8c0.9-0.5,1.6-1,2.3-1.5c1-0.6,2.4-1.2,4.2-1.5
		c1.9-0.4,3.4-0.4,4.6,0c0.9,0.3,1.6,0.6,2.1,0.9c0.5,0.3,1.2,0.9,1.8,1.8c0.9,1.2,1.3,2.6,1.3,4c0,0.1,0,0.2,0,0.3
		c0,0.1,0,0.2,0,0.2v0.1l0,0.3c0,0.5-0.2,1.1-0.6,1.8c-0.2,0.3-0.4,0.6-0.5,0.9c-0.2,0.3-0.3,0.5-0.5,0.7l-0.7,1
		c0,0-0.2,0.1-0.6,0.3c-0.6,0.3-1.2,0.6-1.8,1c-0.6,0.4-1,0.2-1.1-0.5c-1.4,0-1.9-0.3-1.5-0.8c0.4-0.5-0.5-0.4-2.7,0.5
		c-1.1,0.4-2,1.2-2.7,2.2L464.1,34.6z M474.5,45.6c-0.1-0.1,0-0.1,0.1-0.2c0.1-0.1,0.2-0.1,0.4,0c0.3,0.2,0.2,0.3-0.1,0.3
		C474.7,45.7,474.5,45.6,474.5,45.6z"/>
	<path class="st0" d="M500.6,35c0-0.9,0.1-1.6,0.4-2.1c0.3-0.4,0.2-1.1-0.1-2.1c0,0,0,0,0-0.1c0,0,0,0,0,0c0,0,0,0,0,0
		c0-0.2-0.1-0.4-0.1-0.6c0-0.3,0-0.6,0-1c0-0.8,0.1-1.3,0.2-1.7c0-0.2,0.1-0.3,0.1-0.3c0-0.1,0-0.1,0,0c0.1,0,0.1,0,0.1-0.1
		c0,0,0,0,0.1-0.1l0.3-0.6c0.1-0.2,0.2-0.3,0.3-0.4c0.1-0.1,0.2-0.2,0.3-0.3l2.5-1.4c0.4-0.1,0.7-0.1,1.1-0.1c0.1,0,0.3,0,0.4,0.1
		c0.1,0,0.3,0.1,0.5,0.1c1.5,0.1,2.1,0.1,1.9,0c-0.1,0,0,0,0.3,0.2c0.3,0.2,0.8,0.5,1.6,1l0.8,0.7c0.2,0.3,0.2,0.3,0,0.1
		c-0.1-0.1-0.1-0.1-0.1-0.1c0,0,0.1,0.1,0.2,0.2l1.1,1.5c0.4,0.6,0.7,1.1,0.8,1.5c0.1,0.4,0.3,0.8,0.6,1.1c0.2,0.2,0.3,0.4,0.4,0.5
		s0.2,0.2,0.2,0.3c0.1,0.1,0.2,0.4,0.4,0.9c0.2,0.5,0.4,1,0.6,1.5c0.3,0.6,0.6,1.2,1,1.8c0.8,1.3,1.6,2.3,2.3,3.1
		c0.7,0.8,1.3,1.7,1.8,2.6c0.5,0.9,1.1,1.7,1.7,2.6l2.3,3.7l0.3,0.4c0,0,0,0.1,0.1,0.2c0,0.1,0.1,0.1,0.1,0.1l0.9,1.9
		c0,0.1,0,0.1,0.1,0.1c0,0.1,0,0.1,0.1,0.1c0,0,0,0.1,0.1,0.2c0,0.1,0.1,0.2,0.1,0.2l4.9,9.7c0.1,0.2,0.2,0.4,0.2,0.5
		c0,0.1,0.1,0.2,0.2,0.5l0.4,0.7c0-0.8,0-1.5-0.1-2.3s-0.1-1.5-0.2-2.2c-0.1-0.7-0.2-1.4-0.2-2.2c-0.1-0.7-0.1-1.5-0.1-2.2l0-7.3
		c0-0.2,0-0.3-0.1-0.5c0-0.2,0-0.3,0-0.5l0-15.4c0.1-0.5,0.2-0.7,0.2-0.7c0.1,0,0.1-0.1,0.3-0.4c0.2-0.4,0.2-0.8,0.2-1.1
		c0-0.3,0.3-0.7,1-1.2l0.8-0.8c0.5-0.8,0.9-1.1,1.2-0.7c0.3,0.3,0.5,0.1,0.7-0.6c0.5,0,0.8,0.1,0.8,0.2c0,0,0.1,0.1,0.1,0.2
		c0,0.1,0.1,0.3,0.2,0.4l1.4-0.2c0.4,0,0.4-0.1,0.3-0.2c-0.2-0.1,0-0.1,0.6,0.1c0.4,0.2,0.8,0.5,1.3,1c0.3,0.4,0.5,0.6,0.6,0.8
		c0.1,0.1,0.1,0.1,0,0c-0.1-0.2-0.1-0.2,0-0.2c0.1,0,0.3,0.2,0.5,0.4c0.6,0.6,0.9,1.2,0.8,1.9v2.1c0.2,0.1,0.3,0,0.2-0.3
		c0-0.3,0.1-0.3,0.4,0c0.2,0.2,0.1,0.9-0.1,2.1c-0.2,1.2-0.3,1.9-0.3,2c0,0.1,0,0.3,0,0.4c0,0.1,0,0.2,0,0.2l-2.5,21.7
		c-0.1,0.7-0.3,1.6-0.5,2.8c-0.2,1.2-0.6,2.6-0.9,4.2c-0.4,1.7-0.7,3.1-1,4.2s-0.6,2.1-0.8,2.7l-1.1,2.2c-0.4-0.3-0.7-0.5-0.9-0.7
		c-0.2-0.2-0.4-0.6-0.7-0.9c-0.3-0.4-0.5-0.5-0.4-0.4c0,0.1-0.1,0-0.5-0.2c-1.3-0.7-2.7-1.7-4.1-3c-0.7-0.6-1.3-1.3-1.9-1.9
		s-1.1-1.2-1.5-1.8c-0.2-0.2-0.3-0.3-0.4-0.5c-0.1-0.1-0.2-0.3-0.3-0.4c-0.1-0.1-0.2-0.2-0.3-0.4c-0.1-0.1-0.2-0.3-0.4-0.5
		c-0.1-0.1-0.2-0.2-0.3-0.4c0-0.1-0.1-0.1-0.1-0.1l-0.3-0.4l-3.9-4.1c-0.5-0.5-0.9-1-1.3-1.5c-0.4-0.5-0.8-1-1.1-1.6
		c-0.4-0.5-0.7-1.1-1.1-1.6c-0.4-0.5-0.7-1-1.2-1.6c-0.2-0.3-0.3-0.4-0.3-0.4c0,0,0.1,0.1,0.2,0.3c0.2,0.2,0.3,0.3,0.2,0.3
		c0,0-0.1-0.1-0.4-0.4l-3.4-3.9c0,0.5,0,0.8,0,0.9c0,0.2,0.1,0.4,0.1,0.7v1.6l0.2,4.3c0,0.2,0,0.4,0.1,0.6c0,0.2,0.1,0.5,0.1,0.9
		c0,0.7-0.1,1.5-0.2,2.5c-0.1,0.9-0.2,2-0.4,3.2l-0.8,5.7l-1.1,5.5c-0.1,0.3-0.3,0.5-0.4,0.7c-0.1,0.1-0.2,0.4-0.3,0.7
		c-0.5-0.1-0.9-0.2-1.1-0.5c-0.2-0.3-0.3-0.6-0.5-1c-1-2.3-1.7-4.8-2.1-7.6c-0.4-2.7-0.7-5.3-1-7.9c0-0.3-0.1-0.6-0.2-1
		c-0.1-0.4-0.1-0.8-0.2-1.3c0-0.3-0.1-0.6-0.1-0.8c0-0.2,0-0.3,0-0.4s0-0.2,0-0.4c0-0.2,0-0.4-0.1-0.8l-1-7.7c0-0.4,0-0.7-0.1-1.2
		c0-0.4-0.1-0.9-0.2-1.3s-0.1-0.9-0.2-1.4c-0.1-0.5-0.1-0.9-0.1-1.4L500.6,35z M502.2,25.8C502.2,25.7,502.2,25.7,502.2,25.8
		L502.2,25.8z M506.7,23.8C506.7,23.8,506.7,23.8,506.7,23.8L506.7,23.8L506.7,23.8z M537,25.3C537,25.3,537,25.3,537,25.3
		C537,25.3,537,25.3,537,25.3L537,25.3L537,25.3z"/>
	<path class="st0" d="M559.4,73.3c-0.6,0-1,0-1.1-0.1c-0.1-0.1-0.7-0.1-1.8-0.1c-0.7,0-1.6-0.3-2.5-0.8c-1.9-1-3.4-2-4.6-3.1
		c-1.2-1.1-2.2-2.6-3.1-4.7c-1.1-2.5-1.8-5.5-2-9c-0.2-3.5,0.2-6.6,1.3-9.2c0.3-0.6,0.5-1.2,0.7-1.8c0.2-0.6,0.4-1.1,0.6-1.5
		c0.2-0.5,0.5-1,0.8-1.5s0.7-1.1,1.2-1.8l1-1l0.1-0.1l2.6-2c1.2-0.9,3.1-1.3,5.6-1.4c2.4-0.1,4.3,0.1,5.6,0.6c1.7,0.6,2.5,1,2.4,1.1
		c-0.1,0,0.2,0.2,0.9,0.6c0.1,0.1,0.2,0.1,0.3,0.1c0,0,0,0-0.1,0c-0.1-0.1,0,0,0.3,0.1c0.1,0.1,0.2,0.2,0.3,0.2l1.4,1.4
		c0.2,0.2,0.4,0.4,0.5,0.6c0.1,0.2,0.3,0.3,0.4,0.5c0.2,0.3,0.5,0.7,0.8,1.3l2.4,4.4c1,1.7,1.6,3.2,1.8,4.7c0.1,0.7,0.2,1.5,0.2,2.2
		c0.1,0.8,0.1,1.6,0.2,2.4l-0.3,5.1c-0.2,1.1-0.7,2.4-1.4,3.8c-0.8,1.5-1.6,2.8-2.4,3.7c-0.8,1-2.2,1.9-4,2.9
		c-0.9,0.5-1.7,0.9-2.5,1.2c-0.7,0.3-1.4,0.5-2,0.7c-0.9,0.2-1.5,0.4-1.7,0.5C561.4,73.3,560.6,73.3,559.4,73.3z M559.2,65.6
		c0.1-0.3,0.4-0.7,0.8-1.1l3.2-5.4l0.4-0.7c0.1-0.2,0.2-0.5,0.2-0.9c0.1-0.7,0.1-1.3,0.1-1.8c0-0.5,0-1,0-1.5
		c-0.1-0.9-0.4-1.8-1-2.7c-0.3-0.4-0.5-0.8-0.8-1.3c-0.2-0.4-0.4-0.9-0.6-1.3c-0.3-0.9-0.7-1.4-1.1-1.6l-1.2-0.1H559
		c-0.4,0-0.9,0-1.3,0c-0.5,0-0.9,0.1-1.2,0.2c-0.2,0.1-0.8,0.8-1.6,1.9c-0.8,1.1-1.3,1.9-1.5,2.4c-0.2,0.5-0.4,1.1-0.6,1.8
		c-0.2,0.7-0.3,1.6-0.4,2.6c-0.2,1.9-0.1,3.5,0.2,4.7l1.7,5.8l1.7-0.4c0.2,0,0.2,0,0.2,0.1c0,0.1,0.1,0.2,0.3,0.3
		c0.2,0.1,0.9,0.2,2,0.2L559.2,65.6z"/>
	<path class="st0" d="M591.9,57c0-1.2,0.3-3,1-5.5c0.7-2.5,1.1-4.3,1.4-5.5l0.7-4.4C595,41.2,595,41,595,41c0,0,0-0.1,0-0.1
		c0,0,0-0.1,0-0.1s0-0.1,0-0.2c0-0.4,0.1-0.9,0.2-1.3c0.1-0.5,0.2-0.9,0.3-1.4c0.1-0.6,0.3-1.1,0.5-1.7c0.2-0.5,0.4-1,0.6-1.5
		c0.2-0.5,0.5-0.9,0.9-1.3c0.3-0.4,0.8-0.8,1.2-1.2l0.4-0.3c0.4-0.4,0.7-0.7,0.7-0.7c0-0.1,0.3-0.1,0.7-0.1l0.9-0.3
		c1.1-0.4,2.2-0.2,3.5,0.6l1.1,1.1c0,0.1,0,0.1,0.1,0.1l0.4,0.4c0,0,0.2,0.2,0.4,0.5c0.4,0.6,0.6,1,0.6,1.1l0.2,1
		c0.2,1.4,0.3,2.3,0.3,2.5l-0.6,1.9c0,0.1-0.1,0.2-0.1,0.3c0,0.1-0.1,0.2-0.1,0.3l-1.5,4.7c-0.2,0.5-0.3,0.9-0.5,1.3
		s-0.3,0.8-0.4,1.1l-0.8,2.2c0,0.1-0.1,0.3-0.2,0.5c-0.1,0.2-0.2,0.4-0.3,0.7l-3.2,8.3c-0.7,1.8-1.3,3.3-1.7,4.6
		c-0.2,0.7-0.5,1.4-0.8,2.2c-0.3,0.8-0.8,1.7-1.2,2.7l-3,4.5c-0.7,0.7-1.3,0.8-1.8,0.1c-0.5-0.6-0.9-1.3-1.1-2
		c-0.2-0.8-0.6-1.5-1.2-2c-0.3-0.3-0.5-0.5-0.8-0.8c-0.3-0.3-0.5-0.6-0.8-1c-1-1.3-1.8-2.8-2.4-4.3c-0.3-0.8-0.6-1.6-0.9-2.3
		c-0.3-0.8-0.6-1.5-1-2.3c-0.2-0.4-0.3-0.8-0.5-1.2c-0.1-0.4-0.3-0.8-0.5-1.2l-4.6-10.4c-0.4-1.1-0.6-2.1-0.9-3.2s-0.6-2.1-1-3.1
		c-0.3-0.6-0.4-1-0.4-1.2l-0.1-1.1c0-0.1,0-0.2,0-0.2l0-1c0-0.6,0.2-1.1,0.5-1.5c0.3-0.4,0.6-0.9,0.9-1.4c0.4-0.8,0.8-1.3,1.1-1.5
		l1-0.6c0.4-0.2,0.8-0.3,1-0.3c0.3,0,0.4,0.1,0.5,0.1c0.6,0,1-0.1,1.2-0.3c0.2-0.2,1,0.2,2.3,1.2c0,0.1,0,0.1,0.1,0.1
		c0,0.1,0,0.1,0.1,0.1c0.4,0.3,0.8,0.6,1.2,0.9s0.6,0.7,0.7,1.1c0.1,0.3,0,0.4,0,0.5c0,0,0,0.2,0.1,0.5c0.2,0.4,0.3,0.5,0.3,0.5
		c0-0.1,0.1-0.1,0.3,0.1c0.4,0.4,0.6,1,0.7,1.9c0,0.4,0.1,0.8,0.1,1.2c0,0.3,0.1,0.6,0.2,0.9l0.8,2.5c0,0.2,0,0.3,0.1,0.4
		c0,0.1,0,0.2,0,0.3c0,0.1,0,0.2,0,0.3c0,0.1,0.1,0.2,0.1,0.4c0.2,0.5,0.3,1.1,0.5,1.7c0.2,0.7,0.4,1.4,0.6,2.3
		c0.2,0.9,0.4,1.6,0.5,2.3s0.2,1.2,0.3,1.6l0.3,3c0.1,0.8,0.2,1.7,0.2,2.8H591.9z"/>
	<path class="st0" d="M620.7,73.8c-2.1,0-4.3-0.9-6.4-2.6c-2.1-1.8-3.6-3.7-4.5-5.6c-0.6-1.3-1.2-1.9-1.7-1.8
		c-0.5,0.1-0.9-0.1-1-0.8l0-0.4c0.1-1.1,0.3-1.7,0.6-1.6s0.3-0.4,0.1-1.4l-0.3-4.7c0-0.7,0.1-1.5,0.4-2.5c0.1-0.5,0.3-0.9,0.4-1.3
		s0.2-0.8,0.3-1.1c0.7-2.3,1.9-4.4,3.6-6.3c0.8-1,1.7-1.9,2.6-2.7s1.8-1.6,2.7-2.4l1.2-0.8c0.5-0.3,1-0.7,1.7-1
		c0.6-0.4,1.2-0.6,1.8-0.8c0.8-0.2,1.7-0.4,2.6-0.5c0.9-0.1,1.9-0.2,2.9-0.3c2.1-0.1,3.8,0.3,5.1,1.3l1.3,0.9c1.5,1.2,2.5,2.9,2.9,5
		c0.4,2.1,0.3,4.1-0.2,5.9c-0.5,1.8-1.3,3.2-2.4,4.2c-0.2,0.2-0.4,0.4-0.6,0.6s-0.3,0.3-0.4,0.5c-0.8,1.1-2,2.1-3.4,3l-3.9,2.3
		l-4.2,2.2c-0.4,0.2-1.1,0.6-2.2,1.1c-1,0.5-1.7,0.8-2.1,0.8c0.4,1.5,1.4,2.7,3.2,3.5c2.7,1.3,5.4,1,8.1-0.7
		c2.7-1.7,4.2-3.3,4.6-4.8c0.5,0,0.7,0,0.8,0s0.1,0.1,0.3,0.4c0.3,0.5,0.3,1.7,0,3.5c-0.3,1.7-1,3.3-2.3,4.6c-0.7,0.7-1.7,1.4-3,2.1
		c-1.2,0.6-2.3,1.1-3.3,1.4c-0.3,0.1-0.7,0.2-1.1,0.3s-0.9,0.2-1.4,0.3s-1,0.2-1.5,0.2C621.6,73.8,621.1,73.8,620.7,73.8z
		 M625.8,49.5c0-0.4,0-0.6,0.1-0.6c0,0,0.1-0.1,0.4-0.3l2.1-1.8c0.4-0.3,0.6-1.4,0.6-3.3c-1.3-0.3-2.4-0.2-3.4,0.1l-2,0.9
		c-0.2,0.1-0.5,0.3-0.8,0.5c-0.3,0.2-0.6,0.5-1,0.8c-0.1,0-0.2,0.2-0.5,0.4l-2.5,2.6c-1.4,1.6-2.2,2.8-2.3,3.4
		c-0.1,0.3-0.2,0.6-0.3,1s-0.3,0.8-0.5,1.3c0.5,0,1.2-0.3,2-0.7c0.4-0.2,0.8-0.4,1.1-0.6c0.4-0.2,0.7-0.4,1-0.5
		c0.3-0.2,0.7-0.4,1.2-0.7c0.5-0.3,1.1-0.7,1.9-1.1C624.4,50.1,625.4,49.6,625.8,49.5z"/>
	<path class="st0" d="M638.4,33c0-0.9,0.2-1.7,0.7-2.3l1.3-1.4c0.2-0.2,0.3-0.4,0.5-0.6c0.1-0.2,0.3-0.4,0.5-0.5c0,0,0.2,0,0.4-0.1
		c0.5-0.1,0.7,0,0.5,0.1c-0.1,0-0.1,0,0,0s0.3-0.2,0.5-0.4c0.2-0.1,0.3-0.2,0.3-0.3c0,0,0.1-0.1,0.6-0.2c0.1,0.1,0.2,0.2,0.2,0.2
		c0,0,0.1,0.1,0.1,0.1c0,0,0,0.1,0,0.1c0,0,0,0.1,0.1,0.2c0.4-0.3,0.7-0.5,1-0.6c0.3-0.1,0.7,0.1,1.3,0.5c0.5,0.4,0.7,0.5,0.6,0.6
		c-0.2,0-0.1,0.1,0.2,0.4c0.3,0.3,0.4,0.3,0.3,0.1c0-0.2,0.1-0.1,0.5,0.5l0.7,1.1c1.2,1.4,1.5,2.4,1,3c-0.5,0.6,0.3,0.6,2.5-0.2
		c1.4-0.5,2.8-0.8,4.2-0.8c1.4-0.1,2.8,0.2,4.1,1c1.1,0.6,1.8,1.2,1.9,1.8c0.2,0.5,0.5,1.1,1,1.5l0.6,1c0.3,0.8,0.5,1.6,0.5,2.4h0.6
		c0.1-0.3,0.4-0.6,1.1-1.1l1.5-1.2c0,0,0.1-0.1,0.1-0.1l3.5-2.4c1.4-0.7,2.8-1.1,4.1-1c1.8,0.1,3.4,0.7,4.7,1.7
		c1.4,1.1,2.4,2.1,2.8,3.2c0.2,0.4,0.3,0.7,0.4,1c0.1,0.3,0.1,0.4,0.1,0.6c0,0.1,0,0.2,0,0.2c0,0,0,0.1,0,0.1c0,0,0,0.1,0,0.2
		c0,0.1,0,0.2,0,0.3c0.1,0.8,0,2.3-0.2,4.3c-0.2,2.1-0.3,3.5-0.4,4.3c-0.4,3.1-1,6.2-1.8,9.3s-1.6,6.2-2.6,9.3l-0.9,2.8
		c-0.3,1.1-1,1.6-2.1,1.6c-0.1-0.3-0.2-0.5-0.3-0.7c-0.1-0.2-0.3-0.4-0.4-0.8c-0.9-2.2-1.2-4.9-0.8-8c0.4-3.1,0.7-5.8,0.8-8.1
		l-0.1-8.8l-0.8,0.5c-0.4,0.3-0.9,0.6-1.3,1s-0.8,0.7-1.2,1.1c-0.4,0.4-0.8,0.7-1.2,1.1s-0.8,0.7-1.2,1c0,0,0,0-0.1,0.1l-0.6,0.5
		c-1.7,1.5-2.6,2.3-2.9,2.3s-0.5,1-0.8,2.8c-0.2,0.8-0.3,1.6-0.4,2.2s-0.2,1.3-0.4,2.1l-2.3,7.8c-0.2,0.6-0.5,1.2-0.8,1.8
		c-0.3,0.6-0.8,0.9-1.5,1c-0.1-0.4-0.2-0.8-0.4-1.2s-0.4-0.9-0.8-1.5c-0.6-1.1-0.9-2.7-1-4.8l-0.1-1.6l-0.1-2.2c0-0.2,0-0.4,0-0.6
		s0-0.3,0-0.4c0-1.6-0.2-4.1-0.4-7.5c-0.3-3.4-0.7-5.8-1.3-7.1c-0.2,0.1-0.3,0.2-0.5,0.2c-0.1,0.1-0.3,0.1-0.4,0.2l-0.4,0.3
		c-0.6,0.4-1.2,0.9-1.6,1.4c-0.5,0.5-0.9,1-1.4,1.5c-0.2,0.3-0.4,0.5-0.6,0.6s-0.4,0.4-0.6,0.6c-0.8,0.8-1.3,1.2-1.6,1.3
		c-0.2,0.1-0.4,0.6-0.6,1.7l-0.8,4.3l-0.8,3.4c-0.2,0.8-0.4,1.7-0.6,2.5s-0.4,1.7-0.6,2.6s-0.4,1.7-0.7,2.5s-0.5,1.6-0.7,2.3
		c-0.5,1.4-0.9,2.3-1.3,2.5c-0.5-0.1-0.8-0.5-1.1-1.1l-0.6-1.6c-0.2-0.4-0.4-0.9-0.5-1.5s-0.3-1.2-0.4-1.8l-0.7-23
		c0-0.1,0-0.2,0-0.6c0,0,0-0.1,0-0.2c0-0.1,0-0.2,0-0.4l0.2-3.8c0-0.4,0-0.9,0-1.4s0-1-0.1-1.5c-0.1-0.6-0.1-1.2-0.2-1.6
		C638.4,34.2,638.4,33.7,638.4,33z M647.6,30.2C647.6,30.2,647.7,30.2,647.6,30.2L647.6,30.2L647.6,30.2z M680.1,36.3
		C680.1,36.4,680.1,36.4,680.1,36.3C680.2,36.4,680.2,36.4,680.1,36.3L680.1,36.3z"/>
	<path class="st0" d="M683.9,29.3c0.4,0.2,0.5,0.2,0.5,0.2c0,0,0-0.1,0.2-0.2c-0.7-0.5-0.7-1-0.1-1.4c0.6-0.4,1-0.9,1.1-1.4
		c0.1-0.3,0-0.4-0.2-0.4c-0.1,0-0.1,0,0.1-0.2c0.2-0.1,0.6-0.3,1.2-0.6l0.8-0.4c0.4-0.2,0.6-0.2,0.6-0.1c0,0.1,0.2-0.2,0.8-0.7
		l0.4,0.2l-0.4-0.1c-0.3-0.1-0.4-0.1-0.3-0.1s0.3,0.2,0.7,0.4c0.2,0.2,0.3,0.2,0.1,0.2c-0.1,0-0.1,0,0.2-0.1c0.4,0,0.5,0,0.3-0.1
		c-0.1-0.1,0.1-0.1,0.7-0.1c0.2,0,0.4,0,0.5,0s0.1,0,0,0c-0.2,0-0.2,0.1,0.2,0.3l1.3,0.9c1,0.9,1.4,1.4,1.1,1.5
		c-0.2,0.1,0.1,0.2,1,0.2l-0.2,0.4c0,0.2-0.1,0.2-0.2,0.1c0,0,0,0,0.1,0s0.2,0.2,0.5,0.4c0,0,0,0.1,0.1,0.1c0.1,0,0.1,0.1,0.2,0.1
		c-0.2,0.6-0.3,0.9-0.4,0.7c0-0.1,0-0.1,0,0c0,0.1,0.1,0.3,0.3,0.6c0.2,0.4,0.3,1.3,0.3,2.5c0,1.2,0,1.9,0.1,2.2c0,0.3,0,0.7,0,1.2
		s0,0.9-0.1,1.4c0,0.5-0.1,1.1-0.2,1.6s-0.2,1.1-0.3,1.7c1.1,0,1.6-0.1,1.4-0.4c-0.1-0.2,0.9-0.3,3.2-0.3c0.7,0,1.3,0,1.9,0.1
		c0.6,0,1.1,0.1,1.7,0.2c1,0.1,2.2,0.5,3.6,1.1l2.3,1.6c1.1,1,2,2.3,2.7,4l0.1,0.2c0.4,1,0.6,1.9,0.7,2.7c0.1,0.8,0.2,1.5,0.4,2.1
		c0.8,3.1,1,5.8,0.6,8.2c-0.5,2.4-1.2,5-2.3,7.6c-1,2.7-2.7,4.7-4.9,5.9c-0.4,0.3-0.8,0.5-1.2,0.6s-0.6,0.3-0.8,0.3
		c-0.4,0.1-1.1,0.3-1.9,0.4c-2.8,0.6-5.4,0-7.9-1.6l-2.7-2.1c0,0-0.1,0-0.1-0.1c-0.2,0.4-0.2,0.6-0.1,0.5c0.1-0.1,0.1,0.1-0.1,0.7
		c-0.1,0.5-0.2,0.7-0.3,0.7s-0.1,0.1-0.3,0.6c-1,0-1.8-0.2-2.3-0.7l-0.1-0.1c-1.2-1.2-2-3.6-2.4-7c-0.2-1.8-0.4-3.3-0.5-4.6
		s-0.2-2.4-0.3-3.4l0.4-22c0-0.1-0.1-0.5-0.2-1.3c-0.2-0.8-0.3-1.1-0.3-1.1c-0.1,0.1-0.2-0.2-0.5-0.8c-0.1-0.3-0.2-0.5-0.2-0.7
		s-0.1-0.5-0.1-0.7s-0.1-0.5-0.2-0.7C684.2,29.9,684,29.6,683.9,29.3z M685,26.9c0,0,0,0.1-0.1,0.3C684.7,27.4,684.8,27.2,685,26.9
		c0-0.1,0-0.2,0.1-0.2c0.1,0,0.1-0.1,0.1-0.1s0,0,0,0.1C685.2,26.7,685.1,26.8,685,26.9z M693.1,60.2c0,0.4-0.1,0.8-0.2,1.2
		c-0.1,0.4-0.2,0.8-0.1,1.1c0,0.6,0.6,1.3,1.8,2.1c0.6,0.4,1.2,0.8,1.7,1.1c0.5,0.3,1,0.5,1.4,0.6c2.2,0.7,3.9,0.7,4.9-0.2
		c1.1-0.9,1.8-2.2,2-3.8c0.3-1.6,0.3-3.4,0-5.2c-0.3-1.9-0.7-3.4-1.2-4.6c-0.4-0.8-0.9-1.2-1.5-1.4c-2.1-0.5-3.7-0.3-5,0.7
		c-1.3,1-2.5,1.4-3.5,1.1L693.1,60.2z"/>
	<path class="st0" d="M726.7,73.8c-2.1,0-4.3-0.9-6.4-2.6c-2.1-1.8-3.6-3.7-4.5-5.6c-0.6-1.3-1.2-1.9-1.7-1.8
		c-0.5,0.1-0.9-0.1-1-0.8l0-0.4c0.1-1.1,0.3-1.7,0.6-1.6s0.3-0.4,0.1-1.4l-0.3-4.7c0-0.7,0.1-1.5,0.4-2.5c0.1-0.5,0.3-0.9,0.4-1.3
		s0.2-0.8,0.3-1.1c0.7-2.3,1.9-4.4,3.6-6.3c0.8-1,1.7-1.9,2.6-2.7s1.8-1.6,2.7-2.4l1.2-0.8c0.5-0.3,1-0.7,1.7-1
		c0.6-0.4,1.2-0.6,1.8-0.8c0.8-0.2,1.7-0.4,2.6-0.5c0.9-0.1,1.9-0.2,2.9-0.3c2.1-0.1,3.8,0.3,5.1,1.3l1.3,0.9c1.5,1.2,2.5,2.9,2.9,5
		c0.4,2.1,0.3,4.1-0.2,5.9c-0.5,1.8-1.3,3.2-2.4,4.2c-0.2,0.2-0.4,0.4-0.6,0.6s-0.3,0.3-0.4,0.5c-0.8,1.1-2,2.1-3.4,3l-3.9,2.3
		l-4.2,2.2c-0.4,0.2-1.1,0.6-2.2,1.1c-1,0.5-1.7,0.8-2.1,0.8c0.4,1.5,1.4,2.7,3.2,3.5c2.7,1.3,5.4,1,8.1-0.7
		c2.7-1.7,4.2-3.3,4.6-4.8c0.5,0,0.7,0,0.8,0s0.1,0.1,0.3,0.4c0.3,0.5,0.3,1.7,0,3.5c-0.3,1.7-1,3.3-2.3,4.6c-0.7,0.7-1.7,1.4-3,2.1
		c-1.2,0.6-2.3,1.1-3.3,1.4c-0.3,0.1-0.7,0.2-1.1,0.3s-0.9,0.2-1.4,0.3s-1,0.2-1.5,0.2C727.5,73.8,727.1,73.8,726.7,73.8z
		 M731.8,49.5c0-0.4,0-0.6,0.1-0.6c0,0,0.1-0.1,0.4-0.3l2.1-1.8c0.4-0.3,0.6-1.4,0.6-3.3c-1.3-0.3-2.4-0.2-3.4,0.1l-2,0.9
		c-0.2,0.1-0.5,0.3-0.8,0.5c-0.3,0.2-0.6,0.5-1,0.8c-0.1,0-0.2,0.2-0.5,0.4l-2.5,2.6c-1.4,1.6-2.2,2.8-2.3,3.4
		c-0.1,0.3-0.2,0.6-0.3,1s-0.3,0.8-0.5,1.3c0.5,0,1.2-0.3,2-0.7c0.4-0.2,0.8-0.4,1.1-0.6c0.4-0.2,0.7-0.4,1-0.5
		c0.3-0.2,0.7-0.4,1.2-0.7c0.5-0.3,1.1-0.7,1.9-1.1C730.4,50.1,731.3,49.6,731.8,49.5z"/>
	<path class="st0" d="M746.7,25.8c0.5-0.2,0.7-0.3,0.6-0.1c-0.1,0.1,0.1,0,0.4-0.1c0.4-0.2,0.5-0.3,0.4-0.4
		c-0.2-0.1,0.6-0.1,2.2,0.2c0.1,0.7,0.2,0.9,0.3,0.6c0.2-0.3,0.6-0.2,1.4,0.4c0.7,0.4,1,0.8,1.1,1.3c0,0.2,0.1,0.4,0.1,0.6
		c0.3-0.3,0.5-0.3,0.8,0c0.2,0.3,0.4,0.6,0.6,1.1c0.2,0.5,0.2,0.8,0.1,0.8c-0.1,0-0.1,0.1-0.1,0.3c-0.1,0.2,0,0.5,0.2,0.9
		c0.2,0.5,0.3,0.9,0.3,1.3c0,0.6-0.1,1-0.1,1.1c0,0.1-0.1,0.8-0.1,2.3l-0.3,4.7c1.2-0.8,1.9-1.4,2.2-1.9s1.5-1.2,3.5-2.1l2-1.1
		c0.4-0.3,0.8-0.4,1.3-0.5c0.5-0.1,1-0.1,1.4,0c0.4,0,0.8,0.1,1.2,0.3c0.4,0.1,0.8,0.3,1.1,0.5s0.8,0.4,1.2,0.7l1.1,1.1
		c0.3,0.4,0.3,0.6,0.1,0.5c-0.2-0.1,0,0,0.6,0.3c-0.3,0.5-0.4,0.7-0.3,0.6c0.1-0.1-0.1-0.1-0.4,0.1c0.2,0.3,0.3,0.5,0.2,0.5
		c-0.1,0,0.1,0,0.7,0c-0.1,0.6-0.1,0.9-0.2,0.8c-0.1-0.1-0.3-0.1-0.7,0.1c0.1,0.6,0.3,0.9,0.4,0.8c0.1-0.1,0.1,0.2,0,0.9l-0.1,0.3
		c-0.2,1.1-0.3,1.5-0.4,1.1s-0.4-0.1-1,0.6c-0.1,0.2-0.2,0.3-0.3,0.5s-0.2,0.3-0.3,0.5c-0.3,0.4-0.5,0.6-0.8,0.6
		c-0.3,0.1-0.4,0.1-0.5,0.2s-0.1,0,0,0c0.1-0.1,0.1-0.1,0-0.1c-0.5,0-0.8,0-0.7,0.1c0,0.1-0.3,0.1-0.8,0.1c0.2,0.2,0.3,0.4,0.3,0.5
		c0,0.1-0.1,0.2-0.2,0.3c-0.3,0.2-0.9,0.2-1.7,0.1c-0.9-0.1-1.6-0.1-2.1,0c-0.7,0.1-1.4,0.5-2.2,1.1c-0.4,0.3-0.7,0.6-1.1,0.8
		c-0.3,0.2-0.6,0.5-0.8,0.7c-0.8,0.7-1.5,1.7-2.2,2.9c-0.3,0.6-0.6,1.2-0.8,1.8s-0.3,1.1-0.3,1.5c-0.1,0.9-0.1,1.8,0,2.8
		s0,1.9,0,2.8c0,1.2-0.1,2.7-0.3,4.7c-0.1,1.9-0.4,3.4-0.8,4.4c-0.1,0.3-0.3,0.6-0.4,0.9s-0.3,0.6-0.4,1c-0.2,0.4-0.4,0.7-0.6,0.9
		s-0.3,0.4-0.4,0.8l-1-0.4c-0.2-0.1-0.6-0.6-1.1-1.5c-0.2-0.5-0.4-0.9-0.6-1.4s-0.3-1-0.5-1.5c-0.4-0.9-0.6-2-0.7-3.3
		s-0.2-2.4-0.4-3.3c-0.1-0.8-0.2-1.5-0.4-2.2s-0.3-1.3-0.4-2s-0.3-1.2-0.4-1.8s-0.3-1.2-0.4-1.9l-1.3-14.2c0-0.9,0-1.9-0.1-3
		c-0.1-1.1-0.2-2.3-0.3-3.6c-0.3-2.6,0.1-4.6,1.3-6l0.2-0.2l0.1-0.1c0.2-0.2,0.4-0.4,0.5-0.6l0.6-0.8L746.7,25.8
		C746.7,25.9,746.7,25.9,746.7,25.8L746.7,25.8z M754.5,31.5C754.4,31.6,754.5,31.6,754.5,31.5C754.5,31.6,754.5,31.6,754.5,31.5
		C754.5,31.5,754.5,31.5,754.5,31.5z"/>
	<path class="st0" d="M803.4,47.8c-0.5,0-1-0.1-1.4-0.2c-0.4-0.1-0.8-0.3-1.2-0.5c-0.4-0.2-0.8-0.5-1.1-0.7
		c-0.4-0.3-0.7-0.6-1.1-0.8c-1.3-1-2-2.6-1.8-4.7c0.2-2.2,0.4-3.9,0.8-5.3c0.1-0.5,0.3-1,0.6-1.5s0.5-1,0.7-1.5
		c0.3-0.8,0.9-1.5,1.8-2.3c1.6-1.5,3.2-2.6,4.8-3.3c0.6-0.3,1.1-0.4,1.6-0.6c0.2,0,0.4-0.1,0.7-0.2s0.5-0.2,0.8-0.2
		c0.9-0.2,2.2-0.2,3.8-0.1c1.6,0.2,2.9,0.4,3.9,0.8l0.2,0.1c0.1,0,0.1,0,0.1,0.1l1.7,0.8c1.7,0.9,3.2,2.2,4.5,3.8
		c0.1,0.1,0.1,0.2,0.2,0.3c0.1,0.1,0.1,0.1,0.1,0.2c0.1,0.1,0.1,0.1,0.1,0.1l1.6,3.1c0.2,0.5,0.4,1.3,0.6,2.3c0.2,1,0.3,1.9,0.3,2.6
		c0,1.3-0.4,3-1.2,5c-0.8,1.9-1.6,3.4-2.3,4.4l-2.3,3.1c-0.6,0.9-1.1,1.6-1.6,2.2s-0.9,1.1-1.3,1.4s-0.8,0.7-1.2,1.2s-0.9,1-1.5,1.7
		c-0.7,0.8-1.4,1.6-2.2,2.2s-1.6,1.4-2.4,2.1l-0.8,0.8l-0.1,0.1c0,0,0,0-0.1,0c-0.1,0.1-0.2,0.2-0.3,0.3s-0.2,0.2-0.2,0.2
		c1.5,0.1,3,0.4,4.3,1c1.4,0.6,2.8,1.1,4.2,1.5c0.6,0.2,1.3,0.4,2,0.6s1.3,0.5,1.9,0.8l3.3,2.1c-0.1,0.2-0.2,0.4-0.2,0.5
		s-0.1,0.3-0.2,0.4c-0.1,0.1-0.1,0.2-0.2,0.4s-0.2,0.2-0.4,0.4c-2.1,1.8-4.6,2.4-7.8,1.9l-8.3-1.2c-0.4-0.1-0.9-0.1-1.3-0.2
		s-0.7-0.1-1.1-0.1c-0.3,0-0.7,0-1.1,0c-0.4,0-0.9,0-1.4,0l-4.5-0.2c0,0,0,0.1,0,0.1l-0.1,0.1c0,0,0,0-0.1,0s0,0,0,0
		c-0.1,0-0.2,0.1-0.4,0.1c-0.1-0.6-0.1-0.8-0.1-0.7c0,0.2-0.1,0.3-0.3,0.2c-0.4,0-0.5,0.1-0.3,0.2c0.1,0.1,0.2,0.1,0.1,0
		s-0.3-0.2-0.6-0.3l-1.4-1.1l-0.5-0.8c-0.9-1.6-1.2-2.4-0.9-2.5c0.2-0.1,0.3-0.4,0.3-0.9c0-0.3,0-0.4-0.1-0.5s-0.1,0-0.1,0.1
		s-0.1,0.2,0,0.1s0.1-0.3,0.2-0.6l0.5-1.7c0.4-0.1,0.6-0.1,0.6-0.1c-0.1,0,0.1-0.2,0.4-0.7l7.5-7c0.7-0.5,1.3-1,1.9-1.5
		s1.1-1,1.6-1.5c1-1,2.1-2,3.3-3.2c0.1-0.1,0.2-0.2,0.3-0.3c0.1-0.1,0.3-0.3,0.5-0.5l0.1-0.1l2.6-3.6c0.2-0.2,0.3-0.4,0.3-0.5
		s0.2-0.2,0.3-0.5c0.2-0.3,0.4-0.6,0.6-1c0.2-0.4,0.4-0.7,0.6-1.1c0.5-0.9,0.7-1.6,0.6-2.1c-0.1-0.5-0.5-1.1-1-1.8
		c-1.6-1.7-3.1-2.1-4.4-1c-0.2,0.2-0.3,0.3-0.3,0.3c0,0,0,0.1,0,0.2l-0.1,0.3c-0.2,0.7-0.2,1.4,0,2.3l0.5,2.3c0.2,1,0.1,1.8-0.4,2.3
		c-0.3,0.4-0.4,0.5-0.5,0.4c0,0,0,0,0,0.1c0,0.1,0.1,0.3,0.1,0.5c-0.4-0.1-0.6-0.2-0.6-0.2c0,0-0.1-0.1-0.6-0.2
		c-0.2,0.5-0.3,0.8-0.6,0.8l-1.2,0.1L803.4,47.8z"/>
	<path class="st0" d="M826,48.1l0.7-4.4c0.6-1.6,1.2-3.1,1.9-4.6s1.5-3,2.5-4.4l2.3-3.1c0.1-0.2,0.3-0.4,0.5-0.7s0.5-0.5,0.7-0.7
		c0.1-0.1,0.1-0.1,0.2-0.1c0,0,0.1,0,0.1-0.1s0.1-0.1,0.2-0.1c0.1,0,0.2-0.1,0.3-0.2c0.5-0.4,1-0.8,1.5-1.1c0.4-0.3,0.9-0.6,1.2-0.8
		c0.7-0.4,1.9-0.8,3.7-1.1c1.2-0.2,2.4-0.3,3.6-0.3c1.2,0,2.4,0.1,3.5,0.3s2.2,0.6,3.3,1.1c1,0.5,2,1.1,3,2l0.6,0.7l0.6,0.7l2,2
		c0.5,0.6,1,1.5,1.5,2.6c0.4,1.1,0.8,2,1.1,2.9c0.6,2,1,3.4,1,4.3c0,0.4,0,1,0,1.7c0,0.7,0,1.4-0.1,2.3c-0.1,0.7-0.1,1.4-0.2,2.1
		c-0.1,0.7-0.2,1.5-0.4,2.2l-0.7,2.2c-0.1,0.3-0.3,0.6-0.4,0.9c-0.2,0.3-0.3,0.6-0.4,0.9c-0.3,0.8-0.7,1.7-1.2,2.8s-1.1,2.3-1.8,3.7
		c-1.3,2.7-2.4,4.7-3.3,6c-0.2,0.3-0.4,0.6-0.5,0.8s-0.3,0.5-0.5,0.8l-1.2,1.5c-0.5,0.4-0.9,0.7-1.2,0.9s-0.8,0.3-1.4,0.5l-3,0.9
		c-1.3,0.4-2.1,0.4-2.2,0.3c-0.1-0.2-0.7-0.1-1.9,0.1c-1.9,0.4-3.6,0.2-4.9-0.6c-1.3-0.7-2.6-1.8-3.8-3.1l-1.3-1.3
		c-1.2-1.5-1.9-2.6-2.3-3.2c-0.2-0.3-0.4-0.8-0.7-1.4s-0.6-1.3-1-2.2c-0.1-0.3-0.2-0.6-0.3-1s-0.2-0.7-0.2-1.1
		c-0.1-0.4-0.1-0.8-0.2-1.1s-0.2-0.7-0.2-1.2L826,48.1z M850.6,52.6C850.6,52.6,850.6,52.5,850.6,52.6c0-0.1,0-0.1,0-0.1l0.1-3.3
		c0,0-0.1,0-0.1-0.1c-0.2-0.7-0.4-1.9-0.4-3.6c-0.1-1.7-0.3-3.2-0.8-4.5c0,0-0.1,0-0.1-0.1l-1.4-1.8c-0.9-1-2-1.5-3.3-1.6
		c-1.3-0.1-2.2,0.3-2.9,1.1c-0.3,0.4-0.6,0.7-0.8,0.9c-0.2,0.3-0.3,0.5-0.4,0.6c-0.2,0.3-0.5,0.8-1,1.5l-0.4,0.7
		c-0.1,0.1-0.1,0.3-0.3,0.6c-0.8,1.9-1.5,3-2,3.3c-0.5,0.4-0.8,1.9-0.9,4.7c0,0.3-0.1,0.7-0.1,1.1c-0.1,0.4-0.1,0.8-0.1,1.2v2.1v2
		c0,0.9,0.1,1.6,0.4,2.3c0.7,1.8,1.2,2.6,1.4,2.4c0.2-0.2,1.2,0.4,2.8,1.9c0,0.1,0,0.1,0.1,0.1l1.7,1.8c0.4,0.4,1.2,0.6,2.5,0.6
		c1.1,0,1.9-0.4,2.3-1.1c0.2-0.4,0.4-0.7,0.6-1.1s0.4-0.6,0.5-0.9c0.7-1.1,1.1-1.8,1.1-2.2c0-0.2,0.1-0.5,0.3-0.9s0.4-0.8,0.6-1.4
		c0.5-1,0.7-2.1,0.6-3.2C850.6,54.5,850.6,53.5,850.6,52.6z"/>
	<path class="st0" d="M869.9,44c-0.3,0.1-0.5,0.2-0.6,0.3s-0.3,0.1-0.5,0.2l-2.4,0.7c-1,0.2-1.7,0.3-2,0.3c-0.3,0-0.7-0.1-1.3-0.4
		l-0.3-0.1c0,0-0.1,0-0.1-0.1c-0.1,0-0.2-0.1-0.4-0.2v-0.1c0-0.5,0-0.9,0-1.2s0.1-0.6,0.1-0.9c0.1-0.4,0.3-1,0.6-1.8
		c0.4-0.8,0.8-1.4,1.1-1.8c0.2-0.2,0.4-0.4,0.6-0.7c0.2-0.2,0.4-0.5,0.7-0.8l5.4-6.7c0.7-1,1.2-1.7,1.5-2.2c0.3-0.5,0.9-1.1,1.8-1.8
		c0.2-0.1,0.3-0.2,0.3-0.2c0,0,0.1-0.1,0.1-0.1c1.1-1.1,1.6-1.5,1.5-1.2c-0.1,0.2,0.1,0.2,0.7,0c0.4-0.1,0.6-0.2,0.6-0.4
		c0-0.1,0.2-0.3,0.8-0.4l0.4,0.5l1-0.5l3.6,2.2l-0.6,0.8c-0.1-0.1-0.2-0.1-0.2,0.1l0.3,0.2c0.2-0.1,0.4-0.1,0.5-0.1
		c0.1,0.1,0.4,0.5,0.8,1.2c0.4,0.7,0.6,1.5,0.4,2.3l-0.6,2c-0.2,0.4-0.3,0.6-0.4,0.5c-0.1-0.1-0.1,0.1-0.1,0.7
		c0,1.1-0.1,1.7-0.2,1.7c-0.1,0-0.2,0.6-0.4,1.6c-0.1,0.2-0.1,0.4-0.1,0.6s0,0.4-0.1,0.8l-0.3,1.5c-0.1,0.9-0.1,1.5-0.3,2l-0.3,1.5
		c0,0.1,0,0.2,0,0.3s0,0.2,0,0.3c-0.1,0.8-0.2,1.6-0.2,2.2s-0.1,1.2-0.2,1.7c-0.1,0.5-0.1,1.1-0.2,1.7c0,0.7-0.1,1.4-0.1,2.2
		l-0.4,3.4c-0.1,0.5-0.2,1.1-0.3,1.6s-0.3,1.1-0.4,1.7l-1.1,4.7c-0.2,0.8-0.4,1.6-0.7,2.4s-0.5,1.5-0.7,2.2
		c-0.1,0.5-0.3,0.9-0.4,1.4c-0.2,0.5-0.3,1-0.5,1.5c-0.4,1-1,1.8-1.7,2.3c-1-0.5-1.7-1.3-2.3-2.6c-0.5-1.2-0.9-2.3-1.1-3.5
		c-0.1-0.4-0.2-0.9-0.2-1.4s0-1,0-1.6s0-1,0-1.5s0-0.9-0.1-1.3c0-0.2,0-0.3-0.1-0.4c0-0.1,0-0.2,0-0.5l-0.1-15.3c0-1,0-1.6,0.1-1.8
		c0.1-0.3,0-0.5-0.1-0.6L869.9,44z M862.5,44.7c0.3,0.1,0.4,0.2,0.5,0.2c0.1,0,0.1,0,0,0L862.5,44.7L862.5,44.7z"/>
	<path class="st0" d="M900.8,73.7c-1.4,0-3.1-0.2-4.9-0.6c-1.6-0.4-3.1-0.9-4.3-1.7c-1.2-0.7-2.3-1.7-3.2-2.9
		c-1-1.3-1.7-2.5-2.2-3.7c0-0.1-0.1-0.2-0.2-0.4s-0.2-0.4-0.2-0.7s-0.2-0.5-0.2-0.6c-0.1-0.1-0.1-0.3-0.2-0.5l-0.5-2.9
		c0,0.1,0,0.1,0,0s-0.1-0.3-0.1-0.5l-0.3-3.3c-0.2-1.7,0-3.4,0.5-5c0.1-0.4,0.3-0.7,0.4-1.1c0.1-0.4,0.3-0.7,0.4-1l4.8-10.2
		c0.3-0.5,0.7-1,1.1-1.6s0.9-1.1,1.4-1.8c1-1.2,2-2.3,3.1-3.1c0.2-0.1,0.3-0.2,0.4-0.3s0.3-0.2,0.4-0.4c0.1-0.1,0.3-0.3,0.4-0.4
		s0.3-0.2,0.4-0.4l7.3-4h0.1c0,0,0,0,0,0c0,0,0,0,0,0l0.8-0.3c0.1,0,0.2-0.1,0.2-0.1c0,0,0,0,0,0c0,0,0,0,0,0s0.1-0.1,0.2-0.1
		c0.2-0.1,0.3-0.1,0.5-0.2c0.1,0,0.3-0.1,0.4-0.1c0.6-0.1,1.2-0.3,1.6-0.5c0.4-0.2,0.9-0.4,1.4-0.6l2.2-0.1c0.1,0,0.1,0,0.2,0
		c0.1,0,0.2,0,0.3,0l2,0.7c0.2,0.1,0.2,0.2,0.3,0.2s0.1,0.1,0.2,0.2l0.4,0.3c1,0.6,1.4,1.1,1.4,1.6c0,0.5,0.2,0.9,0.5,1.4
		c0.1,0.2,0.1,0.2,0.1,0.1c0-0.1,0,0,0.2,0.2c-0.3,0.4-0.5,0.7-0.6,0.9s-0.1,0.2,0,0c0.2-0.3,0.3,0.1,0.2,1
		c-0.1,0.8-0.3,1.4-0.7,1.7c-0.1,0.1-0.2,0.2-0.2,0.2c0,0-0.1,0.1-0.3,0.2l-0.3,0.3c-0.4,0.5-0.6,0.8-0.6,0.9c0,0.1-0.4,0.4-1.3,1
		l-0.1-0.8c0,0,0,0-0.1-0.1c-0.1,0.4-0.5,0.6-1.1,0.7c-0.1,0.4-0.1,0.7-0.1,0.6c0-0.1,0,0-0.2,0.1c-0.2,0.1-0.8,0.3-1.9,0.4
		c-0.5,0.1-1,0.1-1.3,0.2s-0.6,0.1-0.8,0.2c-0.9,0.3-1.7,0.7-2.5,1.2c-0.8,0.5-1.5,1-2.2,1.6s-1.4,1.2-2,1.9c-0.6,0.7-1.2,1.3-1.8,2
		l-0.6,0.7c-0.5,0.6-1.3,1.7-2.1,3.3c-0.4,0.7-0.8,1.4-1,2c-0.2,0.6-0.4,1-0.5,1.4l3.1-1.2l1.4-0.6c0.3-0.1,0.8-0.2,1.7-0.4
		c0.6-0.1,1.1-0.1,1.6-0.2c0.5-0.1,0.9-0.1,1.2-0.1c0,0,0.1,0,0.2,0c0.1,0,0.3,0,0.5,0.1c0.4,0.1,0.6,0.1,0.8,0.1
		c0.7,0.1,1.5,0.3,2.3,0.6c0.8,0.3,1.6,0.5,2.4,0.7c0.8,0.2,1.4,0.6,1.9,1.1c0.5,0.5,1,1,1.5,1.6c0.2,0.3,0.3,0.4,0.3,0.4
		c0.9,1.5,1.4,3.3,1.6,5.5c0.2,2.2,0,4.1-0.6,5.7c-0.1,0.3-0.2,0.5-0.3,0.7s-0.2,0.4-0.4,0.6c-0.2,0.3-0.3,0.5-0.4,0.7
		s-0.2,0.4-0.4,0.6c-1.1,1.6-1.7,2.4-1.7,2.5l-2.1,1.8c-1,0.9-2.3,1.6-4,2L900.8,73.7z M902.8,65.5c1.2,0,2.2-0.3,2.9-0.9
		c0.4-0.4,1-1,1.6-1.8c0.6-0.9,0.9-1.6,1-2.1c0.1-1.9-0.1-3-0.4-3.3c-0.1-0.1-0.4-0.3-0.7-0.6s-0.8-0.6-1.5-1c-0.1,0-0.1,0-0.1-0.1
		s-0.1-0.1-0.1-0.1c0,0,0,0-0.1-0.1l-0.6-0.3c-0.5-0.2-1.7-0.3-3.7-0.4c-1,0-1.8-0.1-2.4-0.1s-0.9,0-1.1,0c-1.4,0-2.2,0-2.6-0.1
		c-0.4-0.1-0.5,0.1-0.5,0.5c0,0.6,0,1.3,0,1.9c0,0.6,0,1.2,0,1.7c0,1.1,0.2,2.1,0.7,3c0.3,0.5,0.5,1,0.7,1.5s0.5,0.9,1,1.2
		c0.9,0.6,1.9,1,3,1c0.6,0,1.1,0,1.6,0S902.3,65.5,902.8,65.5z"/>
	<path class="st0" d="M965.4,50.5c-0.4,0.1-0.6,0.2-0.5,0.2c0.1,0,0,0.1-0.4,0.3l-0.2,0.2l-0.1,0.1l-0.3,0.6
		c-0.2,0.5-0.5,0.9-1.1,1.1c-0.5,0.2-0.9,0.3-1.1,0.3l-0.2-0.1c-0.3,0-0.4,0-0.4,0c0,0-0.1,0.2-0.5,0.4c-0.9,0.5-1.9,0.7-2.8,0.6
		c-0.9-0.1-2-0.1-3.1,0c-1.1,0.1-2.9,0-5.6-0.2c-1.3-0.1-2.5-0.3-3.4-0.5s-1.7-0.5-2.3-0.8c-0.4-0.2-0.7-0.3-0.8-0.4
		c-0.2-0.1-0.4-0.2-0.7-0.4c-1.1-0.8-1.7-1.7-2-2.7c0.2-0.3,0.4-0.5,0.6-0.7c0.2-0.2,0.4-0.3,0.7-0.4s0.5-0.2,0.8-0.3
		c0.3-0.1,0.6-0.2,1-0.2c0.5-0.1,1.1-0.3,1.7-0.5c0.6-0.2,1.2-0.4,1.9-0.6c0.4-0.1,0.7-0.1,1-0.1c0.3,0,0.7-0.1,1.1-0.2l7.4-1.7
		c0.3-0.1,0.5-0.1,0.7-0.2s0.5-0.2,0.9-0.2l4.3,0.2c0,0,0.1,0,0.1,0.1c0,0,0.1,0,0.2,0.1l1.7,1.4c0.4,0.4,0.6,0.6,0.6,0.8
		c0,0.1,0,0.4,0.1,0.8c0.1,0.5,0.2,0.6,0.2,0.4c0.1-0.2,0.1-0.1,0.1,0.4c0,0.5-0.1,0.7-0.2,0.5c-0.1-0.2-0.1,0,0.2,0.6
		c-0.5,0.1-0.8,0.1-0.8,0.3c0,0.1,0,0-0.1-0.2c0,0,0,0,0,0c0,0-0.1,0-0.1,0l-0.2,0.3c0.2,0.1,0.4,0.2,0.4,0.1c0.1,0,0.3,0,0.7,0.1
		V50.5z M959.8,53.2C959.8,53.2,959.8,53.2,959.8,53.2C959.8,53.3,959.8,53.3,959.8,53.2L959.8,53.2L959.8,53.2z M965.5,48.7
		C965.5,48.7,965.5,48.7,965.5,48.7L965.5,48.7L965.5,48.7z"/>
	<path class="st0" d="M987,35c0-0.9,0.1-1.6,0.4-2.1c0.3-0.4,0.2-1.1-0.1-2.1c0,0,0,0,0-0.1c0,0,0,0,0,0s0,0,0,0
		c0-0.2-0.1-0.4-0.1-0.6s0-0.6,0-1c0-0.8,0.1-1.3,0.2-1.7c0-0.2,0.1-0.3,0.1-0.3c0-0.1,0-0.1,0,0c0.1,0,0.1,0,0.1-0.1
		c0,0,0,0,0.1-0.1l0.3-0.6c0.1-0.2,0.2-0.3,0.3-0.4s0.2-0.2,0.3-0.3L991,24c0.4-0.1,0.7-0.1,1.1-0.1c0.1,0,0.3,0,0.4,0.1
		c0.1,0,0.3,0.1,0.5,0.1c1.5,0.1,2.1,0.1,1.9,0c-0.1,0,0,0,0.3,0.2c0.3,0.2,0.8,0.5,1.6,1l0.8,0.7c0.2,0.3,0.2,0.3,0,0.1
		c-0.1-0.1-0.1-0.1-0.1-0.1c0,0,0.1,0.1,0.2,0.2l1.1,1.5c0.4,0.6,0.7,1.1,0.8,1.5c0.1,0.4,0.3,0.8,0.6,1.1c0.2,0.2,0.3,0.4,0.4,0.5
		s0.2,0.2,0.2,0.3c0.1,0.1,0.2,0.4,0.4,0.9c0.2,0.5,0.4,1,0.6,1.5s0.6,1.2,1,1.8c0.8,1.3,1.6,2.3,2.3,3.1c0.7,0.8,1.3,1.7,1.8,2.6
		c0.5,0.9,1.1,1.7,1.7,2.6l2.3,3.7l0.3,0.4c0,0,0,0.1,0.1,0.2c0,0.1,0.1,0.1,0.1,0.1l0.9,1.9c0,0.1,0,0.1,0.1,0.1
		c0,0.1,0,0.1,0.1,0.1c0,0,0,0.1,0.1,0.2c0,0.1,0.1,0.2,0.1,0.2l4.9,9.7c0.1,0.2,0.2,0.4,0.2,0.5s0.1,0.2,0.2,0.5l0.4,0.7
		c0-0.8,0-1.5-0.1-2.3s-0.1-1.5-0.2-2.2s-0.2-1.4-0.2-2.2c-0.1-0.7-0.1-1.5-0.1-2.2l0-7.3c0-0.2,0-0.3-0.1-0.5c0-0.2,0-0.3,0-0.5
		l0-15.4c0.1-0.5,0.2-0.7,0.2-0.7c0.1,0,0.1-0.1,0.3-0.4c0.2-0.4,0.2-0.8,0.2-1.1c0-0.3,0.3-0.7,1-1.2l0.8-0.8
		c0.5-0.8,0.9-1.1,1.2-0.7c0.3,0.3,0.5,0.1,0.7-0.6c0.5,0,0.8,0.1,0.8,0.2c0,0,0.1,0.1,0.1,0.2s0.1,0.3,0.2,0.4l1.4-0.2
		c0.4,0,0.4-0.1,0.3-0.2c-0.2-0.1,0-0.1,0.6,0.1c0.4,0.2,0.8,0.5,1.3,1c0.3,0.4,0.5,0.6,0.6,0.8c0.1,0.1,0.1,0.1,0,0
		c-0.1-0.2-0.1-0.2,0-0.2c0.1,0,0.3,0.2,0.5,0.4c0.6,0.6,0.9,1.2,0.8,1.9v2.1c0.2,0.1,0.3,0,0.2-0.3c0-0.3,0.1-0.3,0.4,0
		c0.2,0.2,0.1,0.9-0.1,2.1c-0.2,1.2-0.3,1.9-0.3,2c0,0.1,0,0.3,0,0.4c0,0.1,0,0.2,0,0.2l-2.5,21.7c-0.1,0.7-0.3,1.6-0.5,2.8
		c-0.2,1.2-0.6,2.6-0.9,4.2s-0.7,3.1-1,4.2s-0.6,2.1-0.8,2.7l-1.1,2.2c-0.4-0.3-0.7-0.5-0.9-0.7c-0.2-0.2-0.4-0.6-0.7-0.9
		c-0.3-0.4-0.5-0.5-0.4-0.4c0,0.1-0.1,0-0.5-0.2c-1.3-0.7-2.7-1.7-4.1-3c-0.7-0.6-1.3-1.3-1.9-1.9s-1.1-1.2-1.5-1.8
		c-0.2-0.2-0.3-0.3-0.4-0.5s-0.2-0.3-0.3-0.4s-0.2-0.2-0.3-0.4c-0.1-0.1-0.2-0.3-0.4-0.5c-0.1-0.1-0.2-0.2-0.3-0.4
		c0-0.1-0.1-0.1-0.1-0.1l-0.3-0.4l-3.9-4.1c-0.5-0.5-0.9-1-1.3-1.5s-0.8-1-1.1-1.6s-0.7-1.1-1.1-1.6s-0.7-1-1.2-1.6
		c-0.2-0.3-0.3-0.4-0.3-0.4c0,0,0.1,0.1,0.2,0.3c0.2,0.2,0.3,0.3,0.2,0.3c0,0-0.1-0.1-0.4-0.4l-3.4-3.9c0,0.5,0,0.8,0,0.9
		c0,0.2,0.1,0.4,0.1,0.7v1.6l0.2,4.3c0,0.2,0,0.4,0.1,0.6s0.1,0.5,0.1,0.9c0,0.7-0.1,1.5-0.2,2.5c-0.1,0.9-0.2,2-0.4,3.2l-0.8,5.7
		l-1.1,5.5c-0.1,0.3-0.3,0.5-0.4,0.7s-0.2,0.4-0.3,0.7c-0.5-0.1-0.9-0.2-1.1-0.5s-0.3-0.6-0.5-1c-1-2.3-1.7-4.8-2.1-7.6
		c-0.4-2.7-0.7-5.3-1-7.9c0-0.3-0.1-0.6-0.2-1c-0.1-0.4-0.1-0.8-0.2-1.3c0-0.3-0.1-0.6-0.1-0.8c0-0.2,0-0.3,0-0.4s0-0.2,0-0.4
		s0-0.4-0.1-0.8l-1-7.7c0-0.4,0-0.7-0.1-1.2c0-0.4-0.1-0.9-0.2-1.3s-0.1-0.9-0.2-1.4c-0.1-0.5-0.1-0.9-0.1-1.4L987,35z M988.6,25.8
		C988.6,25.7,988.6,25.7,988.6,25.8L988.6,25.8z M993.1,23.8C993.1,23.8,993.1,23.8,993.1,23.8L993.1,23.8L993.1,23.8z M1023.4,25.3
		C1023.4,25.3,1023.4,25.3,1023.4,25.3C1023.4,25.3,1023.4,25.3,1023.4,25.3L1023.4,25.3L1023.4,25.3z"/>
	<path class="st0" d="M1051.3,22.3h0.2l3.6,0.5c1.5,0.4,2.2,0.6,2.1,0.7c0,0.1,0.6,0.4,2,1l4,2.3c1.6,0.9,2.8,1.8,3.6,2.7
		c0.8,1,1.7,2.1,2.5,3.5c0.2,0.4,0.4,0.7,0.5,1c0.1,0.3,0.3,0.7,0.5,1c0.2,0.4,0.4,0.7,0.6,0.9c0.2,0.3,0.4,0.6,0.6,1
		c0.8,2.1,1.3,4.5,1.4,6.9c0.1,1.2,0.1,2.4,0,3.6c0,1.2-0.1,2.3-0.2,3.4c-0.1,0.5-0.1,1-0.1,1.5c0,0.5,0,0.9-0.1,1.3
		c-0.2,0.9-0.4,1.9-0.7,2.8s-0.6,1.9-1.1,2.8c-0.8,1.9-1.9,3.5-3.2,4.9c-0.8,0.8-1.5,1.4-2,1.7c-0.5,0.2-1,0.6-1.6,1.1l-3.3,2.8
		c-1.1,0.8-2.4,1.6-3.9,2.4c-0.5,0.3-1.1,0.5-1.8,0.8s-1.4,0.4-2.1,0.6c-1.5,0.3-2.9,0.5-4.2,0.4c0,0-0.1,0-0.1,0c0,0-0.1,0-0.1,0
		c-1.9-0.1-3.7-0.6-5.2-1.3s-3-1.7-4.4-2.9l-5.8-6.6c-0.4-0.4-0.7-1-1.1-1.6c-0.4-0.6-0.7-1.4-1.1-2.3c-0.2-0.5-0.5-1.3-0.8-2.4
		c-0.3-1-0.5-1.8-0.6-2.5c-0.1-0.4-0.1-0.9-0.1-1.4s0-1-0.1-1.5l-0.2-5.6c-0.2-2,0.1-4.1,0.9-6.3c0.4-1.1,0.9-2.1,1.4-3.1
		s1-1.8,1.7-2.6l2.7-3.4c2-2.7,4.6-4.8,7.8-6.2c2.8-1.2,4.3-1.7,4.5-1.6c0.3,0.2,1.1,0.1,2.3-0.2L1051.3,22.3z M1039.3,49.4
		c0,2.9,0.7,5.4,2,7.6l1,1.3c0.4,0.6,1,1.2,1.7,1.9s1.4,1.4,2.3,2.1c1.7,1.5,3.3,2.3,4.7,2.3c3,0.1,4.6,0,4.9-0.1
		c0.2-0.1,0.5-0.3,1.1-0.5c0.6-0.3,1.3-0.7,2.2-1.2c1-0.5,1.6-1.1,1.9-1.8c0.3-0.7,0.5-1.6,0.7-2.7c0.3-1.9,0.6-2.9,1-3.1
		s0.5-1.8,0.4-4.9c0-0.4-0.1-0.9-0.1-1.5s-0.2-1.3-0.3-2.2c-0.2-1.6-0.5-2.8-0.7-3.6c-0.2-0.7-0.4-1.2-0.5-1.5
		c-0.1-0.3-0.1-0.4-0.1-0.3c0,0.2-0.3-0.4-1-1.7c-0.6-1.1-1-1.8-1.3-2.1c-0.3-0.4-1-0.9-2-1.5l-4.3-2.4c-1-0.4-2.2-0.3-3.8,0.1
		c-1.6,0.4-2.7,1-3.3,1.5l-0.1,0.1l-5.9,7.4c-0.2,0.3-0.2,0.7-0.3,1.1c0,0.4,0,0.7,0,0.9L1039.3,49.4z"/>
	<path class="st0" d="M1086,73.4c-0.3,0-0.7,0-1.2-0.1s-1-0.1-1.5-0.2s-1.1-0.2-1.5-0.2s-0.7-0.1-1-0.2l-1.6-1.2
		c-0.5-0.5-0.9-1.1-1.2-1.7s-0.5-1.3-0.5-2.1c0-0.6,0-0.8,0-0.6c0,0.2,0.1,0.2,0.2,0l0.5-1.3c0.4-1.3,0.6-3.1,0.4-5.5
		c-0.2-2.5-0.3-4.3-0.3-5.6c-0.3-0.1-0.6-0.2-1-0.3s-0.7-0.2-1.1-0.2c-0.8-0.1-1.5-0.5-2.2-1.2c-0.4-0.5-0.7-0.9-0.6-1.3
		c0.1-0.6,0.7-1.4,1.8-2.3c0.6-0.4,1.1-0.8,1.5-1.2s0.7-0.6,1-0.7c-0.5-1-0.7-2.5-0.6-4.4c0.1-1.9,0-3.4-0.3-4.4l-0.2-1.2
		c-0.2-1.9-0.4-3.9-0.7-5.9c-0.3-2-0.5-3.9-0.6-5.9l0.2-1.6c0.3-0.5,0.6-1,1.1-1.5c0.5-0.5,1-0.9,1.4-1.4c0.1-0.1,0.3-0.2,0.5-0.3
		c0.3,0,0.4,0,0.1,0.2c-0.2,0.1,0.2-0.2,1.1-0.9c0.9,0.2,1.5,0.3,1.7,0.2c0.2-0.1,0.9-0.2,2-0.2c4.9,0,9.9-0.4,15.1-1.2l2-0.2
		c0.5-0.1,1-0.1,1.3-0.1s0.6,0,0.7,0c0.5,0.1,1,0.1,1.5,0.3s0.9,0.2,1.3,0.4s0.7,0.3,1,0.4s0.5,0.3,0.6,0.4c0.4,0.4,0.5,0.6,0.3,0.6
		c-0.1,0,0,0,0.1,0c0.2,0,0.4-0.1,0.8-0.2c0.2,0.7,0.3,1.1,0.4,1.3c0.6,0.8,0.8,1.4,0.6,1.8c-0.1,0.2-0.2,0.4-0.2,0.5
		c-0.1,0.2-0.1,0.3-0.2,0.4c-0.1,0.2-0.1,0.3-0.1,0.2c0-0.1,0-0.1,0.1,0.2c0,0.4,0.1,0.6,0.1,0.6c0,0,0-0.1,0-0.3c0-0.3,0-0.4,0-0.4
		s0,0.2-0.1,0.5c0,0,0,0.1-0.1,0.2c0,0.1,0,0.1,0,0.1c0,0.1-0.1,0.3-0.3,0.6l-1.7,2.3c-0.2,0.2-0.4,0.4-0.6,0.5
		c-0.5,0.3-1.3,0.6-2.6,0.8c-1.3,0.2-2.2,0.3-2.7,0.2c-1.9,0-3.9,0.2-6,0.6c-2.2,0.4-4.3,0.6-6.2,0.6c-0.3,0-0.7,0-1.1,0.1
		c-0.5,0-0.9,0-1.2-0.2c-0.1,0.3-0.2,0.5-0.1,0.8l0.4,5.9c0.1,1.3,0.1,2.2,0.1,2.8l-0.1,2.1c1.4-0.7,3.3-1.4,5.7-2.1
		c2.4-0.7,4.4-1.2,6-1.4c1.5-0.2,2.2-0.5,2.3-0.7c0.1-0.2,0.4-0.4,1-0.5c-0.1,0.7,0,0.9,0.3,0.5l0.1-0.3c1.3,0,2.5,0.5,3.3,1.6
		c0.2,0.3,0.5,0.6,0.7,0.9c0.3,0.3,0.5,0.7,0.7,1.1c0.2,0.4,0.4,0.7,0.5,1.1c0.1,0.4,0.2,0.8,0.3,1.1l0,0.7c0,0.1,0,0.2,0,0.3
		c0,0.1,0,0.1,0,0.2l-0.2,0.5c-0.2,0.5-0.3,0.8-0.4,1.1c-0.1,0.3-0.3,0.6-0.6,1c-0.2,0.3-0.5,0.6-0.8,1c-0.3,0.4-0.7,0.6-1,0.7
		c-0.2,0.1-0.5,0.2-0.8,0.4c-0.4,0.2-0.8,0.3-1.2,0.4c-1.2,0.1-1.8,0-1.7-0.1c0.1-0.2-0.3-0.3-1.3-0.4c-0.9-0.1-1.9,0-2.8,0.2
		c-0.9,0.2-1.9,0.4-2.8,0.6l-1.5,0.3c-0.4,0.1-0.7,0.2-1,0.2c-0.3,0-0.6,0.1-1,0.2c-0.5,0.1-1,0.3-1.7,0.6c-0.8,0.3-1.4,0.5-1.8,0.5
		v2.3c0,1.5-0.1,3.5-0.4,5.9c-0.1,1.2-0.2,2.2-0.2,3.1s-0.1,1.5-0.1,2c1.1,0,2.2-0.1,3.2-0.2s2.1-0.2,3.1-0.3c1.1,0,2.2-0.1,3.2-0.1
		s1.9-0.2,2.7-0.3c1.6-0.3,3.6,0,5.9,1c0.5,0.2,0.9,0.4,1.2,0.6s0.6,0.4,0.8,0.6c0.4,0.4,0.7,0.7,1.1,0.7c0,0.8-0.4,1.5-1.3,2
		c-1.4,0.9-2.7,1.4-3.9,1.5c-0.6,0-1.2,0.1-1.8,0.2c-0.7,0.1-1.4,0.2-2.1,0.3c-0.9,0.2-1.8,0.3-2.7,0.5c-0.9,0.2-1.9,0.3-2.9,0.5
		s-2,0.3-3.1,0.4S1087.2,73.4,1086,73.4z M1106.8,19.5C1106.8,19.5,1106.8,19.5,1106.8,19.5C1106.8,19.4,1106.7,19.4,1106.8,19.5
		L1106.8,19.5z"/>
	<path class="st0" d="M1130.7,63.5c-0.1-0.3-0.3-0.7-0.5-1.1s-0.5-0.8-0.7-1.1c-0.7-1-1.6-1.8-2.9-2.3c-0.6-0.3-1.2-0.5-1.6-0.8
		s-0.9-0.5-1.3-0.8c-0.8-0.5-1.7-1-2.5-1.5s-1.7-0.9-2.6-1.4s-1.7-1-2.5-1.5s-1.5-1.2-2.2-1.9c-0.2-0.2-0.4-0.3-0.5-0.4
		c-0.1-0.1-0.3-0.2-0.5-0.4c-1.4-1.2-2.3-2.8-2.7-4.7c-0.4-1.9-0.5-3.8-0.3-5.6c0-0.3,0.1-0.5,0.1-0.7l0.1-0.3l0.3-0.6
		c0-0.1,0-0.1,0.1-0.1c0.4-1.1,1-2,1.6-2.8c0.6-0.8,1.3-1.6,2.1-2.5l0.5-0.6c0.7-0.7,1.5-1.4,2.4-2c1-0.7,1.9-1.2,2.7-1.5l2.2-0.9
		c0.5-0.2,1-0.3,1.6-0.4s1.2-0.2,1.8-0.3s1.2-0.1,1.8-0.1c0.6,0,1.1,0,1.6,0.1s1.1,0.2,1.7,0.3c0.6,0.1,1.4,0.3,2.2,0.5
		c1.6,0.4,2.8,1,3.5,1.8c0.5,0.6,1,1.2,1.5,1.9c0.4,0.7,0.8,1.4,1.1,2.1c0.6,1.4,0.7,3,0.3,4.7c-0.2,0.7-0.3,1.2-0.3,1.5
		c0,0.3-0.2,0.4-0.8,0.5c0,0.9-0.1,1.6-0.4,2.2c-0.3,0.6-0.5,0.9-0.8,0.8c-0.2-0.1-0.4,0.1-0.6,0.6c-0.1-0.1-0.1-0.1-0.1-0.1
		c-0.3-0.3-0.7-0.4-1.2-0.3c-0.2-0.8-0.4-1.2-0.6-1.1c-0.2,0.1-0.3-0.2-0.4-0.7c-0.1-0.5-0.1-0.8-0.1-0.8c0.1-0.1-0.3-0.3-1.1-0.7
		c-0.7-0.3-1.1-0.4-1.1-0.4c-0.1,0-0.3-0.3-0.7-0.8c-0.5-0.7-1.1-0.8-1.9-0.6c-0.2,0.1-0.4,0.2-0.7,0.2c-0.3,0-0.6,0-0.9,0
		c-0.3,0-0.7,0-1.1,0c-0.4,0-0.8,0.1-1.2,0.2l-0.5,0.1c0,0-0.2,0.1-0.4,0.2l-0.9,0.7l-0.8,0.7l-1.5,1.6c0.5,0.8,1.3,1.5,2.3,2.1
		c0.5,0.3,1,0.5,1.4,0.7c0.4,0.2,0.8,0.4,1.2,0.6c1.6,0.9,3,1.7,4.3,2.5c1.3,0.7,2.4,1.4,3.4,2.1c1.9,1.2,3.8,3.7,5.4,7.3l0.7,1.6
		c0.5,1.2,0.8,2.5,0.7,4.1c0,0.8-0.2,1.5-0.3,2.1c-0.2,0.6-0.4,1.2-0.7,1.8s-0.7,1.1-1.1,1.6s-0.9,1-1.4,1.5
		c-0.5,0.5-1.2,0.9-1.9,1.3s-1.4,0.6-2.1,0.9c-0.9,0.3-2.1,0.6-3.7,0.8c-0.8,0.1-1.5,0.2-2.1,0.2c-0.6,0-1.2,0.1-1.7,0
		c-0.7-0.1-1.4-0.1-2-0.2c-0.6-0.1-1.1-0.1-1.6-0.2c-0.9-0.2-2.1-0.6-3.4-1.2c-0.5-0.3-0.9-0.5-1.1-0.6c-0.1,0-0.1,0-0.1-0.1
		l-2.6-2.8c-0.4-0.7-1-2.1-1.8-4.1c-0.7-2-0.6-3,0.5-3c0.6,0,1.6,0.7,2.9,2s3.3,2.2,5.7,2.7c1.2,0.3,2.8,0.2,4.8-0.2
		C1128.6,65.3,1130,64.6,1130.7,63.5z"/>
	<path class="st0" d="M1149.9,74c-0.9-0.2-1.6-0.6-2.1-1.2s-0.9-1.2-1.3-1.9c-0.7-1.2-1.2-3.4-1.6-6.6c-0.4-3.2-0.7-5.6-0.8-7.2
		c0-0.3-0.1-0.7-0.1-1.3s0-1.1-0.1-1.6c-0.1-1-0.2-1.9-0.3-2.8c-0.1-0.9-0.2-1.8-0.3-2.6c-0.1-0.9-0.2-1.8-0.2-2.7s-0.1-1.9-0.2-3
		c0-0.3,0-0.7-0.1-1.2c0-0.4-0.1-1-0.1-1.5c0-0.6-0.1-1.1-0.1-1.5s0-0.8-0.1-1.1l-0.4-6.9c-0.1-2.8,0.1-4.7,0.6-5.9
		c0.1-0.2,0.1-0.3,0.2-0.3c0,0,0,0,0-0.1c0,0,0,0,0,0s0,0,0,0l1.5-1.8c0.6-0.5,1-0.7,1-0.4c0.1,0.2,0.4,0.1,0.8-0.1
		c0.5-0.2,0.6-0.3,0.3-0.4c-0.3-0.1,0-0.1,0.8,0c0.2,0,0.4,0.1,0.7,0.1c0.3,0,0.6,0.1,1.1,0.2c0.9,0.1,1.4,0.3,1.7,0.5
		c0,0,0,0.1,0.1,0.1l0.1,0.1l1,0.5c0.6,0.3,1.1,1,1.3,2.1c0.1,0.4,0.1,0.7,0.1,0.6c0,0,0,0.1,0,0.5c0,0.4,0.1,0.7,0.1,0.8
		c0.1,0,0.1,0.2,0.3,0.4c0.3,0.6,0.4,0.9,0.3,0.8c-0.1,0-0.1,0.6-0.1,1.8l-1.4,32.7c-0.1,1-0.3,2-0.4,3.1s-0.3,2.1-0.4,3.1
		c-0.2,1.2-0.4,2.1-0.6,2.8C1151.2,72.5,1150.7,73.2,1149.9,74z M1153.7,27.8C1153.6,27.8,1153.6,27.8,1153.7,27.8
		C1153.7,27.8,1153.7,27.8,1153.7,27.8L1153.7,27.8z"/>
	<path class="st0" d="M1175.5,63.5c-0.1-0.3-0.3-0.7-0.5-1.1s-0.5-0.8-0.7-1.1c-0.7-1-1.6-1.8-2.9-2.3c-0.6-0.3-1.2-0.5-1.6-0.8
		s-0.9-0.5-1.3-0.8c-0.8-0.5-1.7-1-2.5-1.5s-1.7-0.9-2.6-1.4s-1.7-1-2.5-1.5s-1.5-1.2-2.2-1.9c-0.2-0.2-0.4-0.3-0.5-0.4
		c-0.1-0.1-0.3-0.2-0.5-0.4c-1.4-1.2-2.3-2.8-2.7-4.7c-0.4-1.9-0.5-3.8-0.3-5.6c0-0.3,0.1-0.5,0.1-0.7l0.1-0.3l0.3-0.6
		c0-0.1,0-0.1,0.1-0.1c0.4-1.1,1-2,1.6-2.8c0.6-0.8,1.3-1.6,2.1-2.5l0.5-0.6c0.7-0.7,1.5-1.4,2.4-2c1-0.7,1.9-1.2,2.7-1.5l2.2-0.9
		c0.5-0.2,1-0.3,1.6-0.4s1.2-0.2,1.8-0.3s1.2-0.1,1.8-0.1c0.6,0,1.1,0,1.6,0.1s1.1,0.2,1.7,0.3c0.6,0.1,1.4,0.3,2.2,0.5
		c1.6,0.4,2.8,1,3.5,1.8c0.5,0.6,1,1.2,1.5,1.9c0.4,0.7,0.8,1.4,1.1,2.1c0.6,1.4,0.7,3,0.3,4.7c-0.2,0.7-0.3,1.2-0.3,1.5
		c0,0.3-0.2,0.4-0.8,0.5c0,0.9-0.1,1.6-0.4,2.2c-0.3,0.6-0.5,0.9-0.8,0.8c-0.2-0.1-0.4,0.1-0.6,0.6c-0.1-0.1-0.1-0.1-0.1-0.1
		c-0.3-0.3-0.7-0.4-1.2-0.3c-0.2-0.8-0.4-1.2-0.6-1.1c-0.2,0.1-0.3-0.2-0.4-0.7c-0.1-0.5-0.1-0.8-0.1-0.8c0.1-0.1-0.3-0.3-1.1-0.7
		c-0.7-0.3-1.1-0.4-1.1-0.4c-0.1,0-0.3-0.3-0.7-0.8c-0.5-0.7-1.1-0.8-1.9-0.6c-0.2,0.1-0.4,0.2-0.7,0.2c-0.3,0-0.6,0-0.9,0
		c-0.3,0-0.7,0-1.1,0c-0.4,0-0.8,0.1-1.2,0.2l-0.5,0.1c0,0-0.2,0.1-0.4,0.2l-0.9,0.7l-0.8,0.7l-1.5,1.6c0.5,0.8,1.3,1.5,2.3,2.1
		c0.5,0.3,1,0.5,1.4,0.7c0.4,0.2,0.8,0.4,1.2,0.6c1.6,0.9,3,1.7,4.3,2.5c1.3,0.7,2.4,1.4,3.4,2.1c1.9,1.2,3.8,3.7,5.4,7.3l0.7,1.6
		c0.5,1.2,0.8,2.5,0.7,4.1c0,0.8-0.2,1.5-0.3,2.1c-0.2,0.6-0.4,1.2-0.7,1.8s-0.7,1.1-1.1,1.6s-0.9,1-1.4,1.5
		c-0.5,0.5-1.2,0.9-1.9,1.3s-1.4,0.6-2.1,0.9c-0.9,0.3-2.1,0.6-3.7,0.8c-0.8,0.1-1.5,0.2-2.1,0.2c-0.6,0-1.2,0.1-1.7,0
		c-0.7-0.1-1.4-0.1-2-0.2c-0.6-0.1-1.1-0.1-1.6-0.2c-0.9-0.2-2.1-0.6-3.4-1.2c-0.5-0.3-0.9-0.5-1.1-0.6c-0.1,0-0.1,0-0.1-0.1
		l-2.6-2.8c-0.4-0.7-1-2.1-1.8-4.1c-0.7-2-0.6-3,0.5-3c0.6,0,1.6,0.7,2.9,2s3.3,2.2,5.7,2.7c1.2,0.3,2.8,0.2,4.8-0.2
		C1173.4,65.3,1174.8,64.6,1175.5,63.5z"/>
</g>
</svg>
