<svg id="objects" xmlns="http://www.w3.org/2000/svg" viewBox="0 0 109.66 109.66"><defs><style>.cls-1{fill:#f2780c;}.cls-2{fill:#f1f2f2;}</style></defs><title>blog</title><circle class="cls-1" cx="54.83" cy="54.83" r="54.83"/><path id="group" class="cls-2" d="M424.65,229.74h-3.17a3.9,3.9,0,0,1-3.78-3.54c0-10.1-8.14-17.7-18.32-17.7H390.1a18.36,18.36,0,0,0-18.41,18.29v20.06a18.35,18.35,0,0,0,18.41,18.28h19.82a18.33,18.33,0,0,0,18.39-18.28v-13C428.32,231.87,426.69,229.74,424.65,229.74Zm-34.09-7.08H400a4.72,4.72,0,0,1,0,9.44h-9.44A4.72,4.72,0,1,1,390.56,222.66ZM409.44,251H390.56a4.72,4.72,0,0,1,0-9.44h18.87A4.72,4.72,0,1,1,409.44,251Z" transform="translate(-345.17 -181.98)"/></svg>