<svg id="objects" xmlns="http://www.w3.org/2000/svg" viewBox="0 0 109.67 109.67"><defs><style>.cls-1{fill:#005983;}.cls-2{fill:#f1f2f2;}</style></defs><title>in</title><circle class="cls-1" cx="54.83" cy="54.83" r="54.83"/><path class="cls-2" d="M431.51,379.51v21.82H418.86V381c0-5.11-1.83-8.6-6.41-8.6A6.92,6.92,0,0,0,406,377a8.66,8.66,0,0,0-.42,3.08v21.25H392.89s0.17-34.49,0-38.06h12.65v5.39l-0.08.13h0.08v-0.12a12.56,12.56,0,0,1,11.4-6.29c8.33,0,14.57,5.44,14.57,17.13h0Zm-51.86-34.58c-4.33,0-7.16,2.84-7.16,6.57s2.75,6.58,7,6.58h0.08c4.41,0,7.16-2.92,7.16-6.58s-2.74-6.57-7.07-6.57h0Zm-6.41,56.4h12.65V363.28H373.24v38.06Zm0,0" transform="translate(-345.17 -320.31)"/></svg>