<?xml version="1.0" encoding="utf-8"?>
<!-- Generator: Adobe Illustrator 19.2.1, SVG Export Plug-In . SVG Version: 6.00 Build 0)  -->
<svg version="1.1" id="Layer_1" xmlns="http://www.w3.org/2000/svg" xmlns:xlink="http://www.w3.org/1999/xlink" x="0px" y="0px"
	 viewBox="0 0 151.2 130.7" style="enable-background:new 0 0 151.2 130.7;" xml:space="preserve">
<style type="text/css">
	.st0{fill:#E62B1E;}
	.st1{fill:none;}
	.st2{enable-background:new    ;}
	.st3{fill:#FFFFFF;stroke:#FFFFFF;stroke-miterlimit:10;}
</style>
<path class="st0" d="M43.9,36.3c0.6,1,0.9,2.1,0.1,3.2l-0.7-1.2C43.9,37.8,42.9,37.8,43.9,36.3L43.9,36.3z M95.3,124.5l15.7-19.9
	c0.2-0.5,0.4-1,0.7-1.5c2.5-4.6,0.8-3.8,1.9-6.5c1.2-3,2.7-3.9,3.6-6.7c0.8-2.4,0.4-3.2-0.3-5.5c-0.3-1.1,0.4-0.3-0.8-1.4
	c1-1.5,0-2.8-0.3-4.5c-0.5-3,1.5-3.9,2.6-9.3c0.4-1.7,1.5-3.8-0.1-5c-1.4-1.1-2.4,0.5-3.3,1.5c-0.4,0.5,0.1,0-0.5,0.5
	c-0.1,0-0.7,0.5-0.9,0.6c-1.7,0.9-2,0.3-3.4-0.8c-0.9-0.7,0.4-3.3,0.8-4.6c0.5-1.6,0.8-3.2,1.7-4.7c1.2-2,1.1-1.2,1.5-3.2
	c-2.1-0.9-4,1.4-6.1,1c-1.5-0.2-1.5-0.6-2.9,0.5s-1.5,1.2-3.2,0.2c-2.6-1.5-2.2-3.6-0.6-5.9c1.9-2.8,2-1.8,2.3-5.5
	c-0.7-0.5-0.3-0.3-1.1-0.6c-3.2-1.1-2.9,3.9-5.1,6.5c-1.8,2-4.8,0-6.9-0.3c-2-0.3-3.6-0.1-4.2-3c-0.2-1,0.3-1.9,0.5-2.8
	c0.6-2.5,1.6-3.3-0.1-5.5c-1.1,0.4-1.9,0.2-2.6,1.1c-1,1.2-0.7,1.6-1.4,2.5c-1.8,2.6,0.3,5.3-6.4,3c-4.2-1.4-5,1.5-7.7-5.5
	c-0.1-0.2-0.2-1-0.3-1.2c-0.8-5.1-1.7-3-2.6-4.9c-0.7,0.8-0.4,0.5-1.1,0.9c0,2,0.3,4.2,0.9,6l1,4.9c-1.9,0.9-9.6,4.5-11.4,3.1
	c-2.3-1.9-3-2.9-4.7-4.9c-1.1-1.3-1.9-1.5-2.2-3c-0.5-2.8-4.4-7.2-6.1-5c-1.5,1.9-0.5,3.5,1.1,4.8c1.3,1.1,4.8,3.8,5.2,5.9l0.3,2.5
	c0.6,3.3-0.3,4.8-2.2,7.2c-1.4,1.8-2.7,3.2-4.9,3c-2.7-0.2-4-2.8-6-2.4c-0.1,0-1.5,0.6-1.7,0.6c0.2,4.1,2.2,5.9,5.1,8.9
	c1.5,1.6,1,1.6,2.1,3c-1.2,1.5-2.1,1.5-3.5,2c-1.5,0.5-1.6,0.9-2.4,1.7c-1.7,2-2.3,3.7,0.2,5.7c3.5,2.8,2.4,1.7,3.3,9.6
	c0.2,1.9-1.2,3.6-2.5,5.3l-3.1-0.7c-4-1.1-4.5,2-4.1,2.8s1,0.5,2,0.6c3.5,0.3,9.1,3.7,5.9,7.7c-1,1.2-2.1,1-3.2,2.4
	c-0.8,1.1,0,2.2,0.8,2.9c1.2,0.9,2.9,0.7,4.4,1.1c5.9,1.3,3.2-1,9.1,3.3c0.6,0.4,1.8,1.1,2.4,1.3l0.8,0.1c0.9,0.2,0.7-0.2,1.8,0.8
	c1.3,1,1.2,1.4,1.7,2.5c1.7,3.8,4.8,4,8.3,4.1c3.8,0.2,7.4,3.1,11.6,3.2c3.7,0.1,2.7,0.2,6,2c1.2,0.6,1.9,0.2,3-0.3
	c1.2-0.6,1.5-1,2.9-0.5c0.9,0.3,0.7,0.4,1.3,0.7c1.2,0.5,1.1-0.1,2-0.7c1.6-1.1,0.8,0.5,4.2-1.3C95.2,124.3,94.6,124.4,95.3,124.5
	L95.3,124.5L95.3,124.5z M72.2,98.8c0.3,1.2,0.4,1.1-0.9,1.1l0,0C71.8,99,71.4,99.2,72.2,98.8z"/>
<circle class="st0" cx="112.6" cy="146.1" r="112.6"/>
<g>
	<path class="st0" d="M51.3,44.4c0.5-0.1,0.5,0,0.7-0.5c0.5,0.4,1.7,0,3.3,0.1l2.7,0.1c0.5,0,0.1,0,0.4,0h0.1c3-0.4,1.9-0.1,3.9-0.1
		c0.5,0,1-0.3,1.6-0.3c0.6-0.1,1.1-0.1,1.7-0.2l1.6-0.2c2.8-0.4,2-1.1,2.4-1.5c0.6-0.5,2.8,0.6,3.5,0.7c4,1,2.2,0.9,4.8,2.1
		c0.7,0.3,0.9,0.4,1.7,0.6c1.1,0.2,1,0.4,1.7,0.8c0.4,0.2,0.4,0.2,0.8,0.4c0.3,0.2,0.4,0.3,0.6,0.5c0.5,0.3,0.9,0.6,1.4,0.9
		c2.3,1.2,0.3,1.2,2.8,3.6l1.1,1.1c0.6,0.6,0.2,0.5,1.2,1c1.1,0.6,1.9,1.1,3.3,0.8c0,0,0.2,0,0.2-0.1h0.1c0.5-0.2,1.1-0.1,1.6,0.2
		l0.2,0.1c0.8,0.5,1.4,2.2,1.6,3.1c0.1,0.4,0,0.5-0.1,0.9c-0.2,1.7,0.9,1-0.4,2.6l-0.5,0.8c-0.2,0.8,0.9,1.3,1.6,1.1
		c0.1,0,0.4-0.2,0.4-0.2c0.4-0.2,0.1,0,0.4-0.3c0.2-0.2,0.5-0.5,0.7-0.7c0.6,0.1,1.2,0.2,1.5,0.3l3.1,2.5c0.2,0.2,0.2,0.2,0.4,0.4
		c2,1.8-0.6,3.8,0.8,4.5c0.8,0.4,1.3-0.7,1.6-1.2c0.2-0.5,0-0.5,0.5-0.6c0.6-0.1,2.2,0.4,3,0.8c0.6,0.3,0.6,0.5,0.7,1.1
		c0.1,0.4,0.2,1.3,0.1,1.6c-0.1,0.6-0.4,1.3-0.2,1.9v0.1l0.2,0.2c0.3,0.3,0.2,0.3,0.7,0.4c0.5-0.5,0.6-0.5,0.6-1.3
		c-0.3,0-0.3,0.2-0.4,0.5c-0.2,0.3,0-0.2-0.2,0.3l-0.1-0.1l-0.3-0.4c-0.2-0.3-0.4-0.3-0.4-0.6c0.4-0.1,0.2,0.3,0.4-0.5
		c0.6,0.3-0.1-0.1,0.3,0.3l0.7,0.2l-0.5-1.7c-0.1-0.6,0.1-1.2,0.6-1.7c0.1-0.1,0.3-0.3,0.4-0.4c0.4-0.3,0.1-0.2,0.6-0.2
		s0.7,0.2,1.1,0.5c0.5,0.6,0.2,1,0.2,1.9v0.5c0,0.2,0,1.1,0.1,1.3c0.4-0.2,0.1-0.1,0.3-0.5c0,0,0,0,0.2-0.3c0.2,0.2,0.4,0.3,0.6,0.4
		c0.2-1-0.4-2.3,0.5-3.1c0.5-0.4,0.9-0.4,1.5-0.5h0.1c0.9-0.1,1.9,0.6,4.6,0.1c0.9-0.2,1-0.4,1.9,0.2c0.6,0.4,0.2,0.3,0.9,0.4
		c3.8,0.6,1.6-0.5,4-0.8c1.1-0.1,2.2,0.3,2.9,1.1c0.6,0.6,1.7,1.1,2.4,1.9c0.8,0.8,1.2,1,1.8,1.9c0.4,0.6,0.5,0.2,0.8,1
		c0.4,1.3,1.2,1.7,2.1,2.6c0.6,0.6,1.5,0.7,2.2,1.5c0.7,0.7,0.8,2,1.7,2.4h0.1c0.5,0.2,0.8,0.8,1,1.3c0.5,1,1.5,1.1,2.3,1.7
		c0.6,0.4,1.3,0.6,1.9,1.1c0.4,0.3,0.4,0.4,0.7,0.7c0.6,0.8,1.3,1.4,1.8,2.2c0.1,0.2,0.1,0.2,0.2,0.4l0.2,0.4c0.8,1.1,1.1,2.3,2.3,3
		c0.8,0.5,1.4,1.4,2.1,1.9c0.2,0.2,0,0.4,0.9,1.4c1.8,1.9,1.2,2,2.6,3.4l0.5,0.5c0.1,0.2,0.1,0.1,0.2,0.2c1.1,1.6,2.6,1.1,1.6-0.3
		c-1.1-1.7-1-1.2-2.2-2.6l-0.4-0.4c-0.5-0.7-1.2-1.3-1.8-2c-0.3-0.4-0.3-0.5-0.6-1l-1.4-1.7c-0.2-0.3-0.1-0.2-0.2-0.4
		c-0.6-1-1.4-1.3-1.9-2.1c-0.9-1.3-4.3-4.7-4.4-5c-0.6-1.1-0.5-0.9-1.4-1.7l-1.4-1.7c-0.7-0.8-1.4-1.8-2-2.7
		c-0.9-1.4-1.1-0.1-2.3-2.4c-1-2-0.4-0.9-1.6-2.4c-1.3-1.6-4.1-1.2-4.8-3.4c0,0-0.1-0.2-0.1-0.3l-0.1-0.2v-0.1
		c-0.3-0.7-0.7-1.2-1.2-1.8c-0.3-0.3-0.4-0.8-0.5-1.2c-1-3.8-0.6-3.2-0.3-7.4c0.2-2.6,1.2-2.1,1.7-3.2c0.1-0.3,0.9-0.9,0.7-2.1
		c-0.5-2.4-0.1-2.8-0.1-3.6c-0.1-2,1.1-4.2,0.8-5.7c-0.2-0.6-0.3-1.1-0.8-1.5c-0.3-0.2-0.8-0.5-0.9-0.7c-0.7-0.8,0.4-1.4,0.6-2.3
		c0.1-0.4-0.1-0.8-0.2-1.1c-1.2-0.3-1.9,0.4-2.9-0.1c0-0.6,0-0.9,0.5-1.1c0.2-0.1,1.3-0.3,0.8-0.7c-0.4-0.3,0,0-0.5,0
		c-0.6,0.1-0.9-0.4-1.5-0.3c-0.2,0.1-0.1,0.1-0.3,0.1c-0.4,0.2,0.3,0.1-0.3,0.2c-0.3-0.4-0.2-0.5-0.4-1c-0.1-0.5-0.1-0.6-0.4-1
		c-0.5-1.1-0.9-2.1-1-3.2c0-0.4,0.1-0.1-0.2-0.6c-0.1-0.1-0.1-0.1-0.2-0.2c0,0,0,0-0.1-0.1l-0.6-1.1c-0.2-0.5-0.5-0.4-0.9-0.8
		c-0.3,0.4-0.7,0.8-1.2,0.4l-1-1.1c-1.1-1.2-0.2-1.2-0.6-2l-0.4-0.6c-0.6,1.1-1.8,0.7-2.2-0.2c0.3-0.5,0.5-0.6,0.9-1
		c0.2-0.2,0.1-0.1,0.4-0.3c0.4-0.3,0.9-0.8,1.2-1.3l0.9-1.8c0.5-0.9,1-1.5,1.9-1.8c0.2-0.1,0.2-0.1,0.4-0.1l1.8-0.4
		c1,0,1.4,0.6,2.6,0.4c1.3-0.2,2-1.4,3.5-1.1c0.9,0.2,1.2,0.5,2.1,0.4c0.6,0,1.3-0.3,1.6-0.8c0.1-0.3,0.1-1.6,0-1.9
		c-0.4-1.1-2.2-1.7-3.2-2c-0.8-0.2-1.5-0.3-2.1-0.7c-0.9-0.5-0.3-0.6-1.7-1.1c-1.8-0.7-2.5,0.5-4,0c-0.6-0.2-0.9-0.6-1.7-1
		c-0.9-0.4-1.1-0.3-1.7-1c-1.7-1.9-5.8-2.8-5.8,1.3c0,0.4,0.1,0.7,0.1,0.9c0.1,0.4,0,0.6,0.1,1c0.2,1.2,0.9,2.2,1,3.4
		c0,0.8,0.4,1.1,0.1,1.9c-0.3,0.9-0.9,0.6-1.4,1c-1,0.7-1.1,2.4-0.6,3.4c0.1,0.1,0.3,0.6,0.4,0.8c0.2,0.3,0.5,0.4,0.5,0.8
		c-0.4,0.4,0,0.1-0.5,0.2c-0.9,0.2-1-0.1-1.8-0.4v0.1l-0.4,0.6c-0.5,0.2-0.6-0.1-1.2,0c-0.3,0.5,0.2,0.4-0.4,0.8
		c-0.3,0.1-0.6,0.1-0.9,0.3c-0.4,0.2-0.5,0.3-1,0.2c-0.6-0.1-0.7,0.1-1.1,0.1c-0.1,0.9,0.3,0.3,0,1c0,0-0.3,0.4-0.3,0.5
		c-0.7,1.1-1,1.2-1.6,2c-0.4,0.5-0.8,1.2-1.2,1.7L107,31c-0.5,0.3-0.5,0.5-1.2,0.4c-0.1-0.5,0.2-0.1-0.4-0.4
		c-0.1-0.1-0.5-0.2-0.6-0.2c-0.7,0-0.6,0.4-0.7,0.9c-0.8-0.2-1-0.2-1.6,0.1c-0.2,0.1-0.1,0-0.2,0.2c-1.3,0.9-2.3,2.9-3.4,3.2h-0.1
		h-0.1h-0.1c-0.5,0.2-0.6,0.7-1,1.1c-0.2,0.2-0.8,0.6-0.9,0.7c-0.4-0.4-0.5-0.4-0.5-0.9c-1,0.2-1.6-0.5-0.4-1l1.5-1l0.1,0.2
		c0.2,0.3,0,0.2,0.2,0.1l-0.1-0.6c-1.6-0.3-0.7-0.4-1.5-0.5c-0.4,0-1,0.3-1.5,0.3c-1.9,0.1-2-0.4-2.8-1.3c-0.4,0.7-0.7,0.2-1-0.2
		c-0.2-0.3,0.1-0.4-1.2-0.1c-1.1,0.2-1.5,0.3-2.1,1.3c-0.7,1.1-0.6,1.2-1.6,2.2c-0.8,0.8-0.4,1.6-0.4,2.6l-1.7,1.4
		c-0.6,0.4-1.3,0.6-2,0.7l-5.8,0.7c-0.9,0.2-0.1,0.2-1.1-0.1c-0.7-0.2-0.6,0-1.2-0.1c-0.4-0.1-0.8-0.3-1.2-0.5
		c-0.4-0.2-0.5,0-1.1-0.3c-1.2-0.6-2.6-0.8-3.9-0.7c-0.8,0-1.7-0.1-2.4,0.2c-1.8,0.7-0.4,1.4-2.9,1.5l-1.2,0.2
		c-2.8,0.2-5.3,1.2-8.1,1.2l-2.5,0.1c-0.8,0-0.5,0-1.2,0.3l-0.3,1.4C49.1,44.6,50.7,44.5,51.3,44.4z"/>
	<path class="st0" d="M161.7,95.3c1.2,1,1.6,2.7,1.8,3.1c0,0,0,0.1,0.1,0.1c0.4,0.6,0.5,1.2,0.9,1.6c0.3,0.3,0.3,0.2,0.7,0.7v0.1
		c0.6,1,0.5,1.4,0.9,2.2l0.1,0.2v0.1c0.3,0.6,0.4,0.5,0.7,0.8c0.1,0.1,0.7,1.3,1.6,1.3c0.4,0,1-0.3,1.2-0.6c0.5-0.7-0.5-1.9-0.8-2.4
		l-1.4-2.3c-0.3-0.5-0.4-0.6-0.8-1.1l-0.5-0.6c-0.3-0.3-0.2-0.1-0.4-0.5c-0.1-0.2-0.2-0.4-0.3-0.6l-0.5-1v-0.1v-0.1l-0.8-1.1
		c-1.1-1.5,0.1-0.7-1.2-2.5l-1.1-1.7c-0.2-0.5-0.5-0.7-0.8-1.1c-2-2.5-3-5.2-4.1-6.3c-0.2-0.2-0.2-0.3-0.4-0.5
		c-0.4-0.5-0.8-0.5-1.1-0.9c-0.4-0.5,0-0.7-0.9-1c-0.2,0.6-0.2,0.2-0.1,0.7c0,0.2,0.1,0.3,0.2,0.6c0.1,0.7-0.1,0.8-0.3,1.5
		c-0.2,0.9,0.5,1.2,1,2.2l0.4,1.3v0.1c0.3,2.6,0.8,1.5,1.1,3c0.4,2.1,0.3,1.4,1.5,2.7l0.2,0.2c0.6,0.7,0.8,1,1.8,1.3
		C160.6,94.9,161.1,94.8,161.7,95.3z"/>
	<path class="st0" d="M151.9,68.9c0.7,0.4,2.4,0.5,0.9-0.4c-2.1-1.4-0.6-0.5-2.1-1c-0.6-0.2-0.7-0.4-1.2-0.6c-0.4-0.2-0.7-0.3-1-0.6
		c-0.4-0.3-0.5-0.4-1-0.7l-2.1-1.3c-0.3-0.2-0.2-0.2-0.5-0.4c-2.1-1.7-1.6-0.7-3.3-2.5c-2-2.2-4.3-1.5-3.8,1l0.4,1.1l1.5,1.6
		c0.3,0.2,0.6,0.4,1,0.6c0.5,0.3,1.7,1.1,2.2,0.9c1.1-0.3,0.1-0.6,2.1-0.9c1.4-0.2,3.6,1.2,4.7,1.9c0.4,0.3,0.6,0.4,1,0.7
		C151.3,68.8,151.3,68.6,151.9,68.9C151.9,68.8,151.9,68.9,151.9,68.9z"/>
	<path class="st0" d="M194.4,101.4c0.6,0.2,3.2,2.6,3.8,3.2c1.7,2,0.3,0.6,1.5,1.3c1.5,1,0.7,0.5,1.7,0.5c0-0.2,0.1-0.6,0.1-0.6
		c0-0.6-0.4-0.6-1-1.1c-1.3-1.2-3.8-2.1-4.8-3.5c-0.2-0.2,0,0-0.2-0.2c-0.5-0.7-2-2-2.5-2.6c-0.2-0.2-0.2-0.3-0.4-0.4
		c-0.4-0.4-0.4-0.2-0.9-0.7l-0.2-0.2c-0.5-0.4-1.3-0.8-1.9-1.1c-1.4-0.7-0.3-0.6-1.9-0.8c0.3,0.9,1,1,1,2c0,0.6-0.1,0.6,0.1,1.1
		l0.7,0.8c0.8,0.9,3.2,2,4.3,2.2C194.1,101.3,193.8,101.1,194.4,101.4z"/>
	<path class="st0" d="M152.2,59.9c0.2,0.2,0.4,0.5,0.6,0.8c0.4,0.5,1.7,1.4,2.4,1.2c0-0.6-0.2-0.6-0.6-1.1c-1.5-1.7-2.5-1-2.3-2
		c0.3-1.1,2.7,0.1,3.3,0.2c0.4,0.1,1.2,0.1,1.7,0.1c0.1-0.5,0.1-0.7-1-0.9c-2.9-0.7-2.3-0.8-4.8-1.7c-0.3-0.1-0.4-0.2-0.8-0.3
		c-1.8-0.6-2.2-1.4-3-1.3c-0.3,0-0.1,0-0.3,0.1c-1,0.5-1.1,1.2-0.7,2.2c0.4,0.8,1.1,1.3,1.8,1.7c0.2,0.1,0.1,0,0.3,0.2
		c1.6,1.1,1.3-0.1,2.6,0.2C151.4,59.3,152,59.7,152.2,59.9z"/>
	<path class="st0" d="M175.1,68.7l0.8,0.7c0.3,0.3,0.6,0.4,0.9,0.7c0.6,0.5,3.4,1.9,4.2,2.2c2,0.8,1.6,0.6,3.1,1.7
		c0.3,0.2,0.7,0.4,1,0.6c1.6,1,2.8,2.5,3.8,1.6c0-0.8-0.6-0.8-1.4-1.6c-0.2-0.2-0.3-0.2-0.5-0.4c-0.9-0.7-0.8-0.3-1.5-0.7L183,72
		c0,0-0.1,0-0.1-0.1l-0.2-0.1c0,0-0.1,0-0.1-0.1l-0.4-0.3c-0.2-0.2-0.3-0.2-0.5-0.3c-0.6-0.4-1-1-1.7-1.4c-0.4-0.2-0.8-0.3-1.2-0.5
		l-4.2-2c-0.5-0.3-0.2-0.3-0.9-0.3C173.8,67.8,174.6,68.3,175.1,68.7z"/>
	<path class="st0" d="M145.4,7.3c2.2,0.5,0.6,0.2,2.7,0.2c0.5,0,0.3,0,0.7-0.3c0.3-0.2,0.4-0.1,0.7-0.3c1.6-0.9,0.7-2.8-1.3-3.1
		c-0.7-0.1-1.6-0.3-1.8-0.3l-0.6,0.1c-0.2,0-0.6,0.2-0.7,0.2c-0.3,0.2-1,0.8-1,1.2C143.9,5.7,144.3,7,145.4,7.3z"/>
	<path class="st0" d="M87.7,31.2c1.1,0,2.6-1,3.6-0.6c1.2,0.4,0.5,1.1,0.4,1.3l2.1-0.4c-0.1-0.1-0.2-0.1-0.3-0.5
		c0.4-0.1,0.5,0,0.9-0.1c0.4-0.2,0.3-0.3,0.8-0.3c0.8-0.1,1.3,0.6,1.7,0.7c0.8,0.2,1.4-0.4,2.3-0.4c-0.8-1-0.2-0.4-1.4-0.6
		c0.1-0.7-0.3-0.7-0.9-0.8c-1.1-0.1-2-0.2-3.1,0c-1.2,0.2-1.1-0.1-2.8,0.4c-2.3,0.7-3,0.3-3.8,1.1C87.6,31,87.4,30.9,87.7,31.2z"/>
	<path class="st0" d="M144.8,33.2c1.6-0.9,1.9,0,2.5-2.6c-1.6-0.8-0.7-0.9-3.3-0.5c-1.2,0.2-0.7,0.4-1.2,0.6c-0.2,0.1,0-0.4-0.5,0.3
		c-0.2,0.3-0.4,0.5-0.4,0.9C141.8,32.4,143,34.2,144.8,33.2z"/>
	<path class="st0" d="M134.9,31.3C134.9,31.3,135,31.3,134.9,31.3c-0.8-0.2-1-0.3-1.6-0.8c-0.3-0.2-0.5-0.3-0.7-0.5
		s-0.4-0.4-0.5-0.6c0.4-0.5,0.2-0.7,0.8-0.9c0.6-0.2,1.8-0.4,2.2-1.2c0.3-0.6-0.1-0.3,0.2-0.6c0,0,0.2-0.2,0.3-0.2
		c-0.4,0-1,0.3-1.3,0.6c-1.2,0.7-1.1-0.3-1.8,0.6c0,0,0,0,0,0.1l-0.1,0.1c0,0,0,0-0.1,0c-1.1,0.8-1-0.4-1.6,1.8
		c0.8-0.6,0.4-0.6,0.8-0.8c0.3-0.1,0.2,0,0.5,0c0,0.3-0.1,0.8-0.4,1.2c-0.6,0.6-0.3-0.2-0.9,0.3c0,0.6,0.7,1.1,1.2,1.3
		c0.1-0.4,0-0.2,0.2-0.4c0.1-0.2,0,0.1,0.3-0.3c0.3,0.1,0.5,0.1,0.8,0.2c0.7,0.3,0.3,0.4,1,0.3L134.9,31.3z"/>
	<path class="st0" d="M160.7,72.8c0.6,0.6,2.1,1.1,3,1.3l0.5-0.4c-0.4-1.4-0.4,0.1-1.5-2.2c-0.3-0.7-1.5-1-2.2-0.6l-0.2,0.2
		C160.2,71.9,160.3,72.4,160.7,72.8z"/>
	<path class="st0" d="M137.1,40.8c0.9-0.7,0.5-1.3,0.5-1.3l-0.1-0.9c-0.3-1.4-2.1-0.9-2.4,0.4C134.7,40.9,136.2,41.5,137.1,40.8z"/>
	<path class="st0" d="M146.6,14.3c0.8-0.9-0.3-1.6-0.5-1.7c-1-0.2-0.8-0.4-2,0.3c-0.6,0.3-0.5,0.6-0.5,1.3
		C144.1,14.5,145.6,15.4,146.6,14.3z"/>
	<path class="st0" d="M206.3,120.4c-0.5-0.8-0.5-0.8-1.3-1.3c-0.4-0.3-0.1,0-0.4-0.3c-0.3-0.2-0.1-0.1-0.3-0.2
		c-1.4-0.8-1.2,0.7,0.6,1.8c1.5,0.9,1.4,1,2.6,2c0,0,0,0,0.1,0c0,0,0,0,0.1,0c0.6,0.5,0.5,0.8,1.2,0.6
		C208.8,121.9,207.6,122.5,206.3,120.4z"/>
	<path class="st0" d="M175.9,61.5c0.6,0.1,1.3-0.3,1.8-0.4c0-1.6-1.7-2-2.3-1.8c-0.4,0.1-0.5,0.4-0.6,0.9
		C174.6,60.9,175.4,61.4,175.9,61.5z"/>
	<path class="st0" d="M98.9,23.7c1.1,0.7,0.7,1,2.5,0.9c0.4,0,0.3,0,0.8,0.1c0.7,0.1,0.2-0.1,0.9-0.1c-0.1-0.3-0.1-0.5-0.1-0.7
		c-0.4,0.1-0.9,0.1-1.3,0.1c-0.7,0-0.8,0.3-1.5,0.1c-0.9-0.2-1.7-1.2-2.4-1.1C97.9,23.6,98.1,23.2,98.9,23.7z"/>
	<path class="st0" d="M114.4,74.8c0.9,0.4-0.6,0,0.3,0.1c1,0.2,0.5-0.9,0.5-0.9c-0.1-0.5,0-0.6-0.1-1.3c-0.3,0.1-0.2,0-0.4,0.3
		c-0.5-0.3-0.2-0.3-0.6-0.4c-0.6-0.1-0.2,1.8-0.2,2L114.4,74.8z"/>
	<path class="st0" d="M137.4,11c0.7,0.2,0.8,0.2,1.1-0.3c1-1.5-1-1.7-1.2-0.5C137.1,10.8,137.4,10.3,137.4,11z"/>
	<path class="st0" d="M159.8,60.2c0.3,0.3,1.2,0.4,1.6-0.1c0.2-0.2,0.1-0.3,0.2-0.6c-2.2-0.7-2.1,0.3-1.9,0.4
		C159.6,60.2,159.5,60,159.8,60.2z"/>
	<path class="st0" d="M143.3,82.4c-0.4-0.7-0.3-0.9-0.8-0.8c-0.4,0.1-0.1,1.7,0.9,2C143.7,83,143.7,83,143.3,82.4z"/>
	<path class="st0" d="M129.7,25.4c-0.4,0-0.6,0-1,0.1c-0.2,0-0.7,0.1-0.8,0.4c-0.1,0.4,0,0.6,0.4,0.8l0.3-0.6
		c-0.2,0.7,0.7,0.9,0.6,0.4c0,0-0.2-0.5-0.2-0.6C129.5,25.7,129.3,25.7,129.7,25.4z"/>
	<path class="st0" d="M138.9,14.6c0.4,0.1,1,0.7,1.1,0c0.1-0.4-0.1-0.4-0.4-0.6C139.1,14.1,139.1,13.9,138.9,14.6z"/>
	<path class="st0" d="M133.1,35.2c0,0.5,0.1,0.4,0,1c1.1,0.2,0.4-0.9,0.2-1H133.1z"/>
	<path class="st0" d="M154.8,70.2c0.5-0.4,0.5-0.3,0.2-0.9c-0.6,0.2-0.2-0.1-0.6,0.4C154.6,70.1,154.5,69.9,154.8,70.2z"/>
</g>
<rect x="42.3" y="92.7" class="st1" width="148.7" height="39.8"/>
<g class="st2">
	<path class="st3" d="M43.3,101.1l0.6-2.7h-1.1v-0.9h1.3l0.5-2.3h-1.8v-0.9h1.9l0.6-2.7h1l-0.6,2.7h2l0.6-2.7h1l-0.6,2.7h1.1v0.9
		h-1.3l-0.6,2.3h1.8v0.9h-2l-0.6,2.7h-1l0.5-2.7h-2l-0.6,2.7H43.3z M45,97.5h2l0.5-2.3h-2L45,97.5z"/>
	<path class="st3" d="M53.2,101v-8.2h-3.1v-1.1h7.4v1.1h-3.1v8.2H53.2z"/>
	<path class="st3" d="M58.8,101v-9.3h6.7v1.1H60v2.8h5.1v1.1H60v3.2h5.8v1.1C65.8,101,58.8,101,58.8,101z"/>
	<path class="st3" d="M67.5,101v-9.3h3.2c0.7,0,1.3,0,1.7,0.1c0.5,0.1,1,0.3,1.4,0.7c0.5,0.4,0.9,0.9,1.1,1.6
		c0.2,0.6,0.4,1.4,0.4,2.2c0,0.7-0.1,1.3-0.2,1.9c-0.2,0.5-0.4,1-0.6,1.4s-0.5,0.6-0.8,0.8c-0.3,0.2-0.7,0.4-1.1,0.5
		s-0.9,0.2-1.5,0.2L67.5,101L67.5,101z M68.7,99.9h2c0.6,0,1.1-0.1,1.4-0.2s0.6-0.3,0.8-0.5c0.3-0.3,0.5-0.7,0.7-1.2
		s0.2-1.1,0.2-1.8c0-1-0.2-1.7-0.5-2.2s-0.7-0.9-1.2-1.1c-0.3-0.1-0.9-0.2-1.6-0.2h-2v7.2H68.7z"/>
	<path class="st3" d="M76,101l2.5-3.5l-2.3-3.2h1.4l1,1.6c0.2,0.3,0.4,0.6,0.5,0.8c0.2-0.3,0.4-0.5,0.5-0.7l1.1-1.6h1.4l-2.3,3
		l2.5,3.6h-1.4l-1.4-2.1l-0.4-0.6l-1.8,2.7H76z"/>
	<path class="st3" d="M89.5,91.7h1.2v5.4c0,0.9-0.1,1.7-0.3,2.2s-0.6,1-1.1,1.3c-0.6,0.3-1.3,0.5-2.2,0.5c-0.9,0-1.6-0.1-2.1-0.5
		s-1-0.7-1.2-1.3c-0.2-0.6-0.4-1.3-0.4-2.3v-5.4h1.2V97c0,0.8,0.1,1.4,0.2,1.8c0.2,0.4,0.4,0.7,0.8,0.9c0.4,0.2,0.8,0.3,1.3,0.3
		c0.9,0,1.6-0.2,1.9-0.6c0.4-0.4,0.6-1.2,0.6-2.4L89.5,91.7L89.5,91.7z"/>
	<path class="st3" d="M92.2,97.6c0-1.2,0.3-2.2,1-2.8c0.6-0.5,1.3-0.7,2.1-0.7c0.9,0,1.7,0.3,2.3,0.9c0.6,0.6,0.9,1.4,0.9,2.5
		c0,0.9-0.1,1.5-0.4,2s-0.6,0.9-1.1,1.2c-0.5,0.3-1,0.4-1.6,0.4c-0.9,0-1.7-0.3-2.3-0.9S92.2,98.7,92.2,97.6z M93.4,97.6
		c0,0.9,0.2,1.5,0.6,1.9s0.8,0.6,1.4,0.6s1-0.2,1.4-0.6s0.6-1.1,0.6-2c0-0.8-0.2-1.5-0.6-1.9S96,95,95.4,95s-1,0.2-1.4,0.6
		C93.6,96.1,93.4,96.7,93.4,97.6z"/>
	<path class="st3" d="M100,101v-9.3h1.9l2.2,6.6c0.2,0.6,0.4,1.1,0.4,1.4c0.1-0.3,0.3-0.8,0.5-1.5l2.2-6.5h1.7v9.3h-1.2v-7.8
		L105,101h-1.2l-2.7-7.9v7.9H100z"/>
	<path class="st3" d="M116.4,99.9v1.1h-6.2c0-0.3,0-0.5,0.1-0.8c0.2-0.4,0.4-0.8,0.8-1.2s0.8-0.9,1.5-1.4c1-0.8,1.7-1.5,2-2
		s0.5-0.9,0.5-1.4s-0.2-0.8-0.5-1.1c-0.3-0.3-0.7-0.5-1.3-0.5c-0.5,0-1,0.2-1.3,0.5s-0.5,0.8-0.5,1.4l-1.2-0.1
		c0.1-0.9,0.4-1.5,0.9-2s1.2-0.7,2.1-0.7s1.6,0.2,2.1,0.7s0.8,1.1,0.8,1.8c0,0.4-0.1,0.7-0.2,1.1s-0.4,0.7-0.8,1.1s-0.9,0.9-1.8,1.6
		c-0.7,0.6-1.1,1-1.3,1.2s-0.4,0.4-0.5,0.6h4.8V99.9z"/>
	<path class="st3" d="M117.6,96.4c0-1.1,0.1-2,0.3-2.7c0.2-0.7,0.6-1.2,1-1.6s1-0.5,1.7-0.5c0.5,0,0.9,0.1,1.3,0.3
		c0.4,0.2,0.7,0.5,0.9,0.9s0.4,0.8,0.6,1.4c0.1,0.5,0.2,1.3,0.2,2.2c0,1.1-0.1,2-0.3,2.6c-0.2,0.7-0.6,1.2-1,1.6s-1,0.5-1.7,0.5
		c-0.9,0-1.6-0.3-2.1-1C117.9,99.4,117.6,98.1,117.6,96.4z M118.8,96.4c0,1.5,0.2,2.5,0.5,3.1c0.4,0.5,0.8,0.8,1.3,0.8
		s1-0.3,1.3-0.8c0.4-0.5,0.5-1.5,0.5-3s-0.2-2.5-0.5-3.1c-0.4-0.5-0.8-0.8-1.3-0.8s-0.9,0.2-1.3,0.7C119,93.8,118.8,94.8,118.8,96.4
		z"/>
	<path class="st3" d="M129.1,101H128v-7.3c-0.3,0.3-0.6,0.5-1.1,0.8c-0.4,0.3-0.8,0.5-1.2,0.6V94c0.6-0.3,1.2-0.7,1.7-1.1
		c0.5-0.4,0.8-0.8,1-1.2h0.7V101z"/>
	<path class="st3" d="M138,93.9l-1.1,0.1c-0.1-0.4-0.2-0.8-0.4-1c-0.3-0.3-0.7-0.5-1.1-0.5c-0.4,0-0.7,0.1-1,0.3
		c-0.4,0.3-0.6,0.6-0.9,1.1c-0.2,0.5-0.3,1.2-0.3,2.2c0.3-0.4,0.6-0.7,1-0.9s0.8-0.3,1.3-0.3c0.8,0,1.4,0.3,1.9,0.8s0.8,1.3,0.8,2.2
		c0,0.6-0.1,1.1-0.4,1.6c-0.3,0.5-0.6,0.9-1,1.2c-0.4,0.3-0.9,0.4-1.5,0.4c-1,0-1.7-0.3-2.3-1s-0.9-1.9-0.9-3.5c0-1.8,0.3-3.1,1-3.9
		c0.6-0.7,1.4-1.1,2.3-1.1c0.7,0,1.3,0.2,1.8,0.6C137.6,92.6,137.9,93.2,138,93.9z M133.3,97.9c0,0.4,0.1,0.8,0.3,1.1
		c0.2,0.4,0.4,0.6,0.7,0.8c0.3,0.2,0.6,0.3,0.9,0.3c0.5,0,0.9-0.2,1.2-0.6s0.5-0.9,0.5-1.6c0-0.6-0.2-1.2-0.5-1.5
		c-0.3-0.4-0.8-0.6-1.3-0.6s-1,0.2-1.3,0.6S133.3,97.3,133.3,97.9z"/>
</g>
</svg>
