<?xml version="1.0" encoding="utf-8"?>
<!-- Generator: Adobe Illustrator 16.0.0, SVG Export Plug-In . SVG Version: 6.00 Build 0)  -->
<!DOCTYPE svg PUBLIC "-//W3C//DTD SVG 1.1//EN" "http://www.w3.org/Graphics/SVG/1.1/DTD/svg11.dtd">
<svg version="1.1" id="Layer_1" xmlns="http://www.w3.org/2000/svg" xmlns:xlink="http://www.w3.org/1999/xlink" x="0px" y="0px"
	 width="780px" height="400px" viewBox="0 0 780 400" enable-background="new 0 0 780 400" xml:space="preserve">
<g>
	<path fill="#5D2D7A" d="M388.857,163.262h-26.999v69.717h-17.279v-69.717h-26.879v-14.879h71.157V163.262z"/>
	<path fill="#5D2D7A" d="M473.935,148.383v84.597h-16.799v-28.679h-38.999v28.679h-16.679v-84.597h16.679v41.158h38.999v-41.158
		H473.935z"/>
	<path fill="#5D2D7A" d="M556.376,218.1v14.88h-64.917v-84.597h62.397v14.879h-45.718v21.479h38.278v14.399h-38.278V218.1H556.376z"
		/>
	<path fill="#5D2D7A" d="M657.053,148.383v84.597h-17.279v-46.798l-26.158,36.719l-26.279-36.719v46.798h-17.159v-84.597h8.399
		l35.039,48.478l35.038-48.478H657.053z"/>
	<path fill="#5D2D7A" d="M739.494,218.1v14.88h-64.917v-84.597h62.397v14.879h-45.719v21.479h38.279v14.399h-38.279V218.1H739.494z"
		/>
</g>
</svg>
