<?xml version="1.0" encoding="utf-8"?>
<!-- Generator: Adobe Illustrator 16.0.0, SVG Export Plug-In . SVG Version: 6.00 Build 0)  -->
<!DOCTYPE svg PUBLIC "-//W3C//DTD SVG 1.1//EN" "http://www.w3.org/Graphics/SVG/1.1/DTD/svg11.dtd">
<svg version="1.1" id="Layer_1" xmlns="http://www.w3.org/2000/svg" xmlns:xlink="http://www.w3.org/1999/xlink" x="0px" y="0px"
	 width="780px" height="120px" viewBox="0 0 780 120" enable-background="new 0 0 780 120" xml:space="preserve">
<g>
	<path fill="#5D2D7A" d="M254.975,2.964c25.75,0,34.5,15.25,34.5,31.75c0,24.125-15.625,33.75-38,33.75H236.6v22.625h-17.875V2.964
		H254.975z M249.725,53.589c14.25,0,21-7.125,21-17.5c0-9.125-4.75-17.625-18.625-17.625h-15.5v35.125H249.725z"/>
	<path fill="#5D2D7A" d="M318.349,32.714c4.625-6.375,11.75-10.625,21.375-10.75c1.25,0,2.875,0.25,4.25,0.75v18.875
		c0,0-4.75-1-8.375-1c-12.5,0-17.25,8.875-17.25,17.75v32.75h-17.5V23.214h17.5V32.714z"/>
	<path fill="#5D2D7A" d="M424.848,57.089c0,19.375-16.625,35-37.125,35s-37.125-15.625-37.125-35
		c0-19.5,16.625-35.125,37.125-35.125S424.848,37.589,424.848,57.089z M407.723,57.089c0-10.75-8.875-19.5-20-19.5
		c-11,0-20,8.75-20,19.5c0,10.625,9,19.375,20,19.375C398.848,76.464,407.723,67.714,407.723,57.089z"/>
	<path fill="#5D2D7A" d="M505.721,23.214v54.875c0,17.5-9.75,36.625-35.5,36.625c-16.75,0-20-1.5-30.5-4.5l3.375-12.875
		c7.375,2,13.625,4,23,4c10.375,0,21-6.25,21.5-16.875c-5.5,3-12,4.75-19,4.75c-19,0-34.375-13.625-34.375-33.75
		c0-20.25,15.375-33.5,34.375-33.5c7.125,0,14.125,1.875,19.75,5.125v-3.875H505.721z M471.596,73.589c6.625,0,12.625-2,16.75-5.5
		v-25c-4.25-3.5-10.125-5.5-16.75-5.5c-11.625,0-20.25,7.75-20.25,18C451.346,66.339,459.971,73.589,471.596,73.589z"/>
	<path fill="#5D2D7A" d="M538.97,32.714c4.625-6.375,11.75-10.625,21.375-10.75c1.25,0,2.875,0.25,4.25,0.75v18.875
		c0,0-4.75-1-8.375-1c-12.5,0-17.25,8.875-17.25,17.75v32.75h-17.5V23.214h17.5V32.714z"/>
	<path fill="#5D2D7A" d="M640.969,23.214v67.875h-17.375v-5c-5.625,3.75-12.375,6-19.875,6c-21.25,0-33.75-17.125-33.75-35.125
		c0-18.125,12.5-35.125,33.75-35.125c7.125,0,14.125,2.25,19.875,5.625v-4.25H640.969z M623.594,43.464
		c-4.25-3.625-10.25-5.875-16.75-5.875c-12.375,0-20.125,9.25-20.125,19.375c0,10.25,7.875,19.5,20.125,19.5
		c6.625,0,12.5-2.125,16.75-5.75V43.464z"/>
	<path fill="#5D2D7A" d="M764.594,53.214v37.875h-17.375V53.214c0-10.5-5.25-15.625-14.75-15.625c-5.75,0-9.875,2-13.5,5.375
		c0.625,1.875,0.75,4.375,0.75,10.5v37.625h-17.375V53.214c0-10.375-4.625-15.625-13.625-15.625c-6.125,0-11,2-14.625,5.375v48.125
		h-17.5V23.214h17.5v4.25c4.875-3.5,11-5.5,17.625-5.5c10.5,0,17.875,2.625,22.5,8.625c5.75-5.375,13.25-8.625,21.25-8.625
		C755.469,21.964,764.594,31.214,764.594,53.214z"/>
</g>
</svg>
