<?xml version="1.0" encoding="utf-8"?>
<!-- Generator: Adobe Illustrator 16.0.0, SVG Export Plug-In . SVG Version: 6.00 Build 0)  -->
<!DOCTYPE svg PUBLIC "-//W3C//DTD SVG 1.1//EN" "http://www.w3.org/Graphics/SVG/1.1/DTD/svg11.dtd">
<svg version="1.1" id="Layer_1" xmlns="http://www.w3.org/2000/svg" xmlns:xlink="http://www.w3.org/1999/xlink" x="0px" y="0px"
	 width="780px" height="120px" viewBox="210 340 780 120" enable-background="new 210 340 780 120" xml:space="preserve">
<g>
	<path fill="#5D2D7A" d="M618.125,424.625H578.75l-7.875,17.875H552l42-88.125h8.875L645,442.5h-18.875L618.125,424.625z
		 M585.125,409.75h26.625l-13.375-29.125L585.125,409.75z"/>
	<path fill="#5D2D7A" d="M725.873,408.5c0,20.875-15.375,35.125-34.375,35.125c-7.125,0-14.125-2-19.75-5.375v4.25h-17.375v-94.25
		h17.375v30.25c5.75-3.125,12.5-5.125,19.75-5.125C710.498,373.375,725.873,387.25,725.873,408.5z M708.748,408.5
		c0-11.125-8.625-19.5-20.375-19.5c-6.625,0-12.375,2.25-16.625,5.75V422c4.25,3.625,10.125,5.875,16.625,5.875
		C700.123,427.875,708.748,420,708.748,408.5z"/>
	<path fill="#5D2D7A" d="M809.247,408.5c0,19.375-16.625,35-37.125,35s-37.125-15.625-37.125-35c0-19.5,16.625-35.125,37.125-35.125
		S809.247,389,809.247,408.5z M792.122,408.5c0-10.75-8.875-19.5-20-19.5c-11,0-20,8.75-20,19.5c0,10.625,9,19.375,20,19.375
		C783.247,427.875,792.122,419.125,792.122,408.5z"/>
	<path fill="#5D2D7A" d="M885.87,374.625V442.5h-17.375V438c-5.125,3.5-11.5,5.5-18.5,5.5c-19.875,0-29-9.25-29-31.25v-37.625
		h17.375v37.625c0,10.5,5.125,15.625,14.75,15.625c6.25,0,11.375-2,15.375-5.375v-47.875H885.87z"/>
	<path fill="#5D2D7A" d="M923.494,389v24c0,12.125,2,15.625,10.75,15.625c3,0,5.625-0.375,8-0.625v13c-0.75,0.25-6,2.5-15.75,2.5
		c-11.375,0-20.5-7.125-20.5-21.375V389h-9.625v-14.375h9.625V348.25h17.5v26.375h19V389H923.494z"/>
</g>
</svg>
