<?xml version="1.0" encoding="utf-8"?>
<!-- Generator: Adobe Illustrator 16.0.0, SVG Export Plug-In . SVG Version: 6.00 Build 0)  -->
<!DOCTYPE svg PUBLIC "-//W3C//DTD SVG 1.1//EN" "http://www.w3.org/Graphics/SVG/1.1/DTD/svg11.dtd">
<svg version="1.1" id="Layer_1" xmlns="http://www.w3.org/2000/svg" xmlns:xlink="http://www.w3.org/1999/xlink" x="0px" y="0px"
	 width="780px" height="120px" viewBox="210 340 780 120" enable-background="new 210 340 780 120" xml:space="preserve">
<g>
	<path fill="#5D2D7A" d="M640.686,359.212h19.5l-41.125,88.125h-8.25l-41-88.125h19.375l25.75,57.5L640.686,359.212z"/>
	<path fill="#5D2D7A" d="M674.063,418.337c1.875,8.875,9,15.125,19.375,15.125c7.125,0,13.75-3.25,17.5-8.375l11.125,9.25
		c-6.25,8.5-17.375,14-30.625,14c-20.5,0-34.75-15.625-34.75-35c0-19.5,14.25-35.125,34.75-35.125c20.875,0,33,15.125,33,36.25
		c0,1.375-0.125,2.75-0.125,3.875H674.063z M674.188,407.212h33.625c-0.625-7.75-4.75-15.125-16.375-15.125
		C682.313,392.087,675.813,398.837,674.188,407.212z"/>
	<path fill="#5D2D7A" d="M801.311,409.462v37.875h-17.375v-37.875c0-10.5-5.125-15.625-14.75-15.625c-6.125,0-11.125,2-15,5.375
		v48.125h-17.375v-67.875h17.375v4.25c5-3.5,11.25-5.5,18.125-5.5C792.186,378.212,801.311,387.462,801.311,409.462z"/>
	<path fill="#5D2D7A" d="M880.435,379.462v67.875H863.06v-4.5c-5.125,3.5-11.5,5.5-18.5,5.5c-19.875,0-29-9.25-29-31.25v-37.625
		h17.375v37.625c0,10.5,5.125,15.625,14.75,15.625c6.25,0,11.375-2,15.375-5.375v-47.875H880.435z"/>
	<path fill="#5D2D7A" d="M910.309,418.337c1.875,8.875,9,15.125,19.375,15.125c7.125,0,13.75-3.25,17.5-8.375l11.125,9.25
		c-6.25,8.5-17.375,14-30.625,14c-20.5,0-34.75-15.625-34.75-35c0-19.5,14.25-35.125,34.75-35.125c20.875,0,33,15.125,33,36.25
		c0,1.375-0.125,2.75-0.125,3.875H910.309z M910.434,407.212h33.625c-0.625-7.75-4.75-15.125-16.375-15.125
		C918.559,392.087,912.059,398.837,910.434,407.212z"/>
</g>
</svg>
