<?xml version="1.0" encoding="utf-8"?>
<!-- Generator: Adobe Illustrator 16.0.0, SVG Export Plug-In . SVG Version: 6.00 Build 0)  -->
<!DOCTYPE svg PUBLIC "-//W3C//DTD SVG 1.1//EN" "http://www.w3.org/Graphics/SVG/1.1/DTD/svg11.dtd">
<svg version="1.1" id="Layer_1" xmlns="http://www.w3.org/2000/svg" xmlns:xlink="http://www.w3.org/1999/xlink" x="0px" y="0px"
	 width="780px" height="120px" viewBox="210 340 780 120" enable-background="new 210 340 780 120" xml:space="preserve">
<g>
	<path fill="#5D2D7A" d="M482.133,350.938c25.75,0,34.5,15.25,34.5,31.75c0,24.125-15.625,33.75-38,33.75h-14.875v22.625h-17.875
		v-88.125H482.133z M476.883,401.563c14.25,0,21-7.125,21-17.5c0-9.125-4.75-17.625-18.625-17.625h-15.5v35.125H476.883z"/>
	<path fill="#5D2D7A" d="M594.257,371.188v67.875h-17.375v-5c-5.625,3.75-12.375,6-19.875,6c-21.25,0-33.75-17.125-33.75-35.125
		c0-18.125,12.5-35.125,33.75-35.125c7.125,0,14.125,2.25,19.875,5.625v-4.25H594.257z M576.882,391.438
		c-4.25-3.625-10.25-5.875-16.75-5.875c-12.375,0-20.125,9.25-20.125,19.375c0,10.25,7.875,19.5,20.125,19.5
		c6.625,0,12.5-2.125,16.75-5.75V391.438z"/>
	<path fill="#5D2D7A" d="M627.382,380.688c4.625-6.375,11.75-10.625,21.375-10.75c1.25,0,2.875,0.25,4.25,0.75v18.875
		c0,0-4.75-1-8.375-1c-12.5,0-17.25,8.875-17.25,17.75v32.75h-17.5v-67.875h17.5V380.688z"/>
	<path fill="#5D2D7A" d="M686.256,385.563v24c0,12.125,2,15.625,10.75,15.625c3,0,5.625-0.375,8-0.625v13
		c-0.75,0.25-6,2.5-15.75,2.5c-11.375,0-20.5-7.125-20.5-21.375v-33.125h-9.625v-14.375h9.625v-26.375h17.5v26.375h19v14.375
		H686.256z"/>
	<path fill="#5D2D7A" d="M781.004,401.188v37.875h-17.375v-37.875c0-10.5-5.125-15.625-14.75-15.625c-6.125,0-11.125,2-15,5.375
		v48.125h-17.375v-67.875h17.375v4.25c5-3.5,11.25-5.5,18.125-5.5C771.879,369.938,781.004,379.188,781.004,401.188z"/>
	<path fill="#5D2D7A" d="M810.128,410.063c1.875,8.875,9,15.125,19.375,15.125c7.125,0,13.75-3.25,17.5-8.375l11.125,9.25
		c-6.25,8.5-17.375,14-30.625,14c-20.5,0-34.75-15.625-34.75-35c0-19.5,14.25-35.125,34.75-35.125c20.875,0,33,15.125,33,36.25
		c0,1.375-0.125,2.75-0.125,3.875H810.128z M810.253,398.938h33.625c-0.625-7.75-4.75-15.125-16.375-15.125
		C818.378,383.813,811.878,390.563,810.253,398.938z"/>
	<path fill="#5D2D7A" d="M890.377,380.688c4.625-6.375,11.75-10.625,21.375-10.75c1.25,0,2.875,0.25,4.25,0.75v18.875
		c0,0-4.75-1-8.375-1c-12.5,0-17.25,8.875-17.25,17.75v32.75h-17.5v-67.875h17.5V380.688z"/>
	<path fill="#5D2D7A" d="M930.125,420.688c8.375,3.625,14.75,5.5,23.25,5.5c8,0,11.125-3,11.125-6.5
		c0-3.875-3.875-5.625-14.375-7.875c-14.625-3.25-25.25-8-25.25-21.125c0-12.25,10.125-20.75,25.875-20.75
		c10.625,0,19.125,2.5,26.5,5.5l-5.75,12.75c-6.625-2.5-14.375-4.375-21.125-4.375c-6.625,0-10,2.375-10,6c0,3.75,4.125,5.5,15,7.75
		c15.75,3.25,24.875,8.75,24.875,21.125c0,12.875-9.875,21.375-27.25,21.375c-11.75,0-19.375-1.625-29.375-6.5L930.125,420.688z"/>
</g>
</svg>
