<?xml version="1.0" encoding="utf-8"?>
<!-- Generator: Adobe Illustrator 16.0.0, SVG Export Plug-In . SVG Version: 6.00 Build 0)  -->
<!DOCTYPE svg PUBLIC "-//W3C//DTD SVG 1.1//EN" "http://www.w3.org/Graphics/SVG/1.1/DTD/svg11.dtd">
<svg version="1.1" id="Layer_1" xmlns="http://www.w3.org/2000/svg" xmlns:xlink="http://www.w3.org/1999/xlink" x="0px" y="0px"
	 width="780px" height="120px" viewBox="210 340 780 120" enable-background="new 210 340 780 120" xml:space="preserve">
<g>
	<path fill="#5D2D7A" d="M678.5,367.875h-28.125V440.5h-18v-72.625h-28v-15.5H678.5V367.875z"/>
	<path fill="#5D2D7A" d="M692.875,411.5c1.875,8.875,9,15.125,19.375,15.125c7.125,0,13.75-3.25,17.5-8.375l11.125,9.25
		c-6.25,8.5-17.375,14-30.625,14c-20.5,0-34.75-15.625-34.75-35c0-19.5,14.25-35.125,34.75-35.125c20.875,0,33,15.125,33,36.25
		c0,1.375-0.125,2.75-0.125,3.875H692.875z M693,400.375h33.625c-0.625-7.75-4.75-15.125-16.375-15.125
		C701.125,385.25,694.625,392,693,400.375z"/>
	<path fill="#5D2D7A" d="M823.749,372.625V440.5h-17.375v-5c-5.625,3.75-12.375,6-19.875,6c-21.25,0-33.75-17.125-33.75-35.125
		c0-18.125,12.5-35.125,33.75-35.125c7.125,0,14.125,2.25,19.875,5.625v-4.25H823.749z M806.374,392.875
		c-4.25-3.625-10.25-5.875-16.75-5.875c-12.375,0-20.125,9.25-20.125,19.375c0,10.25,7.875,19.5,20.125,19.5
		c6.625,0,12.5-2.125,16.75-5.75V392.875z"/>
	<path fill="#5D2D7A" d="M947.374,402.625V440.5h-17.375v-37.875c0-10.5-5.25-15.625-14.75-15.625c-5.75,0-9.875,2-13.5,5.375
		c0.625,1.875,0.75,4.375,0.75,10.5V440.5h-17.375v-37.875c0-10.375-4.625-15.625-13.625-15.625c-6.125,0-11,2-14.625,5.375V440.5
		h-17.5v-67.875h17.5v4.25c4.875-3.5,11-5.5,17.625-5.5c10.5,0,17.875,2.625,22.5,8.625c5.75-5.375,13.25-8.625,21.25-8.625
		C938.249,371.375,947.374,380.625,947.374,402.625z"/>
</g>
</svg>
