<?xml version="1.0" encoding="utf-8"?>
<!-- Generator: Adobe Illustrator 16.0.0, SVG Export Plug-In . SVG Version: 6.00 Build 0)  -->
<!DOCTYPE svg PUBLIC "-//W3C//DTD SVG 1.1//EN" "http://www.w3.org/Graphics/SVG/1.1/DTD/svg11.dtd">
<svg version="1.1" id="Layer_1" xmlns="http://www.w3.org/2000/svg" xmlns:xlink="http://www.w3.org/1999/xlink" x="0px" y="0px"
	 width="780px" height="120px" viewBox="210 340 780 120" enable-background="new 210 340 780 120" xml:space="preserve">
<rect id="XMLID_11_" x="2165.544" y="-2104.224" fill="#00BD9C" width="413.668" height="413.668"/>
<rect id="XMLID_197_" x="2206.739" y="-2577.504" fill="#ECE0DB" width="413.669" height="413.669"/>
<g>
	<path fill="#5D2D7A" d="M525.125,417L539,428.75c-8.625,10.25-21.625,16.75-36.375,16.75c-25.625,0-46.5-20.125-46.5-45
		s20.875-45.125,46.5-45.125c14.75,0,27.75,6.625,36.375,16.875L525.125,384c-5-7.125-13.25-11.625-22.5-11.625
		c-15.375,0-28,11.25-28,28.125c0,16.625,12.625,28.125,28,28.125C511.875,428.625,520.125,424.125,525.125,417z"/>
	<path fill="#5D2D7A" d="M620.625,410.5c0,19.375-16.625,35-37.125,35c-20.5,0-37.125-15.625-37.125-35
		c0-19.5,16.625-35.125,37.125-35.125C604,375.375,620.625,391,620.625,410.5z M603.5,410.5c0-10.75-8.875-19.5-20-19.5
		c-11,0-20,8.75-20,19.5c0,10.625,9,19.375,20,19.375C594.625,429.875,603.5,421.125,603.5,410.5z"/>
	<path fill="#5D2D7A" d="M697.623,406.625V444.5h-17.375v-37.875c0-10.5-5.125-15.625-14.75-15.625c-6.125,0-11.125,2-15,5.375
		V444.5h-17.375v-67.875h17.375v4.25c5-3.5,11.25-5.5,18.125-5.5C688.498,375.375,697.623,384.625,697.623,406.625z"/>
	<path fill="#5D2D7A" d="M734.496,391v24c0,12.125,2,15.625,10.75,15.625c3,0,5.625-0.375,8-0.625v13c-0.75,0.25-6,2.5-15.75,2.5
		c-11.375,0-20.5-7.125-20.5-21.375V391h-9.625v-14.375h9.625V350.25h17.5v26.375h19V391H734.496z"/>
	<path fill="#5D2D7A" d="M832.87,376.625V444.5h-17.375v-5c-5.625,3.75-12.375,6-19.875,6c-21.25,0-33.75-17.125-33.75-35.125
		c0-18.125,12.5-35.125,33.75-35.125c7.125,0,14.125,2.25,19.875,5.625v-4.25H832.87z M815.495,396.875
		c-4.25-3.625-10.25-5.875-16.75-5.875c-12.375,0-20.125,9.25-20.125,19.375c0,10.25,7.875,19.5,20.125,19.5
		c6.625,0,12.5-2.125,16.75-5.75V396.875z"/>
	<path fill="#5D2D7A" d="M908.494,431.875c-6.125,8.375-15.75,13.625-26.25,13.625c-20.5,0-37.125-15.625-37.125-35
		c0-19.5,16.625-35.125,37.125-35.125c10.875,0,20.375,5.25,26.5,13.5l-11.25,10.375c-3.375-5-9-8.25-15.25-8.25
		c-11,0-20,8.75-20,19.5c0,10.625,9,19.375,20,19.375c6.25,0,11.875-3.25,15.25-8.375L908.494,431.875z"/>
	<path fill="#5D2D7A" d="M942.368,391v24c0,12.125,2,15.625,10.75,15.625c3,0,5.625-0.375,8-0.625v13c-0.75,0.25-6,2.5-15.75,2.5
		c-11.375,0-20.5-7.125-20.5-21.375V391h-9.625v-14.375h9.625V350.25h17.5v26.375h19V391H942.368z"/>
</g>
</svg>
