<?xml version="1.0" encoding="utf-8"?>
<!-- Generator: Adobe Illustrator 16.0.0, SVG Export Plug-In . SVG Version: 6.00 Build 0)  -->
<!DOCTYPE svg PUBLIC "-//W3C//DTD SVG 1.1//EN" "http://www.w3.org/Graphics/SVG/1.1/DTD/svg11.dtd">
<svg version="1.1" id="Layer_1" xmlns="http://www.w3.org/2000/svg" xmlns:xlink="http://www.w3.org/1999/xlink" x="0px" y="0px"
	 width="780px" height="120px" viewBox="0 0 780 120" enable-background="new 0 0 780 120" xml:space="preserve">
<g enable-background="new    ">
	<path fill="#5D2D7A" d="M259.25,73.625c0,17-13.625,27-34.125,27c-15,0-22.625-1.375-36.625-8.375l6.5-13.875
		c11.625,5.625,19.75,6.75,30.75,6.75c9.625,0,15.375-3.5,15.375-10c0-6-5.875-8.625-18.75-11.625
		c-18.125-4.125-32.75-9.25-32.75-26.625c0-15.5,12.375-26.5,32.5-26.5c13.375,0,25.125,3.375,33.75,7.125l-7.25,14.25
		c-7.75-3.25-18.625-5.875-26.875-5.875c-9,0-14,4-14,9.5c0,6.25,6.25,8.875,19.5,11.875C246.25,51.5,259.25,57.5,259.25,73.625z"/>
	<path fill="#5D2D7A" d="M343.625,65.5c0,20.875-15.5,35-34.375,35c-7.25,0-14.125-1.875-19.75-5.125v26h-17.375v-89.75H289.5v4
		c5.625-3.25,12.625-5.25,19.75-5.25C328.125,30.375,343.625,44.25,343.625,65.5z M326.5,65.5c0-11.125-8.75-19.5-20.375-19.5
		c-6.5,0-12.375,2.25-16.625,5.875v27.25c4.125,3.625,10,5.75,16.625,5.75C317.75,84.875,326.5,77,326.5,65.5z"/>
	<path fill="#5D2D7A" d="M370.499,70.5c1.875,8.875,9,15.125,19.375,15.125c7.125,0,13.75-3.25,17.5-8.375l11.125,9.25
		c-6.25,8.5-17.375,14-30.625,14c-20.5,0-34.75-15.625-34.75-35c0-19.5,14.25-35.125,34.75-35.125c20.875,0,33,15.125,33,36.25
		c0,1.375-0.125,2.75-0.125,3.875H370.499z M370.624,59.375h33.625c-0.625-7.75-4.75-15.125-16.375-15.125
		C378.749,44.25,372.249,51,370.624,59.375z"/>
	<path fill="#5D2D7A" d="M501.373,31.625V99.5h-17.375v-5c-5.625,3.75-12.375,6-19.875,6c-21.25,0-33.75-17.125-33.75-35.125
		c0-18.125,12.5-35.125,33.75-35.125c7.125,0,14.125,2.25,19.875,5.625v-4.25H501.373z M483.998,51.875
		c-4.25-3.625-10.25-5.875-16.75-5.875c-12.375,0-20.125,9.25-20.125,19.375c0,10.25,7.875,19.5,20.125,19.5
		c6.625,0,12.5-2.125,16.75-5.75V51.875z"/>
	<path fill="#5D2D7A" d="M584.123,99.5h-19.25l-17.375-27.75l-13.125,12.625V99.5h-17.375V5.25h17.375v55.5l29-29.125h20.375
		l-24.75,26.5L584.123,99.5z"/>
	<path fill="#5D2D7A" d="M603.121,70.5c1.875,8.875,9,15.125,19.375,15.125c7.125,0,13.75-3.25,17.5-8.375l11.125,9.25
		c-6.25,8.5-17.375,14-30.625,14c-20.5,0-34.75-15.625-34.75-35c0-19.5,14.25-35.125,34.75-35.125c20.875,0,33,15.125,33,36.25
		c0,1.375-0.125,2.75-0.125,3.875H603.121z M603.246,59.375h33.625c-0.625-7.75-4.75-15.125-16.375-15.125
		C611.371,44.25,604.871,51,603.246,59.375z"/>
	<path fill="#5D2D7A" d="M683.37,41.125c4.625-6.375,11.75-10.625,21.375-10.75c1.25,0,2.875,0.25,4.25,0.75V50c0,0-4.75-1-8.375-1
		c-12.5,0-17.25,8.875-17.25,17.75V99.5h-17.5V31.625h17.5V41.125z"/>
	<path fill="#5D2D7A" d="M723.119,81.125c8.375,3.625,14.75,5.5,23.25,5.5c8,0,11.125-3,11.125-6.5
		c0-3.875-3.875-5.625-14.375-7.875c-14.625-3.25-25.25-8-25.25-21.125c0-12.25,10.125-20.75,25.875-20.75
		c10.625,0,19.125,2.5,26.5,5.5l-5.75,12.75c-6.625-2.5-14.375-4.375-21.125-4.375c-6.625,0-10,2.375-10,6c0,3.75,4.125,5.5,15,7.75
		c15.75,3.25,24.875,8.75,24.875,21.125c0,12.875-9.875,21.375-27.25,21.375c-11.75,0-19.375-1.625-29.375-6.5L723.119,81.125z"/>
</g>
</svg>
