<?xml version="1.0" encoding="utf-8"?>
<!-- Generator: Adobe Illustrator 16.0.0, SVG Export Plug-In . SVG Version: 6.00 Build 0)  -->
<!DOCTYPE svg PUBLIC "-//W3C//DTD SVG 1.1//EN" "http://www.w3.org/Graphics/SVG/1.1/DTD/svg11.dtd">
<svg version="1.1" id="Layer_1" xmlns="http://www.w3.org/2000/svg" xmlns:xlink="http://www.w3.org/1999/xlink" x="0px" y="0px"
	 width="780px" height="120px" viewBox="210 340 780 120" enable-background="new 210 340 780 120" xml:space="preserve">
<g>
	<path fill="#5D2D7A" d="M362.16,447.324h-7.375l-25-57.875l-24.875,57.875h-7.375l-34.75-88.125h19.375l19.875,53.5l24.125-53.5
		h7.375l24,53.5l19.875-53.5h19.375L362.16,447.324z"/>
	<path fill="#5D2D7A" d="M469.159,413.324c0,19.375-16.625,35-37.125,35s-37.125-15.625-37.125-35
		c0-19.5,16.625-35.125,37.125-35.125S469.159,393.825,469.159,413.324z M452.034,413.324c0-10.75-8.875-19.5-20-19.5
		c-11,0-20,8.75-20,19.5c0,10.625,9,19.375,20,19.375C443.159,432.699,452.034,423.949,452.034,413.324z"/>
	<path fill="#5D2D7A" d="M499.157,388.95c4.625-6.375,11.75-10.625,21.375-10.75c1.25,0,2.875,0.25,4.25,0.75v18.875
		c0,0-4.75-1-8.375-1c-12.5,0-17.25,8.875-17.25,17.75v32.75h-17.5V379.45h17.5V388.95z"/>
	<path fill="#5D2D7A" d="M603.28,447.324h-19.25l-17.375-27.75l-13.125,12.625v15.125h-17.375v-94.25h17.375v55.5l29-29.125h20.375
		l-24.75,26.5L603.28,447.324z"/>
	<path fill="#5D2D7A" d="M614.03,428.949c8.375,3.625,14.75,5.5,23.25,5.5c8,0,11.125-3,11.125-6.5
		c0-3.875-3.875-5.625-14.375-7.875c-14.625-3.25-25.25-8-25.25-21.125c0-12.25,10.125-20.75,25.875-20.75
		c10.625,0,19.125,2.5,26.5,5.5l-5.75,12.75c-6.625-2.5-14.375-4.375-21.125-4.375c-6.625,0-10,2.375-10,6c0,3.75,4.125,5.5,15,7.75
		c15.75,3.25,24.875,8.75,24.875,21.125c0,12.875-9.875,21.375-27.25,21.375c-11.75,0-19.375-1.625-29.375-6.5L614.03,428.949z"/>
	<path fill="#5D2D7A" d="M740.904,409.449v37.875h-17.375v-37.875c0-10.5-5.125-15.625-14.75-15.625c-6.125,0-11.125,1.875-15,5.125
		v48.375h-17.375v-94.25h17.375v29.875c5-3.125,11.25-4.75,18.125-4.75C731.779,378.2,740.904,387.45,740.904,409.449z"/>
	<path fill="#5D2D7A" d="M826.529,413.324c0,19.375-16.625,35-37.125,35s-37.125-15.625-37.125-35
		c0-19.5,16.625-35.125,37.125-35.125S826.529,393.825,826.529,413.324z M809.404,413.324c0-10.75-8.875-19.5-20-19.5
		c-11,0-20,8.75-20,19.5c0,10.625,9,19.375,20,19.375C800.529,432.699,809.404,423.949,809.404,413.324z"/>
	<path fill="#5D2D7A" d="M910.527,413.324c0,20.875-15.5,35-34.375,35c-7.25,0-14.125-1.875-19.75-5.125v26h-17.375v-89.75h17.375v4
		c5.625-3.25,12.625-5.25,19.75-5.25C895.027,378.2,910.527,392.075,910.527,413.324z M893.402,413.324
		c0-11.125-8.75-19.5-20.375-19.5c-6.5,0-12.375,2.25-16.625,5.875v27.25c4.125,3.625,10,5.75,16.625,5.75
		C884.652,432.699,893.402,424.824,893.402,413.324z"/>
	<path fill="#5D2D7A" d="M926.026,428.949c8.375,3.625,14.75,5.5,23.25,5.5c8,0,11.125-3,11.125-6.5
		c0-3.875-3.875-5.625-14.375-7.875c-14.625-3.25-25.25-8-25.25-21.125c0-12.25,10.125-20.75,25.875-20.75
		c10.625,0,19.125,2.5,26.5,5.5l-5.75,12.75c-6.625-2.5-14.375-4.375-21.125-4.375c-6.625,0-10,2.375-10,6c0,3.75,4.125,5.5,15,7.75
		c15.75,3.25,24.875,8.75,24.875,21.125c0,12.875-9.875,21.375-27.25,21.375c-11.75,0-19.375-1.625-29.375-6.5L926.026,428.949z"/>
</g>
</svg>
